<mxfile host="65bd71144e">
    <diagram id="p-y1SUnGErYenY8pcY8p" name="Page-1">
        <mxGraphModel dx="654" dy="1142" grid="1" gridSize="10" guides="1" tooltips="1" connect="1" arrows="1" fold="1" page="1" pageScale="1" pageWidth="850" pageHeight="1100" background="#FFFFFF" math="0" shadow="0">
            <root>
                <mxCell id="0"/>
                <mxCell id="1" parent="0"/>
                <mxCell id="2" value="&lt;font color=&quot;#000000&quot; style=&quot;font-size: 16px&quot;&gt;電源スイッチ ※&lt;/font&gt;" style="text;html=1;strokeColor=none;fillColor=none;align=left;verticalAlign=middle;whiteSpace=wrap;rounded=0;" parent="1" vertex="1">
                    <mxGeometry x="20" y="119.99999999999997" width="130" height="30" as="geometry"/>
                </mxCell>
                <mxCell id="4" value="&lt;font color=&quot;#000000&quot;&gt;&lt;span style=&quot;font-size: 24px&quot;&gt;手前&lt;/span&gt;&lt;/font&gt;" style="text;html=1;strokeColor=none;fillColor=none;align=center;verticalAlign=middle;whiteSpace=wrap;rounded=0;" parent="1" vertex="1">
                    <mxGeometry x="200.5" y="40" width="70" height="30" as="geometry"/>
                </mxCell>
                <mxCell id="5" value="" style="shape=image;verticalLabelPosition=bottom;labelBackgroundColor=#ffffff;verticalAlign=top;aspect=fixed;imageAspect=0;image=data:image/png,iVBORw0KGgoAAAANSUhEUgAAAl0AAAJMCAYAAADACBMVAAAgAElEQVR4AeydZXRd17W2vzHuuNT2timlDceBBhq2k7ROIdAwp2mYmRndoMOJw+BwHDOTLFmSZYHFzBaYw0mbtJfvv/mNZx1NeftEcCTrHNH7Y419zua91rvnfNaca+/9/5YuXWoqqgNpQBqQBqQBaUAakAaSq4H/pwpObgWrflW/0oA0IA1IA9KANIAGBF2K9CnSKQ1IA9KANCANSAMp0ICgKwWVrB6OejjSgDQgDUgD0oA0IOgSdKl3Iw1IA9KANCANSAMp0ICgKwWVrN6NejfSgDQgDUgD0oA0IOgSdKl3Iw1IA9KANCANSAMp0ICgKwWVrN6NejfSgDQgDUgD0oA0IOgSdKl3Iw1IA9KANCANSAMp0ICgKwWVrN6NejfSgDQgDUgD0oA0IOgSdKl3Iw1IA9KANCANSAMp0ICgKwWVrN6NejfSgDQgDUgD0oA0IOgSdKl3Iw1IA9KANCANSAMp0ICgKwWVrN6NejfSgDQgDUgD0oA0IOgSdKl3Iw1IA9KANCANSAMp0ICgKwWVrN6NejfSgDQgDUgD0oA0IOgSdKl3Iw1IA9KANCANSAMp0ICgKwWVrN6NejfSgDQgDUgD0oA0IOgSdKl3Iw1IA9KANCANSAMp0ICgKwWVrN6NejfSgDQgDUgD0oA0IOgSdKl3Iw1IA9KANCANSAMp0ICgKwWVrN6NejfSgDQgDUgD0oA0IOgSdKl3Iw1IA9KANCANSAMp0ICgKwWVrN6NejfSgDQgDUgD0oA0IOgSdKl3Iw1IA9KANCANSAMp0ICgKwWVrN6NejfSgDQgDUgD0oA0IOgSdKl3Iw1IA9KANCANSAMp0ICgKwWVrN6NejfSgDQgDUgD0oA0IOgSdKl3Iw1IA9KANCANSAMp0ICgKwWVrN6NejfSgDQgDUgD0oA0IOgSdKl3Iw1IA9KANCANSAMp0ICgKwWVrN6NejfSgDQgDUgD0oA0IOgSdKl3Iw1IA9KANCANSAMp0ICgKwWVrN6NejfSgDQgDUgD0oA0IOgSdKl3Iw2kRANLliyx7srixYutL6Wr/fj2XS3raZ5vFz/taRs5TzlPaUAa6I8GBF1yuClxuP0Rp7YZOUYNoJk/f74tWLAgTOfNm9c5nTNnjs2ePduY+u9Zs2aFeUy9sE50vblz55oX35apz2PKceIL58E8X2/atGk2c+bMLY7t+/F1mVLYhmvgeqTPkaNPtaXaMlUaEHQJuuQ8pIE+a4Ao0KJFi7aAKIcbwMQhyEEJcAJsHKCY+jKf+jYOPPHQ5OAD9FAWLlwYCucRXzxq1VW0CuManc+2rB+dx283wtH5vp4v4z/bcy5RoPRz5Jz9XFnXt9NUTl4aGJ0aEHTJ4coRSANbaADIiMIE4ABQeaQHSAKaZsyYYVOnTrUPP/zQpkyZEor/fv/99+2DDz7onMd8CvOi89meSBNl+vTpnWAGoLH/KJA5hEXhy8GLaRS8OP+eSnRdoIj/8XAVXSd6HJxlWlpaWJ91PGoGLHK+UXj084/Clx/P9xk9jsBsdDpiAdjoaXdBlxzuFg5XN//Iv/kdLhyscPoOAEyBCGAB6AGU3nvvPXvnnXdCeeONN+zVV1/tLC+99JJRXnnlFXv55ZfDlP8vvPCCvfjii+G/r886zz//vD333HOdZdKkSUZhvm/j2z/77LNhnh/D9//aa6/Z66+/bpzL5MmTQ3nzzTftrbfesrfffjuUd999N5w38BcFQoc8pl6AQK7VI3UOUUBefGHZsmXLLCMjw9LT08NvrzNgCxhlG8CK+qWuuadYn8K2/Gdb395/+3T58uVhXcAuej96u0Xn6ffIv1/VxiOrjQVdgq4tDLtu8JF1g8e3ZxS0PFpFlMkjUEALQAPgAEcTJ060hx56yB5++GH785//bPfcc08o999/f5jeeeeddt9994V1mMfvu+66y2677Ta75ZZb7MYbb7RrrrnGLr/8crvooovsvPPOsz/+8Y92+umn28knn2wnnHBCZzn++OPtuOOOs2OPPdaOOeYYO/LII+2oo44Kv//whz+YF5azLtuedNJJdsopp9hpp51mZ555pp199tl27rnnhmNdccUVdt1119mtt95qd999tz3wwAP22GOPGTDHtQF6ABxASR0ASwAUdQYAZWZmWk5OTih5eXmWn58fSmFhoRUVFXWWVatWGcuzsrLCtkS1mLd69Wr7+OOP7dNPP7Uvvvhii/L555/bZ599Zp988olt2rTJNmzYYGvWrAnb1NTUWHFxsWVnZ4eIGvBFu3F+QF98m+r/yL5n1b4jq30FXYKuATfiRE58HItHUHAWHgVw58G8+ELEwdNM0bE9bNNdIRXFNl662n90W9bnv5+bRyVGonHDWXN91CURK6JDRI6Ajscff7wTpu69916744477KabbrJrr73WABYg6U9/+pOdccYZduqpp9qJJ54YwAfoAXTOOeecAFNXXXVV5/oAD+sDQ0DS73//e/v1r39t48aNs4MOOsj2339/22+//Wzfffe1ffbZJ0x/+ctf2gEHHBCWjx071g499FA7/PDDw3a/+c1vwj4cvhy4HLY4L4CLYwJdZ511VoA6wA4A4/w5T84rWpjPOtH1mefAxjUBjYDmU089FaJp6AvNELFasWJFAC3gygEMGON/QUGBlZSUWEVFRSjMq6+vt40bN9pf/vIX+/rrr+1vf/ub/f3vfw+F315Y9tVXXxlQ5kDGduvXr7f29vYAZQ0NDcaxiHwRkeQe8ojaSNEw1xNvQ6h7T9/6/RxvPwBe7AxthS1J1IZ4ZNdtCP/ZV3T/fkymLKdEbQh2b6TUv64jeaAn6BJ09WooMIAYFAwQwEJahsgIEQJSOh4ZIT2EM8dJ4dCJkjzyyCNbOHacWHdlwoQJnZEUIiZEJh588MHOSMujjz4aIhVPPPFEOMYzzzwTUlOkpzg26SvSTZwbkQuHqyhUkd4hckAKB8cZH8nAYRLRyM3NDctYhwgG2zlMAjKUoezoODcHLdJ71A/1Rx0TiQIoiAJdeeWVdskll9j5558fAASYIopEpOm3v/2t/epXv9oCmIAjIAoAA3YAFeCG30SegKPx48cb8ARg7bXXXrb77rvbrrvuajvvvLPttNNOofB7l112CfN3220323PPPW3vvfcOQAacsT3gxb44D6JenFMUuoiUeZSLyBngFS3M47wAM9blnLk2YJDz/N3vfmdHHHFE5zUecsghdvDBBxvTww47zAA+1mUfAChAinbRG+lL6hddoCEiXcAVEarS0tIAYvxnPhEz9FRWVmYAEwBF9Au4ArKAr//4j/+w//zP/7T/+q//sv/+7//+VmE+y1kXcGMftbW14XholqgYjhJdDjWH6fYjCkTYEFLXpH+xI6SHsSPcw6SlqeOnn3463OdPPvmkcc8TpSTqik3BtlDQdLR4ZJZ2wna4zcAesR/2GY100gHxdDXHx35wPpwfcMU5U6fYDGAbW4BNoL5pd9qYAgTT9rQxpby8POiAeUA5bcT62B3aB1syFNtqqGlnJJ6PoEvQ1aWRxlB6zxIDRJQEo4TBwrBh1DwyQlQgGhXBEeLgcJCeJiLiQcHZHX300aGwzFNGPiW9hGP0SAYOD0dKRAIHT3rqwgsvtEsvvTQAA+Bw8803h3MB1DCyGFfgD+Pt6SMHMXrBGFKuDyOKIcRg4igrKyuDI6urq7Pq6urwH+NJ1AKnyfq+nY+/YTqUDAPnB2TSY6e9aCtSgA5ZtNVll10W6pAIEPUKlFDngA0QAuwAPQAWUShgCHhiynzWveCCC0KkiG2BLdoPiGFbwIXtfvGLXxhABVzFA1d30AWosT2RMYAP6AJ+2LfrpzsNoTfXkU/RmBd0x7ZcJ/sC5hy6iK4BWwceeGDnNQOCnD/QyPUDg2xDnRENpFMAzKItHDSO2SNg6MVTkjhcnC1twzosIwrW1NRk69atCxGtL7/8sjMC9u///u8BwqIA9j//8z/2v//7v52F/ywHwgA4NIuW0SLHGQqaBCoAUzpAbj+4LwEoT1dHOwCkoLm30SVRSCKX3P/YE4dm7Ar/AepocdhmGy8e7SR6iV6xUWifjgYp7+uvvz7cF5wDqXGHNOwH7cr9Q6eS9vUxf8ASoA100b7YhqqqKmtsbLS2trbQnkQmP/roo5A2pn0pLS0twba4LQHeKOyH/dFmQ6XdhoJ2RvI5CLoEXV0aaIwLPVEghjExGCkMFhERjBrGD+eFY8QZkS7CSeGgcFTurJiHw2I5TtyjCDg7j17gtDGqOHCMJ8YSw8uxKBhMjDGF3z4fAGM9YAxHyLZR4ItGM3De7sBxzqyP8WWMEr1qBltzo7shZVwNUYnm5uaQ0sFotra2BsPKbxwmkMb6Q8lAAFxED3AgwFY0XQioUoc4Ia4fh0bdAyXxUS1SgKT/aDsHLmCIdqK+qWvay+GaunZgo42BJyDNo1xEuHbYYQfbfvvt7ec//7n97Gc/s2233Tb83nHHHW3MmDFhfbYlkoY2ACfaKn6cVzRC5YDoqUt0xnEBvj322CMcn3PgN1qML74OeuUcohE5zne77bbb4nw5b+axHmBJvaFHgJ9xcDjn+KjIypUrg3MF0IEQ9IYz5zdOF7BHZ4lGwAAuh7D/+7//CyBGFIzt6UB4p2IwdQlAEBmnk0bn7Oqrr7aLL7443K/AEm1KO2I/HNJpG28H2oLibec2BCgG/NkOGEd36MRtiHfSosCFnXA7ErUlzGMZ94PbEM4NG+IdCbchHAt9095oEhsIJLr9oGNKpwyoIpUMgNEewBdQTLoYsCa66YX52BI0wH1LGcw207GTl1KM1q2gS9D1rRudnik9Usb5EEki/YRxctjCEOEYcZA4HgyiOy+MpBtKBy6cN048Cl2eNnKjGY1uYfg4FoYTYwhYUTCOnIcbSv77MtZjfbbz3rEDARGOeEeN0caIEvHAwLK9Ry9IxzFeg54o6QGiXhhSQAvnyJRB0kyZT08X+MKpAqvRGyyVv3Hi9M5JwRDZoiePs8M50Ib09Kk70oEOqFHook2J+OAEPcrl4AXM0FaAFu3jkQfaDacXX8dEqqL7AYTQAzqhoBmOQf2zP4CQiCXwwvkToSMlRFSEyAPFU0wsI8XEekSbiFI4YDIWjbbEqQNknDeABOw56P30pz81CtBHYT4guN1229v22wOGscL/n/98O9t225/ZT37yU/vxj39sP/rRj2ybbbaxH/7wh+E/27J/IBPHTL0CuqS+iZDgSNEF0QxgjIgY0VfahnPlgQPSZjzAQGSIVBVRK8Zv4bAZgN9VCpIoF+AFdDl4ESFj4D56BHgGS4uAJ2AJkNBZA/S5N9EO7UKb0zaAskdEsRkOWky76rTFR0H9/kV7aDBqQxy+6FzEj+1zG+JTtyPohnXdhrjGgSyOwXlzzGgHjs4B18Q2dErRIddOHQBTdMzorAFgtA0PTzh8MQXGWIYdIQI6WG2WSjs12o8l6BJ0bQEJRLdwGES3ouF+jApGyKMijHmh14lT86gChtJ7qjgiCsYUB4txxQkDOxgvN5KAEfuld0nhN6lFCsuAAowphg3jx/ExgABAVwUjyP6BLJwgBpJjRtNHHsXhvD3yAVwAkWzPtZKGAwBIUTI2jF4sUQQcGmNpSCd4FAwAA8xII7EejjaVqQKORSo4ClwAJJE8HIEDF718HEzUsVDP1G3UqVBfQBP1QRvzm3qhfXCctBHtwna0I21CW1DvRAJwTOwDx+r1joMFsiiuA7bHIQOIpJtwVgAJ42qIBDG2hsL4KS/ACcsYA8R6XHP0SUucHtfMdXFsAI/IFLD0/e9/3/7t3/7Nvv/9H9gPf/gj++m2P7MddtzJdt9jL/vlfgfZ2HG/tvFHHG1HHnWCHX3MyXbMsafY0X842X77u2PtsMN/a/sfMNb22GMv22GHnQKE/eAH29j3/u3f7Lvf/a5973vfCyBGdIxrpZ5uuOGGMCaJKCpATASKKZFI7i3qizqi/mgTOjik7UltcR8CaWgOrfF0Iw7aB+EDWA5e0bQjY8MYgM84ImAv1eOGOG/GTQHQtC0gA4iiGdobHXFPEq0CorjvPMLlNoN0tBfmYVO4V7Eh1K2Pt0Nz6I/9YiPQpNsL/kcL62A/XK/ovSc7ErUhrmfXMvdEvA2hU4G2aU/OgWvHhtJxQMO0JVEwOmq0JQDm0S/G6NFmLKPzxr2c6nYb7SCUyusXdAm6AnR5OsANJo7anTS9VKIRODIMF8YOoMH44UAxnl3BF4YSQ0QEhe2AGaItRF94lQDOFsNE4TfzcDzR6AznQDSLHitOH6OJY49CH1DHsaIQ5TAVnXqUZcyY3QIQ7rzLLmFQt6e8YtGO7UIaDFgEOjCg9NZJ1wEEOM1oBIwUJMYSAAPGGIRPNCOVRhMjjWMn8oOzA7iARo9wkdbBCZBO8V59fFSQtsVJUb+0bxRaHQrceVInDsCs66BLuzjo0uZR8ALccLRMWcY+OQfOlYgqzolXOABQRBqpawpQFS3MYzkDrv19XnQSSIPzWghAkygHx6DtiUT94Ac/sO985zv2r//6r/ad73zXgKVtf7ad7brbnnbAQYfa7488wU4743y76JLr7bob7rXb7njE7r7vCbtvwlN274Qn7fY7H7Zrrr/Lzr/wajvxpD/a4b/6ne29934B2H704x8HkGPf//RP/2T/+I//GI6Flrg3uEZAinP2cYWkoki5UVfRFCvnyzbAAO1EW1IvACcAxQBt0lG8YoIoyTfffGNR+CLyxSB85pG6ImqWKmfi4I/94B4misS1oxkA1OHebQfaQA8AjEfLuX4Ay+GLKfcsgMP9js6AN0AOTRMp5N5EQ16iusfWoPtodJft3YYAUd5x9JR01F5s/r25c8Y8zmm33WKROeBwp512DjbDU9G0PSlz1kXv2C1sGzql7XmwwiNgtCXwRQHEsCMAWqraTcdJTUoxWs+CLkFXuMGJzvA6AZwBqR6HHQxcvIMmAkXPEeeAIcR5YES9J4ihoXeIocUokg6itwccACyACT14UnfR4o/e4yxYx8fCeFqGwbikPRn4ijHFcQN8GGoMHikjUkCUn/zkJ50pJIwgKaMdd9zJdtp5Z9t5513CdMeddrLtd9gxpJBwzmxDRAQnvTkq8v0wjzFJQBjwR1SGFCwDlxkQDWwBXxSMKQ4ylYaTVCgpqttvvz04vGiEy4GL9oyOYQFkia7QtlwTQAxYe2oW50Q7ewSB/xQHM2974Cwetujt4yQpDls4WOqPKcuJJOCMgHuAmxQh4ARk8PQrzhsnxTS+sJxUI+sDmsCWO3qcOqDPQH10QBTqn//5nwMQ/cu//It973v/Zj/5ybY2ZsyeNnbceDvplD/ZJZfdZLfc/pBNePA5m/j4q/bUM6/Zs5PesOdfnGwvvPymvfjK2zbpxXfsyWfetAceesGuue5uO/nUP9khYw+3nXfetSPqFQM7wOsf/uEfwjHREakydMo1cj3cY0TpuAbql3WIvhEpo/Cb1CV6ZFuuhWsCoKkboq7cH4A+DpvxQbxuIvr0I7+ZR8qKgf1Rg5+s33QyuCe4NwFGNOV68uio2w0HezQQjSI5hHHNHtFiG/TMPUfdcf1cA3aE+w8b0VVhGek9AMcjftwn2CH0hJ3jfqBuAS/qGhuCDdjShpB+xn5sH0Bq5112tV1Dpw04HGO77LJrgC63Iz/96bb2ox/9OKSg3YbQpuwTiOSeQPNE0Hm4gjbysV9AF4PwiWymqt2SpQftt3uYE3QJuoIRwyCRTiPKRA8Rw+nAhQGlx4pDxoDiLD0y4iF7D9UzxTHj0OndMRaHdApGGUOIwwC0eFowvhB+dwjzx6wxqKTsGKOCwcTZ0qsFADDSGDJgi3E2GDmiGDjVHXbcxX7xi33tkLG/sqOOOcnO/OOFdsllN9r1N95rt97xsN1x10S77c5H7Pqb77dLL7/JTj/zAvv974+zAw8ca0TCGMuD8cQp4gxx3hwD+OK4XB/jiXhKEEAEvkgxck0YU643FdEu6gUnDniQzvKePuAMcHlvHwfj0EXP3yNetHE8fNHWUYdJm0ejFVHgArhxnB7ZwqkA3w5bgBbRG5woBQfHf5azDU4Px8oxAUHOjfMEEuNB0c/VHToaQH+AH8ckYoIegGzgGWfnEa5YlOs7HWnAH9n22+9ke+29n/1q/FF26unn2yWX3Ww33fKA3XPfk/bgw5PskYkv2MTHX7LHn3rZnnjqVXvsydfs4Udfsnvuf8quuvYOO+W0c+3Qw46wMbvtbtv+7GcBlDgexwHyKBwbZ0vUlPMEHoh6+fg0QJd0JOugLbZHZ+wjBojfC8vQHPXGfcU+AGwAB90R+SKqRYqKyJe/+4vfOHH0iEaS7QQ5BtFgok/oySHe7QVtRTsTJY2m+mh/Om5ReAfiAVU0wdg3Om2klDkGY+P8CVGun3Qc02hhHoUxUt5xA7zYnqgh9ec2BH0CXEQc3YZs88Mf2k+33dZ22mmXoBFSy8efcIadd8GVIRJ65z2PB0B/8OEX7YGHX7C773/Srr/pPjvvgqvsD8edagcfcnhIQ2+3/Q5GJBS75DbEQZzr5V4lsst5Alpr164NTzoyCB9gTIX9SLYutP9vw5egS9AVBm+SnsJp0wvD8XUFXMAWBQMKdGFAcQQOXkwxqBhaIlFEXhinQ0id9IMbS8Y+AV8UIl4UfjOfggHFEGF4MLKk9AALjK8bSwcueqYYte9+lyjB9+1HP/6J7bzzGDvgwHF29B9OsQsuutZuv+tRe/ypyfbKGzPt3Q8W29QZy2zG7AybPivDpkxfam+9O9eee+F9m/DAc3b1tXfYSaf80caO/ZWNGbNHGESNocSB4khxiPzHkeIYAEscAufJeXP+XCfjd1LxNBJ1S8+dSApRRZyeAxdt4PBCm3px4AJyHGSIeEWjXjg8hy8HMJxmNErRHXDRNlHYAhiIXhCV9MJ/4AtYYowPUQ/2jX7QFIXf7qCp6yjssQ2Axz5IbRPtBGDQQxRg4qELqPnBNkSStrPddvuFHXzIr+wPx51mfzr3Crvy6jvsltsetLvvfcLu//NT9ucHn7EHH37OHnrkeXvgoUl274SnA7AD6aQZGQO265gYdPmYMZyrH5Mp2qRTABByfbQJA+0ZZH7BBRfa2LGHGtETIN/PnXMEuhze0Bz7ByiBVe5B7lWiJTg1Iq1ES4AvBt4T/SL9yKBtnsLl3kum8yOCTccKQEJjDsVRW+HA5e3qNsM7aw5fABhtjX1Bnww9ICoILAFNRJCJXnGP0YnrrrCcaBgdNq6fTiX3aRS40CnARftstiFEQn9qu+wyxg48aJwde9xpdukVN9u9E56xSS9+aO9/uMxmzVtpC5eusqXpxZaWUWwLlxbYjNmZNvntucHO3HjzBDv9zPPt0MPGx/Sx7c+CJtEDkVDaE8jjXgBOiWAygN7f40bEnOtKZptp39+GoVTViaBL0BWMGeNmiHLhFDB2nlLE8UZTThhDN6DuFHEmGEoKv1mH3i69ctJGPDYONAF2RIZIEfC+LArGkCnzeOKHHjyDcUklMlAax+KvrcCgY5QZ40HvnwgBoIWTwtnhTBmrs8eee9uvxx9pfzz7Erv9zkftuRc/sPenptu8RatsaUapZWSVWdaKMsvKKbeslRW2PLvCFqeV2rRZK+yFV6bZzbc9YCefcrYddNA422nnXUKv9wfbbBOOgzPEcBKVYNwGqTJgh/PkWnAKRLq4JpxEMm9kesI4EurYo1w+cN6By6NbgJYXh60ocOEoKTgBB64odAFeQDZt7JGJ+AhXV9GtKHDRbl5wOCwDzoAn9sV+ccKuJX67U2YZYAboAVzUO04TeGNMH0BCeghNeHTS4Qcn5yVA1w+2CYPod911dzvwwEPtqKNPtDPOuiikGa+/8T679faH7a57Jto99z1u997P2K6n7d77n7I77p5oN9x8v11w4TUhonHQwYfaLrvuFsDc09LowqMaTHHmnBPnx/kCHbQJ6dArr7zaTjn1TNtv/4Ns9933DOlvnLEDnDtpT1eyb9KOjBWiDmhjOiKMISRC7NESUlQUBmyTviLak8x0NzrHfniUC914ZNRthYO0wxZtHG1bb1/XAOujOdKqpCyJDjKOjwcpADxsBLaCTke0MB87g/3wT1oxVhAbwpOi1D2Ah/6wIZs7bd8NHTci5QDwnnvuE2zI2edcZnff96S99NpMmzk319Izaywnr94KipqsqLTZSspXW3HZaissabGc/CZbnFZuk9+eHyLpp55+rh1w4CEhBUm7kTZGE9gQ9Mh/Om/cV6TJsX+eDfAOZzLth/Y9OOAl6BJ0BRCiNwkkERnBGeOA3eliQOOjWx6BcOCKOkiMGvMxuDhxDB3GEzgBDujpe+G/D573KA3OhHMA9jDSOBgcNM4G0MGAeUoGB0shuhGeSPvptrbzLmNs/wMOCU+eXXzpDSGC9fKrM2zK9OU2d+EqW7S0yJYsK7al6SWWllFqS5aV2twFBaEXO+nFKXbrHQ/Z6Wecb+MOHR+iXRjheGcec94/CNEVnCkRQl5jAFziDIBLol3JNGzsn8HkRAOiUS5SivGpOUCrK9iKRreiwOXRLdqA3xQcIc4S+CEF5ONxgCaAKxrd8lSiR7iALaI9XviP44tGu0i54HQpHvngWNHUk6cxiZCxLfvhAQoGNHtaEdDBuTl04eTc0dFuPL1ICpqI6H77HxKeTjz1tHPtwouvtWuuu8tuumWC3XYH4PWo3X3vY3b3vY/bXfc8FgbYX3vDvXbuBVcGbREJQWuM40F76NBThN4RiIcuHCxtg+ZvvPFWu/iSq+yI3xy5BXi5vh0ecdAe9WK/OGtPORJNIrUMZBDVIZ0IaAFgDMomakIEJZnQhQ7RPfc4ekIrnJcDV3xEvDvgop290O5oADuDBtFudPA89UdkjSnRbzqMnlrnXqSO2SZqQ9AkNoS68zqmLq+jw1MAACAASURBVLEdMTsSsyHbbvtz22WX3cLTqkcdfZJdevnN9uAjLwaYmj0v35akV1hmTp2tzG+wvFVNtrKgyVbkNQYgmzO/wF55fZbdec9jdtYfL7ax434VBt0zJsyHQbhG0Ch2hWgbHVXgko4mkX2lFgcHiJJpr33fgi5BV+dLUDGaABJRKocujJanCdyI4ny7gi53lEwxrKwXNZhAHQbSDWa80XToAhowmBhvjtMbdOFE6aF+C7qOOckuuuQ6u+/Pz9gLL0+z9z9Mtznz823B4kJbtLTQFqcV2eK0Ylu4pNhmzllpb723yJ585q0wPoMU48GHHGa77sog/e1DjxgDjXHGkTLlP44ep8814xRwgPTKMZ7AVzLBiwgDrxcAYKNPfHYHXYBsV9Gt7iJctJ0XwJu2AK7jI04AEOCZCHSRCqQAX0AXjpDtgSlADqfL/r04cEWjaqzPsQBx9kW0wB2pR4mAE2AF2AJYHLoAMaKjP/7xT23HnXa1fX95kI0/4piQLjznvCvtyqtvN6JdN9/6gN12x0N2592P2J13PxoipqQeGUR/znlXhHGC+x84Ngykj0HXD4MucKQcm+Mw7Q66uA+uve5GO/+Cy2z8Eb+3/Q84yPbY4xfhIQ8gHwcdi55tHuvFPtk/2mO5R89oI8CbVD6wz/gloluk7RknSeqeVHeyHDk6J5KE/h26uop0xUe5HLBpa29nNOA6YDmdNzp8aBTbROocO4Le6WhQHLiYjw3rCrrQD1rjXnWtADxbQlfsnua9bKQX6bgdefSJdsnlN9qfH3reXps8J0S7FqeVWXpWtWXl1NqK3HrLWllvGdm1tnhZuU2ftcKef3FK0A+RLqKhY3bbIzzIExtkH3vPG20I7BFp43zQNHXHkAxPpxLBdEet6ciBMEGXoCuE6xkUTmqKFJ4PhCXShUHvDrowiNFIVzx04aQxvuyP6JVHu4AuLzgfN5xR6CIVxvHZBwazp0hXt9B19EkhenHfhGfshZemhkjW7Hl5Nn/RKlu4JAZeRL0WLC6yGbNzbPI7C+zxpyfbtTfcbSeefJYdfMihndDlTtB7xUxxivSYGU8ENGA0ASB/0gpHx7iSZBlM0pk4Wo4Z7eV3B10e6aI9OFcKzswLkS4v1L0X4Jd2xGnSxjhI0nxcM2m++CgXbYWDIxLFlP/RiJenFlkGrBEpA6zd2TpwRZ1xFLo8ssb+2ReP+wNePLHoL0HFmdE+OFUv/MfR4lR52my33fYMjnX8+CPt2ONOtTPOvMAuvOgau+LKW+ya6+6w62+4y268+R678eb77Iab7rVrr7/LLr/yFjv7nEvtqGNOtAMPHhcG0gPl7NsjbPHQxTIicYAiHRHgAc1ffsVVdvoZf7Rxh/7K9tvvAPvFL/YKD3H4KwiAL84V7XHeXrg2dEfUF4igPmgf9kmaitdTkGZDf6S60SDRk2S8eJNj8FQhqTvucTTleokOReC6+wpdtL9HzNEitgmgwk6gd2DLC/+Zjw0D/uIjXVHoQifRSBcA5AWtOHTtd8DBduTRJ4QHcCY8NMlenTzbZsxhPFeJLVteZZkragJ4Za6otfTMalu4pMSmzcyy555/3268ZYKdcuqf7KAOjfD0NNAVBT2ORVsyFpF7hPrCLhIxp9PG/Z0s26H9Dh7ECboEXSE1wZOL8dDlxhPocgPaXZQrfnwG/zGybIshxgj2BF0ODfRk4yNdiULXNrzwkvTizmNs//3H2tEd0MUg2K6gC/CizF9UaNNnr4hB11OTwzuZTjjJoSv2KHlP0EV6AGgAZni3kqcZGZ/BKySSFWFg3Bjj5bqLdFHnOHicFaWrAfScsxcHsejUgQynR3tG2xn4cgDj+ikOYoAAQEbhdSLMpzdPYVm0RNfx/fi+ov99Hvtje4ANcCPFyLgu4BeHihMjAoljpd2YAjA77MDnhnazvff+ZRhrM+7QX9sRvyEqe6KdcOLpYRzfqaedY6eednYop51+tp12+p/szLPOC+WMM8+zM8441049/Wz7w3En2a/H/8b2P+CAAH3s11/oGXt3U+zD3kSjACOcKqDK/QCcAAsXXXyJnXgST+HyviiuI/a+u7322vwZI64JfbEfih+D38wnXcb1U7/cowAHr0PgKV9giHFCDHTHgScDuohy8SAHwIfW0I7bDbcZ8enFqIYcrOMjXQA4y4iYE2FHf+i3N+jyh0gShS7vRPUMXTfZhIee3wxdS4otbXmlLc+uCeDFFAhbsLjYps7ItGeBrpvvt5NPjY0L5QlXTy92B110Sqgvov9EDQVdgwdFyQZSQZegKzwZ1BN0+XguTy8SfYr2WqNjNIiEUJjXFXTFpxdDmqVjTIb3VIEuj3QBeTgroho4VpyOv5OLCAKFtCLlxz/+if3s59vZLrvuHp5ePOaYk+3Ci68LT509/9KH9t6UNJs1NzekGOctzLf5iwpCmbewwKbNyrY33ppnE5983a6+9i47MUDXYcFJR4/nRjoa6cL54fTioYv0DuNqiAYk4wkyHj6Ihy53Ojh2HI+DVxS+HMCoYy9Ewborvg7Ok4JzQBMUnCHRMRwtv4mMspwIBe1P4T+RmGhUFIcKTEcjZQAUzgeIIP1I6hBYIZLGetQxwOXQ5RE2j3YBKO7ciCIQeaLQVsA443QYh0WU6pTTzrE//uliO/e8y+zc8y4P0Svm/ea3R9ve++wb0nzsi7YH5IAcXorJ+QENXM8pHdfk14VWgSqW+b3Cf+qPtC71S7ugc6ALQKK+AAzqAqjk2rhW4JTr87QtdePFI4ecC7+5N4BQ9sNxaV+eqgX+iXox0DxZ0MXLanm5LdeztdDlEM91dAVdXBf67i3SBZhRz9Q3usReYUOINBIVpS1pWx5aAILcjjAl8kSbjxmDDTkkaOWSy28K6UUiXdNn59j8xUW2JL3clmVWWkYWpcrSMipC523KtAx7ZtJ7dsPN99lJQNfB48KYLjoCfjy0iSajkS6HLiJdgq6RC1wAnaBL0JUwdLnDxYlSMPA4GqbuhH0ZzoYoCQ4HA0gUjd4wzoDIDIXfFAbT08OjAGEYcKJiOCW2x6mzX0AOw4yDcue0RcSEiEqItoy3o4461s444xy74sob7Z57Hw3vWnrp1Sn25tuz7M23Z9tb73iZY++8t8DeeGuOPf/S+/bwo8/btdfdYWecea6NP+J3ts8+sdcReEqiO+jCYQJdXJcbTV57wUBm0ju8UmKge1AOXUTXqFsf0+LgRf0BsNQ/xSEsCmI4ynggw7lFC9t6hIF2ZP8+5ZhsT/sDGwFGOl4tAlBQ0Aeg4lBBmzkwRUELyMIpAtcUPhEDVAAgAJeDiU+Z59DG/v3hC47HMXCuDky7776H7bPPL23s2MPs90cda8efeLqdchpRrPPtzLMusLPOvtgYg3PEb46x3Xf/xRbvbWLgM5EQomYANsfHmdPegBfaBLy8wwFQ+rmhVzRMfaEN3tPlL/ilfTYDGvfSlu+wcpiLRoYY5xQfHeIYzPeoEPcdxyPixfhCBrknC7qIcnH/AkLoijrpLdIFiANCXJ9fI1NsSbRgb9yOoDE0iN7QunfeosMUmMcy7AfrUQdoN2pDOI4DfxTiHeaZB6D99ne/t6OPOdbOOPMcu+raW+3+Pz9pzz7/lk1+e5a9+/4CmzJ1sU2dvtSmzVhqHzKdmWFTpi2zyW/Ntieeet1uuuU+++PZF9hvfnuk/XK//W33PfYIeiQl3BV00XFAtw5dRCmJZA+0zdD+Bh/oBF2CrvB5EsYhOQA5BDHFUeDUHZL4Hf3v62LsMIruwDF09DSZRufxn4JTx0jjeDCQGMzowHrSjRhN1gG6MNI4bZwwzpiUjX/WB0d9yNhxdsyxJ9rFl15jt93xYHi30lPPvmGTXnjbXn19mr382lR76tnJdtfdD9tlV1xnF150uZ1/waV23nmX2HnnXxaeIrviyuvt2uu4vtvtxptusSuvovce+14hDh1n5iCBMwA03CkAN5y/f9IGx8ogel7ySpoxGdDFQFteVcEgao6Ns8H5AayAEe1BiYcvh7B4EKOu4wtt5+1EGzsMs60vC/DRAVrUR7RuqCOcLGAQH6GKApcPrAceWB/nyG8iHg5rwBeRH4qPF/PoD+vgsNEJzsu35/jo7ZprrrW7777HJk58zCY9/4K98urr9sbkt+ytt961yW++Y2+88Y698OJrNmHCwzZu3GHhLeT+lBkD8hmnhbME4jgWUb1TTzvNDj/8V3bQQQeHyBygSLqP8WXAGQWtcu2k3bi/AHJer8CLRNE9+6GcfvrmF9K6xuIh1uvVOzZcpxfmca0Og7Q79ynRLo430J+mInJL2pJXVvh4KvTHbwq/0UsUgjzC58DE1EGJuuAeQlPYDerL64b7jv/YAaZeuCdZH32jy/hjcjyW0f7UKVAKpBNV2mxD9rQ99+S7jvvZ4YePt5NPOcuuue52u3fCE/bYE6/Y8y++ay+/OsVenzzDXn19uj35zOt2620T7LLLr7cLL7rCLrn0KrvokivtksuusauuvtFuuvlOu+feB+y++x6wO+6426659jq79NIY/HGu2D3uF66F6/Lf3GPUFQ/i8C4x7msilIKkwYekgW4DQZegK/SoSBPw1AyfKiFlxW9AjIG5FJwEg+35TW+dd0NFCx8axthi5DAgGDqMI4YlOKiOlIv3cJniJFjONmzrxpjeHgbUoQuDieOiN4jTI0yPAyT6QORp25/93PbaZz877oTTw7uUXn9zns2enx/evbVwyaqQQvxg6jJ77MnX7YKLrrLDDh9v++77y+AgfcwMRpheLufKi0ZxVo89/rg9+NAjNmHCn8Pj3AwWZhnODNjkHDHsnDvniuMAflgP+CK1g2PiUf5kPLLPGB3ajboHiqk/zsXBi3PqCr6i0S8HsHjY8v84CgrrsW+cubctjiMGDFt+Poh2BQIAAkAIZwc8dQddQJSnDwEN9sn2RI4AHKJiwBXAzZQ0EfOIZrFPIk/s36M9REjQDM6buqC90Cya5hUbvNuMsU6AME/2+ZcRCgr4VuEyu+mmm8N5owmeFoxCF+ltjse1E5nac8+9woB2xpD54H1PHREZI7IBUHJO6AVdEcUAVtA5TpfiIBE/5f7oqbjzZh22BURoO9redcz4oIFOcfsLR7EH1DHH43rQP1rkHuAVCEAE+iTqxtQLy3w59wrz2Q/6Qm/UCTqgHdEEegDG0RKRPwpgjdZYF01z/zl4oVXvIFAnaJH7mw4abUJbbbMNKejYx8/5iDmp57POvsQenvhKeK8fTyNm5tRaWka5LVi0yt79YIk9+Mjzdtrp59jBB4+zPfYA2GKQ7alnzon7ELjmpad+vdQHnSOeTuR6Gc6BTWUdIAtt0lHjaWTsBtFJNDrQDl/7G3yIE3QJusKN7T1XjDMRGp5+wqBiLOmhY1DpiQEb7nwxkhQMLctxchhKjKQ7XpyNRyAwmhhLnCNTluEsMLQYSzfaTPmP0cTZJwRde+9nxx0fgy7GZs1ZUGBLMyosPbMyjLfgUW5eB3HehVfZQYccGl56ypunHd4Y20GEAkfP8R977HF79rkX7OFHn7Jbb7/TLr74UjvjDNKcm79JyHV4WsJBAIfMtXHuOHpe6EhqJxmD6WkzfzkqBp22weBTdzgg2obziMIXgIuDShS84qHLIwc4eIcud44eifG2TwS6iFhR52zL+tQpQAXwkB4EcogY4dyAF6JdADjQji44D4+aAhvohSnnDRyiL84HZ03bsD3pIxw1b4XnTec4IlLBjMGj8GUBHB71yfgeolwe6XLoYr/oN1Ho4tpoF4cuHC33DUDQn8K9RuEaKdSBwzGgzbFw9Dh13uGFVgbS4aJnBtH7U8/UuWuKKZrDTkR1yDnRPpwrUy/olGW0CZE62su141FP7il0Ek2tohXaAA1wTI7lkbUodFFPQFs8dPm9z3jQKHQ9MvEV+2BaRngfV9bKuvBOrqUZlTZlWqY99OhLdtLJZ9m+++4fXiWD3QCyGQ/GuC06BdQ/UE2nFF1TgDHOH91yndyX0QceeKFrslLAA9nu2tfWQ5ugS9DVaYwxzF5wOhgNnDhQhFHFWGLgcRIYDowdzgfjiZHtCbrceGJ4KDhBN5gOXTghHB1TjKdDF4YYY9tdpIsP0u7dEenipYRvvP1t6OKVEE89+7add+HVCUHXM89Msldee9cmPvGKXXLZ9Xb0H06wAw86JDj/XceMCe/WYTAuEQ4KzhlI4BxxEDgAerKkCQAjYDYZBgtjzbgdetREdKi77sCLegaa+gNetDHX1B/owuHQfkStfJC4pwhdB+gDmAK4GNtFBBLAoU75DXQBYkS7iHAR2fJtcdIAGPCHJino0zWKfnC6Dl4cg+MDzDhBIkJEDNE+qWA+IUN0kndeARW8RwnowrFyPhybfQPge+65t+3AC3t7iXQ5dBE9Jt0HDKF1h6eupg5U0Sn3oBcgy0ET6KBtuA9pJzoOOHUi11xHMqCL9BcdC47JeXCeXIfbB6//KJzTIXMQcThnPc6fdusKumi3wYIuXgvBi1C3gK6TeocudANM7rjjTgHGsBVE2NAyYIYesXHAGVEt2migo5HJsDfap6ArKY5MwloaPstDGJweKAbRYctByw0pzg4nQO8uEehy4+kOk/0BAxigeOjCaOHsHboYi9FVetGh6/gTTg9vgn7j7fnhzfM81s2TRcuWV4aXnz793Dt2/oVXh/dv8XmfniJdRLleff0Dm/gEKclr7Le/O8b22feXttPOOwfI8lQSvWUK/+npAgxR6OKDth988EFIMyZDV4zVIX1EuoLUhac+uwIvTzU6eDl8ecTBpzjQ+IIGaB+inqSPKMAKxSNsLMfZ85/lvi5wAHhFoQvgAb6JggJc/CYSBQxRh0QdgS6AhzYnfYOzAswAGHRH8QiZ7wMg4jhENZhSOBagxr7RECkmH3fFlPkAAOcOpPCAAulgCmCBPhmv5dDFOQAWdArCeJ2OsUjAA1BB8XPj/JiPloEgnCzRT9JP1FcUqOJ/O1z5lHqMghbtRbtwfrQt50OEh+tAB3Sa0B8v0U0GdBENnzBhQid0OXB1ZSMcthy0aEM6XbQ/toRriUKXL6Ndu4IuID4a6ULLXDt2hDJgka6c2k7o+nA6ka6X7aQEoAsY5Zx4ohr74E9GYiPQH9fFOaKDKHQlw0Zon1sPSgNZh4p0KdLVJbjieHDk3UEXES4KBhMHjdHHEXWXXsTI4HgBEgqGFMOLQ2LbRKELRxw/piseuia/vcDmLSq0ZZlVtjy72tIzq8KbpJ9+7t3w3TxeepoYdL1vE5941S657Do75g8n2sGHjLU9O95oTc/V3wPVE3ThYIkaJuMdSRgC0jzsn2hXPHjhfN0BEf0gIuHg1VvUqzvoAuwYpwOQ43Ap/I6O0eE8fBlTgIP2j0IXgEX7Mx894ERJ+xEJI+VIKpGHJYhwAVtoh3Mnoke0iPQcqTqcG+cDZHCNOH72R7qX7X3M3pjddgu/Y7BFFG3XzrFYjL0iUkkkDWcPSDL2i6fHiD7w7T72SXuT6gS6OA7HJJoJ3FAHnooHeL3uuX+AUM6bdD1P+zFuh9Qm9eJAFZ06XPk02hYOWjj0KGyxL47lwMXxGCfEdwqTkdpmn/GRrq6gy20EdoHOUxRKHcSwG1xPX6ELUPdo+VZBV0gN+piuiy0+vUiKMS2j0oCuhycmDl3oFV2hGzpl3jGLQhcaduhK5tcrBhIatK+tgzhBl6CrS+jC4RAipzeOs6ZH7cbfe9sYOuaznILxdMPqPVrvsZLGcQeLA8OJxkMXzonoCMcEFnAkOJlopKtX6Lr7MesRui66JqFI19NPP2cvvvymPTLxebvuhtvsT+ecbyeccFJwuEABaS7eJ4UB5ZxwxkRDiJpwXZw/DplIA2NfkgVdGEDA4J133gkggjPH+QMO0bF49KqpT6IhDl8OYLSjtyXtSaHevdDu/GY7j2JF28ojWhwD4KD9vPDfQcijTkSegC7AG8dJxALoogA0LAO+SAOyLkBChIjrZOwVn7apqKgIhUHwfOyZ+URzSOVybuyTVCBjbnB2vBx1l115mnA/O/BAXqo6LnzvcI899rLtttshvOeNQfMUtqMzALTQ+WCfXAMQRztznpwT10vhfnDgADLQPAWoYD/AEbBKSpF0Mw+qAEgOVdGp32M+9TbwdqGdHLZoD9qUc/BOCyAIcHHvognqLBlOkroG9n0gPefEOXLeXI9DJOfvevL5rOPXw2+25VoShS7XSjx0Ad3UA4U6QevUF3aJe7LbMV3x0PVYx5iujHIDuLJX1oeXn344Iyth6KL+0T7DDbATRGrdRtAhIAIKIBPpIlKNjUhWWyWj/bXP/oOXoEvQ1aVRJm3F0zQYVSIX9OYxJBgJogwUf/KG+aST4qELQ9cf6MJpYjj7Dl1n2F33PB6DrsVFlp7NZzpqLCOrxmbNy7OnJ71rF1x0bfimYneRLpw1xpJreuCBB+2uu+4Jg+qJrvz5gQdCZIXoChEc6sSjHA47DGjnN8upKz7T8/bbbyfVoOIAMdgAHufJ8XHynAvtQn1yTTh6HBP12h2A4QAdwqIgxm+2wVGwL5xkvJOl/SmABg6UAoQwfoV6dejCaQLg8bAFcDl4kSbkP9sCkQx4Z6wVgAVwVVVVWXV1dZjy1n9ezcE3B3kykHMDfomI8toHPuuyz74H2LHHnx6+q/no46+Ft4Y/9uQbdtOtD9gxx55se/5i7wBofN+QbzWS1gSaiHIxEJ165T+RM84bgDjttNPDe9w8FcqYHdJHRDf4zXwAnWug3gBHImjcV9ShA1V06jDC1NuBNqEAyQ5atKPDFvsGfAFtgAt9And0nAY6rejOlv3yaSHAlCgn9wGdDAp15TbCp1w79wOF6A7FtQoooq1EoCuqGaDLO27U1YBA158usUcee8V4ySnjuKID6fsS6eI6iWoSAaVwT3rh3mQedcWXA9AEUUNBV/9BxnU5HKaCriEGXRgzL4TwGVeyPDMzOJz8/AJbtarQVhUW9asUFhZZooVjMZh4yZKltmjR4pCi4Hda2jJbtix9i8L8uXPn2YcfTrUPPphi73/wgb33/gf27nvv27vvvWfvvvuevRPKu/b2O++E8s4774blbDNjxkybNXuOzZkz1+bMnWuz58y12bPn2MyZs2z69Blhn2+99ba9+uprITXz7LPPhbE3Tz/9jFGee26Svfzyq/bue1NswcI0y16xygoKK624tNZKSmutuKTW8gvKbVlGjk2bPsdee32yPf88EYfnwvbs45lnn7UXX3opnBvHX7R4cbju+QsW2LL0dEtblh6uPW3Zltcf5i9bZszvrKslS2zxkqW2NC3NMjKWh7aj3YqKipNasrKzwzFprwULFhrnPm/+fJs7b94W9Tpr9mwLZdZsmxnKrFDX1PeMzjIzRHmI9NA+THm6ChinnbxtGAA8bRplmk2dSpkadMB4H8qUKR/a++9/EKIutOGbb75ltP17770fpkRjKFFdsPztd961d95916Z8+GFoi9y8PCuvqLDq6hqrqa212tq6zlJTW2dV1dVWUlpqK1bk2MxZs+z1Nybbc5MmBZ1MmvRCaPMpH86wRYszLCu7wHJyi4NOFi9Zbh9MmWavvvZ6AGQcJalaYJlz5NuFubl5lp6eEa4RsEXP1AkPMbz00stBk5MmPR90iBYp/Ad8Xnv99XA/0AbcN1nZK2x5ZlZoE+rwW2XWrHD+sXaZbbNmxQp1zz1BCffJnLnhnps3b77Nm7/A5i9YaAsXLrLFi5cEnVIP3Ov+OozN0zIrLe1jKSuz0lDKrbTMS5kVF5dYVlZ2sFHUD3VFyczMDPNZhia55jDNyrbMULLCC4MzM3lpcHo4Z1Jrrin0NHXaNPtw6rSgJTSAjj6YMiVWPpgSbAL1j+6AS+wP0LJgIfWwMEznz18Q6hmts09SrZMnvxleyUC70T4vvPCivfjiS/bKq6/Z22+/Z7Nmz7fMrDwrLK62iqomq65dbVU1q8PvouKasGz6jNkWs0evhvZne8AJ+4SWue+43pW5ueHas7NXGIVOA9PlyzONa6d+aKe8vLxQl+XlFVZZWWWVVV6qrbJqc6mqopPRh0KnJK6w/7LyCispKQ2+hOPjY7AXROOTBenDAYZSdY6CriECXTGxLwm99azsrI4bNNtWrlwZbo6S0jKrqq6x2tp6q63re6mrq7e+lQarq+tHqW+wugEo9fUNNrCl0erreygNjVY/wKWhodGSW5qsoaHJGhoHvjQ2NllKS1OTNTY1D3hpamq21JbV1tS02pqaB640N6+2rkuLNa/+dlm9usV6Lq22enWrrW7pa2mz1S2bS0tLm/VaWtusJa60trZZr6WtzVrb2rssbW3t1mNpb7e2UNZYW/vWlLXW1h4r7e1rLaGyZq21d1HWrFlrCZe1a23N2nUDWNbb2rWxwn79OmgD7BMgBoQB5ry3ji9opApARuNxBF1DALrS0oggpVl6+jLLzV1p5eXlobdDryb07GvqAgA1BmPeYs3NA1S6MNhbGvFWa16dmhKcAI5ga0uPjmSzw4g6j4H83asTSsRR9WmddmtpGQaltd1aBrG0trZb0ko3cNA1NKyx1rb+lba2NUZhe/+9VdM+A8lmCHEY6cvUnf2ATAEbQKgLwOl+3rqO9ZkmXtasWWdJK/2Cq/W2Zm3fikMX0/XrN9mnn35un3/xlX351V/tr19/Y99883f7+uu/2YaNmwKEEZEjGkfKfjSCUTKvWdA1iNDlodzlyzOsoCA/DBAmhUJIuLa2NkSmiPYQzWhspMdOL7pFRXUgDQwlDTS3WFOKy4B1vPrUgWu15maVEVEHq9useTWRynZrX7PeNm78xL748q/29Td/DwD2xZdf2dq168IYSvdTyQSR0bRvQdcgQRdjL4At0oeFhausvJz0YVUMturrQ9g3pHdIj4T0AhGnHcYNbgAAIABJREFU2I2iqepBGpAGpAFpoL8aaGpuMy/Nq4lCk9LcYBs3fWqff/GXAF9f/eVr++jjT6y+vr5jTO/AftVgNIFW9FoFXSmGLgZbUwjb5uXnWWlpiVVWVVh1TZXV1tVafUNDbCyNw1YYn8HYC1Jj7SqqA2lAGpAGpIEB0QDA1dRMiUHY6ta1tnb9R/bZ51/ZX/76N/v667/bp599bhUVleEhCUW9tv4JS0FXiqEL4uVDu/n5uVZeXhpgq6a22urqaq2hod4aGxvDYOIQ3QqDXWPjkGLjYdZYS6uK6kAakAakAWlg6zSwumWNUZpXrwng1djcbhT+r123yT7+5Av7/Iu/2ld/+ca++du/W1lZmaVnpOsJx61kBkHXVlZgNGzY2+/FS5YE0RYU5FllJY+/k06s6QAuIlyN4Umr8KQSEa4wKJynfwj/bt0Npu1Vf9KANCANSAMxDawNKUUiW98CryYiX2ts3fqP7eNPvrTPPv+rffHl10a6sbqmJqkveu7Nh46E5YKuFEEXYVneYZNfkGcVFWVWQzqxE7g8wtUUG7+1RUoxNthRxlLGUhqQBqQBaWBgNBCFrrUd0a6OiFdTuzU0Ml6Op0M32cZNn9mnn/0lRLw+/uSz8H48vdOr/2lGQVcKoCu84BTgys+zsrLSAFx1dTVWV88YrjprbGywxqZGa2puDu/jib1jx8dxCboGxsjIWKsepQFpQBpwDcSiXNFIF9C1xho7oAvw4n9L6wZbu+7jAF6M8/rk08+tvKIyvAR3JESeUn0Ngq4UQVcMuEqsuroyRLjqO4CroTEW5WpqbooDrhh0Rd/B5Dl4TWNjEVQPqgdpQBqQBvqrgRhwUX+xcV1bQld9Q5vV1VNajd/rN/Bk49f216//bn/56zeWX1AQ3i+ZamgZ7scTdCUZukgr8rRicXGRVVVVWO0Wg+YZx9VgTU2N1kyUa/Xq8HLQ8IJNf5Fk54sv+3tjaTsZZWlAGpAGpIGuNRCAKwym7xq6autbraa2xeoa2qx9zUf26Wd/DU82FhWV6OWp/eAHQVc/Kq0vpM2rIXJycmJPKlZXGWnFhpBSJMIVA66mJqJczWHgPG9TXrduQyhr122IvXl4zXpbs2aDtbWvs9a2tcO3tK611q6KX1NXy/o4j/fNqKgOpAFpQBroXgNRAPUoVyOpxeY11tDUbvWNbVbX0GoAV21da/gGJd+hbGjiycaP7Ysvv7G1azeEb8n2xR9q3aUm6EoidPHBaj4aXVS0qjPKRVoxBl0OXES5YtDF98TWrd9gmzZ9ZJs2fRzKxo0f24aNH9n6DR/Z2nUbwwvseIndsCxrNgR4BCC7K+1rNtjAlPXhTcu8bXnYlfb11h4pbe3rbfiVdaGTkPh5+/qa0rkasNK2ztp6Ka1tdOaGQ/EOp5+r/x+8qYOddyb9/1CfOnQ1R1KLAbrCeK4O6OoArpq6lgBdldXN4ePf9Y1rbO36T+yTT7+06ura8NFywVTiA+sFXUmEriVLFltm5nIrK4uN5SLK1TV0xQbQr1m71jZu3BTeAsybgD/++FP7+OPPQtn00afhm1mA14gpazfa2riyZi1g2d8CjA5zMAWo46B0YCA0CrNREGV+9P8w+d0BpYlD3XAE19Scc2v7ehv6ZZ21EukfSiWZoNq6zlpb11lLN4VlPS3vbrvY/I7B8x3A1RnpamrvGETfHsZwMZarJkS5WgJsVVQ1WXllo5VXNoX5mz7+whqbWiwnJ1ffZ+wDRwi6+lBZfaX5jIz08AHrysryzicWvw1dHanF1S22fv0G++ijjwN0beyIdn0EeH3yuX308WcBUHp1kJEICdGS4emUoj19riH6P8W/u4gSDI+ogEcDupsSHYguG7xoQb9T5r2kkok+DPWIg85va9toBD6N2LLGWjpeXOoRqfhpb8vj1+/qP7C1eTxXDLhiTy5+G7qIcgFdZRWNVlJWb8WldbZu/Se2YeMnVlvbIOjqA0cIuvpQWX2BrrS0ZZadnR2+q7h5AH000lVvTU2bB9G3tLTa+vXrbdNHHwXo+vgTolyfGtAVK5+FlKKnCrZ0mFHnOVR/D5KT7xgTNnKdW3KdjhtrjLwXn6dp1wOTVS+ql941kMgn3Xqqx0S2734dPv/jhc8AhbfRN/FS1HXW3LLRVrd9ZI1N66y2rs2qa1ZbZVVziHCVljcE6CoqqbXGJr7XuMkaGlbrLfV94AhBVx8qqy/QtWRpmuWszLHS0mKrquI1EXzqZzN0xT75E4Gu1lZbFw9dn3wWgGvTR/QoPg4RHzm+ngzRaFzWvWEdiG91umFevbrdvPg8TTc7LtWF6mI4aiD23cVYlKupea2tbt1k7Ws/t7Ub/mJtaz63xuYNVl3bEqCrM8pVUmeFxbUh1cjA+traJkW6+sARgq4+VFZfoGvx4iW2cuXK8DLUKHTxjcX6+rrwncUGXora8emflg7o2rhpk23qSDF+9NEnBnBt3PSxrVu/MXwKaDje2DpnOSRpQBqQBoaWBhy4QqSriXNbZ21rPrH1G/9qGzZ9Y+s3/c1a2z+z2vp2q6hsshDlKq23ouJaW1VUHUpFZaOVldcIuvrAEYKuPlRWotDFe7kWLlwUoIuPWkfTi1tEuxrrDfDilRGtra22du06W7dufSjrN2y09es32voNmzqfXCTK1dzM5xn6Wdh2CBf/0r2mvAlaRXUgDUgDydNAY3ObhdLU1vHZn/XWvvYz27Dpa1uz7vMAXmvWfWUNjeutvKLRSsvqjbQiwFVQWGV5BRVWVFxjBQVlNn/BQqUYE2QJQVeCFZUocPl6ixcvstzc2Pu5gK7YtxZjKcYYeHVEuxpi0S7e08W4rtbWNmtta7e2tjUdJTbAmTECwQA1tVrTCC6NTa2mojqQBqQBaSA1Gmho5I3zHGuttbXHIl3rNnwV4Kt97ZdW37jeysobw+D5QiCrsNryCiotN7/c8vLLLSe32JalZ9rStDRFvBLgCUFXApXkINWXaVraUsvLWxleigp08fmfLcErlmasb6i3hg7wamqKvTqiubklvJm+eXWrxQq9Hb8BW8Jjujyqq6I6kAakAWlAGuirBhoaW8xLfQNvm+c/40M32pp1X9ja9V8ZUa7VrZ9YTd0aKytv6Ixy5a+qstz8CluZV2YrVpZY1opVlrE8x3h4rC8+crSuK+hKEnSlpy+z/Pzc8I4uXhnh0LUZvDqgq77OYuDVaI2NTbHS1GxNTautsbPIqPTVqGh9aUYakAakga414MDF1KGLaFdTM+9s+9TWrPvSWsNA+k1WVdPamVrcHOWqsJzcMstaUWzLswps+fKVgq4EWULQlWBF9ZXK+wxdjYIuGciuDaTqRfUiDUgDA6kBUope4qGrbc1nIdIVe3oR6GrrGboyCyxD0JVwlE/QJehSmlKpWmlAGpAGRpEGHLhi47li6UWPdAm6Ev+kT1+DMawv6BJ0ydiOImM7kL1l7UvRF2lgeGqgZ+j6NC7S1Ut6UZGuhKNcgq4kARcVq/Ti8DRGciJqN2lAGhjpGkgcujb2PqYrQJcG0ica9VKkK0ngJeiS4R7phlvXJ41LA8NTA4Ku5KYQewIwQZegS+lFpRelAWlAGhhFGhB0Cbr6lBPtiSKHyjJFuoZnD1A9d7WbNCANjHQNCLoEXYIuvTJCPe1R1NMe6U5N1ydwG8oaEHQJugRdgi5Bl6BLGpAGpIEUaEDQJegSdAm6ZGxTYGyHcu9b56bokDSQGg0IugRdgi5Bl6BL0CUNSAPSQAo0IOgSdAm6BF0ytikwtookpCaSoHpWPQ9lDQwcdBXZ8sx8ffC6D29B0Csj+lBZfXkyUk8vyugOZaOrc5M+pYHRqwFBlyJdinQp0qVIlyJd0oA0IA2kQAOCLkGXoEvQJWObAmOr6MbojW6o7dX2roHeoGvN+q+sdc3n1tjc22eAlF7sSwaMdZVeVHpRsCPYkQakAWlgFGmgJ+hqXfOpCbqSFwkTdAm6ZGxHkbH1nq6minpIA6NXA4Ku5EFVb5EvQZegS9Al6JIGpAFpYBRpQNAl6NKYLo3pktEfRUZfUZbRG2VR2w9+2wu6BF2CLkGXoEvQJQ1IA9JACjQg6BJ0CboEXTK2KTC2ijIMfpRBbaA2GGwNCLoEXYIuQZegS9AlDUgD0kAKNCDoEnQJugRdMrYpMLaD3cPW8RXlkQYGXwOCLkGXoEvQJegSdEkD0oA0kAINCLoEXYIuQZeMbQqMraIMgx9lUBuoDQZbA4IuQZegS9Al6BJ0SQPSgDSQAg0IugRdgi5Bl4xtCoztYPewdXxFeaSBwdeAoEvQJegSdAm6BF3SgDQgDaRAA71C1zp98Lq3z/n0d7k+A6TPAMnIpcDIqXc/+L17tYHaQBqIaUDQpUiXIl2KdAn+BH/SgDQgDaRAA4IuQZegS9AlY5sCY6uevqI90oA0IOgSdAm6BF2CLkGXNCANSAMp0ICgS9Al6BJ0ydimwNgqyqEohzQgDQi6BF2CLkGXoEvQJQ1IA9JACjQg6BJ0CboEXTK2KTC2inIoyiENSAOCLkGXoEvQJegSdEkD0oA0kAINDDR0pS/PsbS0ZSPOj/f3XVw9baf3dOk9XTJyKTByii4ouiANSANDRQM9Qlf7p7amDy9HzcjMN0FX4pEzQZegS9Al6JIGpAFpYBRpQNCVOCT1FLXqzzJBl6BLxnYUGduh0tPWeSjqIw0MngYEXYKuEZcLTk9fZvn5uVZWVmKVleVWXV1pNTVVodTWVltdXa3V19fFSkO9NWhMl+BP8CcNSAPSQAo0kBB0tX9ujc0braqm1UrL6q2opNYKCqstr6DScvMrLCe3zLJWFFlIL2ZoTFeiUS9FuhTpkpFLgZFTr37wevWqe9W9NLClBhKDrs8EXUngA0FXEioV4lWka8ubXEZP9SENSAPSwNDQgKBL6UWlF5VeVMRNETdpQBqQBlKggUShq0HpxQFnE0W6FOmSkUuBkVMPf2j08NUOagdpoMV6h64vrbVd6cVEx2n1ZT1Bl6BL0CXokgakAWlgFGlA0KX04oCH8PpCnslYV2O61KNWj1oakAakgaGoAUGXoEvQpTFd6mmPop72UHREOicB0mjRQO/Q9VVIL2pM18DDmdKLSi8KdgQ70oA0IA2MIg10BV11Da3W2LzeWsNngGJjugRdgq5hExFTelG95tHSa9Z1SuvSwPDSgKBr4GEq0WFKinQp0qUe7ijq4co5Di/nqPZSeyVDA4IuQdewiWAlSrOKdMlYJsNYap/SlTQgDWytBgRdgi5BlwbSK+KmiJs0IA1IAynQgKBL0CXoEnTJ2KbA2G5tD1nbK8oiDQx/DQi6BF2CLkGXoEvQJQ1IA9JACjTQFXTVN7Rak55eTDqLaCC9BtLLyKXAyCk6MPyjA2pDteFI0YCgS5GupNNlogPgB2o9DaSXgR4pBlrXIS1LAyNLA4IuQZegS+lFRdwUcZMGpAFpIAUaEHQJugRdgi4Z2xQYW0UsRlbEQu2p9uyPBgRdgi5Bl6BL0CXokgakAWkgBRoQdAm6BF2CLhnbFBjb/vSKtY2iKdLAyNJAwtDVtNGqalqttKzeikpqraCw2vIKKi03v8Jycsssa0WRZWTmW3pGjqWlLRtxfnygxnhH96OnF/X0omBHsCMNSAPSwCjSQJ+gq1rQFYWmrf0t6BJ0ydiOImOriMXIilioPdWe/dFA4tC1waqqWxTpGkBOEHQNYGVGCVivjJAx7I8x1DbSjTQgDSRbA4IujekacblgQZcMZ7INp/YvjUkD0kB/NCDoEnQJujSQXmlOpTmlAWlAGkiBBrqCrrqGVmuM/wxQk9KL0QzWQPxWelHpRRm5FBi5/vRGtY2iGNKANJAMDQi6FOlSpEuRLsGf4E8akAakgRRoQNAl6BJ0CbpkbFNgbJPRa9Y+FY2RBoaXBgRdgi5Bl6BL0CXokgakAWkgBRoQdAm6BF2CLhnbFBhbRSSGV0RC7aX2SoYGBF2CLkGXoEvQJeiSBqQBaSAFGhB0CboEXYIuGdsUGNtk9Jq1T0VjpIHhpQFBl6BL0CXoEnQJuqQBaUAaSIEGBF2CLkGXoEvGNgXGVhGJ4RWRUHupvZKhAUGXoEvQJegSdAm6pAFpQBpIgQa6h6511tr+ia1Z96W1tn9mDXoj/YCzid5IrzfSy8ilwMglo7eqfSoKIg1IA/3RgKBLka4Bp8mB+EbS1uxDH7yWMeyPMdQ20o00IA0kWwOCLkGXoEvpRUXcFHGTBqQBaSAFGhB0CboEXYIuGdsUGNtk96C1f0VppIGhrwFBl6BL0CXoEnQJuqQBaUAaSIEGBF2CLkGXoEvGNgXGVlGIoR+FUBupjZKtAUGXoEvQJegSdAm6pAFpQBpIgQYEXYIuQZegS8Y2BcY22T1o7V9RGmlg6GtA0CXoEnQJugRdgi5pQBqQBlKgAUGXoEvQJeiSsU2BsVUUYuhHIdRGaqNka0DQJegSdAm6BF2CLmlAGpAGUqABQZegS9Al6JKxTYGxTXYPWvtXlEYaGPoaEHQJugRdgi5Bl6BLGpAGpIEUaEDQJegSdAm6ZGxTYGwVhRj6UQi1kdoo2RoQdAm6BF2CLkGXoEsakAakgRRoIBHoamn/zBqaNlhVdYuVltVbUUmtFRRWW15BpeXmV1hObpllrSiyjMx8S8/IsbS0ZSPOjy9dOvBw9v+SsVPtc6mlpy+z/PxcKysrscrKcquurrSamqpQamurra6u1urr62Klod4aBF0ytikwtsnuQWv/itJIA0NfA4KugYepRLlH0JUEkqXyBV1D3/DIOaiNpAFpYDRqQNAl6BpxYUlBl4z5cDDmDY2rrb6hucfCOsPhWobbOaruZSMGS7OCLkGXoEvpRTn2FKYXcfhdOf26+ibzEoUxgdfAAUJ/6l71P3D1P1igM5SOK+gSdAm6BF2CrhRBV1ewBWABW7V1jZ2F/wKvgXX2DY0tW9Sp13tvdc96Aq+BbYuhBEGpPhdBl6BL0CXoEnQNAnR5VItpTW3Dt4rAa2AdfRS6HLS6qnfg19tG4DuwbZBqwBmKxxN0CboEXYIuQVcKoCsa5Yp3+tU19VZVXbdFAQii4KVoy9YBQFfQVVlVa5Ro3dMW1L3Dl8Br6+p9KILPYJ6ToEvQJegSdAm6UghdHkWprW0wHLwDF86/orLGyiuqQ6murd8i4iLo2jrnHw9dgFVZeVVnfXu90w49gddgOmwde+s0MBTqrzfoal/3pek9XckBM70yQq+MEOykAHaGhqHdPHh+c5Sr0aprGq2qGudfbSWllVZcUmGrCkttZd4qW7Q4zWbOmhPKrNlzbfaceTbnW2W+zZmTmjJ7znyLlXnhXDif4Vaox5mzKHNs7rwFlrE82wpWFVlxSZmVlJZbaVmFlVdUWWVVjVXX1IWIl0OyR7wEv8MffAbTJgi6kgNUibyrS9Al6BJ0jRLocoddV99stXVNVl1NlKvZqmtarKKyyfJXldvK3GLLXrHK0jNW2vSZ8+y662+y4447vrMcf/zx9u1ygh1/fGrKccefYLFyvB13/LfLsccdb5vLcXbscR3l2OPs2G5K9PpS/fv88y+wl19+xdLS0iwvL89WrVplRUXFVlpaahUVlVbVAV6eZlSqV7A1ELDWG3StUaQradk3QZegS9A1CqGrpq7ZKqsarKpmtVXVtllZRbPl5JaGT3osXbbS5s5Pt5dfedNOO/1M22effXot++67ryVSEtnX1qyz9957W19Lb8fr6/76sv6RRx5pzzzztC1cuMBycrItL2+lFRTkWXFxkZWVlVllZZVVVddaTW39t8Z3KdolAOsvgPUGXUovJi8SJugSdAm6Rhl01dY3WXVtk1VW1VtVTUuArtLyJsvOKbZlGbm2aEm2zZqz1J57/hU74YSTbLfdduu17L777pZISWRfW7POmDFjrD+lp2P2Z3+JbLPrrrva+PHj7YknHre5c+dYVtbyAF65uStDxKukpMQqKipCtKumpk7QNUru0/6CVF+2E3QlD6p6SzEKugRdgq5RYsxJL8bGcjWFcVwx6FptVTVtVlreGD5em5a+0hYuzrQZsxbbs8+9ZMefcGKvwAWwJAJcrNMT3AzEskRgp7t1ujt+d+tv7Xyg69e//rU99thEmz17pmVkLLPs7ExbuXKFFRTkW3FxsZWXx6CLsV2eYvQ0sSJdinT1BbSi6wq6BF1Jy5/2Rp3JWq7PAMkgRo3cUPgdD10VlfVWWb3aKqtbraQM6Cq0JWkrbP7CDJs+c6E98+wLdvzxgi5gbGsBq6vtHbomTnzEZs6cbsuWLbXMzAxbsSLb8vPzrKiIFGO5VVZWW3V1rdXW6fUdQ+E+GgnnkBh0fWoNTRusqrrFSsvqraik1goKqy2voNJy8yssJ7csdNQyMvMtPSPH0tKWjTg/ngw+UKRLkS5FukZppKuiss4qq5utorrViksbbHnWKlu8NAZd02YssKefeSEMWu8uAhSdPxQiXV2BTX/mRa/Lf/dnP4lsQ6TrkUcethkzplla2hJbvjzdsrOzLDc31woLC620lHFdgq6RADpD6RoSg67PBF1J4ANBVxIqFTpWpEuRrqFkZDmXb0e6NkNXUQnQVWCLl2bbvAXpFoOu50cldAFLDls+TQSg+rMO0PXwww/Z9OlTbenSxSHFmJWVaT6uS9AlO5IMOyLoUnpxxIUlBV0ylskwlluzz56hq94yMiPQNX2BPfV0YtCVaJQr2WO6+gM93W3jsOXT7tbb2vkOXdOmTbUlSxZbenqaZWYuF3SNkujz1tzPW7NtYtCl9KLSi0mKSiWjYgVdgq6tMYrJ2LZb6KpqsaKSuvC6iEVLskKka+r0+fbU05PsuONO+FbUx0GkL7Dl6/q2yZhuLQDFbx89x/hlA/V/S+haJOgSbKVkuIegS5EuRbr0GaCUGJtkwMxw2We30FXdal2lF596pvtIl0NUX6dRkOnP765gx/fT1bKBmMf+B2I/Xe3DoWvq1A9tyRJB13C5l4b7eQq6BF2CLkGXoCvJvfyeoIunF2MD6RMb09VX2PL1HZD6M+0KWpjHvvfYY48BL+yX/Q8GdK1cGXtXl8Z0KWKeDMDrCbpa2j+x2MtRlV5MRhZMA+mTlLJUelHGMhnGcmv22R10+SsjtoCu6Ty9OLQiXd1BF8C15557Dnhhv90dc6DmdxfpEnTJfmzNvd7btoIuRboU6VKkS5GuQYp0xUPX3AXLbOr0eTbU0ovdgU4qoIt3alG6O4f+zu8dukr1yogk3xe9AcpIXN4TdLUq0pVUHlGkS5Euwc4oMeqJRroEXbGoWTTSNVjQVVJSauXlse8v6uWoin4NFAAKuhTpSipZJiMv29s+lV6UgRwoAzlQ++kSuqqaO99Ir/TilinKoQNdleGj14Iu2ZSBsgU9QZfGdCUXyBTpUqRLka7RHOnqBrqmhjFd3b+R3gfG93XanwH0vQ1kT0V6sb/pw9626y29GIt0CboGCja0nxi4CrqSC1Y9BWUEXYIuQZegK3x70SNdcxekW3hPV/gMUNffXuwrbPn6/YGu3sBF0KUIkGCqbxoQdAm6lF7UQHrBX5LhL9H0oqDr22O6HPwGejB9LNL1sHX3RnpFuvoGE4KvxOpL0CXoEnQJugRdQwq65sU+AzSIb6R30OltmspIV7KhKyNjmWVn8+3FXFu1apWVlnY8vVhTZ7V1jVZX3xS+oQlANzSu1j2T5HtmpEJcr9C19gtradd7unpKE/Z3mdKLSi/KcI8Sw923SFfv0EWq0NOGiU57Si/2BlfdLR/Z0FUWe2WEoEt2agDtlKBLkS5FuhTpklEdQKPaVQ9d0LXl04m9vVAVmIsHvWREuh55ZHN68duRLkFXV1rWvMTSiN3VU0LQ1aZIV3+jWT1tp0iXIl2CnSTDTneGL9XzBV1DE7oeffRRmz59mi1dutgEXVsHE6m+p4br8QRdinQp0qVIl+AvyfDXHXRVVLVYSVlD57cXYwPplV5MVaRL0CXQSjW8CboEXYIuQZegaxChq7gU6CqwxUuzLVnQ1dN4LpbFp/IS/T/cx3QJugRdgq7Bg6CeUoHJWKb0otKLgp0kw06qDWp3x+sp0lVc1mAZmQW2aImgy8d6dRXpShQEE12PV0YIugRd3d2zyZqvSNfgQZ6gS9Al6Brt0FXdasVljUov7rnlmC+HrvgIXaJAlch6gi4BV7LAqqf9CroEXUovKr0o+Esy/A12pIvXSsQDTFf/E4GV6DrJTi/Gn2P02Fv7OwZdj2ggfZK13xOAjMZlgi5Bl6BL0CXoSrLj6Qm6ikrrLSPJY7oShS4gpy8wk0zoigeuvp5bb9ch6FKkazCgT9Al6BJ0CboEXYMJXSV1Qwq6HHZ6gxaWj1ToKiwstNLSMqusqrEavRxV9mEA7YOgS9Al6BJ0yagOoFHtqvfcU6SrEOjKzE/qQHp/a70DVSLT0Qpd+fl5VlRUZOXl5VbVBXR11b6ap6hZohoQdAm6BF2CLkHXIEJXUUld0l8Z0R/oSiSdNxIjXYIuAVSiANWf9QRdgi5Bl6BL0CXo6nKgfXfRLiDugAMOsN/97nd27LHHDmg54ogjwr67isZ1dz79md/dmC5Bl6CrPzCV6DY9QlfbJ9bOB6/DZ4DWW1X1aistq7eiklorKKy2vIJKy82vsJzcMstaURQi5OkZOZaWtmzE+XG9pytJr3dIRsWmpy+z/PxcKysrscrKcquurrSamqpQamurra6u1urr62Klod4aBF2CrmEIXUCJR7ASnXYFMr3N6wpoiHAdfPDBdswxx9jJJ588oOXII4+0gw46qE8Q2NU59jbPoWvGjGmWlrak8zNAgi5BV6IA1Z/1EoeuDVZV3SLoGkD20Hu6BrAyo/Am6JLR7I8xTOY2PY3p6m960WEpUeBiPd+mv9PeQGYgl3d1jgO5f0GX7EQy7/nu9i3oUnpxxIUlBV1J315KAAAgAElEQVQypt0ZvMGaL+ga06dXUQBXgi7dx4N1vybzuIIuQZegS+lFpReHaXrRwSTRaJevv7XTgYw4dbevrs6xu3X7M1+RLkFdMuGqu30LugRdgi5Bl6BrEKGLV0b054PXUShJNXRx7P6ATqLbRK8t+jvR7RNZT9Al6OoOjJI5P3Ho0kD66LChgfitMV0a0yXYSTLsJNN49mXf3aUXy6tarGvommTHHXdClym2KIR09bsnAOtq/a2Z53DDPvx3otP+HjfR/fe2nqBL0NWXe3ig1hV0KdKlSJciXYK/JMNf99C1elhDVzw49QY60eXx2yb6P7qPrfk9fvyvbeLER23GjOl6ejHJ+h8oYBkJ+xF0CboEXYIuQVeSnU7P0FUb3rezeGm2zV2QblOnz7Onnh4eka54UOoLBMVvm+j/vhyjp3UdumbOnG7Lli215cszbMWKbNMrIxQBSybcCboEXYIuQZegS9DVr1RmV6DUE+hEl3W1bSLzovvYmt/jx48PkS6HrsxMh658fQYoyfdDMqFmqO9b0CXoEnQJugRdSXYyPUe6uhpIPzwjXVFoigIR8/kfXd7f39H9bs1voOuxxybazJkzQqQrM3O55eQQ6RJ0DXVwGc7n1z10rbWWto/1RvokjfVmIL4G0iepcvWeLqUHhppR7g66KsJA+vounl4UdHUHZVsDWtFto9CVnp5mWVnLbeXKFVZQkG/FxcVWXl6hD14nuTMy1O7TVJyPoEuRLkW6FOlSpCvJzqUn6Coq2Qxd8xak27QZ8+2FF1+zM8862w466GA7+OBDQjnkkLE2duw4GzdunI079FA7NFI6/x92mB0aVw477DCLluh2yfw9btyhRvFj+P+BnXbUB3UyblyoH+rIS6irjmVbLh9rp556qr355mSbP3+uAV3Z2ZmWm7tS0JXkeyEVYDOUj9E9dK2zFn17Mak8okiXIl2CnVFi4LuErupmq6husc3QtcKArpmzFtp770+zBx96xG666Wa7+eZbQrnlllstlFtvtVtvu81uu+32znJr5Hfn/Ntvt9u6K6zPsuh2t99ut3eUbrfrZn9st8W+ovsd6N+332G3336H3UaJ2zf1ECu3fauOWHfz8tvtoYcettmzZ9uSJYs6vruYFaBr1aoCKylRpGsog8twPjdBlyJdSSXLgXihWV/3ofSi0otDzSh3BV1V1c1WWd1qRaVEulbZ4qUrbP7CDJs7b6ktXpJuGRlZlpmZHcryzGxbvjwrlIyMzM7fPq/LaWaWLe9jyczKNkpftsvM5DyTUbItK3uFZWUz9d/8T6TErqO7dbNX5IT9YFuIcvkg+ry8lVZYuMpKSkqUXhwlHaJU24ruoUtjuvrq6/u6viJdinQp0jVKDPu3oaveqmqaraqmxYrLGixrRaEtScuxxUuzLD1jhWWvyLUVK1aGkr1ipWVlAwk5lpm1IkCY/x/oaXZ2jlEGer/93R914Ofk9ZHItLtr6Nw2J9dyVubZihyv5+yOQfS5VlRUaGVlpVZZWakxXaPk/kwleAm6FOlSpEtjugR/SXYuQFcMvJqturbJKqsarLqmxapq26ykvMmycoosa0WB5axcZbl5hZaXz5RSYLm5+bZyZawACjk5eZ3/ff6ATTlW5HgDtt+O8+/r/sK15+Zbbm5BrD74TZ2EuvE68mmsrnybro7FMrbPy1tlefmFll9QaAUFRVZQsCqM5Vq1iicXHbqqrLq61mpq6622rtHq6ptCG6bSQetYIy9qL+gSdAm6BF2CrhRCV00dacUGq65tseradiurbLa8gjIrKCy1ouKyUFYVlljBquJQAAMAobPkrQqwwPytKkBHR3EA6XV/vo0fO/6/zx/waZEVrCraDEmrYv+ZFy29nj+QFbYpNuq4sKgk1HdxcZkVl5RYcUlxGM9VVlZmVVVVVlNTZ7W1DYKuJN8fowkuBV2CLkGXoEvQlWSnEo10AV1VNY1WU9tiNXXtVlG92srKa6ysvMrKyiutpLQigEBhUZkVFpUGOHAA86kDA9DQn+JQxzT6u7d9cfxVhcWdx4z/39v2Q2d5DHCLS8pDfZeWVYb6Ly+vNICrooLXRVQH6KqrawhRLkW6Rl7UaTBgT9Al6BJ0CboEXYMAXbV1rVbX0G41Id1YZxWVtVZeAXxVGxAAfBWXbFmKistjkZm4+fHr9eX/5n2Wf+t4fdnPcFqXuqWOO2GroibUf2VVnVVW1XQAV43V1tZZXX2D1TXEUovA82A4ah1z5ACfoEvQJegSdMmRJBm6GhpbrKFxtdU1NFtt3WqrrsGJt1pj85pQ97HxXk0hjVVTy3ivequuqbOqakqtVVZtWZgXW+br9H36/9t79x9ZsurOl58tYRsZXxsbYx4GG4MsDHjwlTUGbI0lLEu2JUv2mIYra2wu16NhLANzBxqLC7YBAzJ009109+k+dV5VdaoyK9/vzHq/KytfVXUe3YCvBmbs+1+sqxVRuyoqK7MqHxGREZGfH5YiKt6597f2/sTaK9Y219RrHdSbZ/e46rrn59j36/77wrmHbTk8NRtmFGiCYFp2dvnZ5dwRLXNn3Fbn6MSGrXZH2p1j0b+1jrQOAaDoANAk6nJQ6Oqc/IvUGw9ld68jWzstWd9syOp6XVbWDqS2sifl6pY1Z2u+UJNsNhe5fnzYLxMHOZ6vF/l6kQbcY9iZRKPa755n0NV5KK22duCP5eTBq3J88lgMlGnHrp3/uR1ZQKDB3E5AsCBBQWFE0/Od5rz2Vdc055hjuv82251Lc0ywlqeg1TqWllpbIUvB6uGFurBg6xS6AC5gq9//9jDbgS48XZEjZPJ00TgO0wj6dax22tqptzt2x66wZYBLtzu9XefQpbFfFwEpin87f68FQS393U4boAya6iEc3OxyPL+HDV76laldTzaA2fWCl4s2xa12AugCuoAuhhfxuPnocVOvljbgCmFOM9ClHhenXQCSC14wp0csmOvdv8P5t5vrCkyjllP3czjrxNQT0AV0+Q5dxwwvDjJkOMwxDC8yvAjs+Ag7bjWablzH9nrZubu0Q+8HXN1AwN8XgdSr8jB1YpZaX27UO9cA3gb2dAFdrjuEgC6gi4Z8SqHLdObdS68ggusOB2umXozXC1gCltzSwMDQRSA90DWMG2+SxxLTRQPpVgPp1XV6ebpMR8/yogdwUuWBd4t2xIv/f6CLmC7XaXKSwKX3BrpoLL1oLCdxzTDC2SRgxe1ymsRvmIS+uKf/beXA0MXwoutswvAiw4sML07p8OIwnZ2dTkID78Nhw/w2N491s3zcfC6u5T/YBLnMgS48Xa7TJJ4uGpkgN3o8G/pEA2hgUhoAuoAuoIuUEXjc8LihATSABnzQANAFdAFdQBeNrQ+N7aTerLkvXh00EBwNAF1AF9AFdAFdQBcaQANowAcNAF1AF9AFdNHY+tDY4m0IjreBuqAuJqUBoAvoArqALqAL6EIDaAAN+KABoAvoArqALhpbHxrbSb1Zc1+8OmggOBoAuoAuoAvoArqALjSABtCADxoAuoAuoAvoorH1obHF2xAcbwN1QV1MSgODQdf/lA4Z6V1nEzLSk5Ee2AF20AAaQANTpAGgC0+X6zRJRnreIif1Fsl90R4aQANB1sAg0PXwFTxdXnAEni48XbzhTtEbbpA7Ap4NUEED/mgA6MLThaeLmC7gD/hDA2gADfigAaAL6AK6gC4aWx8aWzwJ/ngSKGfKOcgaALqALqAL6AK6gC40gAbQgA8aALqALqAL6KKx9aGxDfLbN8+GdwgN+KMBoAvoArqArqmHrqPjh4JRBkHUADDkDwz5Vc5AF9AFdAFdUwVdvTrWztEDwSiDIGpA9eoXEHAf7wHvOuh65fv/n5AywhswI2UEKSNoTH0e1tMOrLtjbXceyLmdSLtzbq32sfht7fb5/c+epX3i+3Nc9bt7PqOj3M6e+3TbVdcad9/ZvXqVmw/3H/f5nefbv+Vcj0arFngdew8EQJf3ZQx0eQNUg+T1ArqALqDLJ+g6On4knaOH0rLgRQHm3JqtY7HtSBqNDkYZTEwDzebRqRZtTbZaCv0nopDb6TyQoyO8XmEHQ6AL6GJ4keHFyMOfQle7Y0NXo3kkaoeNjmX1w7Yc1Fu2HTTl4KAp+wcNjDLwUQO27lR7qsX6oVpbDhttaTQ7lpez0zkBunx6SfMS7IAuoAvoAroiD13q5bKh64EFXNqh7Vtw1ZS9/UPZ2a3L9s7BmW1t78vW9p5lm1t7srm164ptbdnX1GW/a54dc3p/8xzW9tPznc/U9/ju8/n7rE7PyrSrTEydXNh/WlcXyvmK+jPXuG7pvJ5Te6rF3b1DS5cH9aY0mm1ptY+kc3RiDY0T4+X9ECDQNTkwGmSYcNRjGF5keDHysONl4zXMtZ3Qddg4lvphR/b2m6JwpZ3jxuaOrK1vy+ralqyubsrKmW3I8vK6e7aybl17eeWKa54ec/4Mp8+zsiEraqubcuH8022Xjj/7Dc7fw3r/cjqva1POF8raUS/LK+fHjqoP5z0s3a1tWRpc39ixNLm9sy/7B4fSbLWl3TmHLo3zGkb7HBssSMPTNTmgA7qALhpPn4YL7HiuB9JsnYhCV7P9WA7qJ6cAsybV2qpUKstSKlUtK5aqUihWbCuUJV8oDW2FYtk633mu2Xa+rEihYB93dj9z3xAvtfy0LC+UY2h/j13/F+qsOJomjBZMXZtyKleWRa1SXbG0uLK6Llvbu3JQB7qiBo1AF9DF8CLDi5GGP/uLRY3nOoeuVvtVqTceydr6ngUGuXxRMtm8pNJZSabUMpYlkmlZSqQkvpQc2vS8RPLiufY2+5pmv1nqvSZl+nvHvbcps0GX192v+zp6vBvPed19u/dr/Wj9m7rT/WbbKLrQc1QX5j76m9KZnGSyOcnm8haEr6yuyc7OrtQPD6XRbEmz1ZF259j6svbCF40+vbREDXwm+XuALqAL6AK6Ig1d2klpSohz6DoSha7D5iuyvnkoheKyJFJZWYwlZGEhJvP3Fy2bm1+Qubn7cm92biSbnZsXNef5s7Pz1jV16dyv9/HE5u/LnJpe36xfWi7IvP7WS9uvOufyPr3GMHb1/S5fS4+3n3PIZx2zbK26Oq0vU0e6zVmvg6/Pi9GA+T2qt4XFmMTiS5JMpaRUKsna+rrs7u5KvV6Xw0bTGmLU1BKaUgLoCtZw4bAAB3QBXUAX0DUd0NV6IM2mHc/VbL1yBl3F8posJbIyO7cgt2/flZmZ23Lz5i25eXNGXn55Rl566eWR7OWXb4qa83x7m17T3mf26328MP0N+lv02vZv0t81XeZFuWr9Oet1mHXzPKZuVG+qO4Uwha5arSqbmxsWdO0fHEj9sHEaTA90DQs4QTwe6AK6gC6gayqgS+O5Go0jqdc70mg9lnrjsaxtHEqxvC7JdFlm52Ly/As35LnnvivPPvucPPPMs5Z95zvPyNNPf2do0/OM6flmfZyl85muu445dtqXWk69yuC68rtu/yiacOpAn0l1pnp78cYNmb8/L4VCXtbWVmVra1N2d3dkf38f6IrYECrQBXQBXUDXVEHXQb0tjdajC9CVylRlIZaRmzOz8k//9HX5h3/4B/nKV78q3/zmN+Ub3/yGfP0bX7fsa//0NfnSl74sX/rSlwawL8uXv2ybffz537r961//unz7298e0p6Sp556aqBz9Dj/7Wl5+unB7Lpnc17nqaeetn6LbjPr151v9n/721peF8vC3nZ12Wvdm/rrXg6uAVsnX/3qV6361jr/xje+If/4j/8of//3fy9f+cpXrLqcn5+XXC4r1WpZVldXLE/Xzg7QFURP1bjPdD10/RvTAHn0kR1fL3pUsPl8TtbWVmRvb0fq9X1pNOrSbB5a1mo1pN1uSafTtu2oI0dAV2Shy0z7ozFdxtOlyScPm4/k4PCRrK7XLU9XOluV2FJBZm7dl8985r/Jn//5R+Xj/8fH5b986r/IR37/I/LRJz4q//1z/92CsT/5kz+RP/7jP75kf/RHfyRO63WMc9vnPvd5uTlzS+JLiTNb0oDtU4vHE1acTyy2JIuxuCwuxq3YH407u7+wKPfvL1rLhYVFObfY6TGL1vF6jnXeQuzC32a7Weo1jdnXXpD7901c1X2Zv2//rfv0uMXF0+vF4tYz6rOqLSU04DwpCf2IwGnJlCStQHgNhk9LKpW51vS4C6bnn5odiG5/qKD3Mfe1lo4yNGVpluY5rTJ1lqfG8XXFtalX6i//8q9E69tZr6Osf/KTn5QvfvGL8rWvfU3+5m/+Rv7wD/9QPvKRj8if/dmfyWc/+1mZnb0npVJBarWKrK4uA10R8245QQ3owtOFpwvoiix0maDjS9DVeCT79Yeyun5wBl3xpYLcnJmX//SfPiH/7t99QH7jN35Dfu/3fk9e97rXybvf/W750z/9U/nrv/5rede73iXveMc7Ltjb3/52Gdb+43/8c/n6178pM7fuXLBbt+5af9+cuS0v37wlL708Izdeuik3btyUF2+8LC+8+JI1DKpDoS+88JK8+KLTXraOsbbdOF3XpR7j/Ltr3VxHl88/f0O++90X5LvffVGee+55efa55+W50791nzlWr6fPpc+nz6mmz2x+j/6OM7t9V27fuSd37szKnbu23b03J33t7px9rB5/Zvesa+h1nHZL4/BOy1Dvf5WZ57TK9LQMrPJ8/kXrN+tvNfbkF/5OPvzh35F3vvOd8ra3vW0s+/CHPyx/8Rd/IZ/61Kfk93//9+XNb36zvOENb5D3vOc98sQTT8jMzE0pFs+ha2NjXXZ2tmWP4cXItU1AF9AFdAFdkWvYnG+W5uvFbk/XVdD1gQ98YKBO9pd+6ZdEbdxO2e/z3/rWt4qaua9zXbeZv81x5m9zvJtL5z3GWX/LW94iYbNu6LKHF5dlfX1Ntra2ZHd3z8rVddhoWVnp+Xox3F8uarsEdAFdQBfQNXXQ1WhqTNcjWds4H16MJ4oyc3tB/vIv/0/5wAd+8wxI+gGGAS6gazwv0Dig1X1uGKHrYx/72CVPF9AVfrhyvvg514EuoAvoAroiC139YrqcgfSl8oakszVZSpbk1u1F+au/+uS10OUELqAL6BoV9tTT9fGPf1xmZmYuxHQBXUBX5/hfpN54KLt7Hdnaacn6ZsOKQV1ZO5Dayp6Uq1tSKK1JvlCTbDYXuX581PkVrzqPQHoC6SMLO843u0mtG+C6PLx48evFUmVTMrllG7ruLMpffeKT8pu/ebWna1qgyww1qkepn8dv3O3d3qpx/h4VfiZ1noGuW7cUuopngfRAF9AFdLnvEQO6gC6gy8OvlK6GrvM8Xd3Q9YlroKsbuKLo6RoXpIY5fxzI6j53UvA06n2BrujCVb+XTYYX3Yepq7xbzn1AF9AFdHkIXdroHZ08sqZNufj1onq6gC4FlmHgyKtju8FpnL9HhZ9JnQd0AV3to0fSPnosxw++L49e+ZG88n3ydDlByc11oAvoArq8hq7jhyNA1//Vc3ixl4fLbPMKSLy6rgEbc/1JAph5FjeWk4KnUe8LdAFdQJd/ni+gC+gCugILXf/7BS+Qgat+SwMvYVkawDHPC3RNJt0E0AV0XYKu7/2bPHz8P4WYLvdhDOgCuoAuj6FLhxh7B9JfNbyonq5z6OoHWs7tBl6CuDTPqc/mXA/KsxoAdGM5qsdpUuddC1175OnqFxsV1u3XxnSdQdcP+HrRZUYAulwuUDP2yzRA0/f2eFUDPAh0ZXMrkkxV5PbduHziE+GHLoUrA1UGtJxLsy8ISzdgy1xjUvA06n2vgq7tbTsj/UH9ULqTo+pHIldpnn3BbQOBLvc9WKbvv24JdAFdNJwT8XR1LgXSZ3PLkkiVga4xp7sZFuIMLLm5HBWAJnHeddC1fzYN0MWM9EBVcKHquroZHLrI03UdRA27H+gCuoCuCUBXvX50Cbo0TxfQNV6S02GBS493E7bMtSYBT6PeE+gKLzxdB1f99gNdeLoil8mW4cXpa8j6NXC6vXt4sV7v5enqP7yocOAcmuteHwU2vD5Hn/Gq5/b6/oNe34CSm8tRAWgS5wFd09dWDQ5dxHQN68m67ng8XXi68HRNxNM1HdDVDYfOvweFIq+PcxO2zLUmAU+j3lOhS+de7JWRXmO6GF6MHpQBXXi68HQx92Kk4W9aPV1OyHKuK0gZQDFQpX+bdT+X5jncXI4KQJM4D+iKHlRd5XXXfUAX0AV0AV1TC13rm4dSrmxKNm8PL965tyT/+T9/Sn7rt37rwpDi29/+dulnTqAZdP3Nb36zDGu/+Iu/KL1Mr9MNSlc9hx5rIMecFyXo0jJ605ve5IrptRTGTHm5vQS6gK7+eboYXrxuuHDY/QwvMrwYadi57o3Pr/39PF2HzceysdWQSm1LcqfQdXc2IX/76c/KBz/4IfnlX/7lgewd73iHDGMKb2984xvl537u54ayN7zhDdLLfv7nf34o6FIg6wYvP6HLbXDpvp6Wx8/+7M8ObL3K1GzTa+n1r4LYcfa9973vlSeeeEJmZnTC68KFCa8ZXowmkOHpwtOFpwtPV6ThD+j6pUvQ4ISubmjp97fxio2z7HdtN7eHDbo++tGPyszMTaDLh/hOv170rrrP1dD1Q3mF5KieMQmeLjxdkYadqxoeP/cFFbrUm9LP22U8LYMse3m6BgGjYUHnumua65nj9G+zrkuz3+vlsNBlvGK9ylrrR593HG/WVef++q//uih03bwJdPnZJkzyXkAXni7PqHLY8Va3jidlRDTd8qM2lEGELgUD08n3Ai+zb5Cln9BlgMnAlPNvs65LA1nmOPO38xiv1keFLoWv7vIGumhLRm13+p0HdAFdQBfDi5H2uAFdvZOeDgs9TnAyMGWu4dyn28zf5jjztzney2UUoGtjY02I6Yom8PWDrqOT78vDVxhedMv50us6DC8yvBhp2On3puf39qGh628/Ix/84AcHCqLXYPthguj1WA2kd3q6ur0rw/7tl6drFFAKG3R1e7sm5ena3NyQnZ0d8nRFMM6rJ3R1HgvQ5b0HDOgCuoAuHxrV4aBrSf4W6PIt/moUkLvunHE8XUBXNL1Lfr/oXXU/oMt7uOrl5dJtQBfQBXQFDroSp9DlbcqIafF0XQdIXuwfF7qc4IWnCwi7CqBG2Qd0AV3EdBHTFWn4G87T5U+eLqDrrZ5509yALgNeQBfQNQpYXXUO0AV0AV1AF9Dlc3JUoCv40KXgBXQBXVcB1Cj7gC6gC+gCuqYSuuoTzEgPdIUDuvSjBh0CvSrX1jj7TJ6u7uSoBNJHF/aALqAL6AK6gK5Lni6+XvQi3sqPa7o1vGiGGP2DruLZNEBAF9DVOWbuxX4B8aNuJ5CeQPpIw84orncvzukX03W1p+uDViqIQeZfJGWEd16rUSDNTejya3jR9nQZ6FoRoGtKoesxebpGBapBzgO6gC6ga4JfLwJdwYKlUQCr1zluQpe/w4sKXVVZW1sFunxoF7x4wRvkmlcOLwJdno68AV1AF9DlQ+Pa29P1itSbr8jGVkMqtS3J6fBiuiL35hLy6U9/1kqOqh4sPF3hAzOgK7peokGgJujH9ISuo9PkqEAX0DWIyy5oxzD3Io2us+HtCV3tV+TwEnRVZRbo8iyVQy+vlBfbgC7+/53//0FbB7oIpPeULCcBZEAXja6zoTXQ1WqdSKNxJPV6RxoRgq43vvGN1lyHzil3Bln3AniCcM1oQldbWu0jaXdORPXs1Dfr4WrvgC6gC+ji68VIN+I2dD2UVvvBANCVZHjxreEbUnTCXnSh6xjo8iEcwWuI7QldZu5Fhhc95RFiuojpijTseN14DXr9gaCrsCqpTFVm55Py6c/8t8DHdOlXdcbwdF2ERKArXJ6fQf+Po3Ic0IWny1OyZHiRBnDSjeWw0PUZC7o+FOiUEQa4dAl0AV2T/h/j/oO380AX0AV0MbwYaY8b0PW2njFfziE5r9edMWZe3ytsnq4nnnhCZmZmpFQqyvJyv5QRGtPF8GIU4A7oArqALqAL6HIMLzo9XSbx6VWpI8wxgy7f/va3i4KB8VZpLiizrkv9u9uc+7vXR/V0KQh5DUDm+mGFLi1r/Q3jTPXTfa6zLHQaIANd5XJJVlZqffJ0AV1RAC79DUAX0AV0AV1AV35FUmlNGXExkH4QkFKIGtYUlLrhadS/wwBdBr78WBpPlwFXnc5nUDPnmKXWyVve8paenkInPI267oQuPF2DD9GFGcCALqAL6AK6gC4rOerlPF1eQJd6PoCui3FYbsKYQpeBJl0OAlzO453rfkJXuczwYphhatBnHwy6fiTMveg+nPH1Il8vRhp2Bm2EvD5uoJiu/Krt6dKvFx0Z6YEu7+DITdByXkuB1glO10GX89judb+g69atGWF4EU/Xw7OUEUCXFx/hAV1AF9DlQ94dG7oeXJ2n61JMlz3hNdAVfugyINULvsy+fku/oOv27VtSqZSJ6fKhPfD6Je+66+Ppct+DNSigAV1AF9DlQyNroKt5TUZ6v2K6RhledEKBgoDTwhDT5Yx5cnqlvFjv9nSZsgO6psOTdB30THo/0AV0EdNFTFek4W9Q6Er6FEh/HXQpJBioMsBw1VJjmJxQM8y6F9Az6WsOCl1XlanZ54en62Mf+5h0e7q2tjZlZ2dH9vf3pX7YkEaTrxcnDUtu3R/oArqALqBrKqGr3mvCayumSzPS28lRrxteHParRT1+UOgyHf91S6Dr4hBoP+jScnR6u64rV90/Seja3QW63AKdIF0H6AK6gC6gawqh67HUm49lfash5dqW5MzXi/NJ+cxn/m9foEthSQHhF37hFy6Y2fbGN/6CtV//vsre9KY3WSkrFOaG8XLpsZP2Snlxfy2PfuWlZW7Kvd8xzu16rD7jsOU66PGaMqKfp8uGrgM8XT6EIPgJZUAX0AV0AV3TB10tha5HspyezwMAACAASURBVLHVkMoEoEs7c83/9Ku/+qvy3ve+r4+9V9773l52+fj3ve/98iu/8itDw4EX0DPpa/7ar/2avO9977tkvcrZPu79ouVn7P3vf7+ovec975F3vOOX5W1vGx5mx4GujY010eHF3d1d2T8AuvwEIj/uBXQBXUAX0DWF0PVoLOh697vfbUHTT/7kT8qP//iPD20/9mM/Jq997Wvlda97nbz+9T/dx14vr399L7t4/Jve9IvyH/7D71mQ8a53vUuCbgqaXpjC1m//9m9bnqmf/umfFqd1l7G973+7cIzzeF3/qZ/6KfmJn/gJee1rf9yqK62vQU01Mcix73znO+WLX/yiLCwsnH296ISuA6Arcm0T0AV0AV1AV+QaNucba89A+paBrsNLnq5Pf/r6mC4Fmze/+c2nnfLgnfEgHfGwx/zMz/yM/Pt//9uiQ1VBBy59Pi+AS69poEuHawcpw0HBaJBrjXoM0DV9X1QCXUAX0AV0TSd0NR7J+tbhxZguaxqg66HLBMQPOowU1OMmPRTo9/11SDdIpkOYH//4x+X27dtXe7pafL3ofJEK8zrQBXQBXUAX0GUC6YGuSAbXG7gLEnDpsxjounPntlSrZVldXZaLw4t1aTRb0mx1pNU+lnbnRNRzG2bomPZnB7qALqAL6Ip0I953eBFPV6QBy4CWcxls6KoAXRH7UrEXYAJdQBfQBXQBXXi6pgLAwg5d+gKBpyvccWBAF9AFdAFd0wddzUdSV0/X5qGUq448XQwvRhq+ggtdd6RaPfd0bW/bKSMODs6HF9udYwu4gC6gq7ayZ7VbhdKa5As1yWZzkevHB51PcZjjmHuRuRcjDTu9XOuT2NZzeBHosnJ6OYfepmE9qNB19+4dqdWqsra2YsV07exsy97engBd4QasXu0dni48XZEj5Hw+ZzVee3s7Uq/vS6NRl2bz0LJWqyHtdks6nbZtRx05wtMVafgbF7p6TfWj2d9HyQAftK8YpwG0un9jkMDLBNKfQ9cq0BXxuC6gC+gCuoCuyELX0fFDa0im3XkgzdaJNBpHUq93pKEZ6Z3Di4VVSemE12dzL35QdN7FXsBl0kUAXRfnPOyGm6D+HXTo2txcFzxd0fNwGa8X0AV0AV1AVyShywBXT09X6xWpNx6fx3QpdGVs6LLnXvxgX+CKEnSp5y2ocOTVcwFd0QUaAzZBXg4CXQ8e/0jaxz+QeuOh7O51ZGunJeubDVldr8vK2oEQ0zUauBHTRUxXJGEnKA0e0PW2gedi9ApwgnhdoAvommQbNTB0Hf1A6odA1zCB8tcdC3QBXUCXh/EbV0NXj+HFKfV0TZu3C+gCuoCu0TxF10FN0PcDXUAX0DUp6Or+enGE4cWgBcWP8zxB9Eh59Uxhga79/T2p1+2UEa125ywbPSkjwg2NeLomB3xAF9AFdAFdAw8BjgNV153rFeAE8brhga59OTw8tKYBarWPpHNkTwEEdAFdxHSNBm5AF9AFdAFdQNdb/f8KMijg1StlhPl6cX8f6JrkMKBX9x7G03VATJerH/oBXUAX0DUp6LJSRoz29WIUUkV0e76C6JHy8pmArnB7i7wCIj+uex10Pf7ev4n19eLRDwToGs2j1S+2DOgCuoCuiUGXpox4xfoMu1LblnzRThkxv5CWL3/5H+VP//TP5Hd/93ct+53f+R2JqoX9N374wx+WUe1DH/qQGLvuGuY4XXYf69w37Pof/MEfyH/9r38j9+/Py/JyTdbXV0U9Xbu722I8Xc1WWxhejA4kDgNdfL0IdLnq6utHo+NuJyN9dBqocd48r/568RU5bL4iG1tNqdR2JF9ck0xuWRKporz88i35yle+Kp///JPy+c9/Xj73ObXP9bDPn+3X4wazJ+XJJ3vZF+TJJ/23L3zhC6Lm9r2ta37h7+TJ6+zJv5Mnr7Srn82uI62nQU3ryVmvdv3adee8htn+5Gn9Gx1crmdbH+f7h/n7i1/8f+Tpp78jmUxaVleXrWz0W1sbsru7IwcHOrzYEIWudoeYrnHagiCdC3S5C1LD8AKeLjxdeLom5Olqtrqha12K5XVZXt2Szc1d2dpS25HNzW1ZX9/qaRsb22f7NzbtdT1+FLPvZ+7rznJ7e08mZfp7vLj3uOWkdeOsW1NXWtfOa29uat3b28wxXi7X1tZlbc2eAsie7Fqh60AaDaArSMDkxrMMA10ML7oLaEAX0AV0eQhd2kAab5dOA9RqP5Bm81gOG0fS6rwijdarVqbn2sqOLK9uy/rmnuzu1W3bPZAdy/Zla3uvp23v7MvOjr1fl/bx5rzhlmf3Pb2/Xqt7m1t/7+0fyv5BwxXTa+lz7e3VreuZv53Pqtt6be8+5tpnOr2X87xh18/K9ax+h6uncer46nP3ZXtHQXVbdna2xE4XAXS5ATlBu8b10PWvxHR5xAZAl0cFy/Aiw4vOhtaeBuihDV2tk1PoelWa7Vdle7clG5sHsr1Tl72DhtQPW3JQb14Akn4duxMmzLpzaSBCt/VaN9t0qfd0mtnn3Obmuv5ON8z5TKbsnNt03dyne3v33+a4q5bd5wzztynTcZbOujTXcW5z1v+g6+Y61nK/Lnv7e9bQop2jqyl2jq5jUkZ4/ILmbDO8XAe63PVeMbzoEUgNU7BAF9DlbDR7QVe786q02t+T3f2O7B8ogLTlsNE5M/3bdP77Bwphw5sCgV5Dz9WlAQRz3fGX+oznz2n/Bv0dF3+L83dFY737d7sDkNfVx0H9vC6dx2r96j6zfxitGI3o9ex609/WsJKiao6uZrNlxXO1O+fQpd5bp75ZD1d7B3QBXaEIjge6wtWwBKkj6AldR9+TzvEPpNE8kWbr2LJG80iMKZzYQNM+61BNxzro0nm+Wbc7awMN3iz12c3viOLSWTfn5epNWXZfX+v+qm2DasN5nLme/q5m6+hUi21pNJtn0GUSowJc4W8HgS6gC+g6Ppbj4xPbTh7IyYm+SRoL/z95kABoEs9ioKvdsYcYFbSOjl+Vk4ffl+OTx3J0rLFfj6Rz9FA09stYq30ig9mxtNrjWbtzYk3zYpbO65ltgV+2T6Ttog1W9pfryEB0mJb6W1V3qkE1E4vYOTq+8OUi0BX+9hjoArqALqAr0sMV3dCl8HV88oo8ePg9OXnwigVeTvhyQpjpBA2IdS8NqOk9zLFXL/U457Hm7wdWR3ve2V7ervsCYadgcPXvtOFhEsd011FY/tayMtrTpf2Cott0+h97CiCgy5RLeJdAF9AFdAFdkYYuG2TUi2WbNnoKXQpc3dDVDxJ6ddzmWN1n1oOy9BzOrgCvI4WHK/YHpYyC+BwXoUt1qqbgZUM40BVe2DJefqAL6AK6gK5IQ5c2dqaDtT0IpjOzhxVNR6fH9IKrsG1TT5r5TVFbhq0uhnle1V93fdnQpUPgBM8baAn7EugCuoAuoCvy0GW8Xf08QDaUnQ/p2UOAQf9bO+nps3DUzSja6V+XNmicvyyEHTym+fkHh67vy8HhA9nd61j5BNc3G7K6XpeVtQOprexJubolhdKa5As1yWZzkevHh/l4btBjydPlUXoJUkaE3wXvRaNsexHsji26HfconT3nBFUPeLii15YBXXi6IkfIQFf0Gio3IazbOzRoh9t9Hn/398xQNu6VjZva51qTbxuBLqAL6GJ4MfLDi1d1NoNAl0LEVddg3+Q7M+qAOgiDBi5C12NpHz2SduexHJ18Xx4+/qE8/p6ZBojhxUGHDQc9juFFhhfpyCMytUcYGnueEShBA5PXANCFpwtPF54u4A/4QwNoAA34oAGgC+gCuoAuGlsfGlu8DJP3MlAH1MGkNQB0AV1AF9AFdAFdaAANoAEfNNAfur4nDx//D2K6PAo70rgvYro8Kly+XuRtdtJvs9wfDaIBNNBLA0AXni48XXi6eMP14Q23VwPMNjpmNDBdGhgIuh79SNpHfL046FeJgx6HpwtPF7AD7KABNIAGpkgDQBeeLjxdeLpo9Keo0cezMl2eFeo7WPUNdAFdQBfQBXQBXWgADaABHzRwLXS9+q/ygOFFT7iE4UWGF2nkfGjkeNMP1ps+9UF9TLMGgC48XZ4Q5aCBbV4cx9eLNOrT3Kjz29E/GgiuBoAuoAvoYngRjxseNzSABtCADxoAuoAuoAvoorH1obHF+xBc7wN1Q934pQGgC+gCuoAuoAvoQgNoAA34oAGgC+gCuoAuGlsfGlu/3qS5D14bNBBcDQBdQBfQBXQBXUAXGkADaMAHDQBdQBfQBXTR2PrQ2OJ9CK73gbqhbvzSANAFdAFdQBfQBXShATSABnzQANAFdAFdQBeNrQ+NrV9v0twHrw0aCK4GgC6gC+gCuoAuoAsNoAE04IMGgC6gC+gCumhsfWhs8T4E1/tA3VA3fmlgMOj6obSPvi8Hhw9kd68jWzstWd9syOp6XVbWDqS2sifl6pYUSmuSL9Qkm81Frh/3YrYa5l5k7kVgB9hBA2gADUyRBoAuPF2RI2TmXuSt1a+3Vu6D1tAAGhhGA0AX0AV0MbzIm/YUvWkP00FwLECBBtzVANAFdAFdQBfQBXShATSABnzQANAFdAFdQBeNrQ+NLR4Ddz0GlCflGUYNAF1AF9AFdAFdQBcaQANowAcNAF1AF9AFdNHY+tDYhvGtnGfGm4QG3NUA0AV0AV1AF9AFdKEBNIAGfNAA0AV0AV1AF42tD40tHgN3PQaUJ+UZRg0AXUAX0AV0AV1AFxpAA2jABw30hq5HcnTyPXn4+H/I41f/VR48IiM9Gek9yh7vRcGSHJU34DC+AfPM6BYNRF8DV0HXA6DLUycQ0wB5BHJAV/QbLjon6hgNoIEwagDoYnjRU7L0wpN13TWBLhrjMDbGPDO6RQPR1wDQBXQBXcR0EcvhQywHHWr0O1TqmDq+TgNAF9AFdAFdQBfQhQbQABrwQQN9oev4e/LgEYH0141kjbOfmC5iumjkfGjkrnvzZD/eCTSABvzSANCFpwtPF54u4A/4QwNoAA34oIG+0HWCp2scL9Yg5+LpwtNFI+dDI+fXGyz3wVuCBtDAdRroC10ML3ruAAK6gC6gC+hCA2gADUyRBoAuhhc9p8tB3H5uHkPKCN42r3vbZD8aQQNoYBIaALqALqCLmC7etKfoTXsSHQ33BHDQgK0BoAvoArqALqAL6EIDaAAN+KABoAvoArqALhpbHxpb3vTx9qABNAB0AV1AF9AFdAFdaAANoAEfNAB0AV1AF9BFY+tDY4uXAy8HGkADQBfQBXQBXUAX0IUG0AAa8EEDQBfQBXQBXTS2PjS2eDnwcqABNAB0AV1AF9AFdAFdaAANoAEfNAB0AV1AF9BFY+tDY4uXAy8HGkADQBfQBXQBXUAX0IUG0AAa8EEDQBfQBXQBXTS2PjS2eDnwcqABNAB0AV1AF9AFdAFdaAANoAEfNHA9dP0vefDoh9I++r4cHD6Q3b2ObO20ZH2zIavrdVlZO5Dayp6Uq1tSKK1JvlCTbDYXuX7czfmYzbVeY1ZYuku+THjN2yQeBTSABtBAEDUwCHSdPPqhtIAu10ES6Mq4C1sGXoEuGtsgNrY8E7pEA2gA6PKm3zf9/1VLoAvowp3vgzufjo6ODg2ggaBoAOgCulx34V1Fmn7sw9NFAxuUBpbnQItoAA04NQB0AV1AF4H0eNzwuKEBNIAGfNAA0AV0AV1AF42tD42t822XdbwfaGA6NQB0AV1AF9AFdAFdaAANoAEfNDAcdJ2QMsLF2G8C6V0sTGesGDFd0/kGieeAekcDaCDoGrgOuh69+r/EThnxPTk4BLqcffu460CXR9CVy+VkbW1F9vZ2pF7fl0ajLs3moWWtVkPa7ZZ0Om3bjjpyhKeLN1wf3nCD3hnwfAALGvBeA0AXw4uRG17M5bKyurosu7vbcnCwdwG8gC7vGxUabsoYDaABNNBbA0AX0BVJ6FpZWZadnW3Z3991QFdDWq3mBU/X0VCersdyfDJp6/2PTANHuaABNIAGgq+BQaDrwaMfDTQNUJFpgIbiF4YXPRpezGTSsrxcO4Mu9XaZIUb1dLVarTPwsqHr6HyI8eSBnJw8lOMzc/4TTxq49P7O52Gd8kADaAANhEkDBro6R4+lffTIts4j6Ry9KscP/sWad/Ho5P+VZvtV2a+fyM5eW7a2m7K+eWjNvbi8ui/V5d3TuRdXJZevSIa5FweCL6DLE+hKSyKxJNVqRba3t6y4LoWuw8MDB3g1L4BX5+hIjtRMbNfJAwd0KYA9kqNjjDJAA2gADaCB8TXQOVLIMsD1UFptY4+k1XlVGq1HdhD9fke2d1uyud2QtQ2d7Hrfmuy6UtuRUmVT8oUVSafzkslkB4KOcQPRw34+0OUBdKXTaVlcXJRyuSTb25tWXJdziLGXx6ttBdV35Ojo+NRO5Oj4gcMeytExRhmgATSABtDAeBroHD0UY+2ODVvN1gNptB7IYfNEDhsnclA/lr39juXl2jzzch2I8XJVattSLG9INleTWGxJtN8LOxD58fxAlwfQpRWXSCQs6NrcXLeGGPUrRuPtOmzYHq+Gfs14OtTYautwY1vanY50Ose2HZ1Ix7IH0jnCKAM0gAbQABoYXwPtzgMx1mo/EAWuZuvEAq5641gO6keyf3Aku3tty8u1sXXZy1WubtnQla/K0lIC6BqQJYCuAQtqFAJWT5emjej2dmkKCR1qPGzUpdE4lEazIc2mPdzYUvBqd6TdOTq1Y2l31E4wygANoAE0gAbG0kCrcyKttm3N9okFW43miTSax2IB16ECV0d299uys9uSrR2N5arL6rp6ufZOY7m2raHFQmlNcoUqwDUERwBdQxTWMOClebqKxYIsL1dla2vjLLZLhxlNColz+DqURqNhWbPZklarLa1259SOpNVWO8YoAzSABtAAGhhbA83WsagpaKkdNo6lfngkB/WO7B20LeDSOC4Fro2tQ1nb6AauLSmU1q14rlyhIoVCXrJZYroGYQSgyyPoyucLouBVKhVkfX3VAq+dHTuoXocaDXwdHOzLwcGB1Ot1OTw08NWURrMljWZbGs0ORhmgATSABtCAixo4ksPmkRw2jqR+2LFga/+gLXv7bdnda8n2blO2dhqnwKXB83tSW9kVjeMqVexhxXxxzYrnymZLUigUgK4BWQLoGrCgBiFY5zFK/clkUuzUEVXZ2FizhhkVvDRhqoKXbbuyv78nBr4O6nWpHx7K4WFDDg+bcthQa8lho41RBmgADaABNDC2BuqHbVE7qLdFYWv/oCV7+03Z2W3K9k5DNrcPZWOrbnm4FLiWz4Br0/ZwKXDlVySVKUkqlQW4huAIoGuIwnJC1SDrGkyfSqWsgHrNTq/gZQ81borCl23bsrurALZr2/6+7B8cyMFB3bb6oRzUG3JQb2KUARpAA2gADYytgf2DpqgpaKnt7jVkZ/dQtnZs2FrfPJC19X1ZWduV5ZUdqda2pVzZlKI1pLhqAVcmV5VUpiApvloc6qtNoMtD6FLg0s9odfLrWq1iTQukQ40KX/pVowLY1tamFe+l+bw0e/3O7o7s7u7Ztrcvu3sHsrtXxygDNIAG0AAacFUDO7t12d6py5ba9oFsbB3I2saerK7vysqqAte2VGtbF4ErtywWcKVLks4QyzWIA8Z5DNDlIXRpQadSSVlailtB9dVq2QqsX11dseK8FL42Ntct29y0AWxre0u2trdle3tHtnd2ZXtn79T2ZXsHowzQABpAA2hgTA1s78vWqW1u7cvG5p6sb+zJ2vqurK7tWLBVW96SSm1TypUNsb9SXJFMribprHq4yhJfSknCCqGZ3DyGTpgJyzrQ5TF0aWxXPp+XfD4rxWJeKpWS5fVaWalZni8FsNW1FVlbW5X19TVZ31iXjY0N2djclM3NLdnc3D61HdncwigDNIAG0AAaGE8DG5s7srGxI+sbO7K2vmOB1sratiyvbkttRWFrQ8qVdSmW16RQWpVc4RS4MhVJpkuSTBcllc5K2uP+MywgNcxzAl0eiyabzYl+yaiVks3qUGPW+qJR4Us9XzrsWKtVrXkal1eWZUUhbHVVVtfWZM2ydVlb25C19U2MMkADaAANoIGxNbC6timrq5uysropyyubUlvelOryhlTPYGtVCqUVyRWWJZuv2cOJmbIkU0VJJPOSSKp3ixQRw8CWORbo8hi6TEGn0zrUqDFeScnlMpbXS9NJWFYuWsH2lUrZmq9RIaxWq9m2vCzLyyuyvLIqyytrGGWABtAAGkADY2mgtrwm1ZptleqalCurUiqvSrG0KoXiiuTyNcnmqpLJViWdqVhfKSZTBUkkc5JIZKwv85n2Z7RhVaDLJ+hS+FLwSiZTVoyXppJQ+MrlspapB0wTzGlCVduKUiyVpFQq21auSLlck3IFowzQABpAA2hgdA2UyjUplmwrFKuSL9iWy1clm6tIOlu200HoUKJ6t1IFiS9lZGkpdZoKaTTgME6IaV4CXT5ClwpNP69NJJISj8ckkViSVErTSiQtD1g6nbLyemWzOhSpZuc/yeZyktNkq/mi5PMlyRcwygANoAE0gAaG10AuXxK1bM62TLYoxtIZjdUqiOXVSukwYl6WEjmJxdOylFDgsr/In2ZoGve3A10+Q5cGHqZSaVlaWpJYbFFisQVrqRCmXzkqiCWTCcs0z5d+HaJJVpOptKR0iDKdxSgDNIAG0AAaGE8DqawkLctJMpWzhw6TOVlKZCW+lJXYUtqCrVg8JfG49kMA17jApecDXT5Dl6k0HQ+PxWJy//68zM/PWbawMC8LC/dlcXHBYYuyGItZx8biSxJfUktglAEaQANoAA2MpoF4QuLxhMTiSYelZDGmlpSFxYQsLCzJwuKSxOJ2km9iuNwZUgW6JgRdCl8q4ng8LnNzs3L37p0zu3fvrszO3nPYrMzNKZjNy/z9+zJ/fwGjDNAAGkADaGA0DcwvyPyZLcr8/di5zS/K3Om+WCxufQBmnAUsxwcvoGuC0GXAS4cTdXhRPV4KXHfu3Jbbt29ZduuWvbx9+7bcuXNH7txVu4tRBmgADaABNDCaBu7ckzt378ndu7Ny996c3JtVm5fZWR150ZAXDXVJWqEwgNb4oOUsQ6BrwtBlKkPTSWicl8LX4uKi5dmyAeyOBV8zMzMyM3NT7KWuY5QBGkADaAANDKuBW2K/zOvoio6ozMnc3LwsLsYkfhrConHEDCe6C1umrwe6AgJdpkLMF4saRK+B9hrjpUOLd+/elXv37l2wsyFHHXa8YPpP1Nv0HwyjDNDAlGtgbk5mMd/LoF+7PMh2u77mZXauj516qtRbdcnm5q2+QyHr3uysta73vH9fY4j1g66YBVna/5i+iCXQNfVisLPb65RCeSu3lyZRXVlZFmsqISuT/Yr1t25bXtbkqlUr2Wq1WpFKxbayle9Lc34Zq0q5jFEGaGCqNFCpSjmQNnruqTDk7apUajKaLUu5YmxFyhWnrUrpNLmpJji1kpxqotNTs7ZVViWTzVvT9uQL9gwpQJU3UHVdueLpCpin67oKM28imttLpxJSuNJ5HI1dhK2ydUy5rElW1YpSLNpWKJbk3MpSKGKUARpAA2ggmBqoSKGoVj2zfLEmlhWWJV9Ytqbs0Wl7cnmduufc9G/dH4slLK+W6UOu62vY7w2UAV0hgy79R9Cxdg2+L5eLsrys3i4ndOkUQhVrXkeFMj2mVNbs9gpbBSkUjBUlX1AbPrke51BmaAANoAE/NVCWfEGtcmpVyRVOLV+zp+3RqXus6Xt0rsRzy+YUxGqyGFuShYWFqR8xmjRMAl0hhS5NoqqeK6DLz4aPe9HRogE0MAkNjA9dmuBUY7cmDR3Tfn+gK4TQpV86an4voGsSjR/3pNNFA2jAbw2MD11LS/b0c9MOPZP+/UBXSKFLvzjR4cLeni47gN4ML1pDjAwvMpTKUDIaQAMh1IABrvGGF3Wyan1ZnzR0TPv9ga7QQtcC0EUHEsIOxG8PAffDKxV2DbgDXYmEnQty2qFn0r8f6AoldCWtuRnxdIW9MeX5AQI0gAau04BL0JVMi+Z/nDR0TPv9ga4QQpdmC9akdsVinuFFvF14u9AAGoi0BtyBrlQqK9p3TDv0TPr3A10hhS7NQF8oAF28JV/3lsx+NIIGwq2BbuiqSt6ki9DlACkjNJVEKg10TRq49P5AVwihS13EOiVQPp+zss5fztM1SCB9gTxdkX47pqMNd0dL/VF/RgNXQFce6AoCSA3zDEBXSKFrdnYW6AKaGFZCA2gg8hroA10WcA0GXeoNU0+XphsaBhA41v2s9EBXCKFLx+U1s7AOL9rzL3ZnpMfTxVuyeUtmiRbQQLg1MCZ0WVMC1SSdzgFdAejvga4AVMKwbxP6trKwuGhN6QN00aGEu0Oh/qg/NHC1Bi5DlzUF0KCeLgNdmZw1hdyw/Q3Hu+vtArpCCl2xWFwKRfV0VXrMvWg8XWXRya57J0fVORiZe/Hqxo7OgPJBA2hg0hq4CrrseRd1+NCad7HX3Itn0JUHugLQ3wNdAaiEYd8kUqm0xONLVnLUwaCrZE0ZdHHCa6CLzmTSnQn3R4No4HoN9IOuc+AaBLoyGaBr2L7Wi+OBrhBCVzqtSe6Sp9BVveTp0qmBFMYqFePpArqub9ho/CkjNIAGgqgBoMsL+JnUNYGukEJXMpnq6+kCuoLYcPJMdOhoAA2MogGga1KA5MV9ga5QQldGdIixVCr0jOkCukZp2DiHDhENoIEgamA46MrkauK07GlMVyZbIF1EAPp7oCsAlTAsTaczGUmlM1aclg4jLi9fTBkBdAWx4eSZ6NDRABoYRQNA17B9ZJCPB7qmGLryfL1IYsnIJ5YcpZPjHOAoSBow0FWRfEGtKnbKiPNA+rMvF/MXvVzq8bI9XVXJZPN4ugLQ3wNdAaiEUag8nc7i6QIYgEY0gAYirwGFLgNcQNco/WWQOwfDJgAAFtJJREFUzgG6QgpdmQzQxdt4kN7GeRb0iAa80QDQFSRoGvdZgK6QQ1e1SkyXNw0dHQjligbQQBA0AHSNCzpBOh/oCjF0FYtFAbqC0CjyDHTOaAANeKUBF6ArR0xXUMAL6AotdOWsPF1Al1cNHdelE0UDaCAIGnADuioE0gekrwe6AlIRw1O4Qtc1nq5qWcoVnXuRjPR0HkHoPHgGdIgGhtcA0DV8/+juJNVu3h/oijB0VatlqXRDV1HnXDTGhNfDN4B0GpQZGkADfmoA6HITeiZ9LaArtNCVPR1eLIsmQ11ZsROk6rpJjtoXus7AC+ii8/Cz8+Be6A0NDK+B8aErk62ITng9aeDg/hkBuoAu8vxEPs8PHd3wHR1lRpkFRQNAV5RgDegKNXTlRb1ZeLqC0jjyHHTUaAANuK2BcaGrJulsSTKZHJ6uAPT3QFcAKmE0is9KoZCXSmVc6GKIkU7C7U6C66EpNOCeBlyArgzQNVo/635APtAVOeiqDRnTpdAFeLnXQNLZUJZoAA24qQF3oCuNpysQnj6gK7TQlZFCIWd9nXhxeBHoosF3s8HnWugJDUxWA+NDVypdlHQmGwjoCIrHaVLPAXSFGLryeaBrso0hnRHljwbQgNcaGBO6cjVJpQuSTgNdkwIt532BrpBDlyY+xdPldaPH9elY0QAamJQGhoCuXE0yXZbN1SSZzgNdAenrga6AVISThAddz+WyVrZ5oGtSjSH3pSNGA2jAaw0MCF25mihg9YSuVE7SafeDwgftqzjuvOyBrhBDVzablVKpiKeLPFvkWkMDaCCyGhgduhTCLE9XKispoCsQMW1AV6ihKwN0Rbah9frtmevjoUED4dDAuNBVlUQyK6nUubcFz9PkygLoCjF0ZTJpoAvowsOBBtBApDUwPnQtLaUllUoHwtMz7cAHdIUcuorFAsOLkW5w8UaEwxtBPVFPXmlgXOiqSDyekmQyBXQFoL8HugJQCaOSfzqdkmIxD3QBXXg60AAaiKwG3ICuJNAVkL4e6ApIRYwCXgpdOhXQtV8vVkpSKhdFvWIFY4WCFKxM9GSk5w3dqzd0rou20MD4GhgHupYlm6tILJ6QZDKJpysA/T3QFYBKGAW49JxUKnkJulZWNCN9TWq1ijUZdqVSkvIZdBWBrsi+DdO5jd+5UYaUYRA1MCp0KXDZ0LW4GAe6AtLXA10BqYhRwEvfXHQqIKen6xy6qpehqwR00akEsVPhmdAlGuivgfGgK5OtyP37i5JIJPB0BaC/B7oCUAmjAJeek0wmRKcCqtWqorBlzPZ0nUOX5e3S4UWgi7gXPH1oAA2ETAOjQZft5VqWTLYss7PzEo8vAV0B6O+BrgBUwqjQlUgsDQRdZ8OLJTuuy4rtIqYrZA0vnoD+ngDKhrKJsgbcgK45icfjQFcA+nugKwCVMCp0LS3FRacCGsTTZQXSA12AFl4ONIAGQqaBcaFLhxfvy9ISnq5R+1o3zwO6Qgxd8XhMstnMQNBVPh1eVC8Xnq4ovxXz2/D6oIFoaWA86NKvFxcWiOlyE5zGuRbQFWroip9CV+Usnus8rqt3TBfQRYcUrQ6J+qQ+o66B8aFrcTFGIH1A+nqgKyAVMQo5x2KLks2mrfQQBrbMUr9orFYrUqmUxQTS6+TYQFfUG2h+HxCCBqKlgfGhKxYjZcQofawX5wBdIYauxcVF0fkXNSeXgS2zBLroeKLV8VCf1Oe0amB86NJ4Ls3r6AVEcM3hJs8GukIMXQsLC6JZ6YGuaW2M+d2ACBqIvgbGh65EIimpFHMvBgEQga4QQ5d+kQJ00elEv9OhjqnjadbAeNCVyVUE6BrOG+UlnAFdIYYu/SIlnU5bsVtmWNEsGV6c5kaa3w6koIFoaECBa1zoqlqTXePpCgZ4AV0hhq5YLGaN0WvAvIEtsxwMugqSP5v0mkY6Go009Ug9ooHoaMAl6EqlrFERLz04XHswqAO6QgxdJsMw0EUnE51OhrqkLtHAuQbGhK68TnhdlaQFXWkC6QPQ3wNdAaiEUd8QlpYSks1mxxhexNN13rjR0FMWaAANBE0DfaArX5VcvnZm2XxNsjnbMrmaqGUVuE6hK5VKW6Eoo/Y1nDeYF2uQcgK6wgxdiaRkcwpdZYYXmdokZFObBK1z43kAriBqoBu6qpIvKHANAV35qqTTCg14ugaBIq+PAbpCDF3JZEpy+dxYnq4CMV3ACsCKBtBAQDUAdHkNQX5fH+gKMXSpyzifzwNddBgB7TCC6DngmfBohUkDl6ErN7Kny70hMr9BJUr3A7oiAV1lWV6uXRhi1K8XNWnq+TRAJbk8DRAxXXRAYeqAeFb0Om0aGA66TDzXhZguHV4McT8XJeDS3wJ0hViMqVTm1NPVH7o03kvBq1wGuuiwpq3D4vei+bBrYHDocgJXN3RFDVzC/HuArhBDVzqdlUKhYAXS9/N0AV1hb3R5fsABDUyvBsaFLv2KsSKZTJZ0EQHp64GugFTEKOSezgBd09sY0xFT92gg+hq4HrqsdBF5O02E09tlp4wAukbpW708B+gCuk6z0tOAR78Bp46pYzQQLg30g66uHF1AV2g8ea/RufuwsJaBHdOlMVsML9KZhKszob6oLzRwvQaALi+9TpO49mueffZZwcJXBs8995zcuPGS6FRAQBeN9/WNN2VEGaGB8GkA6JoEGHl5z9f88z//s2DhLINnn31OFhYWgC7ydJGnCw2ggUhqQKGr4rCq2Hm6hhhezBFI7yVEDXttoCvE0PnMM8/KwsJ9qVRKIw8vkpGet//wvf1TZ9TZtGgA6BoWaoJ+PNAVYuh6+umnZX5+7hS6qj2To16XMkKhywavaWnE+J102GgADYRFA25AV5mUEQH6YA7oArqArkgOS4SlU+E5ASA00F8DQFfQPVfDPh/QFQHo0mzzOu3Pysr5VEBmGiA8XTTo/Rt0yoayQQPB1sCY0JWrSSaLp2tYMPLyeKAL6MLThaeLIGw0gAYCqYFxoasqmWyJ4UWGF8P5tWDQvvI0MV3lcnF4T1exYE0hREwXb/rBftOnfqifadaAG9BVBLqALqDLDYBT6JqbmxOga5obZX47UIIGoquB8aArk6tKOgN0eTlcOOy1GV4M8fDit771Lbl3756USni6otvo0qFSt2hgejXgBnQV8HTh6cLT5YanS69x9+5dKZUKDC8GMh6DznJ6O0vqnrp3QwNuQVcmNHMTDus5CtvxeLpC7OmyoetOH+iqSa1Wkb5fL16K6SoSSAu4oQE0gAYCpYFxoasiqXQe4MLThafLPU/XHSkWC1KrdaeMcEBXtSzlSskahtRj1QpAF51LoDoXN7wCXAPvUtQ0MCZ0ZSuSTOWALqAL6HILum7fviW5XBboAiCASDSABiKngQGhS/NxdVk2b+foSqayQBfQBXS5BV0zMzOSyaSBrsg1tlF7Y+f34IVCA8NrYDzoSmfLkkxlJB0g6AhbDJbbz0tMV8hjuoAuGvLhG3LKjDJDA+HQwLjQVZJEEuhyG5zGuR7QFQHoSqfV01XpmgboPKbLDqYnpiscjSydIfWEBtCA0YAL0JVISTrN14vjgJKb5wJdIYeumzdvSjqdAroYXiSeBw2ggchpYEzoyhRlaSkp+mLuJjhwrdEhFugKOXS9/PJLkkwmgK7INbbmTZclXg80ML0aGB+64vEE0BWgmDagK+TQdePGDYnH40AX0IWXAw2ggchpYEzoShclFlsCuoAuvl506+vFF198UeLxWB/oqkq1ahKklqRULkqxRJ6u6X1rxmNC3aOBcGlgPOhKpQuyuBgHuoAuoMtN6IrFYhZcLS/XLgTTa8LUy9BVJDlq5N6G6UjD1ZFSX9TXoBoYH7oWFhaBLqAL6HIXuhYHgq5yuXialb5IRnrAi6EoNIAGAq+B8aBLs9HPzc9LKpUikD4g4EVMV8hjul544QVZXAS6eHMe9M2Z49AKGgiPBkaDrmyuJrl8TRLJrMzOzgJdAQEu/eoT6Ao5dD3//POysHB/IE+XHdOlcV14usLT6NJBUldoYHo1MB50qadrHk9XoLx8QFfIoeu5556TublZ0QSoy8sXJ73ujuk6G14sncZ1FQpSKBQtyxeKDDUEfqiBznd6O1/qfjrrflToWrY8XalUXhYWFojpwtNFTJdbMV3PPvuszM7e6wldCmGaqd5kpAe66Lims+Oi3qn3sGpgTOhKA11BS+SKpyvkni6Frnv3gC46lbB2Kjw32kUD/TUwPnRpzC8Z6UfPIO82tAFdIYeuZ555Ru7du4uni6FBhofRABqInAbGha6CaEohoAvoEreG16b9Ot/5znfk9u3bUqlcjulieJE36P5v0JQNZYMGgq+B8aArbc29SEZ6t71V41wPT1fIPV2jQFeJQHo8ApHzCAAQwQcI6mj4OhodurL5mih0JRLMvTgOJLl9LtAVduh65hm5c+fOUJ4uoIvGf/jGnzKjzNCA/xoYE7qyQJfb0DTu9YCukEOXxnTdvXsX6MJzg/cODaCByGlgfOhKJpPEdJEygpQRbsWiPf30d+SWFdNVupSnq19MF54u3tj9f2OnzClzNDC8BsaDrky2RDb6AAGXesnwdIXc0zV+TJedIJXkqHQIw3cIlBllhga81cB40JXNlyWXywYqI/u4w3NhPx/oigR0jRPTpdBVEKCLzsPbzoPypXzRwHAaUOAaB7o0K71CVw7oCpC3C+gKOXQ99dTTMjNzy4rp0ml/VlZqZzbY8CLQNVxDSMdBeaEBNOC1Bgxw9YCufNWa4kcntFbTrxR1guuMw7J5Ba5lyeXKAFeAgIvhxZADl8aFfetb35IbN16UYjEv/aGrYkGZmQboYkwX0EUH4nUHwvXRGBoYTgPjQ5cFY9kS0AV0EUTvVhC9uY5Oeh2LLUqlUjrzcqnH67KnqyQKXEAXHcBwHQDlRXmhAX81MBx0Ob1cuq6erlS6IMlkGugCuoAuA0tuLTWYXocYi8UC0BW5T8bp7Pzt7ChvyjsIGugFXVXJF3Ro8fLwYjd06d/JVFY0XUTYA8+j9vzEdEVgiPGpp56SF1540frnqtUqZ+B17ukyw4t4uuhQgtCh8AzoEA1crYFu6LKBa1DoSmcqksnkAa6AebmI6YoAcBlv2be//W2Zmbkp6XTqLF8X0EXDfnXDTvlQPmggmBroDV25ATxd6WxFEokU+bkCCFxAV4SgSwPqn3/+BYnHY1ZslwKXDV1VqVbxdAWzYaXDo17QABropYHL0GUBVx/osr5ezFZFPVyptCZETZOFHugilst4pbxafuc7z8jt27clmUqIfqlYrZYt4NJlpVKWcpnhRRr4Xg0829AFGgiWBoaALk0VYQFXWVKpoiRTOUkHFDiiFp81yu8hpitC3i6FOTuoXocZk1Io5Cz40q8a1YAuOpZgdSzUB/WBBnpr4DJ0WfFcXZ6ubK5qAZd6t5Ip/Voxy7BiwIET6IoYdOkwo4LXyy+/LEtLS5LNZiSfz1p5vDSXV6lUsFNGlIpWJnrNRk9Gehr+3g0/5UK5oIHJaKA3dJlA+myuIplsRVKZsiRTRUkk85JMZRhSDDhwEdMVMeAyw5YGvG7evCkLC/cllUpIJpOSTCZtQVgul7Hm48pms9YUEblcXnL5guTyRcljlAEaQANoYKIayOVLYiybK4maTl6tls6UJJXWYcSCBVvxhKaGUODKWG38KENenKNl54/h6YooeJmhRvV4zc/PWQH2S0sxWVqKSyKxJMlkwsrhkkolLXd0Kp2RdCZrWSajc3VhlAEaQANoYBIaSGdykk7nJHVqGqeVTOUlkczJUiIn8aWsxJcyEl9KSyJB0LxfwOTGfYCuCEOXAa+XXrohc3OzMjt7zwIw9X4tLi44bFEWYzGJxZckbllC4nGMMkADaAANTEoDsXhCYvHkqaUkFk9JLJaShcWkLCwmZHExIfGlJEOKPnmo3AAuvQbQFXHoMuB148YNefHFF+TWrRm5d+/umSmIWaZQNjcnc/PzMj9/H6MM0AAaQAMT1cCCzM2rLZ5aTObm1RatetGYXXtI0Z9hMbegY9qvEyno0lgmP83EUAV9qWXy9NNPi525/nkryF7jvW7fvtXDbsvt23cwygANoAE0MEEN3LlzV+7evSd3783KvVl9IdYRipiVg0un90mlNE4X4ApbGUQGuvyELee9gg5c3c+n8PXss8+KTpL9/PPflRs3XrQgTLPZ37z5srz88kvy0ksYZYAGplUDGgeqNjMzI7du3ZI7d+7I3bsKAOohv4f5UAYLCwsSi8WssI/7C4uyuLgosVjcisPN5TTODtgKaxlEArqcEBTE9W7wCdLfzzzzjLzwwguiw4+6/O53v2sBmS4xygANTJ8Gnn/+eastUPDSZMuzs7Ny//59CwIUBOLxOOZxGeTzmt6nZKXzCStc8Ny9wTgS0HUVxAQBwq56viDsC0IZ8Qz+Do1T3pR3Pw3oPK4aiqDArWEICl0KWjqclU6n8bLgZUIDY2gg8tDVD2r6NThebO/3DGxnaig0gAaCpAFn+6decPWA67Cierg0jgjo6u29wKtDuQyqgamFLm3onA2Ml+tBalR5Fjp5NIAG+mnA2Q7qzBYacqBDjBpjlEgkgK4xPByDdsocF22Am2ro6tXwOBsdN9d73YttdH5oAA0ETQOm3dMhRv3gRocY5+fnrWnF+GIu2kAA8Hlfv0DXEHm6TGMUpWXQGnyeBwhBA5PXgLZxGtulQ4z6FaeJ62KI0ftOGfCJdhkDXUNAF53B5DsD6oA6QAPea8AJXRrXpakiiOuKNgwAe/7UL9AFdAmdmPedGGVMGYdJA8abr3FdL774ohVMb+K6GGL0p3MGgqJZzkAX0AV0oQE0gAYuaMAJXRpMrwlSNVeXTj0DdEUTBoA8f+oV6KKxvdDYhultnGfFe4QGvNFAN3RpZnoNptd8XcR1+dM5A0HRLGegC+gCutAAGkADlzSg4KXThmmSVM1Or8H0Oh0NqSOiCQNAnj/1CnTR2F5qbPEeeOM9oFwp17BpQNNG6FytGkzPEKM/nTLwE+1yBrqALqALDaABNNBTA8bbpfMx6gTY6u3iK8ZoQwHQ5239Al00tj0b27C9kfO8eJHQgDcaMPm68HZ52xkDO9NRvq/RfygTNMmSSXDRgPcaAA68gQPK1ZtydXq7nBNgE1A/HZAADLpbz6/RyUz7mY7hq+ncW/r1iv7DaUClvvHoZ8QaYKnj/RpsqWP/GGWABtzTgL4QOa27bK/aZ441x5i/nUuzT5fO7cOsm2uYc8zf/a5p9uvxvY5xbnOum+PN+SwvasON8tB2XDPQ69Q/Opyobby29drua/uvCVI1bQRfMLrbCQM101Wer7muwnVWec3Lom81mqNFx/M1SZ5+Pqz/hApkBsYUyDDKIIga0KlM1Po9m9l/1TH9zjXbzTXM386l2TfM9Z3n9DrPud95L+e6Oca5zaybfb2ubY65bmmuYY4zf/e7ptmvx/c6xrnNuW6ON+eztPXsZjloO67tub6Ea+yWtvH6taJCln6xqP2A9gdq1/Ub7J8ukKC+B6/va6GLwhy8MCkrygoNoAE0gAbQABropwGgK4M4+omD7WgDDaABNIAG0IB7GgC6gC6GCtAAGkADaAANoAEfNAB0+VDIvCW495ZAWVKWaAANoAE0EFYNAF1AF283aAANoAE0gAbQgA8aALp8KOSwEjnPzdskGkADaAANoAH3NAB0AV283aABNIAG0AAaQAM+aADo8qGQeUtw7y2BsqQs0QAaQANoIKwaALqALt5u0AAaQANoAA2gAR808P8DZZwDzTjd+HIAAAAASUVORK5CYII=;" parent="1" vertex="1">
                    <mxGeometry x="170" y="110" width="133.76" height="130" as="geometry"/>
                </mxCell>
                <mxCell id="7" value="" style="endArrow=none;html=1;fontSize=16;fontColor=#000000;strokeColor=#000000;strokeWidth=2;exitX=1;exitY=0.5;exitDx=0;exitDy=0;entryX=0.449;entryY=0.308;entryDx=0;entryDy=0;entryPerimeter=0;" parent="1" source="2" target="5" edge="1">
                    <mxGeometry width="50" height="50" relative="1" as="geometry">
                        <mxPoint x="119.95999999999992" y="150.00999999999976" as="sourcePoint"/>
                        <mxPoint x="230.02623999999992" y="160.03999999999996" as="targetPoint"/>
                    </mxGeometry>
                </mxCell>
                <mxCell id="8" value="&lt;font color=&quot;#000000&quot; style=&quot;font-size: 16px&quot;&gt;USBコネクタ ※&lt;/font&gt;" style="text;html=1;strokeColor=none;fillColor=none;align=left;verticalAlign=middle;whiteSpace=wrap;rounded=0;" parent="1" vertex="1">
                    <mxGeometry x="20" y="199.99999999999997" width="130" height="30" as="geometry"/>
                </mxCell>
                <mxCell id="9" value="" style="endArrow=none;html=1;fontSize=16;fontColor=#000000;strokeColor=#000000;strokeWidth=2;exitX=1;exitY=0.5;exitDx=0;exitDy=0;entryX=0.374;entryY=0.538;entryDx=0;entryDy=0;entryPerimeter=0;" parent="1" source="8" target="5" edge="1">
                    <mxGeometry width="50" height="50" relative="1" as="geometry">
                        <mxPoint x="160" y="144.99999999999977" as="sourcePoint"/>
                        <mxPoint x="230.02623999999992" y="160.03999999999996" as="targetPoint"/>
                    </mxGeometry>
                </mxCell>
                <mxCell id="10" value="&lt;font color=&quot;#000000&quot;&gt;&lt;span style=&quot;font-size: 24px&quot;&gt;下面&lt;/span&gt;&lt;/font&gt;" style="text;html=1;strokeColor=none;fillColor=none;align=center;verticalAlign=middle;whiteSpace=wrap;rounded=0;" parent="1" vertex="1">
                    <mxGeometry x="620" y="40" width="70" height="30" as="geometry"/>
                </mxCell>
                <mxCell id="11" value="&lt;font color=&quot;#000000&quot; style=&quot;font-size: 16px&quot;&gt;ねじ ※&lt;/font&gt;" style="text;html=1;strokeColor=none;fillColor=none;align=left;verticalAlign=middle;whiteSpace=wrap;rounded=0;" parent="1" vertex="1">
                    <mxGeometry x="430" y="155" width="70" height="30" as="geometry"/>
                </mxCell>
                <mxCell id="14" value="" style="shape=image;verticalLabelPosition=bottom;labelBackgroundColor=#ffffff;verticalAlign=top;aspect=fixed;imageAspect=0;image=data:image/png,iVBORw0KGgoAAAANSUhEUgAABNwAAAIRCAYAAACRaqBAAAAgAElEQVR4Aeydee8kyZnXeW0gEOIGIQ4BAnFIgITEDbv22t7D9nrtmb6P6enp++6Znu6Z8Xjs8bles9jrXbNmgd1Xk+hbzzwdT0ZF5FWZVVn1+/wReiIjj8qM+GZGxKeeiPhzH3zwQUMgD9AAGkADaAANoAE0gAbQABpAA2gADaABNIAG0MA8GvhzZOQ8GUk+ko9oAA2gATSABtAAGkADaAANoAE0gAbQABpAA9IAwA0PPzwc0QAaQANoAA2gATSABtAAGkADaAANoAE0gAZm1ADAbcbMhGJDsdEAGkADaAANoAE0gAbQABpAA2gADaABNIAGAG4ANwg2GkADaAANoAE0gAbQABpAA2gADaABNIAG0MCMGgC4zZiZEGwINhpAA2gADaABNIAG0AAaQANoAA2gATSABtAAwA3gBsFGA2gADaABNIAG0AAaQANoAA2gATSABtAAGphRAwC3GTMTgg3BRgNoAA2gATSABtAAGkADaAANoAE0gAbQABoAuAHcINhoAA2gATSABtAAGkADaAANoAE0gAbQABpAAzNqAOA2Y2ZCsCHYaAANoAE0gAbQABpAA2gADaABNIAG0AAaQAMAN4AbBBsNoAE0gAbQABpAA2gADaABNIAG0AAaQANoYEYNANxmzEwINgQbDaABNIAG0AAaQANoAA2gATSABtAAGkADaADgBnCDYKMBNIAG0AAaQANoAA2gATSABtAAGkADaAANzKgBgNuMmQnBhmCjATSABtAAGkADaAANoAE0gAbQABpAA2gADQDcAG4QbDSABtAAGkADaAANoAE0gAbQABpAA2gADaCBGTUAcJsxMyHYEGw0gAbQABpAA2gADaABNIAG0AAaQANoAA2gAYAbwA2CjQbQABpAA2gADaABNIAG0AAaQANoAA2gATQwowYAbjNmJgQbgo0G0AAaQANoAA2gATSABtAAGkADaAANoAE0AHADuEGw0QAaQANoAA2gATSABtAAGkADaAANoAE0gAZm1ADAbcbMhGBDsNEAGkADaAANoAE0gAbQABpAA2gADaABNIAGAG4ANwg2GkADaAANoAE0gAbQABpAA2gADaABNIAG0MCMGgC4zZiZEGwINhpAA2gADaABNIAG0AAaQANoAA2gATSABtAAwA3gBsFGA2gADaABNIAG0AAaQANoAA2gATSABtAAGphRAwC3GTMTgg3BRgNoAA2gATSABtAAGkADaAANoAE0gAbQABoAuAHcINhoAA2gATSABtAAGkADaAANoAE0gAbQABpAAzNqAOA2Y2ZCsCHYaAANoAE0gAbQABpAA2gADaABNIAG0AAaQAMAN4AbBBsNoAE0gAbQABpAA2gADaABNIAG0AAaQANoYEYNANxmzEwINgQbDaABNIAG0AAaQANoAA2gATSABtAAGkADaADgBnCDYKMBNIAG0AAaQANoAA2gATSABtAAGkADaAANzKgBgNuMmQnBhmCjATSABtAAGkADaAANoAE0gAbQABpAA2gADQDcAG4QbDSABtAAGkADaAANoAE0gAbQABpAA2gADaCBGTUAcJsxMyHYEGw0gAbQABpAA2gADaABNIAG0AAaQANoAA2gAYAbwA2CjQbQABpAA2gADaABNIAG0AAaQANoAA2gATQwowYAbjNmJgQbgo0G0AAaQANoAA2gATSABtAAGkADaAANoAE0AHADuEGw0QAaQANoAA2gATSABtAAGkADaAANoAE0gAZm1ADAbcbMhGBDsNEAGkADaAANoAE0gAbQABpAA2gADaABNIAGAG4ANwg2GkADaAANoAE0gAbQABpAA2gADaABNIAG0MCMGgC4zZiZEGwINhpAA2gADaABNIAG0AAaQANoAA2gATSABtAAwA3gBsFGA2gADaABNIAG0AAaQANoAA2gATSABtAAGphRAwC3GTMTgg3BRgNoAA2gATSABtAAGkADaAANoAE0gAbQABoAuAHcINhoAA2gATSABtAAGkADaAANoAE0gAbQABpAAzNqAOA2Y2ZCsCHYaAANoAE0gAbQABpAA2gADaABNIAG0AAaQAMAN4AbBBsNoAE0gAbQABpAA2gADaABNIAG0AAaQANoYEYNANxmzEwINgQbDaABNIAG0AAaQANoAA2gATSABtAAGkADaADgBnCDYKMBNIAG0AAaQANoAA2gATSABtAAGkADaAANzKgBgNuMmQnBhmCjATSABtAAGkADaAANoAE0gAbQABpAA2gADQDcAG4QbDSABtAAGkADaAANoAE0gAbQABpAA2gADaCBGTUAcJsxMyHYEGw0gAbQABpAA2gADaABNIAG0AAaQANoAA2gAYAbwA2CjQbQABpAA2gADaABNIAG0AAaQANoAA2gATQwowYAbjNmJgQbgo0G0AAaQANoAA2gATSABtAAGkADaAANoAE0AHADuEGw0QAaQANoAA2gATSABtAAGkADaAANoAE0gAZm1ADAbcbMhGBDsNEAGkADaAANoAE0gAbQABpAA2gADaABNIAGAG4ANwg2GkADaAANoAE0gAbQABpAA2gADaABNIAG0MCMGgC4zZiZEGwINhpAA2gADaABNIAG0AAaQANoAA2gATSABtAAwA3gBsFGA2gADaABNIAG0AAaQANoAA2gATSABtAAGphRAwC3GTMTgg3BRgNoAA2gATSABtAAGkADaAANoAE0gAbQABoAuAHcINhoAA2gATSABtAAGkADaAANoAE0gAbQABpAAzNqAOA2Y2ZCsCHYaAANoAE0gAbQABpAA2gADaABNIAG0AAaQAMAN4AbBBsNoAE0gAbQABpAA2gADaABNIAG0AAaQANoYEYNANxmzEwINgQbDaABNIAG0AAaQANoAA2gATSABtAAGkADaADgBnCDYKMBNIAG0AAaQANoAA2gATSABtAAGkADaAANzKgBgNuMmQnBhmCjATSABtAAGkADaAANoAE0gAbQABpAA2gADQDcAG4QbDSABtAAGkADaAANoAE0gAZOXAMffvhh0xU++uijhkAeHLMGXN+ALkDXWjQAcDvxinUtQuM++OihATSABtAAGkADaAANnJoGvIM/xX700YeNhynnp3M+aD78sC/ot7Zh0je/+VFj4ZvNN79p4eOPv9l8/PHHBPLgKDUgHUvr6f348PWfCf6enNp3iOdZb90KcAO4vf4A8aKu90WlbCgbNIAG0AAaQANoAA0cRgOx416GVgaovvWtbzW1kAMsHffJJ5803/72Jxur+CefxPMj8EowLIdjBskcmm1b3a9DNb+Hb33r42Y7pN/Wfei+CKeQB99uvv3tsxX0Lun9cr07gIvvgsAb31PyYB8aALgB3PjYoAE0gAbQABpAA2gADaABNPCBvMRs2GUEa+75JeudeAdr6tx/+umnzfe+973mBz/4QfPDH/5wE370ox81HpT+/e9/vxV+9KMfNj/+8e82v/d7P94ExX/3d3WOzv9B84Mf6PjvNd/73neb7373081vfOc732k8fPrpdxoL324+/XQ7fOc7327qoRsk6bx0ff+d07Tf/e53mtMOn270Iw2dWvje9/TetUPpGaVlA9sJJOv93gds4TeAegA3Gld8bNAAGkADaAANoAE0gAbQwCgN+NAsB1S5jcDKPEu+ufE6kfeUeXMJ+kTPm+jpZR4qglo6xiGTbDrHjnfw5SDMrXtw+bYNkxQw2w4O1OJQSj8/WfMA2/b+Epxy4Pb9DSgTMLMQ4ZkBNEE0Be0XYEvhh82PfuTn2XUicHPoVgZhEbgJjNl2Gbh90nznOw7cVBYKH2/Ct76lMtrOn3aefdR8/LFC33Hr3+/Pe/q25NF4/Gmu22j9fVWa3gMB7Z/+9H82P//5z5qf/vT3N++b3iEd5xrW90nfL+AYcGwJDQDc9ti4yhsibHdP3Er+kD9oAA2cigaWqMC5Jg1DNHBaGsi/dzmw8k5hfpxvl463tGXqEv89H64Yhzo6uLLOr4Oq6AkmoGRwSR5dba+u72+8xeQxpiAw9eMfJzDVPrbsAaYOtbyWHE61wZOAk3t/RfjkEMpBYG1fPN+vYx5h255S7lWU7sXvSQBt2ztn29vK4Zlsum/7vXZavC+79wTW4rYBNodMgmff/Kbmd7M54D744FXz6tXL5tWr95uXL18QyIMj08D7G+1+8MHLDVD7H//jJ80vf/nHzZ/+6f9r/uRP/nfz+7//PzbfBR8uLeAsKK/vGXXqadWpaylPgNuCwC1vAOll1r9w+lcv/TsX/9kjTr6gATSABo5dAz53iHtdyHNC9cGrV+rEvKJBt2C9u5bGFfdBoz1qwNuDsg6pcuseVj5kUd/B6NXl8a7vo46Rp5UPqVLczlO90vYGa4OwNHeXe4fUrHuL1fZbO9e9ptoAS7DIINN3Nx5eP/iBhmC6R1jy6Pr+97+7GUapoZSK//CH3994fuXeXzrfPMDSM7eBl4ZhRtCVvMASuEogKsIp74x/+9vysLNgnmBpezs9Pu+wuH6zL/jvtG26fjo/AbkE6dLzuy50vGCbATbVSS+bly8Nrr3//nvNixfvNu+997x5991nzfPnT5tnzw4RnjTPnhHIg/EakGYVpF/pWe+6vEh///d/0vzkJ7+3+Wbo+6V3XFZ/FDCfG3V2rLPnjgPcZmz4lxpS8d8+NULUULLKPzYOiHsjAIsW0AAaOGYN6Puuxl3sLAvAqS7wCtzrCu+Ex453KS3uz+N+/FDrq+FFO/TcqcfF36rHt1fOy5+V7X3lUVo1sV5e5WOmamTu86JWIsjyeNxfi891T/H6/vsG1TTcLk2K74Dehyt+97uCTgaUfAiirNK3v5FKE5z6/mfDGDX/lwWlmafYd7M5wNpwJgEog3MJOCWw49DO/jhupzsMyvclGCSwZMArh2Lu5WXPte3h5ftzG6+TAJNDtQSaatBt+5yUJzE/8vj2eeXf2i6n7fq9/UwJNAo21oIgpIVtfUgjBjITzHSoafr5dDOEVLBNHmwO2N5993nz/LkDtifN06ePmydPHjWPHys8JJAHR6cB6Vc6FkCWx6bXZx9+KMj8ajMsWqDt/fdffBbkGSfPTv4Y9fYqdh4QCXCbCbipYaZGlRoaCtZwSg0p925TY8UaHOXKud0o4Ji150ds7BHfbiSTJ+TJWdOAOmL6xjtwk4eJvmPqRFsnW/PkWD2hOkNp3tHWP62lDnjan4ZleT0Tjx8aj54p6Zyl5tqxZ4q/WY9HLxviebnvZ3vanD5JR20N19OH6q12vTasKv2O8kvvSe4R5u+fWTsmxU13dr38Hv1e8nTf9v1uU7q/21H77i2VbAJY+oaYd5eAinl+GTSx4ZNlEGOAJQ3PtIn7DbzFyfe3gZ2gj8Mha3eVoJWl5fApbaf7d1jXhm39nlzbxycAtg25/B7LVnWPtyH92Uo2Ai/fH9MsbvDLwWfumScPPJ+zzfPfbZqfLQ2J9TQtkuDh935PiyekBRR8IYWS/clPftyk8Hsbrx157sRj0/60IIPuSfmo4aMaKiovNvNge7KBawbYHjaPHj1oHj580Dx4cJ9AHhytBh4+vN+0w4Pm0aOHGwgn7zd7B9597cEp6PzixXvNy5dAN0DbPKDN8xHgtiNw839A5b2ghpRXxqrk9W+fJmyU27Z5un24qeRU0dm2OluEY84DmzTWJ4/Fkh9o4KxrwL7v9o3XHEaqB9SJ8w6cOmXq9KjzLCAgGKDOs45RvWGwzv6YUdw7jGZtlTr3fBHMM5gQO7Kpg5qDBt8ud5C3h0m5x8p0ax3w7U50vF97Vj3fWYOzh3/eCFmS/pI+kpb60hywDLUJMvnQw5LdBjh+/QjNPK1t7d3Ru2WgKnl7RY8vB1dqu6X30N8rH4apd6N9L37/nh417mnpvYnnDn/P4jXb8e1yMRjVD5jS98QhVTpne58fM9y6Tuxa5fPG6T5p1L+hXmZpO31flSbPr9zDy2GYfX/1Dfbww+Z3fzcPCYxp3rgUEgwT3FLQ3FCaD0rhf/5Phd/fBE3QrvCznyn89HX4gz/4WVMKmszdwh80f/iHf9D8/OcW/vAPf97Ugx2TX89+z35bE8Qr6P50v3p+ebbJ40egzb3YDLAJrt17He7fv9fcu3eXQB4crQbu37/bpHCvkaYFkQXhpPncc/PJk8eb9wLoNi9scuh0li3AbQfgJu8E7zCpkaGKXhWz/ulS40gdzzg/Qj75aHJhdVdWLHmCBtAAGjg+Dby3GZajoTkWrAw1J46GLqg+kEeDOkZ//Me/aP7oj/5w0wFSx1wdU3WC1OFXXB15gTr9ESHrHjHWwXeAZfMgxfmZcu8P1Um6voOB3Np142p088Nin5C7y/rKYglODAcSnLNrXkUQZHHpxDU3xdpE+e7Z1WVNb7U/3IZfxzTc1ph56elZ9A743GcJKJUgk6Wl+c7yYZXtvPb3SRpswzDP0/Lxrne35TxO7315v60m6dew5/TfS98Ih19u4/Mn6BWBVnsIYxq2GAGWD1eUR5d5dRm8ErQyUCWPreitlTytBKgcUtVAlQCRwSq3Dqz+4A9+2lgoQyt9XyO4cmi1be04He/XNjBmv+vQTNZg2k82YE1wzYMDt2jlXWbeag7sDOSZp5uvPNq2gsGWj2YNDsuj0fO5bf1PfQfEBh9TGfofN6msHc5aXaA/hOTVJtCmoaIRtAlM3Lt3p7l7l0AenI4GpGkLCR4bhEtw2b3g9D7Iy1NzFr73Hp5uZxmQzf3sALeJwE2ebWrkaF4MVbCp0v3x5t81VWo+N4I6YHHyUZ/M8TCTkB5i4lN+k7JGA2jgVDXQNaGvGm3PN57N+jPmj//4f71eJUsdPXWK1Bn2TpS2BRo0h4hNYG3ziWiOEYEJdb51vP7cUYcseW1YB00dZO0TfBMI0J8+qov0x48HXcvmL7EV6FRPLRU0EXc72LwpmjvFg+5Fwe8Pm8pq+bzYnofNJo5O5ePlNNTa/DfSVl8w3bnOcxvPTxqK9+XaMv24jszaSouWf+kZDWLrPTKg5dCsy257qznYMo88A3ruselwQ9bT3Nb2xfT8vHxf2ta3IkGz77z2oNX7LwgT5/dKEMeGpvp3w4c8ykZY5kMcDZzZcMQEzWwoYwRn8uwyTyrz5jLwte2lpT8aPPziF3/U/K//pfCL10HfR4Vf/tJs2v7jzQqD//t//7KZGrRCoV/Pf1P3oPuRB5lBOYG8n26An8M2ATa1732opvJEeaU8Uz4qbx1+CXbp+6xvr77VBo3TN9g1Kj0nfafvr68GanOqaeECW7xA3mi+iIH1JXwxA8235sEmie/vXzzZePUILNhwUXn93P0Mst1u7twhkAenpYG7d2+3IHIO4KT/Bw8U3PvNhp2qzY6nG55uc4E3gNsE4OawTZWtOk1aYvjP/uz/Nf/n//zJpgJWo84hm82NkNy20wSkPhEp1iZkJR/IBzSABo5JA92TSGueEAUNUdBcIepkqWNvHWXrFKuDpjTVGUpX0Lbghhp6772njtZ7m86ZOnDq5P3sZz9rfvnLX27qm//7f//Pxv7Jn/yyUedR9ZE6hupw63j9ptdFuoc8eOdsKeu/9957zzbgUZ3FWrBOpXUydc+E5fPAOvTesTe9SXO1MupK19w3adJ1hwBd1gBB7Y+IBBJct64d3Z8FBxF6DtPLi82cPAIXCSI7mHu5WYVOADoBN1ulzoGbwzX3CJP199LhlgEtH8IosGXzppmnUj5M0YYj+rxcAjcRVPlQRBuOaEMRBXpyzy6914JYEWTFYYYOsdwazPrFxptWHrUOmqIVgIrB9wlGKR6hlK73i1/84Sb80R/ZEMfkNWaQyr3PoqeYniN6izm8SgBL85clbzAf5ulAMAeF0evL/6Qw64AxeuhZGekb68HKMkFLL28vf/cYlD4clvmfFvbHhcFb+9NCHdEEgA2gpVU+/fvlGo3vjn8Xo8ZTvPRelP/UefpUCxt4eLzxWpPnmg0T1YIHeVD9avOzCbb5kFF5cxlkutXcuePhtKALEI3ydA0YgBOEs3Dv3u3PPODubOCzDTnVcFPzdFP9oj+EWEgB+LYLfAO4jQRuPoxUk9CqMaF/2/7sz/60UcdHDSB1clTBahlnVXZ6Ya3jpQlIbdy4/avERKTkAxpAA2jguDWQhiTEuW9SXN98mydEnSB1qtTxUmdMMEydOodrWj1L9YeC4hpWa50wecm9uzlOHUd1WtWxVkdaHWHVO+qIq9Muzwsdo+uqgSgAog5ZnAjbQaBsnL9EHg9Tw+PHesbt+VDi9XUP2x3A1CG0jmK5Y6n6lLBbHqSOuXfQfRXCVAZd5eP76n8KmJ6ivurxpDW9H6UQtSgdmX5sxbn4LKYL857V+2IwI8E57yzpnRJgEbQR2NG8XTY3V5q03j27BK3TqAWfq8uGQvqQQrcGzTT0MAGzCM3UTszn8RJAM4iWQJqnTbEO42TtuhoymTzM+uJ+vs796U89JFiWwKCGVPoE/fJ8M2Bm0OyHr+dFc88v9/6KHmDyvjUvMA19TfMcO+CKHrkOttwrN3mI5aDLPcait5jBr+Q15lM1OJxNoFkacYibrGvIvMkckrlNgMyhcvIwi9+qqFWHYdH6e5WsvpPDQ/19bP95Ze+i9UNUP9nwUfNsA7YBoxxGnS1rcNnBm6y838zjzdtujz5rtwHddoFNnPtBA3AbAdzk2abOkCasVuNK/wL+6Z/+vw1s0797+vdMlbUqTjUWBdjUmdS/SBbS+HEmIiUv0AAaQAOnrQE13GySXhuq4HBR9YM6Xaov1HFTXHBMXhI27M2GlSpN9Yntl5fcqxY0EDyw4aOaM/SbGw+eCNrUyUp1UDmv7R61z+c5mWbv37eGql8vtz5cw/Mgt/6HVAQtxBOY2jUvtqHWtD8AU3smtWtU1sO+ZePnBfIOkH5DGnKd6HlSngj2GWDw90XvjMCH3i/Ba7XdBII0/FGAqQah3HPMvcXK9ueNe3r58bI//7kPTUywy2GWwzDBN/NgS4DOgVb0ANMQzjQnWPIE82GgEWolTzCtaGpzfvm8YGmfDzu3Y6KHWJwHzFdVVns2evp1e4P5fHy2MJjgZhuWuTeYwFgCYSUvMH3zBLW2gZbS8mkJDEL3QS1pIYYEt4bA5uHwKwdlrslu2/7jI/5J0RevA23zrvb9/u5bXWCTyOu9Knu2CUIAoMiDU9eAe3K6jR5vbeim74W+R/bnjb5hAv54e5EH4zQAcBv40gi2ffObWnHuk02jTY0rn0tCjSf9U6fGXergeKXmcyOocvMXenyjkwk8yTM0gAbQwHFpwCFWDp8cWnhHyMDBw02jTsBM0E2dVsXV2HOwoA6d6hl1SuVJrQ6o0tQx0zG6ngM2AZC7d1P9092B8EbnHNYa6qm+83ovDdvwfImQZjuP4upi2/HkRdjnZXh6+8fmVX58zPch8fTdSWWZl2+fvm7fvtXsEjTULf1mgsL2bF7G5pWgd8FhhWCMwLbaaIJVAm7mBZZWjoxeZRGQxbgfY7AseX/5XF+CZub1ZsNGfc4z8wLbnver7P2VVilO3l+20r0twpVAluB7mgfMQZZgVvLyMrhlae7pJZsWpYneXj5PWBqya/DLhgq34+5J2LZxaHp5qHDbSzNCMI8Pg2FtCNYGWv0Ay0HUcBvh7ri4f+O7rcHvBJOHb+d/XNS33atNdai9x/bOlr75Cbb4sdj6t4+8WX/ebNdPZd17WfofPXqf9O62oRvDS4Ft42Cb8gvgNgC4OWzTMvTf/rYmuP7u639INexA/5zqHzlz0/ZltPNKLVVg2y8++8gTNIAG0MCpacAabwkOOGgSwHDQIWDg3l/qAKqj6tBNXmvqxAogJGiSvOWU5g3EWt7dvn27SSFBj1u33mlu3bpZDO+8c7PJQ+3Y7fR3mtu381Bq3Cotad6fY7htw1fP20PZBKXa97VM+jwdnJj/3XErPwNmedm2t2u6auvp7eadd8aEtk6Tvuy+4nvm74l7wwm86R0SwNZcXXE13+jBleJa5GB7ni/92epzfWl1erX7PNhwyPa8X9tzf9liGBoW6XN/RWCmdz6CMHlTWGgDsOT5Fb292iArDmksxWseYXXY1QZcuSdXvt0GYO2hjQ5Cu+wwEDYOfPmfFv7HRDcAy4c5DwdgOTSrA7A4nYQD4/HW/7zpt+bF7N9XAWwH4Gnetl2/yfN8l/weseTnnBrYruOs/sj1778ZoZu+G/o+qn3G6qXjYROADuA2yC1UwO3jjzW57rdfN7g014dc9tWo0kuoys46UBG05S9z6lxsv/jsI0/QABpAA6eogT7oYpBIXlwaMvdg06jTkCx18NXpVodWICHljdUt3mHqtgJu1rmKMMQAyDb0uHnz7aYWhkMSA3YJxrWhTAImSq91/PL6s7S9/b54Y3lfNpXJ9r0ss6+UD7unxXJox8tlt60lh7RtTW1r6UZz8+ZuIenQQZzpyDtOKnvvLAmA6P3xublsuKJgVZzLzuNp6GEbPhlwEkh69CiFOljq97JqA6ccSnVtj7l2G5TV77f2e2N+Kx179oCZ4Nl4WObn9MMyH77tdtvj10Fzbr1fovfBv4kRtvm7bu9ODfDs408EfqOvncD+uTRiOrf6uVR3pvfA6xH3dNM3lOGlALcpABEPtxEebvpXU/+S6l9IueVr8mu5wetFVKWmj2FqYMeXeF8NcX4n5T95QV6gATSwPg1EbzMHBConhwTqhOnfVDXq5PUibxgN51I9o+Osg5S809qeQw49DEQ42BIcccAWYcfbb99oSuHGjbeaUnj77beKx5euoTT7LQGYdF+1uAEcPde0YM+a4J13JPdjp93z1Gdd8rxa+ZTSDaaVNRQ1UdLStLTrjWkw6dCBnu7PAK/DN71T5knqINu8msxbyWGHbO6VVNrOPZX6PaSGekUlT63+a7rnVf+1o0dXjA//jeG/NSS/8vyz7XVCqjK0GjJP4bY3s0sUWlsAACAASURBVP2Z0p8+HqYkKOAgrWbb7YDyN9LrIL/G0PvmuP6yJY8OnUf+7qb7cJ3buxH76x5P75fKT98EfbP0/RR0k6cbc7oB3saAN4DbAOCmDPUJYAXb9M+o/jFVI0aNNb2MenlTpeYvrGxMJ05+oAE0gAbOrgZiZyd6DlmdoXpE9YnqFdUxatB98snHm7ma1MhTp0xgSWBBgMGBh4Mthw9uIyTxYxMIKUO1aSAkXStdP4EYvx/ZeE95fEmQNOTaY+HckGuu8Zg834dux3JUvFTWSuvT0FtvXW/GhNr1IgA2bZm+lOcqS31n/J3yIdz1zq93ysreQ+l8O869kgzc7To8MJ4/JD4EVJWhXBl8df3mkN9qH+N5023L+ZzDrtJ2Xhb926mjXS//8jFLgjDv9Lf7D0PbB7Gf0R1vf9e83ol1UXpX7J7KeTE27ziefDy8BtJ33b4TqUz8/bP2aOkd6oZu+lPUhpcyp9sY8HRWjwW4DQJuNjmtVlTSXCAaCqB/9NSY0MfEKkt7Wb1i8w6lv9DY9OEiL8gLNIAGzpIGvD7woTwlCOMeWjpWDUMNy9IwOK0WqEUU9I+q0lXHCLgl4CFvHw8Jcgl8REAS4UgNYGynGxjZTk+ArbQv/laM+/10AZ5S3uwrzcvA6/Euu697mv93+r0Na+WTNNfWWSxjabGkCU8bA9risX5+stebGzfc483uR+DZhpvK283Agt65Yd+aacOV1AYsQaHxaT5csM+OAVXpWgKD3QCstH/Mb6Vj+wGYOsGp4zs2vi8IJt2kb/fQeKnj3p3W9Z2p73NwNsz6d8S+cX6OQbf2cFJ7D6xMHC6nsh2va84lz9ajgbmhG55ueLkNBYgAtx7gpvnbNKRHQ3tEs+V1YLAtDiFtwzZVkKqkhzXyOI58QgNoAA2cuga846b6wTs/PseZAw6lq/Ojzo7qGZ/s3YeVCsKps+nATfDhrbeufRamwDGDFgIX04LBlQT8HPxFm2BI7onnc3F5PoyzNoyz3YH0jiQ25kuut6H57OXjoNSsDRVOkC2WdTuewzHXWAJprt0u67ru0mj6XdeY7l3PGfOhHm97+5Qgh7+/uS1/t4bAu/ybH0FHN4waD5y6r1cDXlN+p5wf+bPadp6X47e7QZaBpHRMqVyHp+3+TUnv4dQh6D5sepxV/RLf+fQepLxR3sfydmgKLFoPLKIs5imLCN1M8/F7FN8Jj6fvl76VKgcfXqq5PtOcbni6DYVPZ/E4gFsvcPtgM5zHJ65OsE3/dpUbaUof0+jg2PQxIy/ICzSABk5VA9ahtHrDOl/b3kbqDOn5fVip5gpV/SNvNzXu1FhUB0rAQ+Di+vWrzbVrFq5fF7hoD9dL0CP3POoCGEP3TQFuPrebeeC5R1LeKYwdxHp8905w6nye7rVSR7/d8Va+OuwtW19AI5bZ4YFbrnFtG8wrg7fys6VnN31FCLKdT8rDPjhjgGcXT6hh3/7xYMruacx3depv5JCra7svP4ftH/fepnchlvfQeEkXw9P6dDhsf3tREofiQ6x/R/2b1y4bac+hL55twK154NZa83Eu6KappRy6MbwUb7cukAhw6wFuyjx5t2nS6m3Y5hV9Am/e4Npu2Az5x5NjvMLHogU0gAaOUQMlbxF7DutMeydHnUnvAKmjJe8hWXWG1NnV8C815jSFgTzdBNyePn2ySddx8iqTd9u1a1eaq1ctCLwJukXw5iAigjf3SHOPo+l2XuCm5/I86bfWSfbOI9bbI9s2QYZ2/iq/u0LybFsPcCvBtpjmWnaNC0yb11ufNbjYDS5SfqU8bcOaug5TO9FA0nY55YDJvxXR5sd0b/tv2G/H6/TFu6+bP0vc9t8cZmv5ODy9rem+70aX3te/bzpsc10rf1yjbQ20gVsblJSGG5M2fog2eXa4PNsGiHNBNy2k4NCNhRSAbjXoBnDrAW6vXr3ceBeooyOPA3Wc1BlShWUNAq+8vEFT+icxuvPnEziybR898oF8QANo4FQ1IHjqwM28o9XZsXpEnXjv7EfgdnfzJ48DNzXkNF+IGqw6XkBB3m1Xr15urly5XIRuET6UgJuuEdMt3vaQizDDPIlK57TT0nDD7bm+fMhfgjnuRWV2eEfb6+Bkp0OCCAzmi3c9i3V6h/1W13V22eeAoVYW2+nb5bld1m0tJH3VdGWA2EGxWxsqnZ9jHpzSddSln2OgOQ5PteP8Pei2dt8J1CVvOUtrP7vnjedhsjUo0g+G0jX82KTt/nL2c7qtw5bUhh3zG/HY7t/pAl/xOeeJ1/K8ne5ldhYtwA3YdTjYtZa8Xxa6sXopsK0G25QOcOsAbq9evWq0KqnGZ2vuHHWGUydJDQ9rcKQGjMZ7bwO35PFwqp1JngtQggbQABqoayAHbgbdBIhUj3hnSJ1PdaxVj+ha8qoWcFM9pIUTZOX1lgM3QTcLV7aGlxpkqEGQcnqEGTGe4En5PO3fBjBlUFHq9MbOdz9giJ1/edMMg1f7Pq72HGPvo3adKekxnz1eKo9SWl/5an9JJ1FHeTwCM4/nx6S5CiNQy2GdPDw9tPfVzi+nt4Ge7iV/j2I+pHzq9qJL73kbBCk9XSPFvWyG2e1rln7P26323Ukee8N+Iz9+2G+W7qP0vKSlsp87L7wMVO7eZ8HDbS0giPvYHwzcD3Sz4aUvG3GELgjDvrMD6QBuPcBNL41cRc27zT3bUqMjVl5qQNeB2/ZL3nbZZj/5gQbQABo4HQ2oEW3lqT9d2h5u9seM6gwBE+/sKq7OkAG3O5uJefVnz4cfftB873vf3UA31UfqPEUPtwTcLm+GmPrQUocWEYCUvdrqAC2em8cjdMjjfZ5s/sxd1mHSWDjl9fDSdux9Hfp4y8/UfunKe+2rdfrzsi5t51oRsHI9jrcO2XQNj7eBWgJtBtx8XkMNufaQHxO30/FpWLbDP7d+3/mz2fPnHnGl7TKQK+Wf0vreoe3y8XPq1sGL7Pb5+0jTvdV+p37faVhw7VzS6/mawGjsswDcAF37A11rzOvU3rY/S9NotHZ7zRdPiNZGLOi4fCEFtdlYvfTsgLSh0BTg1gPcNHebrwynysn+FVTlZY3WWHmpMe0NfH9Z48tona81fnS4p7Nd6VD+lD8aWEYDw4Cb6pEEl3Lg9qj56KOPmh/84PvNt771cfPs2ZMA3K59NpTUPdxsaKnDA4ECBxTRQycNm5P3WYRt7slTt+ncElCwtNQ5bnegY2ff4qketTwYPkzNvTQODbHW+PsO1vry1NoxqTO+XT4RYrTLcghkSmCqrScDV0mbrtEua8DOzjFQFoGbQ7YE13yotYZbX7ly6TMP0Pie1OJpTkSfG1E2vlMO4Oz9Gg4S7R1s50V3Wv0dS+9h24O0G951wa5Y1sS74NUx7vN3O/ZZAG60e5Zp9xxTvi4D3drDS1m9dCiUOuXjAG6dwO3lZjipJkQUSFMDX5VV3lGIDX+A2zF9aLlXKls0gAaW1MA44OZ1if9Ro6XnHz0y4PbDH/6g+eSTb23+ORUoUYdbHX6DAhEexAUUzFvHQUaEbgmGjAFu6djU4c+hQBvMJPiWOvHe+Yt1qZ6pDxC19/uk7OscSro0iHNAW7f9+TkOuKn8UtlOAW7uISY9RmjVF3f9pvMMsAm8OQizxUPSeyDIpnD5slnf7rc2J6KBuhSP0C39Zt0bbgiM64Nt/o52vWs1wFZKt/JL7+ExgiPueVr5+TcX4LZkfc+1j689mYCbnGKip1t7sas09+42qDZvt9zTTdBNU1KxeinebgKJALcO4Pby5cvm2bNnm2E9esHUGVIDVRW+NVStQeudJDzcqGyOr7KhzCgzNLCcBoYDt1SPvLMZfqrGWwRuycPt6ab+MeCmRRME2BJosG3z9PEhcxFYdEO35K3TfZyBtwQC2l42Qzr2OWxLdWp7brY6ULLjEtjSn2JnIdgw5L586dvv+d1t6537EtBppyU4Ky0l2HZ9FGxzGOca9u1hsO1ic/lyVzAgtw3lEmiL4M3frRy+pXvaBonxuUvxIe+ZwFvtXWvnefs9LO0DWNU1fcp5A3CjnbNcO+eY87YN3OaGbqxeCmxzrz2AG8Bts+odH+JjrjC4d/SLBtapgXmAmyrsTz/9dDO09MkTDSl1D7e0SqmDAV88waHAGOgWgYB71/RZAwHtjv6QjmsN9PSBou397uF2qrDNn8/srVv7A25d5ViCOTEt6ibqSnEHVNeuXWv6gh+bvNsMakUvMwNhBp3dg02g7dKlC82lS7L1INhWCv4+5TZCt/SObYO2dN9t2JjnRcynvnjpXYt5PiTeVabsO10YB3CjjbTONtIaymWf0I3hpQ6gzpoFuAHcAG731/DB5x5oDKCB09PAPMDt/fffbz7++ONGXteaU7QfuAk+xHmnbAieewmZV43mkjIvpBwC1Lb9+JqtdfhLHfkacFP6NlTr83oTjDpF4DYPXFN+duV3vq9UXp5WK2NPz7VR0pJgVB9oi/t1fARu27AteXnaMFLzajPglqDbxYsXGg85hJsK3XQvDtdKtvT8MS3Pr75tz+ep1ssRe7pwrVS2ADfaV6fXvpqzTJeDblpZXp5uWkiB1UvPrscbwA3gBnADuKEBNIAGFtHAPMBNjTT9G/juu+9uhpmqQ6WOubzX2pPDt4eWOphwLzdZgYsI3GLnf0h8KhDIO4E55Mm3x0G3UwRupwnbpLEpwM1hlmtatu1tljzcfBhpBG4O2qKdE7rVwFvfO9X3PuX7p4I2Py9/D9k+G+AN4DYnnOFapwnvloNumgve53R78eK9zZ+nr1692rTrzpqn11l9XoAbwI2O9iIdbSrk06yQKVfKdYwG9g3cNEG8Q7dtD7ccuPXBgL79OQzwbe/cR5t37HPAVto+Teg2H0jry59SnuZpebnE7Vh+Me7l3GWjdq5fF2S73vJqu3o1B2bl1UGjp2YNtqVhnxoemrzbLl48/9qjLYK2GM+hm29Hj7d0/TS3Wxv2pYVKcvAW86EU78rD0r5YDlPisXyJnw3YpnIGuI2ptzmWdl6Cb3EhBc2tq0WtFGyRxFtNexEFbdt+X/xK88JpPl6HbvJ0A7qdPU83gBvADeAGcEMDaAANLKKB+YCb/g3t9nCLqzGWh5Q6cLOhpd1zS5XgQJ5WAgJKK4GAUuc+hz+17T6wlPYLZq099A2PnWd/LS9jeqlMYlqpHJVWK3el5xoZAtuGAK0abBP4svN9VVKfu03DRwXcpkG3CNwUz++xBNwcDro3nts8T0rbXXla2lcrm770WL7EAW4JFggSCCbc2azUKEiQAgAKAHUWNZDegbmhG6uXAtxwbwwAjlVKz+IHlmemYYEG0MBcGpgHuAm0GXB73jGkNAI3AwQOKfIhpT6XW6njPyatBAKUVur01zr3EQB1xRNUmwdInfL1uvLR99XKI6aXylFptXLPtTMVtjncyqGW9JynaXtX4CaPN/dsc5sDt6HQLfdwWxt0i+VLHOAGcJurruc6p9luXA664el2tqAbHm4BsOXjigFuVCCnWYFQrpQrGtiPBuYFbs+fzw/cHIo4GIg2Byj5dg28lEBNV+feIVCfPWVINuXZ+vIr399VBtpXKjdPq5V1rgnfdl3FxQ/yYaQO1rqsrbprw6R3AW4XLpxvPMQhpTHusE12CHDTfecAcBfgpryr5XMp3ctmjO3TAPtPE8IxpJQ2z37aPKeYz8tAN1tI4dlmIQUtjMWcbqcN4ABuADeGki0ylOwUKx2eiQYLGhingfmAm/4AEnC7f/9+o06xFj6Q51paNGHbw00wwACArVLaHlKqlR9tbi1BtghGPG7wzY8pD0EdCgK6OvI5GOrangKmTvWcrnzK93Xlv/Z1QZtSGSvN4VrJCri5jmSnwDYHcQm6led5s+NM/5rDzRdLiENKHba5jaDN4xG4laCb309uI3TT+1aCbqU8KqXV8rqU3lVmtX19OmA/wE3D59JwUsWp98mDs6yB9vsQh5faMOxpc7ql1UsNur18CXTLHZ9OaRvgBnCjMqUxgQbQABpYRAO7ADebaPfRo0ebudvUGNO8H2r4q1Ms4HbtmgCEJnLXZPEWFLeQvG/q0E0wrQzbHJZMgW5jO/s5HOraPlV4NuW5uvIp7uuDKLXyUnoJ9PTBNoGktq7aQ0FzYDVk26DbfMBN4M1Bm9scuA2FbiXglkO3ElwrpdXyu5TeVW61fX1aYD/ADeB2luESz74NV9vATTB6LuimhRTk6aa2HQsp4OF2Zud1Y0gpH97tDy95Qp6gATQwVAPzATcNOdCcH8r7HLg5bLN5pkrATZ5uVzYecW0vt7YXkkO2LluCBEqLQGBsZz/Cob74FDB1iuf05VPc3wdRauWl9FiuMV7Tgae3NTQPcBOYi3BL8QTr3MNN87HZggkXLpx7PYzUPdty67BNdghws3csrVZauqeSl5vnS5+NedwX7yq32r4+LbAf4AZwG1q/c9zZaQsuC90eP360ad8B3U4XuuHhhocbni2LeLZQEZ+dipiypqxrGtgVuD1o5OGmoaQvXrxoATd13AXRondbH3Bz6KZFE8xzrdu7rQ1N7Fj3eCuBgxogyDv/tU59hES1+OHgWVz9dH8LN9TyYUx6Lb89PS+fuF0r07z8fc62XFc2lHQ+4BYBV4Jtlz/z8NTcawJntjqpAbdu6DYFuOXQLYeAALfThFb+vhyjZQ63Wh1NOu23oRrYD3R77733Gjn8MKfbacE3gBvADeAGcEMDaAANLKKB3YGb/vl04Pb06dPm3j3zcBPwMA+fNJx0LHArAbUhaYIqOXDx7RqgiRBH8VqntQ8kHQa43Wpu3769CbduOXhbHrr15cXQ/bW89vS8bOJ2qTy9rN06bMu1Mwa2Sbs5yIpALc1VaF5ucZ+dK9hm87f53G0Atxtbc/N5mWPPFhQEuA2FKhwHgBuigQTf4vDSe/fuNHfvTpvTTcNLHz16iKdbB5c55jndAG4dBcuQ0iEfHY6hckIDaAANlDWwG3BTA8yA27PNPG5PnjzZAm4OKqLdnsPNhpTmHm45IBm63QXcBGFKkCZCnOMDbsvDtRwkDoVpQ47rgit5ueTbpbJ00OZ2TuBWh24aMmpDOdtDSaN3227Abeqw0iEebn3vjOdl7f0plUNeVkO2u7TAvtOFcAA32ijlNgr5Mj1floFu7eGlLKRwzJAt3jvADeCGZ8sini1UYtMrMfKOvDsVDcwD3J49e7bxcnv8+HFz9+7djXeYOubq6EfQFuOCEw4CBNo8aA43C+OHkzqQ64MHQ+BArXPfB5ByMHWq2335MGZ/La+HAJpSWUY4pPjywC3NS+i6dvgma7qf5uE2ZPGE+F55PP6+v2duS0NK9c70vTcxX0v5nqcNKb/8mJoWSD9d2KayBbidSpuC51hX+3g56KaFFDS8VPP3Mrz0+IeXAtwAbgA3gBsaQANoYBENzAXcnjaCbprP7c6dO5thYtvAzYBDBAIJAGwDN4MCy0C3HAxoe2jHvw8kHQawaUiphX0NKe3LhzH7azAlL5PSdqksIxg6BeDWB938nYp2KnAbCt1K+Z6nlcqrL62mBdIBbnfvajjcnc0KjFqJMQUgz7ogD+WxnvKI70l79dJdh5dq9VK1+5jT7fhhmzzdAG4ANzrai3S0qRDXUyFSFpTFoTSwG3B78MCGlGruNoWHDx8G4HYt83Bz4CZrw+9qwM09cNxjLdmrTX3fNpyTZ1MOX7SdgwHfjjCg1sHvA0mHA277ncOtLx/G7K/ldSyPWtzLLtq8zI/dww3gdtqwqab/s5SOh9uh2gD87mm3P9vATZA6zulmEHv6nG4O3Wz1Ujzd4hDNY4sD3ABuADeAGxpAA2hgEQ3sCtzub7zaNHebggCcJu8XHNFKo5pI3r1uLl3aDbjFCe6Her85aMkBTIQzMR6hTq2zOwYk+bHLQ7j9L5rgzzaHreV1LI9aPJafx/Pydh0kcGtwNmrK4W/0DItx17HD4rjP5iRMc7hduaLVeW0+N1k71/R/6dKFZsyiCYJtADeAW+0dOZV0gBvg67TB1yHLdzno9ujRg8ag21M83Tp4zTHAN4BbRwGyaMIhP2D8NpUjGkADx66BacDtzp3bjYYjPHhgwE1ztyncv39/A9xu3LixmQ/KgZtgmwet1GjhUnUOt9yLrQRGcnhS2nbQkgMYBzO5jVCn1pGdCpiWhW4At1iWeXm7DnKNlHQVQVmMA9za3qIxv2vx+D4NjdfeO9JPGzoC3I69LcH9r7s9vBx0i4tnmafbS+Z062A3a4VvALeOQgO48YFf9wee8qF80MC6NVAHbpoTLEGim83t2++8DiXgpvnb7t2712gOsVMGbur4T4FuKS+XWFH0eIFbF0jpgzQ10DMXcIuQrSuee7hdviyvtiEebvJeO9ecP2/BvdlKViuUxuAA2zxHL732JPX7jLDQvffcOtD2hRJym+dfabuW9zG9r/xK+7v0wL7ThW4AN9pK624rnVL5JPgWh5fuOqdbe/VSoNtawVrtvgBuADeGki0ylOyUKg+ehYYKGpimgTJwSxPwCw7d3IQcuGnuD/dwE2zT/G1aoXQ54HbltUecgYOrjTyUHB7k3kvads+mHBhEKBDjEQD0de7HQrdlgZvKSYDUw/xQb+zzDj2+K59jeZTisexiPC9v6aCkD/NwS7qKkMrB1VBr0M1AmwM3h252jdKQ0vOvYVsfdIuwTfFTBW5ezl26YN/pgTeAG22YaW0Y8m1avi0H3Xz10pcvmdOtBrfWmA5wA7gB3ABuaAANoIFFNDAfcNP8bQJu77zzzmAPNwEOwbNr11K4fr0N0XIo4l460dag29kCbvNDNoeEQ+HZlOO64InDl5qNkC3GI3CbC7Y54KoBuLmAm8BbycMtn8fN76fm4ab7jACx9L7knm2+HfOvFo/5XYvXym1oepc22Hda0A3gBjiaBo7It+n5thx0e/bsacPw0uNavRTgBnCjo71IR5tKanolRd6Rd6eigfmAm+Zvu3PnzmfA7a0wh1uav83gQJrDzYCboNvlAN3GA7fk6dZeqXQX4CYo0NepHwuYHGAdmx37nEOP78rfGpSpwZ0aGBJE6vNui2CqBtT6AJeAm53b9nLTtS1928PNvdpKtgTdopdb3/0A3E4LSHW9K6ewD+B2Km0KnuO42sfLQDdfvfS9995r3n8fT7c1erTl9wRwA7gB3ABuaAANoIFFNDAPcNNwUs3fphVKBVsEReSpJggRwUAJuG1Dt2nAzaBbG67sCtzmhm7HBtr8focCtDHH9UGCMcCtBtuU3gfcImxLcMzhWbJRxyUol4CbzonQza/RBm4CaiXQFtNy6AZwA6L1vTfHuh/gBqg6LlB1KuWVgNv9+3ebOKebpg25e/f2Jmje3jt3bhWC7ddxmgNO17CpRnz10mefrV4KdMsB19q2AW4ANzrai3S0T6Wy4DlopKCB6RqYB7j5cFLN/aYO340bAh0O3PL5ptoebhG4JU83h27XNvO0xeFw5bjP5zY/cJsTujnAOjY7BqQNPbYPDAwFbl2wrQ+4XblypTXscn7g5rBNdjxwE3yL0A3gBnDre2+OdT/AjXbM9HYMeTc979rAbU7optVL5emmOd0YXrr+4aUAN4AbwA3ghgbQABpYRAPzATcNJxVImh+4pUnty7BN+wFuS0K8oRBtzHF9YGB54CbYtiRwi7CtBNzS6qTRqy2PA9yAbH3vyinsB7gBjaZDI/Jut7xbFrqxeun6YZu87QBuADc62ot0tKmgdqugyD/y7xQ0sARwu9Hp4ZaGlaZJ3eXZ5sEWUDAPtyELJiQIZ9Atn89NQwpLXlClucBqkKevQzsUNC0JxZa89tDnG3NcX57WyiIvt1LZepovAmBzuEVNSSvbsK3k4RaHkubx0tBSS/N52yJ0yz3cAG61Mvb0Po2w/3RgJMDtFNoTPMPxtov3A900p9vLly+bV69eNWsbUnnW7wfgBnADuAHc0AAaQAOLaGAe4KYFE3z+tps3a8BNQ0vT8NI4qbvDtjikNIG0IR5u+TGCK2l4qYGX61vgLYc33tHPbV/HfihoWhKKLXntoc835ri+PM3LwLfzMnO4ltsybGvrRIAtDxGi5YCttG3Hp2HSJeDm52lYqd6BixfPNxcuANy8TGu2TyPsB7hpCNzxQg4AFWW3Rg0k+BbndNMcbVPndNPw0kePHjasXrpebzeAG8CNynSRjvYaP/LcE40PNLBfDcwJ3G5tFkyYA7gZgGvDkfEArg3dBOAcwkQ4kwMc3x4LAYbCpiXB2FLXHvpsQ48bAkpq+e/l4zaWZYx7Wbe929qaymFb7uHmoKzLjgFuDtvmAG6azy3eVwSFHo/Pl78/166Zx5/nU7QxH2txz/8uWyvDoelDdMIxpwHd8HCj7bPftg/53Z3fy0C39vBSFlJYk1cdwA3gBnADuKEBNIAGFtHAVOB2q9EKVrYa1aNGHm63bmnBhJuNOtPlRRPcw81AgaCAA4Hcwy1tJ0Dix0abQ4R826BC8nRz6JZDhBI0qEGBWgd/KGxaCooted2hzzb0uFoexvRa/udllZelbztAOgxwi0NJfaVe07/Dtl093HwBhS7oFt8VxUvvh+dTtJ6HXTYvh9J2rQyHpkc9ED8NsFYrR4AbAKgbAJE/+8+f5aCbFlLQ8NL33we6rQW6AdwAbnS0F+loU3ntv/Iiz8nztWngOIBbDg7idg4R4rZ78Rh0SeCtBBJyYFCDAvUO482Nh18XdFoSii157a5nmrKvlocxvZb/eTmVylJpDpAAbu1hs/H9UNzzKdpansb0vBxq27VyHJIe9UAc4KY/eRQ0zM2GkrpdW73K/dDWOwUN+Pvl7cS7jYaVethleKlWL332zKAbc7qtY5gpwA3gBnADuKEBNIAGFtGAN6Tac3Pcvn2rUTCIc7O5detmc/v2O6/DnTvjPNxs+Fvbw02eOQ7ONMCQPwAAIABJREFUkkfb5UaLJqTt8sT2fp7bHCL4NsDtnc/KcDc7Bap1nTMEntSATA52IgSKcQdIhwBu7nXmQztt+/Aebnpf/N1w6/kUbczHWjwvh9p2rRyHpA/RCcecBojDw+0UAA3PcFqgsQ3cBLnjnG4GwG9v5nW7c+d2o3bhdrD9gnMCdbqGRkZoTjeHbi9eaCEFPN0O7ekGcAO40dFepKNNxXhaFSPlSXlO0cA8wO3evXvNO++807z99tvFIaVp+FsbuiVg1l6ldCxwK4EEAYV9Ajd1/Lsgk+9b0hNtqWv7vc9lh0CSGpDJwU4NCDlA2jdwc9jmVtBtLcDNIVu0nk/R1vI0puflUNuuleOQ9CE64RiAG3X/lLqfc9DNEA0sB90ePXLo9nQzvBRPt8N6ugHcAG4AN4AbGkADaGARDcwP3KzjrSF9V5srVwQbtCpjCnGl0jmBWwm67Ru4nSp0mwu0+XWGQJIakMnBToRAMe4ACeBmQ0ojZItxz6doYz7W4nk51LZr5TgkfYhOOAbgBjgZAk44Bp1M1cBy0E2eblpIQXO6mafby+bVq1fNob29zuLvA9wAbnS0F+loT/3wch6VNho4HQ0MB25xWGk+pDR6uPUDt4sbj5+hiyY4lBtiI0hQfK3ATeBpKW+0Ja7roGwuOwSS1IBMDnZqQMgB0lTg5h5qbm1YtGnX09xevnyxseDebOm4XT3czp8/11y4cH4TIrj2uN+DrA9hdRvfmfzd8G3Pp2hreRrT83KobdfKcUj6EJ1wDMDtdOpj2laU5do1kOBbHF6q4aK7zOkm6Pb06ZPPPN0YXnoI4AdwA7gB3ABuaAANoIFFNDAOuDl0S8DtXvPo0aPGgJuvUPrW1iqlDgcMWmhYqcEBBwJpCOm0OdzSddKqpmsHbg6vlgBkc1/T73UOOxSQ1IBMDnYiBIpxB0hjgJuDqgixPO4a9u3cOnTbTncIV5/D7dy5N5tSEGzzUINu8ff8/t36e+HWIVu0nk/RxnysxfNyqG3XynFI+lCtcNzxQzfmcFs7aOH+gIGugeWg27NnGl76bli9FG+3fcE3gBvAjY72Ih1t/3BiqUTRwNnVwHjgJuhmwO128+CBgNvDzUS6N2/ebG7cuNFYx7tvSGkbup1l4CaINTcgm/N6c0A2v8YYMFIDMjnYqQEhB0hDgZtDKtkIsTw+BLj5sdGm65WBWwm0xTQHbl2ebv578RkUd9AWbYRtins+5baWr56el0Ntu1aOQ9LH6IVjjxu6Adxoh53ddtgxlv0y0E3tSfN0E3R70bx69ZLhpR0caE4YB3DryGhNMKhldbXihzpAWkVODVs1PLyB6x4JtsKcVhDRSiJp1ZC4cogts32MLz73TEWFBtAAGhivgd2Am35PE99qaMF04CYwYHAggjfFIygYEs9hwpqHlHodLTsnIJv7WvE+d4mPASI1GFOCOg6AcusA6dDAzWGYzV2ouQw1PNQ81yJYq8VLwE3ebg4AzWs0DdOO0K32zsT3xPMpt3l+5tulsiil1cpySPoYzXAswG18/UebgTxDA9M1MDd0u7fhGT689N13n38G3fBymxOs1a4FcAO44eGGhxsaQANoYBEN7AbczMNNwO3O5o8e73Crcy7YVV80IXm45YDAoVsNFnSlR5CgOMDtnZ1h3i6QLZ47FIjUQIxrK7c5CPJtASSDbbJXNyHXR9RS1GGCZAaySnArP0ZDSvO0CMO2gVt5GGkO3gBuxw2Shur+rB+HhxvgZzr4Ie8Ok3cJuMlhJ87pdvfutDnd9BwPH97fLKQgT7fnz583L168aFjBdPkVTAFuADc62ot0tKmgDlNBke/k+5o0sC7g5sPgpni3CZ7kQMVBSwIvBmGuX7/eOJhxm4OcGvjp6xhHyDQ0PrdX2pzXG/oMfcf15ZvvL+V7XjZx28svWpVvu8ynA7cI29oArQ3YcuAWzzMQ1x5Sev48wK1U1jHNNYE9fegIcFtTu4B7oZ06RANt4DYHdNOft8p7jdzT8NInT9rQreadRfruQA7gBnADuAHc0AAaQAOLaKAE3DQ9gQUDNxry2A7tOdzm83ADuO3ukTYnbNO1+kDa0P1DoUkELh6PgC2PR9Dm8TZsK3u4Re82xd3DLXqpRWgW4/EYj5814Ka8zsuitO1lOMUO1QzHHT+QA7gNARwcAwhbmwbmhW5pmitBN5uy5MmTx6893V69YnjpUnAR4AZwo6O9SEd7bR9t7oeGBBrYvwbmAW4aPqBOr3W4zXtsypDSLuDmQKRmI0Bpe7pdba5etRBBTO7llsOCLkDQ1cEfCqDy4+YGZXNdL7/PKdtd+eX7uvI7L5u47ZAt2ljOFt/2cIt6GQvcHL45bJM9a8AtlkFXvKtc+/a5NrDHD9T6yhDgRvtn/+0f8nyePJ8HusU55s3T7e4Guj18+KB5/PjxZs56hpfu7slWA3YAN4AbwA3ghgbQABpYRAPzATd1nhP0kFfRldFzuNWAWw2y5ekRorSh25XR0G0qDJgCpPycuSDZnNfxe5tq+zra2t+X111AJ2kuDRPeF3ATeHPoNgS4GajzRRMYUtpX7kO0wzGnAeMAbsCfeeAP+XjYfEzwLc7pJoAm7zUFA2taxDEP2mdp7umma+h5NMRUiyloocj333+/wdNtfvAGcAO40dFepKNNpXTYSon8J//XoIEScLs9ekipPNzmBG6+aqkDtBys1bb9eNldgZsgTxcQ6OroT4VTc4KyOa419TnieV355Pu68ln7asCtBNuU1gZu295t0kbUStSTAzRZ92Trsun4BN/ycy9cuNBYMNhmq5SuG7hp0Yla/np6rVxiel/Zdu13fWBPA6p1lSPAbQ3tAe6BdukcGpgO3TSdSQ26ydNNw0sF3OSl9eGHH25szWOL9HFQDuAGcAO4AdzQABpAA4toYD7gduPGjSYN09zNw82A26XXUCQCka54hChzALcu6Nbdebw5ae6zOSDZXNeI0GyXeFc++b4u6DIHcNvWQgJuuZ4SQBsD3GxBhNq5CbYl77Z9LJqgZ4vvhMdjfgisdQWHayUbwVot3le2XftdH1iAm7xibOXDO5vVEDVBewpzQAKuAWxCA/NpIL2fYzzdfP7gLuimlUsdugHVxkG1rvwCuAHc6Ggv0tGmYpmvYiEvyctj1cDSwM2ghXv42BC8BCdy2JEAgUBBggWl40ppDhTcRrAwZR43hwglKNAFAaYCqrlg2RzXmfoM+Xld+eT7Svkb07wccluCQEqLHm5W7hpS3A7SSElDNWhW83Kz45Om/fx4/L6Am3679Ez+PriNedEF2/q83PLyKG3Hchwbd31gAW4At2NtY3DfZ7N9nIBbvnpp1/DS27ffaSy0Pd1sOKqtYKqhpc+f29DSLoDEvnEwDuAGcAO4AdzQABpAA4toYFngpnmtLl6UV48NqXMIcemSDb+rw4EE3ErH1NIcKLiNYGFu4CZ40AUCcvA0ZHsOUDbHNYbc69BjuvLI9/WBmBLIUdpagZvr3C3A7Ubn8Oxa+bs+sAA3gBvg6myCq2Mt9zZwy6Gbeatuz+mWgJvA263XQR5vCbrd3czn9u67z5uXL18yrLSDE42BjgC3joyU0DSBoCYTlBglVDWC1TjxxvCtWzc/o8UmXpus0ERu4r3d+Gog5p59rC83901lhAbQABoYp4HDADeBiG5vnMMANwGcEtypAYE+6OagwOvjPjsHLNv1Gn33OHa/50GX7cpf7SuVSQ24aVjzIT3cHLJFuy/gVgLRDp+jjSC6y8OtBjRr70mpnPrKtmt/l2bYd1oQjjncaLuMa7uQX+vPr/HQrQ3ctqGbg/eHD+83T58+ad577z2gWwcnArjNlDkANz646//gUkaUERpYrwbmAm63N1DEhqBpsnWbw63t4SZPt/OvJ6JfK3ArwYQuKKB9Qzr/Q0HVrsBsl/OH3uOY44bkTV/+lkBOCbgJtgHcLr0eVhohW4wPAW5dsK30jtTKqK9su/YP0Q7HnAZ4A7jRTlpvO4mymV4246DbNnBz6CabHId0P48ePWyePXvavHjxHquWzsCV8HDryESAGx/B6R9B8o68QwNoAOBWAgs5POiCAto3pNM/FFLtAsx2PXfoPY45bkje9OVvXh6+HcuuBNvk6bb0HG7mrZnmcIuebR4/lIdbhGwxDnA7DUg15N06lmMAbrTHaI+dugYSfCstpCDvNRtG+k6Tt2XU5tCIPaULvGmEnvTy6NGjzUi/Fy9eAN06eNEQTzeAW0cGAtxO/ePE81EBowE0sKQGAG4CNRHclLx3uoDQkA7tGEBlDcvtBmfeAJ2yPfY+5jh+SP505a/2OWDLbSy33LPNh5WWgJvDp9IQTF/0QNaB2RBr8xJeKJ6zBHDLvUW7PUYvt1YrHQLc5lgwwcurr3xr+4doh2NOAx4C3Jas57k27ci1aGA4dBNY83ZObIsIvGkaLU2D9fjx40aw7cMPP2Qutw5eBHDbMXMAbmv5gHAfVGZoAA0cowZOC7gJoDhMkY1gobRogqCMe0ZFeOOgwG0JCAzt6MeG4pi4NzTnsmN+e65jh+ZRKX9jmpdDbmOZDQVuUR9jgJsAV4RcOYQTcMvTfHsp4Ob3EyFh6ZniM+fvRdccboeGbkP1w3HHD90AbsfYfuCeafdO0UA/dPN56b39ozaJf+cTcLvXPH36dAPaPvnkk+ajjz4Cuu3AlfBw68g8gNuUF51zqCDQABpAA6aBswTcrnw2vPBqa1J9Aw5tL7cc7ET443Fv/PXZXeCVNzbnsLvcx9Rz+/LG93ue1mxeHr59CODmkMthmtsacDPYplV6DdhduHCuOX/+zU04d+7NRuHNN9/YWN/O7fnzOudcuIZfy+ZEjMCt5Om2BuCmMquVby3d9YE9fqDWV4YAN9oktEvPkgbK0E2rl/rijhpe6m2fBNxubIaWCshpWOqTJ4+b999/sYFtH374AcCtgxn1ebkB3DoyD+B2lj5OPCuVMRpAA3Nr4KwBN4NuPtzQPNzk5aaFHhJ0c6DjtgQE+jqQvn8qrNJ53ticw+5yH1PP9Tzos6X8jWleDrmNZTa3h5uDNLcJmKWFP3yfbAm4xXNSvA3cBNs85KAtbo8Bbjl06wJu165d3ei/5ukW8ziP5+XRtx3LdGi8TzvsPw0YB3Cbu27nerQX16yBBNw0NNTndMuBWxu6vd3oOyEPN6XrHC2c8O67z5tXr14yh1sHL+qDbdoPcOvIQIDbmj8m3BuVHRpAA2vXwFkEblcKHm7jgZuAwZDO/lRYBXC78dojqgZyIgCaE7hFkObxBMyGAbd4fDtuwE0wzUFbtBGyxfiSwK0LusU8zuO1cqmlD4Vs+XFD3jOOOW7wBnBbe1uB+6M9O6cGSsDtblMCbgm63XwN3MzD7U7z8OGD5unTJ5uVSsVEXr16hZdbBzfqAm8At46MA7jN+fJzLSoTNIAGzpoGSsDt1mcrRbk7v68OlawaO1ol6sEDrRL1YBNXJ9s8xQSvrjXXrl1pLl/WxPMa/paG1DnAyL1wfO4p88bRXGw2H5unD7XRm6c9h5u82yyM9XDTs+UQwLeHdPSnQrc5PNv8GlPvYZfzhuSNjvG8rNkawIkAaA7g5kMzXaPRRmgW01O8DeLi8W1YNj9w0z34vUcb35n4Xiju74KsgFsNusU8zuO1cqml18p3SPpQLXHccYI3gNtZa3vwvLS3E3QzD7c6cLMFFKwNqrgDtwcP7m+A23vvvdsA3HYbUgtwA7htlv7lw0TlhAbQABqYWwMANx9KF2HCWGDQ18mfCq0cls1hp97DLuf15Yvv7wMutfKIZbYrcIugKkG0tBBCBGjb+wXbuoGboJuHmnebPN2iV1uMt6Fdew63EnDrgm0RuHXBtnyodcxvxWvlUkvvK+eu/a4V7HECtb5yA7jNXbdzPdqLa9fAOOAm0OYhAjfN46ZhpQA3gNti7o14uK39Y8L9UeGhATSwZg0A3JYGbrsAqzlAm19jl/uYem5fJ9v3d4EW7asBnAiAhgC33MsrQql9Abcu2DYVuMV793h8tvy5c+82fwdKNuZxHq+VSy29r5y79rtWsAA3ecNo3qcU1lzHcm+0AdFAWQPpHR7i4eawTUNMtbCCzpGH25Mnj5rnz58B3DoctLqGkvo+PNw6MhDgxkes/BEjX8gXNIAGhmgA4OaQYQhMqAGBPggwFVg5LJvDTr2HXc7ryxffX8tXT68BnFhmZxm4lTzcBN7GQbfy4gkxj/N4rVxq6V6eU63rBXt60A0PtyH1NcfQrjslDcwH3N59F+Dm4GyqBbgB3BhSev+UPrA8Cw0GNLAeDawRuPn8bZdawCDCg654lzePe/b0zeEmsFCCBjVQ0AcApkKrOUCbX2PqPexyXl+++P5avnp6qSyUFgHQPoGbhpe2h5UOH1K6i4dbaVhpvA/3bnMb35P8vdB2eh+uNNevrx+4SQ+uGexpQTeAG+2i9bSLKIv9lAXAbSocW+I8gBvADeAGcEMDaAANLKKB9QK3CAvGxLvAQgIMWtTBwtIebrsAK4dlc9hd7mPquUOhiIO1ml0jcGtDt/mAW21Yqc//lkO3OYCb3ou1L5rg2hiqKY47LiAHcAPy7AfykM/ryWeA2xLgbOo1AW4ANzrai3S0qXTWU+lQFpTFoTSwG3BTuWmVUs2nISgieKUVSqetUqohcBa0QukYyBaPLQG36M1jcAHgNhWijTlvKPRwmFKzcwE3lX3UR9SNe4XJRojl8bhoQozb/nmBWwm6ReAWoZvfn2x8BsXj88Xn9rgDaIDbccGpoe/VMR0HcDtUG4Dfpf15KA0A3KbCsSXOA7gB3ABuADc0gAbQwCIa2B24PXw4BLiVV1WMQMDiBglOCbip0zsGUuXHzuHdpmvk193H9tAOfw20efpZBG45dAO43Wikh6Ga4rjjgogAt0NBD34X4HYoDQDclgBnU68JcAO40dFepKN9qA8sv0vljgbWo4G1ATfzbBNwmwrd3Hsnt21vnv15uHnHfxfANQd02+X3p57rz95nHazVLMDtzQbgBnDre4+OeT/AjXbRetpFlMV+ygLgNhWOLXEewA3gBnADuKEBNIAGFtHAvoDbuebChXMbaOBD4PIhb+7tZqDMF0643BoW58d02Ry0+TbA7ebevdyGAoAaaFP6ENimxRNKiyZcvXr19cIAKn/XgmyuIR+O6fqUjUNHa3E7vj2kND82wrK+RRPk2eZBx3qI11DcfyPerz+D2/iM8dk93n4nWDRhqF45bn7vOYAbkGc/kId8Xk8+A9yWAGdTrwlwA7jR0V6ko02ls55Kh7KgLA6lgfmA21tvdc3hZrBNoMABQR24OWybNo+bw4TctuECHm5TvdbGnDcUTNSA2xjYlgM3g237B24OwqKNsAzgZp5qtTLvSx+qKY6bH4otmacAt0O1Afhd2p+H0gDAbSocW+I8gBvADeAGcEMDaAANLKKB3YGbL5og4KaVP33hhGvXrmwWQbh4UfO3JeAmECHoVgNu8sqZOpzUzr3c8mRy8HZo4KbO6hhYlR+767DS/Hr72B7aQa9BliHATaAth23S4SkAtziPW4R2eLgdF0wa+h6c5eMAboeCHvwuwO1QGgC4LQHOpl4T4AZwo6O9SEf7UB9YfpfKHQ2sRwO7AbcHD9IqpRrWF4GbAJdWHa0Bt4sX26so+gqlsn3ArRvWrRO47QK4doVtx7howhDY5kNJBXmlPQ99sE0QNg639CGYsu6BKRu91GpxOz4NKS0dF2HZGA83gNu2N9xZhlKn/OwAN9pF62kXURb7KQuA21Q4tsR5ADeAG8AN4IYG0AAaWEQDcwK35OEmANIF3C5cuNBsAzcNITXY1gXcHI5EYBLj7tGW20N7uAHc6l5JJQ+34cDNvCodtsl2zd3munDNuJ7cjgduDtvMcxPg9lZ13r1SOY9NO2XodJafDeAG5NkP5CGf15PPALclwNnUawLcAG50tBfpaFPprKfSoSwoi0NpYD7gJkAi0OahC7g51HDoEa1gWxdw07GCI/GcGHegkluA2zoXTagBl92A25XXiyXkOvBt15GDNreuTdkSPMvT5MGZQvmcOTzc5BkXr+P3Ee/Xn8Ft33vRfidYNOEsA69DPzvA7VBtAH6X9uehNABwmwrHljgP4AZwA7gB3NAAGkADi2jgcMBNUCACAY8bEJm2YIKu4UAlt224kIYfOiDU8MQYasCnBoiGdFgP6eW2y29POXdIfuiYWn7W8j+WkQ0pLXm47Q+4CXw5cHMIltsIyqYOKT0UcNP7ked53K6VUym9VtZj0ofqiuPqHqVrzBuA26GgB78LcDuUBgBuS4CzqdcEuAHc6Ggv0tE+1AeW36VyRwPr0cB8wC0umqBOes3DzT1yAG7DPc6ObQ63MR36GmwpARulRdgzFbg53HVPsGhdn0M93Byu2VyFWiBkO8wB3OI1FPffifcbnyN/v3IAre02hB7v4ab8r5VTKb1W1mPSx2iLY48HugHcaBetp11EWeynLABuU+HYEucB3ABuADeAGxpAA2hgEQ3sBtzu37/b+CqlWilSc2ddu6aO+9Xm6lVNTF9fNCEHAg5BDAzUPdwcKvjxuS2BhW24cFwebgC3NC/YrsAt6sW1FG0EWA61htizCNxKUK0rbQxYqx0LRDseiDamrABuQJ79QB7yeT35DHBbApxNvSbADeBGR3uRjjaVznoqHcqCsjiUBvYD3KJ3juCFQ40IPzwOcCt7vu0K3aYMC516zpiOdg2s1MANwO3cZi43h4D+LslGcKi4v1OyJRA9xMONIaWnCbjGvKP7OBbgdqg2AL9L+/NQGgC4TYVjS5wHcAO4AdwAbmgADaCBRTQwDbjdvn2ruXv3dtPn4XbpkiaRN0Dg0C2CggQEBAcMEPQtmtAFFWpgIfdwM0+8tpdbDnJqwKcGiIZ0SqcCrF1hm86f+ttTzhuSF35MLT9r+Z+Xk8/B116ltD6HW9KcLb6R6ykCLNfqEFvzcHPdu506h5uf79bvKd5v/izxWZcCbiqPWlnl6bWyHpPuusGeFggEuB0KevC7ALdDaQDgtgQ4m3pNgBvAjY72Ih3tQ31g+V0qdzSwHg1MB2537uwG3C5ckEeOho46bDPbBdxyoODbfWChBNy2odt6F00AuB1+SGkOuhx4uS0BNz8nWoDbjepCGUPAG6DttECblyfAjXbRetpFlMV+ygLgNhWOLXEewA3gBnADuKEBNIAGFtHAOoCbgbMLr+GboFuEaIo7XKtZP77kybMN3OQBZfPNuWdUPnQu987x7RoU8I5jl53iLaZzAG6HBW4CZr5KqAO23ObALUK2GB8D3M6de2Pzu/7b8Tr++3i4nSaA6vqOnOI+gBuQZz+Qh3xeTz4D3JYAZ1OvCXADuNHRXqSjTaWznkqHsqAsDqWBwwO3CNDc220/wO3KZoEHgFt5zripcFDnjQECNYDpgDO3+x5S6pDLoZeDrtwuA9zeBLi93faIG6Mtjj0eGAlwO1QbgN+l/XkoDQDcpsKxJc4DuAHcAG4ANzSABtDAIho4PHBz7zWHbbIl4ObHRUDncfdukx3u4XY8wG0OL7ddANrYc8eAjmMCbg7dBOEAbmkIdg5Fa9u1sh6TPkZbHAtwA6YcCqbwu2ivTwMAtyXA2dRrAtwAbnS0F+lo930I2U9liQZOXwPrAG4GzNJcbjXgFqFbhGwxDnB7pzgEdSw02+X4MaCjBltq0GZfHm4O1KKHm4CbB0/347Q4SIqf36wk6sdEq/PffPONQcF/SzZeQ3H/LYaUHg9UGvNenLVj8XCjvXX67S3KuF3GALepcGyJ8wBuADeAG8ANDaABNLCIBtYC3BJs6/Jwi8Ct5N3m4K0E3a5eTStXevzaNc3jZquV7mMON3WidwFZtXNrc7zVjl86fQwsmAO4eRmqPDU3n5dvSQeukZKWHF45zJJ10BXhl8cT+BIASxAsnufnu9W5ALf2MNGaBkrpY7TFsccDIwFuwJg2jCE/Tj8/AG5LgLOp1wS4AdzoaC/S0aYyO/3KjDKmjPs0cGjgdvH1YghzDSl1oJLDFocw0R4CuO0Lui0N1WrXHws5SlBFaUM83ARJ27AtQdW8/H3b9ZEDN4dtsmsBbgJzEe45tEug73wT79shtNv4rP780ebvgvKzFHKvwny7VlZ5eq2sx6SP1RfHHwd0A7j11dXspz13ahoAuE2FY0ucB3ADuAHcAG5oAA2ggUU0sBbgdqG5dGmeVUodMkSwoHiECx4/FHBbArpFL7caDFs6fQrcqMGWHNb4doQ9xwLcBM0clo3xcAO4bXvCTdEY56wfugHcTg2m8DwAwj4NANyWAGdTrwlwA7jR0V6ko933IWQ/lSUaOH0NrAG4GWwTcHPols/h5h47fdZhm+zagdvc0M2B29JQrXb9qVBjN+B2PXi4XWsNJxVUzTWg7aiRqKfoKTa3h1v0UjtG4CawGUFnHncY2mdrZT0mfarOOG/d0A3gRnvr9NtblHG7jAFuU+HYEucB3ABuADeAGxpAA2hgEQ2sAbhpWGmCbqU53CIY6YpHmJLDFvdqi/aQHm4OAGoAa2z6WQVu215uaQ63EnSLGolaArhdLQ4njUNMc9Dm232gzfePAWu1Y/29wa4boI0tH4AbMKYNY8iP088PgNsS4GzqNQFuADc62ot0tKnMTr8yo4wp4z4NrAW4Jeh2rMBNgGBsJ1PHjwVraz1+yrPrnBpYcUiTW4c8bh0I2VxuWgRj38DNF0yoL5pwCh5uXV5ueRnVtmtlPSZ9qs44b92ADuDWV1ezn/bcqWkA4DYVji1xHsAN4AZwA7ihATSABhbRwKGB26XXiya4l9sxA7cp0G2tAG3sfU0FGjXYUoM2Dtrcbnu4dS+cMMXDzYFZbs+f19xsb362QmkCbj5fm1s/T9uKD12ldC1zuHXBNpVDrazy9FpZj0mfqjPOA7jAZTiWAAAgAElEQVQBbE4N2PA8x61pgNsS4GzqNQFuADc62ot0tKmojruiovwovzk0MBdwu7UZjqYhfPIwun5dXkaXN0NFL1w493rCeAGHND+WhpGmVUprwK19TDx+Ox5hyr6HlDo0GNuxHwu2asefzSGl41YpjfpQPGqrNKTUAZkDs5JtQ7fzLa2fCnBzuFmzOVirbfs7sosd+35x/LpBm5cPHm5z1Odcg3bhMWkA4DYVji1xHsAN4AZwA7ihATSABhbRwP6B2/nz5z+DbhcaQQ4HbW5zD7cIRfriEajkwE3bcf42h4M2FPHaBhjmQKEEDvpggXcgh9oaQDu29KHPmx9Xy89S3istltEu3m0At/L7oDwthZjvebxWVnl6razHpOf6Yfs4gFpfOQHcjgmUcK+AvTk0AHBbApxNvSbADeBGR3uRjvYcH0uuQaWLBo5bA4cBbgbdDLjl0E3AzcKlzYqSfZAt7u8Dbjl061o0waHCWGjQ17HM9x8bWKvdb/5cQ7drsCXPd9/2cpFdH3Bre3Mek4dbAtD1xRNi3se4l02frZX1mPShuuK44wJxADfaUsfdlqL8xpcfwG0qHFviPIAbwA3gBnBDA2gADSyigeWAm+CWvNbyIaWCbcOAm8Bbe9hfhGuleARuivd5uZ0ScGNIafdiCdJCro+ooTmGlDpgy60PRVX61DncdF68bhqafX7jKWrguj3MOj5v37swBLgJcEbQ5vE+0Ob7x4C12rGAtOMCaUPLC+AGsBkPbMiz484zgNsS4GzqNQFuADc62ot0tKmojruiovwovzk0sAxwE8hqAzebXN6gwXLATQBlDGQAuN2cbZXUoR3r/LgaWHFIk1uHPLJjPdxy6AZwSwtMXLtm8y/qnSgNKa3BNpVDXka17VpZj0nP9cP2aQA4gNsc9TnXoF14TBoAuE2FY0ucB3ADuAHcAG5oAA2ggUU0sBxwu3z58sbzxjzc3tx49gDctjvHtSGax5Y+FXzUYEsN2pxV4Ba92xR3D7fomRcB4jT4PB62Ady23+mp78JZPg/gdkyghHsF7M2hAYDbEuBs6jUBbgA3OtqLdLTn+FhyDSpdNHDcGlgzcBs/h9s0yJBWurx+/XrvkLkaIPL0sZ3mYwNrtfsd+9x+vOdbbgFubzRvvvlGANXt+eGWAG5jPdscftbKKk/Py3jKtusGe1qgD+BGW+q421KU3/jyA7hNhWNLnAdwA7gB3ABuaAANoIFFNLBO4HblisE2DQ/NvXa6tvuGk2pIYVypNA4pTauVbkO3CA6GQIKxMKAGscakM4db/xxuQ4aUOsiS9TnX5JlZC+fP23Dp7bkKEyDzc/16AmlDQzw3ern5fc7p4QZwOy2INfY7dMjjAW4Am/HAhjw77jwDuC0BzqZeE+AGcKOjvUhHm4rquCsqyo/ym0MD6wRu+12l9GrjsE22NFdVBG6Kzw3dxoC1NR07Rwe9lpd5nvu2e1XJqqxS2QHcchjdB6C34TNDSufQNNcYDy4BbnPU51yDduExaQDgNhWOLXEewA3gBnADuKEBNIAGFtHAmoHb+FVKxw4pjSszOrgZAtzmhm5rgmhD72UuqLBP4BYBVA6n3FPMPcfW5uEmT7clPdziuzDW081haJ+tlfWY9Ll0x3XGQ7El8wzgdkyghHsF7M2hAYDbEuBs6jUBbgA3OtqLdLTn+FhyDSpdNHDcGgC4Xb0qD7fk5XaswG0fQ0qX6HDXYEsJ3kTvtikebrsAtzifmg/zNAi2nyGlALcbG8/SJTTINQ8P3wButKWOuy1F+Y0vP4DbVDi2xHkAN4AbwA3ghgbQABpYRAMANwE3g242PBHgdrMpebktBSWGArccth0CuHVDtzRnW/REi3DO40Pnb8t/L17XPfHcM08299qLgFHz1+UhDinFw+3w0Gmpd+wYrgtwA9iMBzbk2XHnGcBtCXA29ZoAN4AbHe1FOtpUVMddUVF+lN8cGlgzcFt+lVIDDgC3EmCLaUt22IcCN3m85dBNcNSHAstLMQKkHC51LZggUOXgykFWPqQ0QjIHZ9FGGObxuD/G47X64vE8v66s36ff9yGBm8ql5JGYp9XKekz6klrk2oeDjgC3OepzrkG78Jg0AHCbCseWOA/gBnADuAHc0AAaQAOLaGCdwG3qKqVT5nA7FQ+3CMjmji8JImqwJYc1vh2h25qAm8BYBGIRlKX4G5vVTvsgW9yfzm1f34GbrEO3Q3m4eZl4GdVsrazHpC+pRa4NcAPYHBOw4V6PW68AtyXA2dRrAtwAbnS0F+loU1Edd0VF+VF+c2gA4LYUcBvTeZ8bkC1xvTHPM+bYGmzJoY1DnWjnAG4Oq9xGkCWA5sArQjCP+z633cBNsG1+4Ob3LbskcIv53hXPyy1u18p6TPoYbXHs4QDa2LzHw22O+pxr0C48Jg0A3KbCsSXOA7gB3ABuADc0gAbQwCIaALgtAdzGdzbL86aNAWf7WDQh3s/YZ6wdX4MtEdTUAM+uwC3CKo+PAW4Cbw7bZE8VuNXyv5Qeyy2P18p6THpNR6QfD1wrlRXA7ZhACfcK2JtDAwC3JcDZ1GsC3ABudLQX6WjP8bHkGlS6aOC4NQBwWwK4CSCUOpW1tAiy1hqv3fsu6TXQkoOaEthR2pLALXq3Caa5V1tuDw3c9jWktFYGeXpednG7Vt5j0nfRG+euF8oB3GhLHXdbivIbX34At6lwbInzAG4AN4AbwA0NoAE0sIgG1gncLl++2CjkQ+SGbI9dmXEp4DYGuq0Vsvl9LQEqapAlAhqP51DHt5cCbu6pFmFaDtp8Ox7j5+Wwzo5ZZkjpvoCb8trzvct6mZVsrczHpC+hRa55eBAHcAPYjAc25Nlx51kO3O40d+/eae7cub0Jt2/falJ4p7l928Otzf579+42Dx7cb548edS8++6z5uXLl82rV6+aJWDUWbgmwA3gRkd7kY42FdVxV1SUH+U3hwbWC9yGwLXSMX3ATatVxtUsTwW4LTmkdAkgUYMsJVBTAzynANzeeOMbjYIDvNzWgF4c+urDYfP3Yey7oJVeFZSvtVArC08vlZ+n1cp8TPoSWuSaADfaE3O0J7gGOhqjgQjc7jT37gHcDgn2AG4AN4AbwA0NoAE0sIgGAG4At/7545YAEjXI4nAmWoc5uQW4nW928XDL4TPA7fDgaYl37RiuiYfbGFDBsYCtU9AAwO2QgC3/bYAbwI2O9iId7VP4WPMMNDrQwG4aALidCnDz4Z9L2CU67AC3N6pebdHLbUkPt7an55WNdxsebkC3Jd73vmsC3GjL7NaWIf+OL/8Abjn0OuQ2wA3gBnADuKEBNIAGFtHAeoHbUnO45V49SwG3vg5m3L8EJJvzmvFe54oD3ABuNQ10pc+lP66zLrAIcAMYHR8wosx2KzOA2yEBW/7bADeAGx3tRTraVBS7VRTkH/l3ChpYN3DTHFT5vFR923HeqhgXaPPQ9uy52gi6Xbt2bRM0TDEfuhiHN3p8TigwJxxb4lpLwIla/nn+RpuXh2/7kFKDpldez83n5SwbNRDj0pHPfRathmj64gfR06wr7l5ofl7Xogld1ynt82vLxuvPMYdb+z3Aw20JnXPNYWAP4HYK7QmegXbxGA0A3HLodchtgBvADeAGcEMDaAANLKKBdQO3PrhW2h+hSoxHCNMGDfMDN8GksR3tJUDZXNcc+yxDjt8VuPmk/hoCeWjgJlCWA7EIyizuq5QO82xz+BavMxa46f3wdyDq3+Pt9wDgNkS3HDMMoI3NJ4DbGFDBsYCtU9AAwO2QgC3/bYAbwI2O9iId7VP4WPMMNDrQwG4aWBK4Xdp4EF24cK45f/7NDZBIUEKTvV947WF06dKFxoOGkk4dThoBg4MGtw4ZZNugYRngdkrQbWznue/4GmxTevRs87h7tLlNsO3aZ7BNZXg4DzeA2/XXXqFeZiXbVe5D9/Vpi/3LALGl8xXgRltmt7YM+Xd8+Qdwy6HXIbcBbgA3gBvADQ2gATSwiAaWAW7yOBLo0lA9AbdtL518dcVhwC0O/VN8zR5uAghjO6lzeaTNfZ2xz9F3fBdcKYEaB21ufSiphgGbd9s44Oa6yfXkwzTdk8y9zGTfeOMbr0NM93iCyQLMbc2b/vfv4eawWTYCZ49HSKk4q5QeJ6zqe9+OYT/ADWB0fMCIMtutzABuhwRs+W8D3ABudLQX6WhTUexWUZB/5N8paGB+4OYAxICb5sNK3m0RSghuOPBw7zbZmoebH5tbhyduI2SIcYcMeLjdbMYCubk77IcEbq4T2aglh22yfcBN8M1Bm9sElQXbAG4lcNpV7kP3za1FrrcOyAhwO4X2BM9Au3iMBgBuOfQ65DbADeAGcAO4oQE0gAYW0cASwM2G9gl2GbwoAzdBDQcefcDNjyvZCFAUj5AtxucGbgIKfZBgbGd+LAjb1/Fjn6Pv+K58K4Ea92xzu4uHW9RL1FMO3ATNHKbJRg83j8f9CbhJ73XgFs8ZEo/XdRAoG+/XnyM+W/4uRP17HA+3dcCmvvflLOwHuI0BFRwL2DoFDQDcDgnY8t8GuAHc6Ggv0tE+hY81z0CjAw3spoF5gduVK2kerbMA3Pqg29iO8r4A2tjfGfscfccfB3B7sxe4RU83gbE332zD5QjLzp2zIaUO2UrQzvdFG68xFrhF6OaQLVqAG8Ct713d136AG22Z3doy5N/x5R/ALYdeh9wGuAHcAG4ANzSABtDAIhqYB7jdvn2r0XxaZxG41aDblI7qWBC2r+OnPEvpnLGgTXnrXm3RLunhJqjlkCuCLwdkufVjHLjVoVsCbrVr+LWi9XuJsG2ohxvADaBWeg/XmAZwAxgdHzCizHYrM4DbIQFb/tsAN4AbHe1FOtpUFLtVFOQf+XcKGpgPuNlCCZdfQ7ez4uFWAm5TO7T7Amhjf2fq88Tz5oJtAm9LAjcHXAbQ3njt5ZZDMt92OLZG4FYbUu1ebni4AeTiO3rIOMDtFNoTPAPt4jEaALjl0OuQ2wA3gBvADeCGBtAAGlhEA6cH3KJXTw04tEGDVri8uvHQk5eegoBO9KhSXGCtFkowaUrndSwI28fxU56jdE4pjzytlq95Gfj2HMDN5z1z63OiAdyubvSvPC4FL4OarZWl0r28d7ElbZF2/OAQ4DYGVHAsYOsUNABwOyRgy38b4AZwo6O9SEf7FD7WPAONDjSwmwbmAm7vNIJYly8f3sNNwK0E3dyrR3YfwE1QYSwI2AdAm/IbY5+jdHwXZKlBmhrUmQO4SSMO22R3BW4aSuohQrsUZ0hplwaG7itpizSA2271IO0I8g8N7F8DALcceh1yG+AGcAO4AdzQABpAA4toYB7gduvWO41A1qVLlzbW4NthVildArjVgJCn12DBWBAwBYbt45yxz1E6vpZHSvd8zO1xATcNP+1aOKEO3DQ81Yem5jYBuzebOI+bA0JZB4eu/dzK0zMC5xiP8PnaNXl64uFW0i9py0I9PNwAPvsHPuT5YfN8V+B2p3nw4F7z5Mmj5t13nzUvX75sXr161RwSWh3zbwPcAG50tBfpaFPRHLaiIf/J/zVoYCpwe6e5c+d2c//+3ebRowdNAm4XTwS4XW8NKc1BUL5dg0ljO+n7gGdTfmPsc5SOr+XR6QA3QTOAW/5uxO0uDQzdV9IWacvCsH3kL8BtDe0B7oF26T41AHBbE6ADuAHcAG4ANzSABtDAIhqYBtwE2O7cuRWA281GXjTyrPEhm9qW983582++XvVR3jrRSyd55lxoLl2ycPnyxUYheun4cSUbj4vxOH9b7uETvXo0f9v2HG6amH84dKvBgrEd1SkwbB/njH2O0vG1PFJ6hDIxvhYPN18goWTNI02wbTpwy73a4rZ7uMX3Zq5VSv1d9fcBD7fjB1eld+8Y0gBu+wQd/BZgbQ0a2AW43Wru3cPDbU5gB3ADuNHRXqSjvYaPLfdApY8GDquBccDN4U4O3JSu4aQXLwqW2RxpxwzcbOGE4dCtBJOmdHI9f9dkpzxH6ZxSHnlahGwxvgbgVoJsMW3NwC1C5ziMNMYdtskC3ABupXd3H2kAN9pCh20Lkf/7z3+A25zAbNdrAdwAbgA3gBsaQANoYBENzAfcBNsuXLiw8XRT5/0sA7epHdQ1gTa/l6nPkp/ncK1kI2SL8SWBW+4t6XOiuUeZrGBahGul+BDgpmPOnavP4WbX0Bxw28HvZ4qHG8ANgJa/h2vdBrgBfPYPfMjzw+Y5wG1XSDbn+QA3gBsd7UU62lQ0h61oyH/yfw0amAe4qRMn2CZooU7+GoGb7qvm2ZMPKcXD7WazVuCmob4qHw82JPhKa+XZWM4ROinuw473Ddwcusnm4K4E2jwN4HajiZB2rcCI+9oNbgLc1tAe4B5ol+5TAwC3OYHZrtcCuAHcAG4ANzSABtDAIhroB24GXt5ubt1KECYfUurA7fz585uhpWsFbnXotts8bhEIxPjYTrhDrjXZsc9QOz7mSx6PXm0xnnu4DYFt0t4agduuHm4Cb9HLzT3yZB0eOkx0G2FjzJMYV355YEjpbtCopn3S+/MV4LZP0MFvAdbWoAGA266QbM7zAW4ANzrai3S01/Cx5R6o9NHAYTUwH3ATbBMQ0FxuxwXcHLZdfe01NYeHm6DS2I72mkCb38vYZ6gdn0O2uB0hW4yfCnBz2CY71cOtBtwctsk6aHMLcOsHPTW9kr7fvAO40RY6bFuI/N9//gPc5gRmu14L4AZwA7gB3NAAGkADi2hgHuAmeJKA28XVAreyZ48DtzRMEeCWvBnnAg8RsOXxCNlivATcrl+P5aSySx5aHo/lHKGT4g6jIqhS3D3GfAinbAmOlYeDjlulNF7XVjfdnrstH1IKcLOhpXPpkevsF6j15TfADeCzf+BDnh82zwFuu0KyOc8HuAHc6Ggv0tGmojlsRUP+k/9r0MC8wO3cOXm4HR645ZBF2xHCOJgxC3Bzb7aS7esoD92fQ7a4HSFbjOfATdvbwG0busWyzrWwFuBmQE2grg7btC8CwNKQ0ggO/dncxmePeRLj8V1gSOm6INTQd+sUjgO4raE9wD3QLt2nBgBucwKzXa8FcAO4AdwAbmgADaCBRTRwesAtQoYYr0EGm3S/PZx0Lg83QaWxneES9Dpk2tj7rx0fAVsej5AtxsvArbRoQhu6xbKOGlDcYVQEVYfwcOsDbb6/D7gxhxuQrPbOHVM6wG2foIPfAqytQQMAt10h2ZznA9wAbnS0F+lor+Fjyz1Q6aOBw2oA4LYm4HZIsFb77bk67Tlki9sRssV4Dty0aMKQhRNOEbhF7zbFfQhsBIcOE91G2BjzJMbxcAPYzfWO73IdgBttocO2hcj//ec/wG1OYLbrtQBuADeAG8ANDaABNLCIBuYBbupoaQ43G1J62EUTImSI8RpkGAPcBIAiEIrxCJBifEwntAa9Dpk+5v67jo15ksdjPsZ4BG5DYZsAUizrqAHFHUZFUHUMHm4AN+Zw63q/jn0fwA3gs3/gQ54fNs8BbrtCsjnPB7gB3OhoL9LRpqI5bEVD/pP/a9DAfMDtwgWbeF5QQ9BDVl4458+/WZ2HyqHHpUtaYdHC5csXGwUHI7J+XMnG4xTPAYtvRwijePTsSfH20FKHPBH8nDXoNldHPodscTtCthiP+e5loeG+HgyW1hdN8LJ3G7USteTeYrI+hNOHdOaLJOTbdtz4RRP8+n3W7wfgBnCb611c43UAbmtoD3APtEv3qQGA25zAbNdrAdwAbgA3gBsaQANoYBENzAfcBDAELAQ3hgI3HX/x4vnXsE3QbVfg5lDFIUtuc/C2Dd9y6HZtM1G/JuuPACiCoRiPICnGh3RyD+nJVvvtIfc95JiYF3k85l+Mx/xW3KBbAm6a5L8E3byM87J3bcjOB9wctslqZdM2YHZgdu6cFkDoXiChBN/8fIAbwG3Ie3asxwDc9gk6+C3A2ho0AHDbFZLNeT7ADeBGR3uRjvYaPrbcA5U+GjisBuYBbuosXbx4cRJwy6HbXMBNUCUHLr7tQCba5OUmjylBtwTeBNs8RAgU4VCM50DJt/s6wzXodcj0vnseut/zoGRj3sV4zGuPezmYl5sDt2GLJowBbgJdAmC5R1u+/eab+wFuup8I3fTeeHB4GJ8v13/UeoxH3bNKKfO5DX2f5z4O4EZb6LBtIfJ///kPcJsTmO16LYAbwA3gBnBDA2gADSyigbmBmzzUxnm4OXCLnm67DCmN0MEBW24TcLjUXLmicHkTrl7VUFMPVz6Dbg7fzDrwkRUEunHDw1ut+d1KYKmvk3pIsFb77b57Hrq/lB+eFiFbjDtky63yvj2sdBhwkw5cHw6p3Dq8co+yocBNAC5Bt+U83ABueLgNfdeO8TiAG8Bn/8CHPD9sngPcdoVkc54PcAO40dFepKNNRXPYiob8J//XoIH5gJtAhuZxWwK46doORnLrAKVkzVvuUtXTzb3pdM8G3tzWAFwbwjl8y4GQgbgE4BwslWzsHNeg1yHT4/3tEi89u6dFyBbjpXxV2tqAW4JuywG36N2muAPC+D7k70AEzQ6Vo43ebYrj4YaH2y7v+C7nAtzW0B7gHmiX7lMDALc5gdmu1wK4AdwAbgA3NIAG0MAiGjg8cJNnW/Ru83nccnig7QgXPF46ztMiUIvwweK2OEM6Jm234ZtDOPOEMw+4NFG/IEUNvEV45HCpZGNH9ZBwrfTb8d52iZee29NiPsU4wE3zvtmccAA3PNx2ef/Wfi7AbZ+gg98CrK1BAwC3XSHZnOcD3ABudLQX6Wiv4WPLPVDpo4HDamANwC2tUOqwTRDMoVluHbS5zfen7fZ1dW0Pfq5ZA34l8OfHuzU41/aYk8dQ9A5yAPfWWxpy6sNOu73dap3hEgDbd1rt3samO1wr2QjZYnxX4JZD1qSNBG/dU8ytA64h87fF+dxsWCkebrH88nip7MemjdUdxx+H1x7AjbbQYdtC5P/+8x/gNicw2/VaADeAG8AN4IYG0AAaWEQDcwG3mxtApoUTLl82ACXYIYhx/nx71cboqaP9Je+2ccAtgTQHYyWQ5kBN1uHKhQsamlcP8ZwUv7DxtHN4o+c06JbmfnMAd/36tvdbDULUwMC+AVv+e7X7GpveBVbyPPHtHLjZKqXXX8/fpnnc8lVKfchkDtu07WUmK40kHSRN+NxtALe0UIh7cMrmZZJve9mVbJcGhu4bqzuOB7jtHyQAb8hzNNCvAYDbrpBszvMBbgA3OtqLdLSpDPorA/KIPDp1DcwD3G7durmZJ03AzT2+hgK3GnSLcCTG295pDr8SdGsDNYGUNlBLwE+rPrZhoHk3aRifBe0vhzSHliBfGpZq3m8akupDT69ds7mxHFoIUOQwwmFDDQ7kEGyf27V7Gpvuz1iyeX74doQ5Y2CbNHhqwE3aTNpN+rP3x9+DtmdozAMHkbmN87gxh9txwKmx794xHI+H26m3NXg+2tO5BgBucwKzXa8FcAO4AdwAbmgADaCBRTQwL3ATGJsK3ATK3ENtjIdb7s3mgM3gRIRqCaQ5UPPVJePQwDfe+HqTQlqB8ty5bzQp2NxagnH6vej9Zs8gTz+f+808/szr7Uojr7c01DStcOogqtQ53idgy3+rdD9T0vz5StYBW24BbqYzH+ZaAm4RQEcwrXgfcIuwzb0yfUi0A+LcxjIpxfMyjNulsh+bNkV7nLN+kAhwy2EE2wCqU9cAwG1XSDbn+QA3gBsd7UU62qf+Ief5aKyggX4NzAfcBNpy4CYQlXuRlaFBGlrq3mI5PEjb5s2TQIOd66BNNv6mhgZa+EaTg7VvfON3GoWvf93C7/zO7zS/8ztfC8HS/bhkDcoZsEvwTc/mwxR1fwY9HL75yqcG3RxkCFrcuGFebw4fckCQQ7B9buf3MnXbn61kI5SJ8Qh0Sh5ugkMRGkXvrQibPJ40dHxDSmsebuk9ML3FZ/Tnlo154/GYdwC39UOpqe/eMZwHcKO90t9eIY9OK4+WA24ffvhh0xfmhFWncC2AG8AN4AZwQwNoAA0sooGlgZvmyTr3eqXFEjRw77Do3dYN3Wz4qIGGBNvaHm0O2d7YQLZvfOPrjcLXv67ggE1g7bebr33Nwm//9lcbha9+NQVP82Pc6jyFr3/9axtg5yDP4Z4/pw+XdfgmGGLDTW2VU/cm6oNu+wRs+W/N1VkvgTZPi5AtxocBtwTdHCTJRtjk8QijVCYOR6NV2Xk5erkOsd2LJiTvSr/2UKv78VCG1QlAx+dT3J8b4AZMm+s9Xuo6ADdg0mnBJMqzvzznBW7vv/9+8+rVq6YEv5Tu+2RfvnzZ6HgFxX1f6dyzkgZwA7jR0V6ko01l0F8ZkEfk0alrYCngdnXT2Teo0fY4y6GBwag0B5tgm6CUw4I2RHDYlia5d48282oTaLNhoBoW6pDNPde+9rWvNRZ++zO49pXmq1/9SvOVr3x5E7785S83X/7yb7WC78utzvvt3/7KBtjJK04gz8GerIBKBCUO32zON5/r7XKjOd7k7bZW6DZXB9vhWslGyBbj/cDNF00w6LZW4GZaMOg2FLT5ca4h2fzdcVCod8jeI+Zwm0uvXGe/kBLgduptDZ6P9nSugfmA2/PnT5t3333+GqC9ePGiefbsWfP48ePm0aNHzcOHDzfB4w8ePGju37+/SXvy5MnmvLMC1mrPCXADuAHcAG5oAA2ggUU0MB9w0+qkgmOCHvLc0nYfcEugoB+4+bHyiPPho+7VpjnZDFDYsFEDbT5MVJBNgM0hmzzYDLI5XPut3/rNxsNv/uZvNL/xG7++CYr/1m+loG1L+83XUE4gzuCbecjptyKAk3eUARebT073bnDEFltwjzfN7WZDS+vDS3Pvs31szwUeSqDN0yJki/HhwM08BtcM3EwDrtPh1oFbhG2K57DNNDUOuDGkdL9Qaa536RSvA3DLYQTbAHQuA3oAACAASURBVKpT18A8wO3x44fN48ePmrt3724Am0Db22+/vRmt8F//639t/sN/+A+b8B//439s/tN/+k/Nf/7P/7lR+q/8yq80X/rSl5o33nhjc5483Wow6iykA9wAbnS0F+lon/qHnOejsYIG+jUwD3AT+FkSuNVgm8MIebUJbLmHmbzNfPinDRNNnmwRsjlAi1aw7dd//Uuvw2/8xpcaCwbhtM+BnGwXgDP4JvBn3na6T8FBAyYG3tyjL3m6XQtzur3VCErFDvY+IFv8jfjbu8QdrpVshGwx3gfcrl5Nw0kFjwBuALddNMq5hwOQADfaK/3tFfLotPJoHuD26JG81e41V65caW7evNncvn270WiFf/kv/2Xzl//yX27+/J//881f+At/ofmLf/EvNn/pL/2l5q/8lb/S/M2/+Tebv/f3/l7zT//pP93AOLUl5A2nIaZnAa6VnhHgBnADuAHc0AAaQAOLaGCdwM3ncJPVEEwHbubV40NU0xA9h20CbfIuM48282QrebM5YDNw5kDNIJv+8fzSl77YfPGLX2i+9CWFL3aGCOB+8zd//TOPOPOAi95v7vkWh5sKvMljz6GbT1xvQ0wTeBOEysGbw4EIx5aI++/sakugzdMiZItxgFt7WHL0cpvDw02AMnq5yTPV5xX0RT1yG8ukFI/ll8e9vHexu+qQ8w8H1bryHuAGTDotmER59pfnfMDt7t3bn/2xqT9f32j++3//780/+2f/rPlrf+2vNX/1r/7V5q//9b/e/K2/9beav/23//YGtP2Tf/JPmn/+z/958y/+xb9o/tW/+lfNv//3/77R1CMaeqr53LTgQglKnXIawA3gRkd7kY42lUF/ZUAekUenroF5gNutW+7hptUQr+w8pNSBmy+kIOBWhm3Js81hW/Ro++pXfW42m5dNw0YjbEuebF9sfv3XDawJtH3hC7/2Onzxi7/WeIjpHtfxCc59YXMd94jTb335ywm+6d4E3nSvPtRUc88Juvncbg5BNMT0rbd8bre3GsELgYpSp3UJ0ObXLP3elLQuyJKDGd+OQKe+SmnycjtGDzfXgc/ZVrL5/G1zDSl1rTl0A7itE0ZNed+O7RyA26m3NXg+2tO5BuYDbg8e3GvkpabRBF/4wheaf/tv/23zD//hP2z+xt/4GxvI9nf/7t9t/v7f//ubNIG4f/2v//UGsgm0/bt/9+820O2//bf/1rz55pvNnTt3mqdPn2683c7SYgoAN4AbwA3ghgbQABpYRAPzATd13i9dmg+4dcE2gxKCbbbqqP6Z1GIIDtvSAgdpAYQI2wTCfOho9GBz2PZrv/b5JoYvfEHbn2s+//kYPt98/vN+3Oc2+3WOjhWgk3ecIJ7gm3u+aTirIODXvvbV1/O8CbgIumluN3tmmwev7e1m87odArrN1XFfFritf9GE0hxuKnsPJdAW03Lo5h5usu4B2l5gpH+V0rmBm4PSmu3SwNB9c+mR66wLLgLcchjBNoDq1DUwD3DTHG5Pnz5unjx5vJmuQ3O1/eN//I+bv/N3/s4GuAm2/YN/8A+af/SP/lEjzzb3aPvc5z7XfPGLX2xk/82/+TcbSPdf/st/2Xi6aWjq8+fPNyuYnrJXW3w2gBvAjY72Ih3tU/+Q83w0VtBAvwbWCdz6YJsghS+M0B5C+tXXK45+5Su/1SjU5mxLwM2HkNowUnmuCZwJrkXopu3Pfe5Xm1/91RS0beFXms99TsG2P//5X92cq2sZfJMHnc39JvCn+9JQV5/jTeBQc7vZggrydhsP3dwjbW47F5joAio1QNPv4XY8q5SeAnCL5fH/2Tvvf7mJ6/0ngUDAmGLA1EDiTwDTIYEACQklgOkl2JCA6RDAvffeu32L7et67/U1xthg4m/anzff1zPjc3V2rqTV7o600u7zw7xmpJW00syRdvTe55zjt5PGUK9Ps4Gsn4WyRx6HwK3+7yPnEOwj2kB+NhAGuJ0+fcqcO/e9+e9//2NVbnPmzDHTpk0bdSeFG6lWuH3yySdW1QbQtmXLFgvY4IIK6AYXU0A3KN3gXtpNMd0I3AjcCNwI3GgDtAHaQC42UD7g1jxsk8QILgOpADcfujng5VxN8RmWN2zYYNavX28zVvkqN3EdBXwToOag23KzYoWUZWb58tqCz7C9gDscB2o6gDco3uBqCiUeVHmAhhLbzandaqEb3EtdXLdkpVto0CbHCwUm0oCKhjK6raFOvEtptYEbIBzgsVayxbV9dVsol1JxJZU6zaVUj4Xf1mOW1k6zgayfhbJHHofALT+QQEjDvqUN1LeBcMDthx++N//5z79t8q5Zs2ZZddtLL71kpkyZYmO4IY6bxHIDfEOyhLlz59q5H+Dapk2bLISDMg7uppgTQuV27ty5ronlRuBG4MYX7VxetPljUP/HgH3EPup0GwgH3FyW0tZdSiPgts8qvgCgoP4SOBGvbHOwzSVIAHDbYrNURa6lAtg2W2UZjoFjAmRAXQbohQmXgDe4GUhsNqkBzJxLqVOxRbAN0G2ZWbZsaWwBiBP4BmgnijfnaooYb5HaDecFAIPzgqugU7r1GZfBtD3QLRSYSAMqSZBGg51OBW5xgE2vgy20G7jpcYhrJ42fvz7NBrJ+FsoeeRwCN85vOn1+w+srt42HA25nzpw2Z858Z3bt2mWBGVRtgG3ITvrcc8+Zp59+2vzpT38yf/7zn+06JFH48MMPrZoN4UgQlgSuqO+9956FcUuWLDG9vb3m+++/J3DTfqfd2v7nP/9pzpw5Y06eHDFDQ8fN4OAxg3+lMZGQf6cRzBrrXTluhoYGbUFGDyknTgyZkRExfD6gyv2A4vhwfGgDtIFQNhAauMEVsrWkCQBuLiaVA26ADUmwDbHQULZti4CbbiNemivuc7hw7tmzyyYgGB7G794J+1vZ399ng+0C1DnF23qrRIuSKji3U0A3HcsNCjYBbwBrgG5Lly4xS5YsHlPwGbYVxRtAnqjd8J3iYioJFSLo1mP27wd0c8AtTekmv/sh61BgIg2o+GBGljXc6TTgJrHbpNaQTbcJ3A7bZCFiP6HskcchcOM8ItQ8gsehLTVjA8Idhg04BArmZcIpBgfBNaQIx0ANlnHcbo9kCadOnTQnTgzbPykByqBSg5oNsA2g7amnnjKPPfaYefDBB80DDzxgHn74YfP444+bF154wcI1JEvAn61QvCHRwjvvvGOhHf6ERfKEbmFMVLhR4UaFGxVutAHaAG0gFxsIA9wAeJzCzcUeAxzCsssuutcmBYgDBy7gexT0PQJt+2zwW1G3AUrEKdtc1k+BbgBvri0gbscOALbdVikGtzmAK8A1vGzLRA5Qp6enx/7DiQmWJFRApqv58+fbmB4ItIusVwBmvosp1glsW7ZsyShwW7x4kVm0aOGFsshgGTBOgzdxM0U8OQfdXEKFnTu3e0o3B91wDb57qQ8iQsI2HCsUmJDzjKsFsPl1duC237jx7TeSqRTj7BedVMDZJqBubRHAK5BXgFi9GiAXrikoYutSC0DTSk3/eLKNX8sx4Eaqi5y3u2ccpNbXh7a+fukXXYsrqdR0KS0XhAp171XhOEya0Ayw4D4EXVW2gTDADdDt8OEBO8dCBlIkS3jxxRfNs88+a4Eb6kcffdTcfffdZvLkybYGeAN0g9spAB3md9gXyjhkNoX6DUmxANz+9a9/dQV0I3AjcOOLdi4v2lV+SPPcOcmgDYSxgTDADUrqCLhlV7hF0ECgm4MfAAsR+NDZSLfbRAMAaw6ubbPLUK65BATbDCAbgBUAHeAFYAIU3ugvACQABxwbcdPgcgrYBfAFcAYo5kDZIoPAu/inE24I+EcU/5jOmPG1WbBgvlm4cIGZP3+emTt3jpk3b65dB1UbgBtKLWxbaBYudAUAbskSgLelFtJBIQc3U8R2ywrd4F4KMHLo0EE7yTxy5JBVAOmX6pDQTR+3lXYcaJN1PmiT5XrA7cABl51UgJGGSRo2SVsDqXYCN9hlo8ANNhsH3By0bg64ob+k71CnATdRVuox0W0Zs7RaxruVuhUb5L7lBYoEbpzThJnTsB+r049hgBuUcb29+8wHH0w3cBV9+eWXrXoNoO2ZZ54xzz//vFW43XXXXebOO+80qAHfAN2gfMN2b775pgVtAHBQvr377rsGajkAt3//+98Ebt0i80u6TrqU8sFanQcrx4pjRRsonw2EBm6NxXCrBW6AbvFupLt27bAQTcCahm0AZwBsUrAtwAQgC4ACoIB7mQMU7LNgC/9eYoKFiRn+CcUEC3E+MDnD5AsFsT4wIfvlL39pJk6caCdpf/zjH+0/ptjOuSr82cYJAZgDiBOlG+Ab4BrAnBQH6uabRYsWWCDnAJ1zM3Wx3ZBQAUq3DaPJFMS9FNeDvgEwEkgCpZuDbg64AWJooBAKuuljttJOgyxJkEYDnTiX0ioDN1/JlrQsCrck4FaUwo3ArbywqpX7siz7ErhxflS++RHHJN8xCQfc8Ps4derbdi6H2G2AbALcML+Dmg3qNsA2Ubndd9995qGHHjK///3vR5Vwss/bb79tFi1aZMN2/ec//+kKlRsVblS4UeFGhRttgDZAG8jFBsIBN4Cgvr7WgFtPT+R+CgUQVGq+K6lAN6doA2gDjNthANqQAAFuewBTAARQ7WAiBiUbYqdBlfbhhx+Y3/72t2bSpEkWpgGo3XrrreaWW24xN998sy1o33TTTWbChAlm3Lhx5he/+IW56qqrzI033ji6DbbFNr/5zW/sv6R///vfDNLNf/75ZzbbFQCbQDe08d0LFswzCxc6hZxTu0EVp6Gbi+sm0A2usbg2wBgfurlECk7lBmDlAze8SIeAbqFeyPMAblBkaYUWbFCKqNp0XQaFm7iVJgE2fz2BG2O4hboHy3wcAjfCnXzhDvu3fP0bDrgh/Mi0adPsH6DyB6rAMwC4P/zhD+bee+8199xzjy2Abffff7+N64b5IJRu2EYSK+AP2Xnz5plvvvmmK9RtEHYRuBG48UU7lxdt/viU78eHY8IxKdoGygPcNGwDdBDgBuAEFRtKHGxzUA7xs5Ddc7fNbAqwAtACSIU4HF988bl5/fXXzF/+8qx55JFHzNVXX20uuugi85Of/KTlctlll1kIh39JoYqDUg4KupkzZ1rIBpdTFAFugG6uALwttFmy4qEbEikgpts2Cx3l2qBo6u/vNQcO9Ne4lgK6xb1Qtwrd4o7ZzLr8gFsE3QS2odagTdrtBG4YPyk+VEtbJnAjcGvmfqvaPgRuRf/28/s432y3DYQDbvCWeP/9923oD8lOCk8EFHgxwDsBgA0FngtIoAB1G8KFALj97ne/s0q3J554wjz55JPWvRRzuGPHjpkffvjBnD9/vuPBG4EbgRuBG4EbbYA2QBvIxQbKCdx82CagTcCbqNqwnQtSD2Wci/8GIIXtEBcNsdKQ5h3/Xt5www3myivHm3HjLrew7ac//WnLsA3A7mc/+5n5+c9/bpVwV1xxhVXBITsWvveLL76wZdasmdblFNBt/nwH4ByEc2q3xYt9pZuL6bZ58yabvRTXI+o9gElkcnWZS/ePxnLLS+UW6sU9H+AGFSOAm4NuZQVuDpoJcHNZd9Mgm/6sHnBjDDe6eoa6R9t5HAK3dsMPfj8BXNE2EAa4jYwM2z8hP/30U/PGG29YlRvUbQj7AeCGuGxQrgGwCWgTyIY/YJFQAcANNeaKgHOI2Yv5GxJqnTp1yiCEV6dDNwI3Aje+aOfyol30g5Xfxx9z2kD5bCAccHNJEyKXUsAPF5g+chMFPIDqTIrEcANEQsHngA0AaaJsE9iGWgM3KNuwv0AWqJigYMJx5syZbV566UXzpz89ad0HANsAxUIo2uod45JLLjG33367dV/ABA6quo8//si6jsK1dN68OTbZgiRcAIRDnDckWtBKNwDDjRvXG0A3xKxz0A0qvj32uh100yo3uJWOdS3tbIWbALdyZyl10Kw14Cb3jNRy7xQVw03H0/PbSTH4/PVp0DXrZ+2EQvzu/OAmgRvnR+WbH3FM8h2TMMBNkiZMn/6+hW0AbVCpoaAN4AbvA0A2rWgTwIb4bvBQQBHXUuyDECHbt283w8PD5scffyRwS0oo0A3rmTSBD8N8H4bsX/YvbaCzbaA+cEMGUrwMoXZt1MfM0NBxg38WT506aWOFRVlKHQQCCAMUAgBDfA0HHeKAm4NtbpuxrqQRcHPQCSAOQA7AATG88BJ8+PBhg5hm+C7Ea4P76PXXX28uvfRSq0ALpWarB9vkc3wfCmK/3Xbbbebll1+ycd0+++xT696KbKdz5swyc+fOtgDOh27IXorMqevXA7ptMJs3bzbbtiH7Kq4d8dz22CQKzrV0v41Xd/jwwAXgVgvdOhm4ibJN4rgJfEUtbqS6bpdLadWBmw/Y/GUfrCUtZ4VqadsReuUHvdrZtwRunGt19lyL4zt2fMMBt71799oYblC0QaGGeGwC3JAcC+ANKjZRtglsgwsptkUN2IaCNtxSERoEiayOHj1qzp07R+DWDWAt6RoJ3PgAG/sAY5+wT2gDtIGsNpANuAlsk3pwMAxwE7UOakAJrW5D1tEdO7bVxG3DOsA2QBQZ48HB4+bIkSNWTQc49fnnn1vXALh3Ik5b0bAN0E2AG74f53Hbbb80CNKLDFn4p/W99/5uvv76KzN7NqDbnNEYb1C6IXspsp2uWrXCrF0L6LZuNHMp4COUfegrAEcAJN+1NLTKLdRLeBpESQI0GuxUOUtpWYEbwKTAStQA2ChIOOIXPRZx7aQx1OvTbCDrZ6HskccpF7gjcMv6m83t5LefddVtIRxwg9J7+vTpNvM8MpQirAfi6SJ+GxIgoA33UUA31FCzQdkmYA6QDqBN1uEYf/vb38ySJUvM/v37uyKOG11K6VI6+mLFh2vVH648f9owbaBcNtAKcBusq3Cr51IqwM0BiT1jEiVE6jbnTgogB9iGfxwRV+Obb05ahRtk//Pnz7cTJAAtuHTCtRPx1UR1VmQtwA3ff/HFF5vLL7/cZjkdP368jSHy7rvvGqdym10D3SSz6dKlS8yKFcvN6tUrzbp1a8yGDevNpk1IorDlgsptl6dy67eA5NAhl7UU8EIDhVZUbvo4rbTTgIqGMrqtwU4ccHNZSsufNKEWuO22YFnHaUtry70h94rUIVxKGwFuAHB6POLaeuzi2mk2kPWzVmyQ+5YLsunxIHDj3KhccyOOR/7jEQ644fcQcXMB2ADboHRDDdfQv/71rwYADao2H7gBtCG+G4pAN0A4ALqpU6eaOXPm2PjA33//PRVuSeqvblhPhRsfiPk/ENnH7GPaQOfaQLPA7bgZGoqAG5RvkUupU8pgOQm4aYggbVG3QcGFeGU+bMN6HA+wDanaT548aY4fP27gSjBr1iw70br77rvNLbfcYgC22gXbtMJNwBtqnA/qyZMnm6lT37YKN8Sag8oNtVO6uXhuULkhnhtUbtq1FO6ykcrNZWRFnwCcAD5FwK02Y2nnA7dyJ00QoJZHllK8aMAGULTLLNranRY2EleyKtxE8RYH2mRdHGTT67JCtbTtNKRhu7wArdGxIXDjPKtz51kc2/ixDQfcEGYDgAyuowLO8OcrQNvbb79t6ziFmwC3p556ahS6YR1gHZRxX375pdm5c6c5e/YsgVs3gLWkayRw40Ms/iHGfmG/0AZoA1lsIDRwi5ImJAE3AWyofVdSuIvGATfELsP2gEonTgybM2e+s8AP2wJUYVI1adIkGzMNyRHgylmkos3/Lg3apA3ghgL1HTJoffDBB2bGjBnWnVSgGzKXRiq3xWbFCriWrjRr1/oqN5e1NIrl1mdj2AGKIJYbIAeghbz0di5wk6QJ1QFuAt+y1v794ivcigRuAtbiag3WktppIC3rZ2LTrDsHtmEsCdyy/F5zG87rOskGwgC34eFBm8X9lVdetu6iDzzwgEEBYANIe+utt1KBG8AcQB22lWQLUMghUyniuG3ZssUCNzCXJB7TCevpUkqXUrqUMkspbYA2QBvIxQbCATeoZ/r6GgVuLpmCVrfFZSfdvdup2/Aijwn3qVPfWBdKJBt4/vnnzK9//WsbK80HX+1aFsgWV1955ZXmN7/5jXVZ+PDDDywwBHBz8dyQRGGuWbhwvlmyxGUtlQQKLmvpBpsUYvv2rWbXLkBIqNwklptWuY3NWNosdAsFNtKAShKg0WAn3qWUwK0V4KbVba3EcEsaP399mg1k/SyUPfI45QJ2BG6dBFJ4LQSDWWwgHHCDVwRUaffee4+dX2GOhbi5cA+FUg1/ygLAoeiECVCzAbgBsAG6oQ33UsC3F154wSZiWLdunTlz5owhcEsBUp1AHNOugQq3LDc0t+GDnzZAG6ANxNtAOODmXEqbAW4uphXUaoBtPnDDRApKLmQhRXbU4eEhW8O1ctq0aeZXv/qVjdfWLrgW971xoE3WYXtkL73zzjttJqzPPvvMusSKeykyly5YMM8sWrTALF3qq9yQQMHFckO/QBEIxRPcCeE+CGgiKrdQyRNCgYk0oOKDGVkmcNs9mt1XFKEhFW5ZgZseh7i2jFe9Os0Gsn4Wyh55HAK3+N9EzhXYL7SBYmwgDHAbGjpu8CfkU0/92dxxxx02Mzw8CZCkCskRXn/99dGkCT5wg6INcA3ATUM3gDd4ImDfVatWme+++47ALQ1IdfpnBG58KBbzUGQ/s59pA51pA6GBG7JmuhhuTvHWY3p69lpgJq5x4kbqlgEUANycK6kDbi47KTKUAipBydXf32tdjjAGUGoBNMEdE5OiiRMn2sQEceCrXesErqGOOwe4lgK63XbbbeZPf3rSJlCAWm/27JkGwG3+fKdyW7x4oVm2bIlZuXK5WbNmlXEqt/Vmy5ZNdoIZqdz22j46cMBXuR1u2bU0FJhIAypJoEbDHSrcnAs2gVu5QFGo+6Pbj0OFG+dYnTnH4rgmj2s44Ib54jPPPG1j5MLjAQUxfaFmQ+IEwLQ4hZsGbgBs2A7zShS0X331VbNy5UoCt04Harg+QDUE6xscHDQ7duwwy5cvHy2grviXH/9SgvAODh6zLyP44Rb3EQSzxnpXXKBrBLuGz7OUEyeGbLa5kREYPx8O7APaAG2ANtAdNhAGuOH3Jkqa4KBPEnAT8CbADbANLqOicANkE9gGAAe4BuB29OhhG78N34VsnYivgX8zr7jiirYmSIgDagLc4j7T68aNG2djuv3lL8+av//9b+arr7600G3evDmjKjckUFi+XGK5rTYbNqwzmzdvNNu2IWPpdgsrAWH6+pA8oVblBpAF0BX3Mi9zhHp13L7NrMsXuO238yCdFEAnDJC2TioAVSDcMf0Cu5T4arC9rAV2vGcP9nVu0trO5XgOLjeXpRTHE9iGWp93s0kTsirc6mUoTQKm/vo0G8j6WTO2x33KDykJ3Djn6o45F8c5GudQwA18BC6lz5p77olcSu+9916rcEPmUriLauD2+OOPW3dTAW6AbXBJRQ3FG4Ab9iFw6yI30nPnzpmRkRGzfft289FHH9nsG/A5liwaX3zxudm6dTOBG0EhYSltgDZAG2jQBkICtz6bJRHQA8kNsgA3id0G4CaupALcAJMA4bANgMLAwAELj3DcFSuWmwcffNBcffXVNkFCkpJMw62sbRxLEhzUq5O+N2m9fw5I7nD55Zebm2++2f47i9/zWbNmWJWbxHJbvHiRWboUKrcoY+mmTRvs7z76CkAIAEbcSqX/oQ5LA26AEPVgGz4PBSvSgIoPZmS5nsLtwAGXLEHAEa5dikA2XRO4Rf0j/SR9hxr3LYpkJPVrPR5+W8YsrU6zgayfhbJHHqdcEI7AjSAmAjHsi+7oizDADeIhzIWee+45G7cN4TrgTorECU888YR5+eWXLUiD2g3QDW6mAtwQrw1gDaAN+wO6SSw31Phjd8WKFVS4dYPC7YcffjDDw8Nm48aNNtMGjEjKww8/bP8Vxz/eVLjxAd0dD2iOM8eZNhDOBsICt95euJSmATfnQirqn0aAG2AJAByyeL722msWUl166aUmK9zyYVfcMo6FLKeAYFCfXXEFyhVeGWc/wzaXXHJJS+o6fN/FF19skEgB/6oi4ypAG2oUieUmKrfVq7Vb6WarcEefoD97e5OSJ9S6lWrQQOBGhVsjwK1VpVtWqJa2nbZftssFzVoZDwI3zmvCzWvYl9Xoy3DADX/YIjECINvkyZNtwZ+ySJoAaIbP0AZsiwNuAG0+cMOcDLAOnoWnT59mDLdOh24AbkNDQ2b9+vX2JWPSpElGyv3332feeecdG9eFwI0P2Go8YDlOHCfaQHlsIBxwAxBLB24C2yRum3Otg0Kr1p3UuZRC4QblG9zw4C4JBdf69evMtGlT7Z9OAGFQiMWBs0bWQcUG6AXQBoCG406YcI259toJtlx33bXmuuuuGy3XXnutmTBhgrnmmmvM+PHjDaAfzqNZ8Ifvv+yyy2yskU8++cR8/fVXZtasmQZJFKJYblHG0rVr1yi3UmQrdSpAxMrDGDjgqZMnOOAGiOG/EFcduEGNpYGRqLZQa2WbtMukcBNXVXE3TaoFTrfbpVTUbr6yzV+mwq1zIJj/vMhzmcCN86LyzIs4FsWMRVjghqyiAG6I3Yby0EMPWW9AuIXCrRRuolC8PfbYY1bhpjOUCnADdIOyDco3bI/4bwRuXeJWSuDGB18xDz72M/uZNtB9NhAKuB2xsAdQLFnhFgE3DRfigBtik+IfS8TFQoZSgBK4TcK1EpMgqMtagVwC5AC7ANlwPMAzKM0A2m688QZbbrrpRuPKTeamm1y58cYbDcoNN9xgAN+wDxIg4Fhy3EZqgDqcA9LY41/Y999/z3z55T8scIPazancFtprhystkiesX7/WOLdSxHGTforcSgGh4IILGCLZSjsXuEXQrYrADfav7we/TeAWETBQvQAAIABJREFUAeM4G84TAvHYxcFDAjfOv7pv/tXtYx4OuCGB1JQpL9hQI4BtiOUGL0BANQA3SZyAZUA3FB2/DaAN8y8Cty6Ba3FqPQK3bn8g8fr5I0wboA3kZQPtBW6i8nEKNyjbahMmALhBuYUA8YBwM2fONL/73e8s3GpWUSYwDIAMqjanaJtgARogmg/YEF8trgiAu/76620sOXEvbea8sA+UcgB5zz//nPnoow9HgRuyly5cuMBEbqUrzbp1a8zGjRvMli21bqXoJ6i5arOVArrFu5VWX+F20Lg4bg66VQm4AayJ/fuQzV8W6BY6aQL6SysE68Vwq+dSCsBLhVtxkKqTgCCBW16/8Twu549ltYHQwG2KVbUBtiFhQhJwg2spisRvE3WbADedqRSgbunSpebUqVPmxx9/NHGcplPW/aRTLqTZ6yBwK+uDgufFHzHaAG2g6jbQfuAG2IZ/J+FC6oCbq8VVEqq5devWms8++8z+WwkoJdCslRqADOo0uIvimHFQLcs6gLeJEyda6NaK0g3XApXds88+Yz7++CMbyw0KNwFuSJ6wbNlSs2rVCuPcStebzZs3WRDpVG67LZiM3EqhcDtoDh/uBuDWuVlKAd/yAm4atqFN4EZY1i6IR+BW9bkEz5/z4UZtIF/gBpdSKNngTjplyhSbGAGqNqjctDupqNsA3FA0cMO+CxYsMMePHzdnz57t6DhuBG4pMdzuu48x3PiAa/QBx+1pM7QB2oDYQLuBm4NtAG4atgEgQf0D0ADF1rx582xcjSuvHN8ybIOaDO6o48dfYW64YaK55ZZbakoWyIZt9H5YBni76qqrrGquWfdSAEC4RSBb6aJFCy1sc8Btvlm8eKFZtkxnK11nNm3aaLZt22rdStFfOlvpwYP7Ox64MUupS/oAKI2iY9ShLbHrUGv1n7QJ3AjY2gXY/O8lcJPfZNacn3WLDYQFbi++WKtwA3BDvDZANMR3QyZShCQBdNPupPI5tvGBG0DdnDlzzMGDB823335rzp0717EqNwI3D7j9+te/NlIccJvGpAkj3fJw4nXyh5g2QBsIaQPlAW6AbDt2uAJ1mwAkQAH8w/jMM09bBVgrqjbANskKOnHi9eaWW242t9566xh4lgW6+cAN+4jSDe6hzUC3q6++2iZHguvssmXLRoEbMrMCuCGGHeK4RdlKnVspYKUASmQrdW6lBG4aOKGtgRQAFVxw/QLIKy6d6NOsBe7Pe/Zg3z2jijRRpsnxkABE2llrOQZqupSOTfzhgxsuVxMiEriF/F3nsThPrIINhAVuL730onUjhTsp+AiA2+OPPz4K3OA6isyjcCVFgZIN6jaANoA1AW4Ac9gOhcCti2K6+S6lAttQE7hV4YHCc+QPH22ANlBWGygDcBOXUriVogC2ucybgEeIC7V48WLzl788GwS4wZUUbqQ333yThW3NArc4KCfupVCqNZO9dNy4cXaCOG3aNJutFJlKoe4DcIPiTeK4rVq10rqV6jhuktHVxXHrtXHckDjBuZQesnHcfBhR/RhuiN1WzaQJWYEbthPo1gpwa0TlJhlJ42o/K6m/zBhu1QRe/rOh6GUCt7LOEXhenL/mZQOhgdtL5re//a1lI/fff7+Fb3ApFaAmCRGgcgNMA1iDog1QTQqWsR6ZSjVwGxgYsAq3To7jRoWbp3CbNGmSkXL//XQp5YMwrwchj0vbog10vg2UBbjtvADbdhgXu81lJ+3v7zVHjx61ai9MlgCymlW4/fSnP7GupIizhuQIt956i/nlL2+tUbjFQbRG1wG6IXsp4rEB7jWSRAHbAwDiX9lp06aaGTNmWJVbMnBbb7ZsQRy3rTYOHhRUSDIhcdy6B7hVM2lCo9CtVeAWB918t1KJ5RYH25g0gTAtLxBH4Mb5VufPtzjGtWMcErjtNC+//LJNqgXY9sADD9g2kiMApiEWG2CagDTUAGuAcfhM4rxhGyjh8DkKPodLKYDb6dOnOzpxAoEbgZupvUH5wGJ/0AZoA7SBMDZQVuDmEgAg1tTg4HGzYsUKO/FpFrg52PYz84tfXGquuupKm4k0T+AGoHfNNdeYyy67rCHXUsA5QDf8qfbCC89blRtgG7KUisINiRNWrowSJ2jgJlldNXCDAunIEVG41brkVV/hVu0spQRuLnuuZNHNUucFfHjc9sJEAjfOacLMadiP1enHsMDtlVdeMY8++qh58MEHbXnkkUdsrDbANGQbBTyDG6nANIC1rMDt0KFDBG7NZv+syn50KeXDszoPT44Vx4o2UC0byA+49ff320DuUFzt24e4VnCNc0VAA9wgoyylzqV01y4XCwsxtqC2wYsw0rJjctQ8cPupTWaApAtIlCCwTRRu2q20UUVb3PaicoOLKBI0NKJyg4IP54XrnTHj6wuwzQE3yVQK4LZmzWqzYcO6GoWbD9yQdbIWuNW+VBO4lT+GG11Ka6EcwVjtPdwp/UHgxrlTteZOHK/WxysccEOs1VdffdX8/ve/t7HbHn74YQvfEKtNAzeo2gDdUMNrQtRvcQo3uJRC8QaFG4FbF8RyqwfcEOtl3bq1ZmjouBkcPGYwgcYPsEykjx8/atfjMygFhoYGbRkeHjRSTpwYMiMjYvh8iLT+EGEfsg9pA7SBKthAGYAb3EglfhvaAtx6LXCDym3u3Dk2yO0VV1zRlEspgBdiqsHV87bbfjlaNHDT0A0JEeJAWtZ1AG7XX3+dBYTNJFDAOT7//HNm1qyZNlnCokWicFt0IVPpcrNmzSoL3DZv3jSaqTQOuMENEHG1oB7yX85lnpBW+/s0u5ymXkqK+6Xjg8GlAwXZwnRxMdw616VU4rcxaYIDb83aH/crN6gjcKvCfIHnyHltSBsQ7jBswCFQhoeHRjkFmEVUwDCkgGUct9ufPHnCsgzMfV577TWblRSwDbHcAN8A3KBug7sp4Br+yARsQw2YhnX4HDXUbtqlFMANUG727NkEblVRqbVyngRuIW9uHos/FrQB2gBtILKB/IAbQFlfHzJB1lO4JQG3HoOkCRs2bDDTp0+3/1pefvnlQYEbwJYP3QDefPgWl5E0Db4BuMGt9LrrrrXQDW6ijcSeu+2228yUKYgdMttA1QaXUmQpXbLEAbcVK5aNArdNmzaarVu3GMlUijhf4lIKhRuBW5/N2lrVLKWhFG64H+OKjuEGexGbYQy3cgOqTgOIBG6cl0TzEvZFd/RFWOD2+uuv2/i3v/vd72z8NsTCBTSDqykKVGyNADckV8D2AG6HDx823333HWO4tQK0yr4vgRsfvN3x4OU4c5xpA8XbQBmAm8tSCpUb3EvhGgA1D1xKUcOd9K233jJ33323QcKDRsCVbBsp3CaMqtsEtoUEbgBtUm688QYzceL15uqrr7LqOjmXLPXtt99mXnxxipk3b65ZunSJjd8G8JYVuPX29hq49EL91R3Abf+oGlKgEgCbXwAipcC+kNHVL7C5yOV5l7VH2GS9gn/Y9+zBvnCfri1yPLhUS7vRGsdsNWmC9I2uNXCrlzABtqRVh3HtJLWiqCzTlI5ZPus00MTrcWCTwI3zn+LnP+zz9vZ5WOD2xhuvG2QlBXBD/DYAN8Rr08ANijVf4SbupL7CjcCtC9xINQQkcOMDsb0PRPY/+5820Lk2EAq4HbUgAxADL/NQyaDOpnCTOG6oHdgAXMCxACXmz59vJ0x33HFHw+BK4JYGbgBs9WBbMwo3AW2ob7zxRqtwg1tpM8DtV7+63bz00os2QymSJAhsW7JksXUpradw6xbg5txJHWwDLNIgyYdtVVa44T4IAdzQB7qP0PaBWz3oFgfZ9DoCNyrjmoGIBG6cZ3XuPItjGz+2oYDbkMEfXm+88UYm4AbVmnYpBXADbIsDboBzVLh1CXgjcOODKv5BxX5hv9AGaAOt2kA44CZAAy/xrQE3BxcA3Hbv3m0WLFhgg+ECuLWqcJswYYJ1FwV0S1K2pbmU+m6kPmQDaHPlBpucoRXg9vLLLxlkKF2+fJlVtkHdFgG3KIZbnEspgVv/GHWb2GcZFW5Qz9VTvIUCbj50I3AjIGsGkIXeh8Ct1d9y7s/5YNVsICRw223gUuor3OBSivhtULlJDLdGgBsSLMyaNcvGcKNLaYeDNw3cYEyTJk0aLffff5955513mDRhpGoPGZ4vfxhpA7SBMthAmYHbPgvcAJnefPNNc9dddwUDbgLV0modty0uiUI8bLvBwJVU3EkRw605hduvDIDbwoW1wG3pUijclpqVKwncXOIElyxBoJFWbwEs+UVgG+qyuJSKqyqBW2020iT30tCgh8crB3AkcCvDfIDnwHlpkTYQFrhJ0gQkTIBb6WOPPWbgFgrghgIFGxRr2qUU6yRhgla4AdQh4QKA28yZMwnctOtlp7YB3IaHh83GjRvNX//6VzN58uTRAqN67733zIYN65mllNDN8IeiyB8KfhftrRNsICRwgwtpb8Mupbt3a5fSKIYbYmsBQqxYscJMnTrV3Hvvveayyy5rKYabKNzSQJt8poFbNmVbBNtuuGGijd927bUTzFVXXWkuvbSxpAlwKY0Ubkutws3BtiVW8bZq1Qqzdu1qm6UUCrdt27aYnTt32DhjiPPVLQo3KCm1W2nVgJvAtlAKN0BEDRV94CjLup8EVuo6LXGCdh+Na9OltBwAq2ogkcCtE+YTvAbOixuxgXDADd4Qr776qs1MiiylKMhSCuCGLKQoAtwA0QDdEM8N6wS0IUOpZCkV4IYYcARuHa5sE4B47tw5MzIyYnbs2GE+/vhjS1xBXVFgGP/4xz9shjKkyEXK3GPHjhr80KJGOX78qJdKd9Cm3B0eHrSpdFEjFe/IiBh+IzcLt+XDlTZAG6ANVNcG2gvcEHcDwE1DN8AHuM8BuKFet26def/994NkKQVwA0iLg2oasMUp2gDd4lVtcCN1LqQAbQLbrrvuOnPNNdeY8eOvMJdc8vOGQOHttyOG2xQzf/5cs3z5UhPBtqUG8ds0cNu8OQJu6M/uAm4HLwA3p3TTIEngkq41jCqDwi0P4JYFuul+0qBN2gRuhGZFAzsCN86jqjuP4tg1N3bCHYYthwCLGB4esoxiaGjQDA6Ca0g55rGM43afkydP2H3wWwq30UcffdTOFR966CHbfvLJJ212UsRpA2ADbANEQw3XUqwDS5EabcA4ADfsq4Hb6dOnmaVU4FQn1v/85z/N2bNnzeDgoNm5c6dZvnz5aFm9erXZsWO7DXpL4MYHXnMPPPYb+4020L02UF7g5sBRj9m3b5+NofHHP/7RXHHFFQ2BKz9pAgAYwJkP1+KWs6naXHKECLQ5Zdv1119vAPfGjx9vEz1cdNHPGjrv2267zUyZ8oKZO3e2dSFdtgzKNgfb4E66evVKs3btGqtu37Jlk9m+fatBlldkwezpiRRuACdQIYl7nn6Jlj/l6tV6n1bacg5xdZIqSiuoBgYGDIpzJT04WldZ4QYFp0C3EC6lgG1SNFzU0BHtNOCWBtuYpZQgrpVnQNq+BG6ch3XvPKxbxz4UcBu0Ge7hNgpX0gceeMA8+OCDto15I1xGUQDVANAA01CLaynW64L1UMZp4Ia5B4FblyjdBCaeP3/eSAGMO3PmjDl5coQupXQppUspbYA2QBto0AZCAre+zC6lAEMOMMQr3PAZgBvgAP5sWrlypZX9X3nllQ2BKw3cLrnkEoP9b7jhhkzQLQm4RYkRamGbKNsA21Cuvvpq6wL7s581BttwzgBuL7zwvJkzZ9YF4OZg24oVy83KlSvM6tWrbOzWjRs3mC1bNpvt27dZlaADbvvsOPT3u+QVnQzcNGyDOkuDJB8yYVlDqDIo3MoG3ADbCNwI1dLAWF6fEbh1K3ThdXcvaAwL3JDZHaG27rvvPnP//ffbNpIoQLUGt1Eo2gDbANNQi2upKN0EumE9vAgB69CGSymBW5fBNoFuUqcDN+dWSpdSPsy792HOsefY0wbSbSAccOvr67OxwwA98NKOuq+vxyqu9u3bY9VXAEJR2WNTufsupbt27bQwDu6k/f291l0Aam64BFx11VVNATdALIAvQDeozgDdoGoT11KptdKtHnDDMUTZJvXEiQ62CXBDVtVmgZtTuM0xy5YtswWwrT5wc664AEsyDknADS/O9dRt+DzUC3acsk3WNatwqzpwE3Ub6jIo3AjcCNtC3e+NHofAjXOV9LkK+6fz+icscHvxxSnWnRTxflHgVvr444+PuouKcg0wDdBNXEu10g3wTYAbFG4C3KCsp8Kti6FbfeB2hDHcqHhpUPHCH7XO+1HjmHJMk2wgJHBD5scI9DQD3BD4H8BNAARUSMePH7OqLvxD2azCDcDtpz/9qbnoootsplMAMQA1AW2ok2BbFLcNsdpcAWybOBHuoy5mmwZuErsN7q8AfPheUdrVq3/+85/beHCPPfZ787e/vTuapRShJAS2rVq10qxZs7pG4YbQEugzgM3e3n1WGQjFFyaJScAtC2wrO3ADINLQDTYnpewKNw3bpJ0G3QCgofqUghiHUsSNVNdazef3hfQRaonbJjUVboRujcKyENsTuCX9RnM952+dagNhgRvcRuFKevfdd5t77rnHtpE4QRRsGqQBpsVBN2wLECex8qF6mzVrlp1Lffvtt4zhJoqvbqsJ3Dr1IcTr4g8sbYA2UIQNhAJuR6y7Hl748RIfr3DTKje0axVugG1SnMptl1XHHTp0yCxZssROmloBbgLdAMGuvfZaC89E5VYPtjnQ5rKQatimoZtTt11nY7cBtl166aUW8DUC3MaNu9w8+ugjZtq0t83s2TPN0qVLLGhzwG2Fda2FOynit61fv84gQ+nWrVtsLFdxw4WqcP/+PnPw4H4jMbdESaZfjDsLuFUraYIAtrg6CboVBdwcqD1gbQf24xcdVy+unaRWxHqxw1ZqbcNsdw4cJHAr4vee38F5ZZlsIBxwQ4x7/CmL+G2TJ0+20A1tJFEAaBOQBtAGV1EUQDU/nptsJ8ANEG/u3Ll0Ke02wOZfL4FbmR4cPBf+kNEGaANVs4GigZsDbYAHycBtuwVvgG7YBuqc+fPn2YkR3EHrqcTSPgf8uvjii61bKZRoUK/FwbZI1XbTBVWbwDanagNog0oOkE3K9dc72AYo2Axsw3nDZfbll18yM2d+baBkEzfSFSsA21bYdS5+2xqzceN6s3nzJrNt21bbX3HA7dChg+bw4W5ImkDgptVtaDercCNw6xyIVSUgSeBWtbkDz5fz3VZtICRw22Hj3j7wwP3mrrvustANcdweeeSR0QQJgGt/+MMfDOK6ofZVboBtKNhO3E6RiGHhwoXm2LFjNmY+uIvPYjpl+SedciF5XAeBW6s3O/fnDwZtgDbQzTYQDrjJCz8UblDFHDhQG8PNxXGrBW4ueYJLnIAsmzt3Ara5guU9e+AmudcCt+eff866cMLtMg2q1ftMx3IDdIN6TcdrGwvb4Ebq4rWJog2wTRccpzYr6UUNuZLKOSPRwuuvv2bmzp1jVWyAbALbJFnC2rWrzfr1a41LmIAMpdusGy7gJDKUaoUbgVufBbbiUqkhFOxVXDJ17UCwS+oRp0BLWgdb3bMHqk3fxrHOHc/Ze5SZ1D+WbBdX47zEnRS1Pme593Str1WuX2q6lBKqlQ3GEbh18zyE196d8/CwwA1zRCRMuPPOOy10QxtZSyVBAlxIAdoQ1w3QTavcRAUnwA0wDvu9/vrrBh4GIyMj5ocffrBJK/PgOWU4JoFbSow6Ajc+pLvzIc1x57jTBsLYQBjghpc3BzCcS2k8cIviTwEeuAIQAeC2yzjg5qAbYpLBvRQJFQAf4Fr5zjvTDP69vOaaa1oCbgK3JGupD90EuEm8NtTajVSDNrQFtomyrREXUjkXqaFwe/XVV83s2bPNmjVrrKINoE3UbRK7bcOG9RfcSTdbd1L0XxS/rdfCzoGBA4bArTrALQ6y6XVFADcmTSCIaxeII3DjnCbMnIb9WJ1+DAPchoYGzY4dO2xyBCRLuOOOOyx0Q1uAm8RlA2h77LHHbBGVmwA5UbgBzAG4YZ+3337brF271nz33Xemk9VtAH4EbgRuDPrPxA+0AdoAbSAXGwgH3ERxE69wi2Ab1Dk+cAN0gwupi+G23ezYsU0Bt122jZhln332mY3RIYCqlVrcS8eNG2fVaaJ084FbEmwDaNOwDcq7VmAbriVyKZ1h4DqqYRuWNXBz7qRbrCJQlICAnlAxQV1I4FYL29AvWvXlAHGUeEDsF7YpoMtXoKUtd4LCjcCNwI3AjcCmOsCGY1XtsQoJ3Lab5577i81OqoHbb3/729HkCHAThbpNgBvgmyjZtMIN22E91r377rtmw4YNHe9OSuCWAtvQOVS48WFb7Yctx4/jRxtorw2EAm6HR13csgA3Dd0c3IiAG9RtAG6ooXqDyg2ukgAhiGmG1O+AYIiT1irgwv4AZZdffrnNgAqXTiRUcNlH4UYaZSONlG0AbddaSIftJUFCs+ci54BYcn/84x/Mxx9/aBYuXGCBG+K4oQC2oUiyBOdOuvmCOylcb3dfcCftHc1QCpWhi9/mgtX7L9KdkTQBrssufhtij2lXSXGf1HXZgRuAnsA+vy5C4VYvfhtsKi5Rgl7HpAmEdv6zJssyFW6cC7V3LsT+L77/wwI3KNR8hRtiuD377LMWngGiAbghcymgmwA3yVYqCjcBblh+//33zebNmwncyuDz2s5zIHDjA7L4ByT7nH1OG+gcG2gfcIugm3MrFYUbQNv27VstTBLoJjGroOr65JNP7GQJrqVIgNCKyg37AnhddNFF9lhwM3WKt2ssVBMVGyCcKxPMhAnXWLdWqNGwLfZBXLhmzwP7Xn75ZeaJJx43M2Z8bd1nNWSDqk3KunVrDdxJ0Q9bt261bhSANIAxUGgBKAE6Qank3EnjYRtegDsBuGnYViXgBpgWp5bzIZteLgq41YNuGq7FtQncCNyyADZ/GwI3zqs6Z17Fscw2luGB2z333GN+85vfWLdSxHADXHv++ectdEPMNoA2rEOROG5xwA3QDft9/PHHZtu2bebs2bN0KW0n8Gr3dxO48aGW7aHGfmI/0QZoA3E20F7gJtBNAISDbgBu2y4ANyQEcAoubAtIAaXXBx9MN7/85S8t7GoWdOn9AN1QAL+geLvsssvMuHGXW6AGqAYFXFQus5//4he/sNu2AttwDtgf3/HMM0+bJUsW2+sDYFu92hW0kSgBcUTWr19/IVmCU7fBBde5k+4xvb37TH+/i9/mgNuAAfw4cuSw8V9uCdx6L8QcbI9LqQZpWdsEbocTbTnOvrmuWuCPwC3u95nrOG/rZBsIC9ygZANw+7//+z8L3KB2e/TRR80LL7xg47EBtkHxhgLgBrUbIFwccENct5deesn84x//MLt27bLA7fz58x2boRQ8izHcUtxKCdw6+UHEa+MPLW2ANpC3DYQHbv39cVlKEcOtNssiAJoAN8lWGqncHHADeEPWUqwHmMD2gEwAU5hIwfUTCjPAMg3QWmkDgEE5l14usqo4bNvKd+M7xo8fb37961+bN998w7rMOjXbmhrgtm7dGrNu3TobS2TTJqjbtlxwJ91p0Hd+dlJxJ00CblnVbdguFLgA+EsqSaooraAaGBgwKAcPHlQlcietmsItK2iT7QjcCNxC3YtlPA6BW96/9Tw+55Nls4GwwA0x1yZPnmwmTZpkoRvgG+AalGqAakiggJhuqOOAG4AdCrbFsZChdNasWWbv3r3m+++/7+gMpQRuKbANnUPgVraHB8+HP2i0AdpAlWwgLHDbtw8qqz4bsB+ujX19PRYGAbYBGPjQwEE3tx5KLcRrg6LNxXATlRsylm63n2F7BLvfsmWzmTp1qrn//vsN4qjBJbQVyNaOfQHrANt+9atf2UkeEkJInDZxIUWmUsRtgyupU7dttPFEtm2DOyn6BNlJXZ+g32uTJRyKVbg1AtuqAdwi6FaVGG4C0Rqp/XtHkjygxj3hFx2vTsexQ1v3E0ClX6CQBLSNKxqCxrWT4KnA3yTomnV9GWERz6l1NR2BW5XmDTxXznND2EA44LZ9+3arYrvrrrvsnAp/YgK+Aa4999xzBi6iDz/8sC31gBuyk0IVhznmggULTG9vL4Fbu1062/39BG4hbngegz8ctAHaQLfaQDjgBtgG+CPADfCnHnCDMktgHOADABKAGwAboFvkWuqgG5RuKABOK1asMK+99lpQ19KiwBtgG9xWAdvwT+q8efMsVNu4cb2tBbjBjdTBNqjb1ptNmzZa2Ih+QT9E6jYkS+i34CTKTjoWuDUK28oP3CRpgoNuGiT5kAnLGkK1M0tpI6BNtiVwo8Ktk8EegVu3zkF43d07/w4J3LZZZRrit9122222IFspIBsUbgLcsijckCzh1VdfNdOnTzdLly41+/fvNz/88AMVbu2GXu38fgI3Pqi790HNsefY0wZat4EwwA3qlOaBm4NuEXDbOQrcANakADJB1bVjB4AcspfuMtOnv29dB5CxtChYFuJ7cL74BxYTwa+//sps3LjRXieSIaxfv86q2iJlWy1sq1W3RbHbMCkUZRKyk4qiSL+kdy5wcyqtsgI3p+7cbQGpc59GopDGSlHATWwoTt2GdXGqNr2OCrfW1V76nu2WNoEb5zOtz2fYh9Xqw3DADfMixGPDvAoZ31EQyw2ADbHYoFpDOw244c9PuJS+/PLL5t133zVfffWVDe2BMBYEbnVcLtsJw4r4bgI3Plyr9XDleHG8aAPlsoF2AzenioMyLgm4IV6ZK5K51ME2KJa+/vprG6MDGUSR7CAEDMv7GIBtN954o53YzZw508JDXDsgIlxloWSDqs2p29aNJkpwmUm3WOgoMe107Da4BQoQAXATFz39wt5pwK0qWUprgduehmEb7KMI4AbYRuBGYKafGUW1Cdw4NyrX3IgE7FkxAAAgAElEQVTjkf94hARu26yKDZANCbVQ7rzzThvrF7HY4FZaL4YboByA21tvvWU+//xzs2TJEhs399ChQ+bcuXNUuBUBtsr6HQRufCDm/0BkH7OPaQOdawPlAW4ACg66QeGGOG7IVgqF2xZVBLohftluC6MA3ZBR6uabb64EcIMbKf5xBWzbsGGDdcEFHEMsLriMQuEG4CaupBs3bjCbN8OV1CVKEHUf+gv7wE0Syq5a4Oayk+K4+oWZwK131K20SJdSArfIvVlAcLO1tme2OwcOErhxntW58yyObfzYhgFuw8ND1uPhlVdesYDtwQcfNChIjACIBoCWBbghWQKAG1xJAdu2bdtmY+YSuHW5ug0QkMCND7H4hxj7hf1CG6ANZLGB/IAbIJCDGlGctiSVDhRuKLXZSiWOWxJ022EQKBfZOz/99FML3W6//XZz5ZVXWrVbK9lD81S5IdEDzhfZRgHLnDveQTthhLpt/XokSECJdyUVdRv6C/0LpR/6GsqkQ4cOmpDqtvLHcEPstvInTagFbo25kgJCF6VwA7Slwq1zIFaVgCSBW5bfa27DeV0n2UAY4HbixJCdP77zzjsWmCFeGwpcRKdMmWL++te/WuCGjKVpLqXYB8AN6jb3Z2i//aMT2dHpUtrl0I3ArZMePLwW/pDSBmgDRdtAfsANQfyzAjcotRxwi1RukjzBJU5w0E3cS11cN8R0c0o4ZPf84osvzIsvvmjdCCZMmGAuueQSg+QE7QZvOAecy+WXX24L4owsWrTIQjIArSNHDtnEEbg2QDbAtg0bHGxz6rZN1qUWir8ItrnYbbXqtgMWtoWK3SZquFAv7WmKpqS4Xzo2GCa9KIinEhUBbtVJmlD2GG71oJsek7h20liKXabZQZbPQtkjj1MusEjgVvRvP7+P881220Ao4DZs55offDDdQOWGDKMomA9iuR5wA2iDl8STTz5pgduMGTPMrl27zPHjx63KjTHcuhy2UeHW7gcFv58/VrQB2kDVbaCdwG2fdYkEbJOiVW67d4trKbKVuuQJtcDNrQN8A5RDzLPZs2fZgLdwJ7jpppvMuHHjzMUXX9w2V1PAtiuuuMJAeffwww/ZGCLvvfd3g3hsgAtHjx42/f29ZssWlyxB3EihdANsk6ykuMZaV9K9NgMs1G3OlTRStwnY0EBB4FkztT5OK+00mJIEaTTQiQdu1ctSSuDmso2m2UPaZ63YIPctF2TT40HgVvW5BM+f8+FGbSAccOvp6THvv/++DdeBZFRwIQV0QwKEN9980yDzqFa4Pfroo+bxxx83f/jDHyxoA3RDG9vNnTvX9Pb2mm+++caCN7qUErjRpXSk0Zub2/MHgTZAG6ANRDYQErg5t1BAoIGBAyZd4RZBNoFtWuUGKIEspFB07dyJWG7bRrOV6phuAHCAUVB/oQ1gNXfubDN16lTzxBNPmEmTJhlRuxWldMP3IDECYN+ECdfYTFlTprxgvvzySzN79mybFAGQDJCpr6/HXhsUbS5uW6Rs07CtVt0mrqQudpt2JY2DbXipbQa0yT76pbiVdhpE6XTgRpdSxnBr5d7phn0J3DgvieYl7Ivu6ItwwG3fvn02syiAGeAZClxKAd1effVV29ZJEwDcHnvsMTtPBGjDfBE1XFDhgYA/+M6cOWPB27Fjx5g0oazJDIo6L7qU8qHcHQ9ljjPHmTaQjw20A7jBfRTArce6AcDt1BWsk1hu4loK6CYJFGqhW63aDQkFAN7gZrrdBrz94IMP7GQLMdOuv/76wpRuyJaKLKR33HGHefjhhw1gG/4x3b9/vxkcPG6Gh4dtDTAJWOhAG5IkwJ103aiyTbKSAjZGrqQOtokr6cGD+0fjtiXBNrysCzxrpg71sk/ghkyjrkhctkbqpPiHANXRPST3Us9ocgjYCmxNF8T8kwL4KwXwljHcyqsCC3UvlvE4BG6c4+Qzx2G/lrdfQwK3vWbatGnWNRQgDUVcRJGkCi6jiN8mBWo3JFXAdlC6oY3t33jjDbNy5UojkA3gbWhoyPz444/MUloU3Crj9xC48UFa3gcpx4ZjQxsovw2EA25OxbPHvthD4YYXeii4HETbY+RzwDYfuGG73l4H3KLtESx+l4FraTx022pVbRq8iRIMIGvjxo02MQEC4GJSBcVZnskQ5Njjx4+3mbE+/vhjs3jxYrNmzRqzc+dOA7eEU6dOmePHj9l4dcg6CtdRAW1oo2zatMG6mDr13rZRV9J9+6K4bYAnta6kLitp0ot0M6BN9kk6ZqPruxm4uaQHzcO2opImELgRtjV6X4fansCN86Xyz5c4RmHHKBxwgwvohx9+aOBOCrUaCrKOwrUUcdwA3PAH6EMPPWQLwBugG5RuKFiGOg7HQHbSkZERq2o7evSobRO4dblbKYEbH35hH37sT/YnbaC7bCAUcDs0CtQQkwzA7cCBxoBbGnRzrqXpSjcAKqjBEOsMqh8EuoXqC9mmkBX0L3951k7CEN/tqquuMhdddFEQAPeLX1xqJk683jzwwP124oY09J9//plZtWqlPReARpxPX1/fBTfSXqtsA1xzSRIA2jZcULZtsPHdtm7dPOoqi2uHMgogEn0ksE2USMhKmpe6DdAt1At1vsDNqbREtYVaK7qkDbWXFJfQY6xrM8ZLlGdwa85aAIf37MG+EVwWyCzHazZ+WxxwQ7xD2FVIhRsgrtjVwMBBE1d0XL24dpJ7sNhomh1k+SyUPfI45YKLBG6ce3XX3IvjPTISDrjhd/2jjz6yXg1wDUUBZAOAQxw3uJg+8MADBh4PKJgHAr4BwgG2oX7ttdfMggULbDgU/DmKzKQAb6dPn7YhvMoovAp5Tj8JebBOOxaBGx9Y/IGiDdAGaAPN20B+wK1RhRtgUhJ0k3huULChAKz5iRRE6YbPAFjgvglghDYUb2vXrjErViy3sdTuvfde62YK8HbllVeOFqjTUJDoAOWyyy6zGUaReAFt+Ry17HfrrbeaRx99xHzyycdm3ry51p0VbqI4P4FtACYAgSiIQQcVmyjaHGyDGm+jhW1bttTCNuwLuAIFIGAm+lWgyKFDgIoDNtMpYIWGCKJQa7XWx2ylnQZTkiCNBjpxSRMOHHDZScUlsszArRV30iKBWz3opsckrp00lgRu5QJcrdzLeexL4MZ5TPPzGPZdNfsuHHDDH2jTp0+3ijbANmSDx5+fAG7IVop1mPfdfffd5p577rHt++67z0I4gDfEd/v73/9uvSLgTvrtt9/aGG7fffedBW/nz583ncaQ/OshcEtR8RG48SFbzYcsx43jRhsohw3kB9ySkybEu5QKcNPQzWUtdYojrXJDrDYBboBpAtsAq9AGoBD4ApWOwCjABGzz0UcfmjfeeN1OxBAkF4F1MTF79tlnzVNP/dnG8sCEDRMyALWJEyfaNlwOnn76KfPMM0+b5577i93n9ddfMx9++IFZvnyZhWiIvYbvwPkh4QMgGyAg1uEzwLaNG10WUslEummT2wfnjusR11iopuBKKiomwEMBIrWwbaxLaaugTfYP9XLdzcBNYJvUsM9GC+At7gcpom4T2/DjuImSD7Uo/KSWewO1wEpdC9Clwo2QLNT9X+84BG6cE5VjTsRxKG4cwgE3/A6+++67FrIhJpsAN8zZUOA2etddd5k777zTlsmTJ1vwBtUbXEvhfvrFF19Yhfrx48dt3DbE2z179mxXqNsA3wjcCNxMcTc/H7Tsa9oAbaCbbKC8wE1iugEwAE6Iyg0AyyndNHTbYuCGCajlYJdLNIB9ABnwsjc8PGRrgAmAL7h8Ll26xGakghsB1GmzZs00X331pUHct88++8y89dZbdiKGgLpILY/Pv/76SzNjxtdm9uxZZs6cOWbBgvlm2bKl1iXUuYLiXNz5YBkF3we45kotbBNAh30A5tJgGwAJYEhRsA3Qrd6LctbP8wBu6AsNijRIErikaw2hinQpda6l5U+aIH1J4EbQlvW+DrUdgVs3zTt4rZxnwwbCATftUgrYhgQIULjhT1TUULAJbEMN4AbYhvi+AHKY6yE7KVTzhw8ftllKEXf3+++/7/hkCaJ0I3AjcCNwG+GPE3+caAO0gTxsoNzADdBNq9ySoZuDXKIicxBrU43aDS5tAAmAMnhJBABCnDfEVtu7d6/NBIpgudjXxVdbbxYuXGA+/fQTM336+2b+/PlWfbZlC44Lt08AP+feCjdRrHPAb9MFJdvGUcAm7qO+ss2HbYCJLiPpWGWbg237bXy8yI00P2VbFRRuDrhF0K0awC2KEdeIyo0Kt8OjStVQkIfHKQ9YJHDL4/edx+S8scw2EAa4YYyhxp43b555++23zTPPPGP/KEXtvBKetio2uJOKsg1x3ADb4OEAV9KvvvrKupMCtgG6IbEXEjEAuAmQ6vSawI3AjcCNwI02QBugDeRiA+UDbohT5txKkbkUWU7ToRtUYb5bKaCYFAfH4KaJhArbrVoOsaeOHDliM4c64LbHun465ZzEiHNuoFClAZgBjuG74CrqSvS9AvoQhw1F1GwOtK0bjdcm6yVem7iQ4rj1YBvUR0hGUatuyydum8C28ivcDtrJscRy6ybgBhAtbqW+OymWtZpPq/zQ1v0kqjZdU+FWHhDVLVCQwK3MYITnRnCXhw2EAW7ffHPSejDs3r3bzJw502YlFdgGoIZwIVC9SXIEuJBi+aWXXjLIJr906VKzfv16C9kA3Hp6esyuXfjTc591Ke100CbXR+BG4MYX7VxetPN4ePKY/FGmDVTLBsoJ3GqhGzIxInaVy/6o3UsByAS4jYVuWnGGhAQbLYTDdoilJco5KMpwDOcG6mKoYRsUrAeoi2LG4XNXAPKcqk0UbeIy6mpRtUkN2OZAmzsPgW24BsC23bt3WhjoYrYhSYLLSAo4kgW24cVcg7JQ7VAv/Pm4lApwK3eW0lqX0jAKt7yAWxpsg4ogLlGCXsekCYR1zTwzCNw4d6rW3Inj1fp4hQFu3357ynz33WnzzTffmLVr15pp06ZZyAbYhsyjb7zxhs1UCvCG8sorr5ipU6fa0CErVqwYhWtQtAG27diBBFc7bbZSKtxSIJSQum6omTSBD7zWH3jsQ/YhbaB7baCswK3PZuSMEig46ObAhQMWAFQSzw3unQLJBJy5WkMxB90EeqFOKlCzaXfPyGU0Us4B4KHIMZy76PoLajao4qJMpIBtAvyc4g7x2qLkCHCVFQgIuBgH2+BG6jI9OjdSACz/xTYUZNPH8b+j2eU8gJso20SdpZVbvqoLy1r1hT4WhZiuYWPi6olxyVqQ4GLPHuzrwLDYalRLDLfo+PI9WWocB5BNij5nXItf9LX6faH7SfoONWAbgRuBWbP3eCv7EbhxHta987BuHfswwO306W/NuXM/mP/+978WniFbKdRrAtbee+89gwLX0ffff9/G50X83TVr1tjfa8RqQ5IvqNo2b0bM3c12/dGjR22G0m7gSbhGKtxS4CKBW7c+pHjd/GGmDdAGQthAOYHb/v0C3HpH3UoBGESVBjgFwAF1Gv6NRCw1Dd1EhRaBMpe4QEBaBMoiVZoPyESRJq6pbh+o1FwR99C0WmCchncC2iIXUgdiRLGEuHWAJXHKtjTgpiFZyHYrL9F6XwI3Arc0G8j6mbYptjsHDhK4hfg95zE4L6ySDYQFbv/7nwNugGoAblC3/e1vfzOffvqp+cc//mG+/vpr63K6cOFCs2rVKjtnhKoNf9xh/ggAt3LlSrN161YbbuS7777rmgylBG4psA2dQ+BWpQcLz5U/hLQB2kDZbKAdwA0qHSjWIlUOlGxS4E6qi69yE+gmrqWQ/gt0gwto5GJa6/6pExo48KbVaRF4q01s4JRpgG0auCVBNgFsqLG9g3VQ2TlXVXEfBSiEcgrXELmQOtCWBtsccBsbPD4kYPOPFQpqpAGVJDdE7ao4MDBgM4ch0UVUkDAhv6QJYmNZVG5UuA1Yd9OksdS2m2YL9T4LZY88TrlgHYFb2eYGPB/OV/O2gTDADS6lZ858ZwvmgwBr7777rnUthbINGeeRFGHWLJdZfvHixWb16tVmy5Ytdu4I2AbXUhT88Yq4viMjI+bHH3/smgylBG4EbozfxvhttAHaAG0gNxsIBdwOG3Gdg/sagvtDou/c9qL4a9otDoo1cYMT2IZaw7a4WG4untte64KJILlwA8AkS9xLJXMolGTiZipKNxdzTWK7OdVbBMki9Zqo2AS0SS3rUUfQLQJ3TskGt1PnyuqUds51VBRtgDdQ6ElfSD8AtKHv4pVt4k4awTYfjOW1HApMpIGUJEiTHbg56KZdJX03SixrN0uxPe2aibbYsXbzrBpw09cpdqX7Q/cTXUrLBZ5C3W9VOw6BW95wg8cnQCubDYQBbqdOfWOQOAEJDzAnBExD8gQkRABwQ/35559b6DZjxgybzRSJErAdyvLly82CBQuswg1/BA8PD3dVdlLANgI3Aje+aOf2ol22By/Ph5MB2kDxNhASuLn4UnixzwLcoFQT6JEO3JxbqYN3UMZFrqVOgbTbqsWgGnPgzSneajOOCnzTqrctFoyJ8k1cR3UduaC6mG7RslOwORDnAJuDbE7JFiVccAkRcG5OAeVAG6BhLWiLXEgBQCQ4vcRt0+ogvEjnBdfijhvqxT0f4CZJE5oHbtquNHADeGsEupVF4ebDNh+4adgmcFegG2O4Eb6Fut8bPQ6BG+c/xc9/2Oft7fNwwA3XAfdQqNNQwz0UqjYo3eBWCvD2wQcfmI8++sjCN4A3xHGbN2+ehW1wJUX8VcC2H374oauUbQRudWAbOogupXxYtvdhyf5n/9MGqm0D4YAbABpKduCWVeEWATfENwMU8aGb7/rn4BsyTbnispm6jKa1bqdbR7OTStZRXTsYFyni4pYlCYIP2bSiDecH11H0jwZtmBxCCXjggMtE6gLWHzCHDh20CRJE+SWwqmjYBgDX6Itz0vZyDXG1XKdf11e4hQFuGrqJwk0Dt6oo3BqFbQRuBGxJ92vR6wncOJeq9lyK49f4+IUDbidPjthQE8eOHTNDQ0NW6YZYbYBsiOmGRAoffvihBW6I6fbll19aFRyAG1xJEeYE+yEr6fnz563iS0BUt9RMmpAC3gjc+IBr/AHHPmOf0QZoA2ID7QJuUKllAW7ODVCUcABuUgTwaTDiFEmIjSbZJRErbadNriDwbefO7Uar32qTLYgSLqoRQNcvDq5ttZlGXRKEbfaYPmQTeCOgTcM2gEkBHjozpINttS6kgFR4AY5ToOW9LtSLdxxok3U+aJPlMgC3LLAN25RB4eYDtyQ3Uq1yE3UbaircCOBC3e+NHofATX6TWXN+1i02EAa4ffvtNwZx3KBO+/bbb83Zs2fNkSNHbLZRuIpCyTZ37lyrZhNF26JFi8yyZcvM2rVrbViSU6dO2Zht3QLX4q6TwI3AjW6ldCulDdAGaAO52EA44CZwKZvCLWvSBB+4IdGCg24Sy03Am6uhIttzIQ6XywrpQIgAONQRgEOyBVciCCcwTmoXEw7quKhgnwjg7bBATxIhuPhsUTIEDdmcos2BNh+2RaBtwBw5csgIZJMX17zBWtLx5ftbrQWuxdUC2Py6COCG8dFF7NhXTdYDbwRuTJrQ6j3SzfsTuHULZOF1EiiKDYQBbqdPnzJnz56xrqCS6AA11GrINIpy5swZC+JQo2Dd6dOnbcEyBEzdqmwT+EbgRuDGF+1cXrTlgceaP360ge61gTDADaDEqct226QHLoYbYmn0WDfKCII5t8qsWUpFsRMp3CSzaRp0c66tAuAEgEkdgRQH3gDKmikawMi1A9Y4NVut66hTs2lFm1MToZ90vDYH2hxsI3A7ZLNeCnSLz1IqLqX7DRRaWrml1V3SFntCrd1IfeAm46nHuF47O3DbPXqvRLbogLB8b1wttqUBs5y33B/6+qQt1+5ssL+mjwT6isqNCjcq3NoF/QjcOA/r3nlYt459OOD2/fdna6DZv/71L/Pvf//b/Oc//7Hlv//9r/nf//5nUMs6bCOwifX/MwRuBG4EbgRutAHaAG0gFxsIBdwGbOICgAK86AtwAxAAIBDVUC00SHcpFWCAWoDC2BrqJMAtB7gEQES1+8zFT0tWv4kKLmst8M7VAhEjyIbzxHk72OEgR1ycNoFJAJY+bCNwqw/cDhxwyRIEGFUBuGmYFgfx9Oe6XXvvOKgsdq7vC33fRDaIWIGu6D4icCNgaxdg87+XwK1boQuvu3tBY37ATQAaoFpSkW1YM0tpXfLKGG58UHfvg5pjz7GnDbRuA0UAN3HxdLVW6AgoiMtSqsGBbDe2jmK6iatpXC1gQuBcdA4OwgmQc1Cjdp18pms5joA++U4NOBzYcMqrgweReRRqNpcQAaBNMpCK+6i4WuoX0SQ3zyLX6/NppS3XF1f7rqSyLEASdZzCrcrALQ62YZ2GbLrtA7fIpiNwjftD3zcC2XRN4EbI1sp9nNe+BG6cz7Q+n2EfVqsP8wduhGkOpmXpByrcqHCjsiUXZQt/mKr1w8Tx4njlYQNhgRuAAV74axVurQM3HHMsbKt1LxXo1UitoUXWtju+fLerHWhzijatGopc9CLQ5mDbIZuFtOywDWAv1At2HGiTdQLY/LoecEP/irotD5dSAK8kMOavz+pSWu+YGrLpNoHb4TFxDUPZJo/TfghJ4JbH7zuPyXljmW2AwC0LCCtqGwI3AjcCNwI32gBtgDaQiw2EAW4AIy4O2i4LxgBCoKoBxIIyDLBASqQu2zsK0eIUbv39vTVqnXTo5gMwKH3ql2SIV3s82c4ds/a8RD0koA1qNlw/YrO5+GwHR2ORaaAksElq/dJfpIKt3nfp82qlLdcZV+t+0e1swC2Cblq9JeOia9iQFIxpHGSFnWrQ5YO1pOVOAm7afsWOpdZjEtfW4+e348a+0XWt2CD3bT9YSxoDArcygxGeG8FdHjZA4FYUTMvyPQRuBG580c7lRTuPhyePyR9l2kC1bCAccHOZO3eanp4eqzoKAdxwDAEkUgv8SqplO9SAdmlFbxvXHrsvEh9IkdhsvtsoAJsrzm0U7qOiaHMqHR8y6JfQegCs6M/1ubXS9q9ZL0v/+LUGOnEupQcPStIEB90I3GpdSt09EMVvw/2k+0ggsVYJArYRuJUXTLVyD5Z5XwI3zp2qNXfieLU+XgRuWUBYUdsQuBG4EbgRuNEGaAO0gVxsIAxwg/pl+/btBtANqiG8wLcDuGloNhaWCXyrBRA4z7HbClTTdb9xiQ9QC2SrhRMOtA1YRZvEaBOIpAGTbuuX4KJhWpbv0+fXSltfs9+WPvLr7MAtnyyl9dw/tdqtDAo3bf/SdvYdnzAhCbiJmi2u1mMS1/bHUC/7497Mcis2yH3LCxIJ3AhwWgc47MNq9SGBW1EwLcv3ELgRuPFFO5cXbf4wVeuHiePF8crDBsIANyhitm3bZqEbXEbLAdziwFoceNBQLWpHcM0BNlH+6BpAQkMHDRd0W4OFtJf+LACs6G3SzreRz3Qf+G3dV7qt+zZO4VbVpAka1Plt7c6q21liuAlkk7oebPOBm9h2HGiTdXpM4tp6/Py2P+7NLDdic9y2vIDNHxsCtzx+33lMzhvLbAMEbllAWFHbELgRuBG4EbjRBmgDtIFcbCAccNu6dWupgZvvSucvi2qttnYKNgERcGFMAg8aLiSBBP8l018uGqZl+T7/HJtdTuoTrNd9p9sa6BC4IXvu3tGi48+Je7WANqkbBW6wfbF1sXO/1mMS19bj57fTbCDrZ83aH/crN3wjcCszGOG5EdzlYQMEbkXBtCzfQ+BG4MYX7VxetPN4ePKY/FGmDVTLBkIDt20WCOSpcANMEMCga4EMqDVokLYP2PRyLWSDeyJighUL2wAEsgCworcJBSrSgIoPZmRZA5044AY4pFVuekzRlrGXWtuI2I4GV2hLcg9Rl/kKtKTlsruU+n0jy2NtvzbpB4FbuUFVqPuz3cchcOPcqVpzJ45X6+NF4JYFhBW1DYEbgRuBG4EbbYA2QBvIxQZCArctZvv2YoCbBid+W+CKXwtg8OuxwEFA20EDRZsUAT4aAgkY0nUcWMr6Mls0TMvyfVnPvd52cf0i63T/6bbua+l/GQ9XC3AbmzRBxlnbgbYVAW6oNXQT4KazlSZBNr2+rMAN14w+kP7w67H2T+BWz5b5eXgISeBGgNM6wGEfVqsPCdyKgmlZvofAjcCNL9q5vGjzh6laP0wcL45XHjYQDrht2waX0moBt7GwQZRtkeuoU/gMGAAfDYA0GNJtgUhSN/JyngWAFb1NI+eftq30R1yt+0+3dX/HA7fkLKUClrIANw3d4oBbluQJBG6SLMRl5NXjKO24sW90XZqN8bPwIKyoPiVwy+P3ncfkvLHMNkDglgWEFbUNgRuBG4EbgRttgDZAG8jFBsIAt4GBAxa2IVPpvn35ZinVKqW4tgYs0hb4ous02Ab1VORK172wDXAv1At3GlgRIOPXZQFuWsmW1M4TuAkEbDSGm6jbkhRuY++BdHUb7gk9JnFtfwz1cpoNZP0slD3yOOWCcwRuZQYjPDeCuzxsgMCtKJiW5XsI3Ajc+KKdy4t2Hg9PHpM/yrSBatlAKOB20CZM2LFjh3XPw4s8XvLhqrdv357RuFgABxoaiFtfX1+PkdLfDxc4KX0mDqqlrRPIJrWGbNIeCxoiZZu4LIqiSkMFDQ90Ow4WNPJCX7RqrZHva+Q60raN6yNZp/tSt3Xfy3jI+Egt8fYwpjK+uhY7QK3tRmxPanErFbiFOouyTQBcXsBNn4++d+R8Ucs16OtDW1+77hNp+/dBvYQJBG7lglRp91vVPiNw49ypWnMnjlfr40XglgWEFbUNgRuBG4EbgRttgDZAG8jFBsIAt0OHDpqdO3eYnTt3lgq4CVjw61rQMBa2OYVbMco2vBg3AsmZ1rQAACAASURBVMCK3jbUi7vAtbhaQzbdLgK4aXCFtgCuRmAboBuBG11KQ90r3XgcAjcCnNYBDvuwWn1I4FYUTMvyPQRuBG580c7lRZs/TNX6YeJ4cbzysIFQwG3A7Nq105aenh4DoAV1DQBGOxVuPmjDci1s0xlJG0+QADjkA6RmXpaLhmiNfF8z1xO3j99PellDNt3ODtwwjmMVblrhFadw82GbALdGM5Q2CtySYJ58r64FAKLOW+GGPoTKLXKn1q7Vrq3HJK6tx89v6zFvth1nW1xXfeUdgVsev+88JueNZbYBArcsIKyobQjcCNwI3AjcaAO0AdpALjYQBrjhxVpc6+DeVmXg5mBDeoKENFjQzMt/IwCs6G2buZ64fdL6zAczsqyBTpxLqXMndbDNB24+bCsbcNNQLa2dJ3CLA9D13Er1mMS1Zezi6jQbyPpZnG1xHYEbwUqZwQrPjfYZZwMEbkXBtCzfQ+BG4MYX7VxetOMeflzHH0XaQHfZQBjghpdlAQOIHVV14OaDBA0P6oGBZl7+i4ZojXxfM9cTt09av+n+1W09Dp0C3Pbu3W1jw6VBNv2Z3FdFKNwEtqWp3PSYxLX1+PntNBvI+lmcbXEdgVt3/W5znsbx7gQbIHDLAsKK2obAjcCNwI3AjTZAG6AN5GIDYYAbXnid++g+09fX1zbg5qua6ruUSvy2A0aC8PuB4RuFBs28/DcCwIretpnridsnDaj4fSzLGujEATeAIcBdKf54+/agkwpIogHfrVQAl0AvUW7Wq+vHcEPykN22yLGz1HI+BG6Hrft2nG1xHYEbAUwnABheQ3fZMYFbUTAty/cQuBG48UU7lxdt/rB11w8bx5vjHWcDYYAbIBBgBiBGf7+LkwbY4SBccVlKfcDiA5ixLnQAbdlhG0BQGjjCZ828/BcN0Rr5vmauJ26ftH4TwObX2YBbBN3ixlvbRBxwg81q6KYBF4BYPdAmn2cDbu5eyALaZBt9PnnHcKPCrfrgKu7eq8I6xnCL+33mOs7bOtkGCNyygLCitiFwI3AjcCNwow3QBmgDudhAGOB2/PgxA9gBdZtArXYDtzj4IucmiqhGYVvZgBv6XeCZbsu6EHWol/V8gNtB4+K4OegWN+ZZgJuGbhpwhQZuAGY4vsC0LLU+n9DAzb8fcF8IdEtKnKAhaFzbh6Z6Oc0Gsn4Wyh55nHLBRQK3TgYrvDaCwzgbIHArCqZl+R4CNwI3vmjn8qId9/DjOv4o0ga6ywbCALfBwWMWfEDdtn+/c/EjcMv+QtssGNOQTbebPV7cfqHARBpQ0VBGtzXQiXcpFeDWXJZSDdpE5SaAS2CYKNjSatl2zx7AtFpFpxwPdSvATcM2tOV8UeM6ULSCD20NG+NgpIBnXQO4JcE2391aj4+09fj57TQbyPpZKHvkcbI/n4roKwI3zr26a+7F8R4ZIXDLAsKK2obAjcCNwI3AjTZAG6AN5GIDoYDbcRsDTWAbXuAJ3LK/0MaBrizrNGTT7Sz7Zt0m1Mt2GlDxwYwsC8RBHQfcypClVGAbgFrVgVs9dRuBW/Z7OtR90y3HIXAjgCFw6zYbIHArCqZl+R4CNwI3vmjn8qLdbQ92Xi8nM7SBsTYQBrgNDR23qhitlKkCcMP5NupWmgaO8FkzL8hZ4Ze/nYZsuu1v18pyM9cTt09avwlg82sCNyRZcIq5PBRudCklQIu7V9uxjsCN85Ox8xP2SWf3CYFbFhBW1DYEbgRuBG4EbrQB2gBtIBcbCAXcBg3giChkqqJwc4CwscQJaeCIwC0ZYKT1mw/aZLkecIO9aZWb7zapXSrR1i6X4oapXTPRFsAlyrU0V1J8JtuVUeGm3Ur9vpFlDcmljX5NcivVYxLXlrGLq9NsIOtn7YBB/M7k+zpU3xC4ES51Nlzi+I4dXwK3omBalu8hcCNw44t2Li/afPiPffizT9gn3WYDYYDb8PCQwQs2XtIdBGm/SykAi0AFXQtUiOpk4NYMNGjmBbRZBZpWtel2s8eL26+Z64nbJw2oxPUz1mmgE+dSGgG31pImaOgmwM0BtN0WqKVBt6KAG85Hq9z0OQs81EBRt5PuBdwX0X3g4uBhmcAtf8AUd4908zoCt26be/B6Od8mcMsCworahsCNwI3AjcCNNkAboA3kYgPhgBuASruBm1b0JEGGWsAgsA31wVFVD0BPEgRKA0f4rJmX5jjQlWWdhmy6nWXfrNs0cz1x+6T1W1Jf1wdukjShNeAGYCUAKw64AaolQTcCt4EaMJo0llifZgNZP4uzLa6rPiAkcCOAIoDqNhsgcCsKpmX5HgI3Aje+aOfyot1tD3ZeLycztIGxNhAGuJ04MWRBEwAJwBWgFoAXIMa+fbVZG7VKJ1LmIMOiK/39yK4opdYNUKt2ktr4Xila2SZtDdyg5HGlFrZVAbgBsGnIpttZYVqW7ULBjDSgkgRpygLckmBb1V1K9b0g7TR1G5MmVB9shbqfQx+HwI3zk7HzE/ZJZ/cJgVsWEFbUNgRuBG4EbgRutAHaAG0gFxsIDdwOBQRuDpwlgbWk9QLbUAtk07WABdQC20TdpgFPEgRKA0f4rJkX0SzgS28jsE0gmyzrbUK1m7meuH3S+i2pr/V4xLuU5q9wS4NtZQdujdwL0f2QHL+t3cAtzq64rjMgIIEb4VJnwyWO79jxJXArCqZl+R4CNwI3vmjn8qLNh//Yhz/7hH3SbTZQTuC2f3+kUksCa3Hr6wEGgLeyAbcsYEyAWrN1lu9I2yYE1KgacEtzI9UQriiXUq0MRVtcYEUlitq/J+rdD/peKDtwC2GDPEZ54RyBW7fNPXi9nG8TuGUBYUVtQ+BG4EbgRuBGG6AN0AZysYHQwC2kS2njCrd6gKGqwE3DsHrQTW8bqh0CVOQL3FzAf61kRFvbA9oaSGlQhbYArKzJEgS65QncdDw5ArfywqIQ90e3H4PAjQCKAKrbbIDArSiYluV7CNwI3PiincuLdrc92Hm9nMzQBsbaQBjghiylACpw+4ObJtQygBvViOGGzKouhpt2YUxyc0wDR82+NDcKxjR0w76y3Ohxsmzf7DX5+6X1W1Jf6/GIcyk9cMDZmii1NHDzYRuBW/8YF2vpN6mdi3U5XUp9e+JyZwFIAjfOT8bOT9gnnd0nBG5ZQFhR2xC4EbgRuBG40QZoA7SBXGwgHHA7fDgrcNtjRK0jKiNJmIA6SpiAxAm1qiStUEpqa9CiAYy0BS6gDhnDrVkAkAV6CVBrts7yHUnbNHtd/n4Ebs7utYJO1HFJNRVuh0czm/r2xGUCt5EReWEnmOlsMMPx7czxlft32CDxFgr+vB0aGrRlcPC4icoxMzgo5bgZGjputz958oQ5ffqU+f77s+af//ynOX/+vCkKUHXa9xC4EbjxRTuXF23+gHXmDxjHlePaiA2EA27xCre9Y7KUAiIgcymgW2jgpmEb2gLZpNawDeooKNuk+AHhk1RXSeCoWQCQBLr0+mZBm+ynj9Vou9nr8vdL6jesT+rrego3UVPKuMo4S+3bg4a0YntSa5dSDcXEdTSpFljm9tlj9uypzcrrQzN9bNk3qfb3FVCNWs5Xzh+1vj609fVLn+ha+k1qKtw6C2L592CZl6lwa+R3m9tyntcJNkDgViZoR+BG4EbgRuBGG6AN0AZysYEwwA3/TAKcAJAAYOEFHi/8PT0auO02e/eiOCBRH7i1FsPNB24CFVxdC9tCuJQ28zKbFX4JOGu2zvo9cds1c11x++QH3CK3Ug2TpK2hkwZSGlShLQBL7FODsSTYhvUCy9z2BG5J8BTr02yg3mdxNsV1nQMICdw6AaDwGggCG7EBAjcCtxTIVabOgXzyzJkz5uTJESuvhNwSE2ZMQuJ+vCDNFKnm8PCgkYKXJUqzG3lIcFv+qNAGaAOdYAPhgBt+d0IBtzyylGrgpl1J26Vwi4NbSeuaBW16v6RjZ1kfAmykAZUkSFNf4Qa4C+DmoJtANl2HAG6AaknQLR647R0FyxrgATJrkCf7JtX+vlS4dQ5gCnFPddIx4t5Z4DYWFbyzOJezEyeiF3X37tIJv8W8Bs4pu80GovuYLqX/r+2usFS4pcA/ArduezjxevmDTBugDYS0gTDAzSVNOHIhaULrCrf8gVvkStoO4JYFcsk2Gpq10pbjNVOHeLHPF7iFzVIqoEuDsE4HblncSX23aw1EpZ0ET6lwIyxMe44QuIX8XeexOE+sgg0QuJVJxEXgRuBGV7JcXMmq8DDmOXLSQBvI1wZCAjdJmtAe4KaVTL47KRRPtQq39gC3RmFXK4DN37fR79bbp70oZ/0sD+AmyjYZ2yRlm9hGsy6lAG/dANwA1OoVAWtxdRpsI3AjcEt7VhC4ca6T71yH/Vu+/iVwI3BLgVxl6hwq3PgALd8DlGPCMaENVMcGwgA3uAPgZQov4SFiuGmFm8ASqTU0QVvW+7WGL2UBbvqFUwOttLYPzppdTvuOep/p8262TeBW7iylULglwbY4uKbX1QNt8nmaDdT7rFm7437VAH0Ebpw3VWfexLEKM1YEbmViSlS4pcA/Ajc+9MI89NiP7EfaQHfaQGjgdig34OaDNln2QZsspwE3P0Np0UkT6gEu/XmzgM3fTx+z0XYIaJEGVATI+LWGOgMDA6Muy+IGDEikVW7+mIstSC02g7qRpAndrnDT4xDX9sctaTnNBup9FsIGeYzywjcCN87BunMO1s3jTuBG4JYCucrUOQRu3fyg4rXzx5k2QBto1QaqAdw0KIlrC1DRtQ9fxO3Q1Q7URODGudJpmNAoNMjyMt8o6PKhWSvLjX633j7LtdXbJg2oJPW1Ho904FaepAku/lvrSRMkjpzUOmEC2pJVVYND/95Iux/Gqj6pcKtnw/w8P2BH4Nbqbzn353ywajZA4FYmpkSFWwr8I3Cr2sOF58sfRNoAbaBMNlAUcNtt9u7dbaAU0gBBYEFfX4+R0t/fa3yXUh8k+MsaLEg7HbghyP4Bo7OV+gHhkyBQEjjK8jKuIVa9ditwLW7fet+X9nmWa6u3TVK/YX1SX9cHbuXKUqptW9q6zpqlVO8jbQ3cBLahlnsIddp94d8PBG75waN69wI/H9v3BG5lmhfwXDhPLcIGCNwI3FIgV5k6h8CtiAcCv4M/PLQB2kCn2kBxwE0yPmqAILBAYBvqOOAGiObDBFkWwObXGjDUqttcRkusKxK4pQEt/7M4YNbqOv87GlkOAQi6B7jtNQLWxNallvVyL8TVsq1fC3DTsI3AbSy4CWGrPEbx/Urg1qlzDF4X589JNkDgViamRIVbCvwjcEu6ibmeD3jaAG2ANlDfBqoD3ASoCWhDLev8Ojtsg8rNZSzNW+GWFXC1CtaS9s/6/XHbhQAQ3QHc4EqaH3DzYRuBW/FgKMS9wGOMHTcCN85X6s9X2Eed1UcEbgRuKZCrTJ1D4MaHb2c9fDmeHE/aQLE2UF3g5kM2Wc4O2xxoI3A7auIgm14XAhB0A3Dbs2ePBW6Abr5CDcutKtyaBW76ntBtrfxkltKxECiE3fMY2fqVwI1zn2LnPuzv9vc3gVuZmBIVbinwj8CND8z2PzA5BhwD2kB1baAo4AYQ4eK4CYgAfGjEpVSAWgiFm0A2XVPhlgzeQkCDfIGbcxPWMAltsRmpte2I7UktMEvsE7V2+dy9e5eJK7JNtJ9TuUXLsH1XCNwOmzQ7SPsshA3yGNngVzv6icCN86jqzqM4ds2NHYEbgVsK5CpT5xC48SHX3EOO/cZ+ow3QBmAD1QZuzbqVatAm7U4HbnA11aq1RtohXsDTYEqzSROQ+EKrtDRwE8im6/yBm3MnFbAmoE1qWS+QLq6Wbf0a+woUlFpgodT6+vS9oftFt3XfUeFWXhgV4v4r+zEI3Dgn45ys22yAwK1MTIkKtxT4R+DWbQ8nXi9/kGkDtIGQNtAdwA2QoRYu1LqTArplAW5J0CjLy2xWwJUUgy3U+qznobfLcn31tknqO6zvFOAGKCbFB2ZYDgncBLLpmsCN0KzefVjWzwncQv6u81icJ1bBBgjcCNxSIFeZOofArQoPFJ4jf/hoA7SBstpAeOAGcAW4hZf/nh4ACHGpC+9SqlU8WsmEdpKSB+cmqjZdE7iV26X00KEBMzCAomFpssIN4+/bhA+kNKwS1ZgGZVqBluZOiu0EqAlwE7imjyfr9HH9tt5et7GvnCNqfe7S9q9Prl/fC7pdC6EP2L5F//oFfZ9WkoCpvz4Nutb7rKygiOcVBnISuJV1jsDz4vw1LxsgcCsTU6LCLQX+Ebjl9RDgcfkDQxugDXSDDYQCbsMGL554wcbLegTc9gUHboAIAhYEKPh1ElQQwKBBm7Rx3hoq+LAAy0lQIMtLt1aMpbVDKdmSjpP23UmfZbm+etsk9Z2sj+tvPR7SFhjkxg3ALTt0E7uRWkAVaoFZGnJpGOYDN/0Z2thPwzZp6+MRuDGGW737pFs/J3DrhvkGr5Hzam0DBG4EbimQq0ydQ+Cmb1y2+SCnDdAGaAON2UBI4Ha0MODmAza9XA+2dbvCDSAuCawlrQ8FAQSuJdU+dBPI5teAbgJKHXBLhm7aNtAW2Ia6WeDmw7Y04CaQTYAc6rj9ZZ0GdLqN4wgUlFqfP9r62tCWa9f3hG4LgHb3BBVuoeycx2lc9UbgxrlLY3MX9lf1+4vArUxMiQq3FPhH4MYHbvUfuBxDjiFtoH02EBa4HToUKdzwsg8wENqlVCBCUp0EFGrhQgRsBNx0i8JNlG9JcC1pfSiIkATbZL2Gbj5ok2UCt3323tLAzYdtRQE3PV712jLGzdSh7I/HaRyGFdFnBG6cB7VvHsS+b0/fE7gRuKVArjJ1DoEbH5LteUiy39nvtIHOsIFQwG3IupQCuAFgAW4RuNW+2CaBLH+9ALEiav+7G1lu9SU8CbpoaCOAza8J3GpjuMXBtiKAmx6rLO2kMc+yvlV74/61z6Oy9QeBG+dUnTGn4jhmH0cCtzIxJSrcUuAfgRsfbNkfbOwr9hVtgDbg2wCBGxVuyckSNIAL+YKeBlg0uPFBmywTuBG4hbRHHqv9MI7Azf9t5jLna51uAwRuBG4pkKtMnUPg1ukPI14ff3BpA7SBPG0gFHBD0oSjRruUQmHTbpdSuJdqV1JpC2TTdTe5lGqQlrUdGkokQTcN3NAWyKbrPIGbjrkmcdWkRuIEaetaYq1h37iiP0db7+u3ZVu/9mO4aXfSuPhtVLi1HyKFvmc6+XgEbnn+zvPYnEeW0QYI3MrElKhwS4F/BG5lfIDwnPjDRhugDVTFBsICNwASwBCALQfcACD22AyOe/cik6PL5giYAIAg0KCvDwHfXenv7zX79/eNBnxPitWWtF7HcJO2gDapNWiTdjcBt2YSJ2gwF+LFPytwi4NuGrgdPJieqdS3E9ilFLE/1JKIQIBZPTAmoEyDMdnXr2UbrK93XNnWr7GvnCNqfe7SluuSWl+73Au6lvsBNfoR/RpXNOzUbR+O1ltOGvMs60PYHI9RXghJ4FaVOQPPk/PbUDZA4EbglgK5ytQ5BG6hbnoehz8gtAHaQDfaQDjgBiCTDNwcbAOkEJAAgBCBgnyBGyBDLVxg0oR2Q7ckyBIHbTTkQdsHbj5001BJQye0BUahFvtDrWGWALN6cEzbM7aV/fxa23y9Y8q2fo1j6nPU5y5tfW3+des+kXbtPUHgRiDXPiBH4NaN8w9ec3fPuwncysSUqHBLgX8EbnxYd/fDmuPP8acNtGYDxQE3XxEEgBCBgnyBmwYLTs1D4NY5wA1jecAWGWcBSqh98KShlNgfag2zBJgJ9BLbjatlG9Syn1/LNliPdtxxZJ1sq2s5nj5Hfe5o6+tC279u3SfSlv5y90Q8cPNhp16Og6Np65Iga5b1hGHtg2FF9D2BG+cyrc1l2H/V6z8CNwK3FMhVps4hcOMDtnoPWI4Zx4w2UB4byBu47bvgUrp7FDIISABEEGgg7qSoxaW0WbdSgQlSa6ggbXEj1TVUU/VgQhIYyPJCql0y09pFZCeV70g7j3qfZbnmtG2S+jIO2OhxQbtW4SbwFK6l+22RsUftgycNpsT+UGuYJYBLbBW1ADG/1tvIfn4t22B91mPpfeR4+hz1uetrkrZ/3bpPpC39hTrJpdTve70cN1Zp65LGPMv6NFviZ9WHcQRunBeVZ17EsShmLAjcysSUqHBLgX8EbnwoFvNQZD+zn2kDnWkD5QZuccDEBwn+ssAE1Boo6LYGbdImcMuWrTQOxDUDPJIgSxyw0ZCnU4GbADa/FtiGulngpu8J3a69J6hwa8aOuU8Y2EfgxjlWZ86xOK7J40rgRuCWArnK1DkEbnyQJT/I2DfsG9oAbaCeDeQH3ADCAAhqkya4BAoCEUSlk5fCTQMF3RbIpmsCt8aBWyuwISxwq3UpxVhrsORDWVGBif1JLUBL7FPDL1/ZJst6G9nPr2UbrEdb9pVaPo+r9bHk/FDLOaOW69G1vmbdF7pde08QuLViz9y3NfBG4Fbvt5qfcz7XaTZA4FYmpkSFWwr8I3DrtIcPr4c/qLQB2kCRNlAkcKuFbQAJAg3igJsGBo20k4BCLVwQN8SoJnBrDLi1ChjCAbexsM0HbmIT2o4Ap8T+dO0gMbLrOjgmEEzgmF/L56g1HNNt/ZlsL8eR5aRaH6cdwM2/L7TaME6NmLYuacyzrG/V3rh/a0As7/4jcCvyd5/fxXlmGWyAwI3ALQVylalzCNzK8MDgOfCHizZAG6iqDRC4icrNBwtx4CAJDGR5GY1zxfTXSWy1omr/+xtZznLNadsk9WVcv2vIM9alFLHbovhtAlYFsum6XcBNQ7MksJa0Xu/bDuDm971ejhurtHVJY55lfZot8bNyw7Qs40PgVtU5BM+b899mbYDArUxMiQq3FPhH4NbsTc79+ANBG6AN0AZGRvIBbgjADrjh1EJO2SZAQQMEURYVq3CDIipStkl7YGCg7UkTigJt8j2NADZ/2ywv0WnbJEGWOGCjIU8ycKuFbhq0SbsMwA32L/dCllrfLwRu1QdLafdEN39G4Mb5COek3WYDBG4EbimQq0ydUwvcBs3g4DGDSTF+tON+vAYHj5uhoUFbhocHjZQTJ4aMvHjxgddtDzxeL22eNtC9NhAauB220CoEcAuRpVTUTlHt1FAC2aSGuo3AraoupYCnY1VuAtl07QO3OLdSgVo+GBMXUL/W0EzDsfR2LYTWx/Db+jhybqgFVqPWsdvQ1teJtu4D3Y7uC2Yp7WbYVYZrj3tnGRrCO4sUvLMM2XLiRPSi7t5dOIfp3jkMx766Yx/dx+AQKLjHhVOAWUTlmGUc4ByOZRy32588ecKcPn3KfP/9WQMmcv78eVMmTlOlc6HCLQX+jQVuxwncRvjwre7Dl2PHsaMNFGsDYYEbVEtOgdS6wg3ADXDAhwf1lpOAgnM7HKtuc7DtYF11G5RXSaqsLC+svkIsaVnUZ0XUSefQ6Pos1+9vk9SXcQo3rNMqNxkzAaaublzhJqBKwysNtTR080GbLGtApuFYUrunB/HhEO8tG3ST4+jz0ufrA7e4+0PfE7pdJHBLGu+s63374XJnqf0I3Dj3KXbuw/5uf38TuJUJyBG4EbiZ9j8U+GDmGNAGaAOdaAMEbgJvNNBJgj5JcCDLy38WiFUEZPO/I8t5ZdkmSx/42yT1Z1L/6zGScYugW/PATSvdNNjSwA1gTSCbrrHeATSXaEEAWVwN2NYIcNPHkPMKDdugDkSR/tS17m+/nTRGceuTxrmR9b7tcJnAjZ45nTgn4TV1z1ybwI3ALQVylalzqHDjg7l7Hswca441bSC8DeQL3Hp7941R8miIIPAgLoZbNyrcfBhW9HIWsJZlm0ZgSBJ0iQM3WKfBD+BQkcBN1GwauIlazYG0dOjmoFm6wk3fH7qNfeV+0bWo9Oq5kmo1m25rwKbbup91O2lcktYnjW+j6xuxKW5bPRhHhRvnN+HnN+zTcvcpgVuZmBIVbinwj8CND9NyP0w5Phwf2kC5bSBv4NZjAA0EVDg1UAQlBByUDbgBMMQBhCRIkOUFPwuowjZFQras51RvuyzXn7RNUp/G9T/WafjTLuBWa89O4UbgdqiheyZp3JPWJ9kP11cPrsWNGYEb50rlnitxfMKPD4EbgVsK5CpT5xC48QEY/gHIPmWf0ga6xwbyBG79VpEjLnQCKbRqpx5wi4tHVW9dUoyqKsRwKxK2yXfVg2lZP497ic6yLgmwtArcoOLStoC2th2tDMvqUio2rGsq3OJBm4xf0vg2uj6LLXGb6sI3AjfOu7pn3sWxdmNN4FYmpkSFWwr8I3DjQ4s/ULQB2gBtoHkbKC9w03CkkbaGLNp1jsDtWF31XFa4lrZdo9AjCbwIsPHrrAo3GXttD9qOCNz2G/SRdiPVbd3Puu2PR73lpPFtdH2jdsXtqwXfCNw4j2l+HsO+q2bfEbgRuKVArjJ1DoEbH7LVfMhy3DhutIFy2ACBm0CGLFAhCRJkeblPg1TymajO2lXLebRaZ+kP2SapT5NAjh6nNJdSAjeX5VeAo/SHX4v9+7XuZ91OGpek9Unj2+h6sRfW1QJpWceLwI1zonLMiTgOxY0DgVuZmBIVbinwj8CND8biHozsa/Y1baDzbKCdwC0KAh8Xw02rkRppC2BAXQsXkMUSGRl1oP2DowqfLFAhCRJkeanMArHaBdr092Y5z3rbZOkP2SapT5MAjh6nPIAb3JwlI6gff1C7kko7pEupdrf220ya0JmgSe6Dbq8J3Di/6rz5Fcc0fUwJ3AjcUiBXmTqHwI0Ps/SHGfuH/UMboA2k2UC7gBuyl6YDN2QpbQS0ybYhgBugThzwSYJDWV6W60Eq+VzDr3a15VyarbP0h2yT1Kdx/Y91nQrcfMDmLxO4EbjJPdOJNYFb2u80P+M8rhNtgMCtTEyJCrcU+Efgjyd67QAAIABJREFU1okPIF4Tf1hpA7SBomygfcCtp6fHJlWAoihO4QbgBngmIC1rHQK4JcGeJDiU5QU4C7xqF2CL+94s55u0TZb+kG2S+jRpDAjcovvG3Tu9RuLR+fdI8r3g4rdBAeq7ksqy7mfdThqXpPVJ49voerEX1p0JHgncivrN5/dwflkWGyBwI3BLgVxl6hwCt7I8NHge/AGjDdAGqmgDRQG3vca53qF26rYswM0HCFmWkyEDXUrjwFrSuiSYlrS+WRCSBF6SAI6GP/VcSrUtoK3tRyCV1JIxt10upb6iTS+Li6s+R2nL+aPW14e2vv5a92oCt2btlfvlA/wI3Ko4f+A5c97big0QuJWJKVHhlgL/CNxaudG5L38oaAO0gW63gfDA7fDhATMwcMC+7EO51tMDyKZLNuDmw4Osy8mQITtwA9SJAz5JcCjLS3gSqPLXJwGwItf751RvOcv1J22T1Kdx/Y91WYGbtgNpaxvSoAptAVjFADcHoCUOHOraeyS6XwS20aU0H9CTZJdcX2x/E7h1+1yE199983ECNwK3FMhVps4hcOMDuvse0BxzjjltIJwN5APcDh06aA4c6LeuogRu7sW1HrTC50VCtbTvynKueptW4ET3ArcIqiXBNqzPE7gdPHgg1qVUQ02/nQRC49YnjW0z61uxMe5bLDxrpr8J3DivCTevYV9Woy8J3MrElKhwS4F/BG58qFbjocpx4jjRBsppA+0Bbg4iRLGoJIZbf3+vcbHbWk+YAFVTrRtdawq3NEhQ7wVTw6m0dhoEK/qztPP0P6t3/WmfJ/VrHMBpROGGsRdlm9Ra4Ya2VrklKdwAvbQSzW83l6U0G2wjcDtsxD7SbIiflR+o1RsjAjfOkco5R+K45DcuBG4EbimQq0ydQ+DGB2F+D0L2LfuWNtD5NlA8cIsUO7XADbANEESAWzNZSgWsSB0KuMlLf1Kd9jLpw6m05aKhWtr3pZ2n/1na9df7LKlPQwA3H7o1C9zSoBuB26FY92uMX9LYNrO+nh3x82pDNwI3zrc6f77FMa4dYwK3MjElKtxS4B+BGx9etQ8v9gf7gzZAG2jEBsoI3PoVdKsNdO8DE39ZQBvqWtiGIPHZFW4+7KkHCNJe9n04lbacBsCK/iztPP3P0q6/3mdJfeuPgSxrF8d6SRN84Aa70DZTT+EGOAzYlhW4RTB5n3UFlX2ldp9H6jatlpNt4mo5rlbhSVtfg742tNPvh/0mb5fSkNCtnh3xcwI3/vY38tvPbWkv7bYBAjcCtxTIVabOIXBr98OC388fLNoAbaDKNkDgBmiDokGOwB2pk6CQrE972ffhVNpy0VAt7fvSzjPus7Q+SPtM+tCvpe/9Wo9TUcBNgzG/rRVuAsZ0rQGaD9zwGY6nt4lry/EEskmdBtvqAbck2ObfC7q/0fbHI23ZH9NWltNsiJ9VG7Zh/Khwq/I8gufOeXAzNkDgViamRIVbCvwjcGvmBuc+/GGgDdAGaAPOBgjcCNyOxSZriINqja7LAkKSIEwSyNEAKG/gJkDMh2x6uR5wAywTiBYH3OSzpFpgG2oBbajrwbY04AbYRuBWfUiV5f6qyjYEbpyTcF7abTZA4Ebg9v/bO8/tuHVlW7//r3tWsL32Ck6SLcmWZcsKtiQnyTmsHc5O521wx2R5CkU0wNBNtjrMHxwAQTabBCbJwscqoAFyLVLlCLit28NJ16sXsjQgDQypAQG3HHDLefKUwBDKmzq1fSBVk8fZvLf1Oe/Svk31wm2lehVws9DTMYAbQm2boJuHmmm+1C658lLbTlNOvShdTVAo4Dbke13Hkp24DBoQcFskpiQPtwb4J+C2DA8UnaNefNKANLCoGlhE4OYnTqiPuZWOUZWuN49ZNf0YboAJTZCgCQKUYFSufN5Qren/cuc3TVlT3XBbqW5zEMcDoLqH240KIqVj93lNTDuGm/doS/PL6OHGOip5ufk6TvO5NimVldp1mnJqRamA2927saO+sYH8or5fdV5qG2mgrIF4H9+9eztguXPndrh9+1a13Lp1M8Tlj3DrFpeb4fbtm9X+m5t3w/b2/bC7+zCAiezv74dFgljLdC4CbgJuepnKmJAGpAFpYBQNLBpw+9FNmGCDvqdQrWk9hSsEC5ZOD9zaAEETBOgDqZoA2Ly39Tnvpn2b6obbSvWbAzkeAE0Ct0nolmrC68eHZfpwTe9VxlDPFLRx3YDb/ws//IDFJktIUzsGt9m+PG5b6o/lz9Gfu78mn/fXXr8XMImILfTw9Kmv4zSfa5OmslLb9i2nVpQKuAm4CeKUIY7qZnnqRsBtkYCcgJuAmzrao3S09VJanpeS2kptNZYGFge4/fTTD+Hnn3+slmvX6OXWz8MNsKEMGQTc+kC7JojWZ1sXQFKCLzmQ4wHQL7/8Em7cAGTzC9o5AiWvB+Q9kPLQysMsD7kIxAjY0pTbm4EbxnEjcEPaHbr5c/Hn6M/dX5PP+2v3dcL82B5uaL9S2/Yt76Ij7bO8ME4hpWO943Vc2Y+LqgEBNwG3Bsi1SJWjkNJFfYjovPSCkwakgWXQwCICN8K2/h5u0wO3XxpnKW0DB00d/T5wqg8QG3vfPufdtG9T3XBbCb60ATfAt5yXG4ESUg+dhgZuddhW9nDz0MzyVw/cSrAN9emhZprPtUlTWalt+5ZTK0qXF6o1tZ2A2zLYCzpH2bVDasADtzs9Q0pvfQ8p3Qjb21sKKR2AW8nDraESBdyGvPF1LL1IpAFpYN00MDZw+zH8+GOcpRGAIsKHHy5nXYzebT9VHkjz9XCrwzYAhhxAaAIEzR3J30MTkPLbxoZofY7vz2uWfFPdcFupbnPtkAIghkJ6L7d5AjcP0KK2vTcb8j9c6h73w1V7uDVNmCDgtppAi/faoqYCbutme+h6ZW/T/gRss6X7GG4AbnfC5qaA21COYAJunYGbDS4Iwxgv1NzLC4MPcjDCO3duBS4YqNAGHoX49RBUHUgD0oA0sB4aoMGDwWrtnYDBaDlQrQGa38PNm/WF7xK8N+7f36wMH7x7AE5+/RUA60a4fv3ngLA3AoboDUQYkQdu5pFEL7efKw8lHybXlPfeTB66WH4ypBQhiSnAyQG3EhBieVMntg+s6gPExt63z3k37dtUN9zGekxTATcPqP/nElAjtLQtpNTfC8j7+2FewC1tz1nWqRWlqwkEc30WvIvigveTDaquMdxkn62HfbbK7UzbM8I2mzTBJkwAq6AdmqbYhmcBngP37m2GnZ2t8OiRJk2YFbwJuAm4CQIKgkoD0oA0MIoGaPTMBtwA3gCA0KEGJDHgdm1K4EbYZiGlgAVNkM1v85DBAwYBtz+q9ukD6ZogWt9tbZCkBGJywM30FUFpzsMNQMm3v9eF15OHVgaHIwT23mqExUw5jlv02LQQUf+ben7+Hm7pNfv6EHBbTWjVdp8t8nYBt1WGK7o2AUKvAdqdFkbqZyjFh186BqWgjR96Cdvg3ba1dT88fPggPH68pxlKG3hRFxgn4NZQgfWQUnm46YHmH2jKSw/SgDTQpgEaPsMAN3ToPHDDJAj9PNwwaUIduHmg1iXvQYOHDNevL7aHWx8YNq99+4K1pv2bOvvDAzd4WNahG7TgtQEtpcCtCboRoAGyTQfcDLrxfkBYKQFeU8r/Rdpn0gR/rcj7e2EewK3UptOWN+lH25YfIAq4tb2rtV323CpogDZnDraZHZoDbubpalEYFkp6N9y/fy88eLAT9vb2QhegpH2eNtaTgJuAmzxbRvFsWYUHt65BBog0MJsGaPxcPXCL47j9GOY1htuihJTOC6BN8z9NEK3PtiYoUoIw03u4EbhF6JYCqL7AzUOxaYGbAbP5jOHmr9fDNuTHBm6l9pylvEk/2ibgNtt7UHaE6k8aGF8DtDfbYVsaUmphpJwoAbDNQkl3dy2U9ODgoBEmCbY1wzbUj4CbgJuAm4CbNCANSAOjaIAG0KzA7W64efNmNX7ob79ZSOmNG9dC9HAjZOD4bdFbB6CNC/aPsG22kNLUq2eRPdymAWHz+k0fqNa0bxMUKYGYbsDNZipFaGl94gTzaEw92wii5g3conca74V+Hm7x9xb26r3zcp6fvM7J+0DArUmL2nY18E4ebgI+4wMf1fHV1TFtTY7ZhjHYYHdyiaGkbbBtawuebdthb283PHnyuAJtAm7tQK0NOgq4Cbipoz1KR1svnqt78ajuVfeLogEaQbMDN4yvAeBSBm452PbjZVgfYBvAQQRuNmECwUEOKvgy7ufTumfP4oaUzgueTfM/TRCtz7YmkDELcMMkF/BUbAJuOehG7Xhw1RRSmnq4cd1CPtvHcAMwA1ieNqS0D3Dz9wDy9ftAwK1Ji9om4Cb7ZFHsE53HamiRdiZhm3m4dYNtNtkjJ3eEZ9vu7oPw5MleODx8Go6ODsPh4UEQcBNwG9XFUWO46WG8Gg9jtaPaURq4Gg3QEBoCuN1qAG5+0PjooUPo4VMDBHXY5gEC9/VluXwKGa7Cw60rkJoGhM3rN12voW2/JpAxK3AjdCt5uFELXifUEVIP3TzY8uOn+TxhG9KrAG7+fJH31+KvkXleP1OFlF4NVGq6B9Z9mzzcZANdjQ2keh+33mljTgvbbgZMpICJue7d2wg7O9sVaDs9fR5evDgNJyfPw9HRkSZMaHDOavNs43Z5uDVUooCbHpTjPihVv6pfaWC1NUBjSMAN0IZLGspYAkIsz3WW2wAUtw8Hzm5WYb0I7R3umH9UEJXnOkuaqyOWsR7TNG0HrrOdfAovtxJwI3jyqYdUHrotEnDzkI/nlcI2D9z89fk8QRtTATcBN957i5IKuMnWWm1bax3bl/blNLCNEyTcvoRtmJF0b+9RePv2PHz69DF8+PAunJ2dVsCN0Ejp9J5uAm4CbgopVUipNCANSAOjaIAG0ZDA7dfwl79gPC0/htt6ebj1AVPDwDHMUn6rWgy4DQfd+lxL075NHfsUtHGdgC1NPWhjvgTcPHjy+WGBG8dli2HTHpb98AO9OsshpfX968dpgm0Ebv7afJ6QzacAbgjBLS2s01yatkVune03ZNqkH21bfoAo4LaOQEbXvLqQkbblbLBtc/Nu5dm2vX0/YIKEZ8+Ow9/+9tfwv//7j/D165dwdnZWhZUKtE0P2lh3Am4Cbupoj9LR1otudV90alu1bVcN0CgaCrj9EX7//dfw66/wNlpf4AYA0ASf0m3DQLc/BvVs4zml5zrtehMUKYGZHMxBWQ4EzRO45eCYjc1WB2Vxv2bgFveb/D1hG1Lv3eaBoQdsPu8hG/NtsA0QLle/LCu1iS8vtWff8ibNaNvyQzbfhgJuXd/Z2k/23aJrgHaljdWG8df6TZCA/e8EwDaM2QbY9ujRw3B6elJ5tv3557fw+fOncH5+Hp4/fx4ODw9HHb6LQGrVUwE3ATcBNwE3aUAakAZG0QANo/7AjeNqwCCCYYSZpQBplh24eXDAfBso8B1Hn+8Cpwi2Fjntch1d9vF1k+ZLdcw2SFMCIKYpcANYsnH7rgUPoZj3wKpvSGkOkAm4/SWwjUpt2bc81YjWVwuy+fYUcFt0iKLzE+jrogHalNPCtlsJbNuqPNuePn0Szs9fB8K2i4uL795tR5owoYET9YGEAm4NFakx3Lrc/NpHLwlpQBqQBvIaoHE0HXDjF8huwM3CSumxw1C4FHwAiFy/np80we9LcFJK6dET0+vBxq5CuKstgDQENkgJDNK0DRT4jqPPd4FQw4A2hJTaMnRIqT+/LtfTdR9fT8yX6jltD677tkNbpjOVGnS7Vs3SmerEa2n+wA2ebP8vxEkXJj3bCPV4vwzh4Wb6nz6ctOkeYZsgLbVj33LqQunqgja2rYCbbJS8jaJ6WZ56oT05C2y7fenZtrNjsG1//0k4OXkW3r9/WwG3d+/ehpcvX1ThpfJumz2UlFBOwE3ATZ4to3i26CW2PC8xtZXaaiwN0EAaE7gBtMWFAKEvcEsBSQpQ0vUI2gy4EDYQtiFdHuDGCRHSsFGWjzeGmwduyHcFam37saOdpiUo44EO8x64Ic8xyXwb08sNekg14jXFcE3qEymhV5e0n4dbGbCl/+XPh+eY3jvpdXHd3wNR/2XgltZnbp11X0pL7TdNeaoNra8ueBNwG+sdr+PKfpyHBmhLcsy2vmGk8GyrwzaEkcKzDbDt4uJN+Pjxffj48UN4/fpVNTspYNvBwXDAieBpXVMBNwE3ATcBN2lAGpAGRtEAjaSxgNtP4aefbPwqDhwPgICyFBoQfgAW5DzcuJ0poUIp9bAB0MWAQ/Ru6wrcuoCCEghog07YngKtyfUI1eozkMZyTpiAdEwPN55bl+tq26dUZygv1XkKeXJAKPVy88AthW7UElIPszzkSgFYaR3ArQzd6mO4lfebBHE8F39+6b3T5R4gcCOUTNNcXebK0jZI10ttN015k0a0bbXgm4DbPKCI/kPwbQwN0I4kbDMPtzt3YFeabYkhR7jQGx8pyjA8SQ62HRzsh9PT5xVs+/wZs5K+D+fnb6qx3I6OEEoq2DYkHBRwE3BTR3uUjvYYD10dUy9zaWC5NEBDaQzgdj0YyDDYEMHBdMANUMEDkhJkYPkkcJuEbW0ebl0hQa7z3wacuJ0QK58aVEuBmhmsNiup3zYv4IZz5flPm+bqzJeV6t4DnhwQQlnJw60JuM0C3QjbqHGkdTA3Cdy6QjceU8BttQCT17rymGTGlps3fw+3bv1RLbdvo0POBR1z68BjQPWNDb/I7lguu0PttTrtRRtyWNgGz7azs5NL2Pbly+fw9u1FBduOjzVu25CgjccScBNwE3ATcJMGpAFpYBQN0FhaDuDmoRvBWiltAm4paCO48TCnBHxy5WmHuQ+EyoM2ho5OArcUsKXr8/BwW1XgNg10MyBm3m2EY03AzTw+y95w/hg+3xe41fV/7buH52zhpLhP/D2Sy+fuj2nL0vtK66sLHQXcBKFWB0KtS1vSfhwGtmE20t3dnSqMFJ5tGLPty5dP1YIJE05OTqoZSQ8ODjQraQMbIkDrmwq4NVSqJk1Yl4earlMvYmlAGhhDAzSYZgVuG+H27duVVwI6xb/+Ci+j4T3chgNuk+O3pTChDyRIQcA6ALdZoVtaZ+l6U/170ENY6tMmDzfv5eY9Jpn3YMsDr0mIBmhG781J4Bb3t/ELsW6h1PiNgFtT+3JbqgmtC7jBy00ebmPYAjqmbMw+GqDtaOGjCAnFQi9UhIkyhBTpZBip3ceceMsmSHhQwTZ4tr19ex4+ffpYjdlGz7ajo0OBtgYm1BewpfsLuDVUroBbn4eD9tXLRBqQBqSBugZoNM0O3GBowahCp5jA7dq1OIYb4QShQzoOFYEHoFpuDDcP27BvybON5XUPH4zh1i+klJ3+tjQHAYYEbk3ho6l3G9frY73RW274tM915vbN1R3Lmup9VuDWBN2agBs1nE89gCOIs5TjF1L7Am6/Fsfp8+1OLShdXdDGtpWHm2yTum2i+ljc+qDdOC1sw5htd2qzkXKCBMC2d+8uKq82ALc4ZpsmSEgB2dDrAm4CbgolGyWUTC+zxX2ZqW3UNvPSAA2n4YHbL79cD0MCNwI5pgRrpbQJuCGkNBdW6kGO7/j7PDuIpTQHlprKyiGlmHmUS368NgK2fMrf1tMhYVzTdXXdVqpHlPt693nfTt6zjXkPV9NJE6gLrxtqCum0wM1CReugLYK5HytvOAG3bqCNbd2kDW1bLQgn4Davd77+R/blLBqgzTgLbJucjRQTJAC2vX//7tKzDbDt7Ow0aMy2+UwOIeAm4CbgJuAmDUgD0sAoGqDxNARwu1MBInScAEQWB7hNzlDaBttw/uz0p2lbR78raOJ+7cBtGtjG39RhGwDeqgE3tBVBG9P6TKXXQw66eeCGPKHbWMCNsM3AnEJK0/sqt952r2n76kA3AbdZIIh+K4g2Dw3QXuSYbX3DSCdnI93b2w2EbQgdxeQIHz9+qDzbDLYdB43ZJuB25bHECimdxwNG/6EXmTQgDayqBmhAzQbc7t3brEIEMFYHQNK0wI0QBCGlubBSQhGk3DeX0osJoAVjydkSQ0oJZnyKc/ZLDgCgrK2TT5DWNW0GbgRnw6WrCNxS6AbgFqGbtX8K3VLdUFtjADc7psZwK91TpfK2e03bBdxsttJVfT/rumR7LooGaCsStpmHW/cx2yZhG8JICdssjPRzBdwA3gTb5gPZfFiqPNzk4SbPllE8WxblIa7zkEEhDVydBmhEDQHc7laD5AIgoQPd18ONAISwzdJrjWCNv/FphG1xZkYfYoi8B23Me9iG/LQQoCto434CbmVoUGqDtK24zrZEmodu1wL14TWDPIEbUkK3GBJaChWN5ea5Ftf9b4cGbv5ckU+vBeu8TqYEz6yXNPV115RnXZfSUptNUy6gVr43Vq1u5OEmO+jq7CDVfXPd004cDrbt7j6oYNvpKSZIsDHbvn37Gi4uzhVG2sB9PCAbOi/g1lDx8nDTQ7L5Ian6Uf1IA9JAkwZoSM0O3DY2NqoZqnLAjTACaVx+rEEOgwTm2Rahm4Bbfny26T3ehvRwQ1sTHE6bNoGDEqQpwR4PigiUDLbSy+0qgduPl9ovTZrgIV2aJwTsAtsE3NYHVDXdP8u0TcCt6T2tbbLjrkoDtBGHg22lCRJsNlKN2TY0SOt6PAE3ATd5uMnDTRqQBqSBUTRAY2oo4HYn5IFbhA1twO3GDUARgjcBt0UHbjkPvT7wrQkKrBpw+/lnuw9ywC0FbH69BNtK3m0CbgJuTffVIm4TcLsqoKL/FcwraYD24TCwbXv7foBn2/7+42qCBISRfv36OcCzDbDt5OQkHB4eXvlwXV0B1artJ+Am4KaO9igd7dIDVuV6+UoD66MBGlQCbqnXVAn2tHVW+8Am7JsDVlaGCQ+m92Qr/XZoD7fc+fepg6b6LLVB2lZcH9rDjaALqQdguTxAcq4cZTzONMCNv0WaerfNC7ixfrukpTabprxJG9q2WlBRwE121/rYXcvQ1rQNbay2u3f7TpCA/e+Ezc274f79zbCzs1XBtqdPn1Sw7cOHd+HLl0/h8+eP38NIz8LR0ZEmSGhgPmMDPgG3hspXSOkyPLR0jnqJSgPSwKJqgEbV4gC36N1m41DBW6fPwjGrkHLcKj+GW26GUoCaFCaUAEFbR78PbBJw+70KSW2q01I7pO2F9TpwG2Yctwi8ykDNoJqFS+egG48h4PZrcWzEXDs36ULbBNxswgS8wxb1/arzUtssowZoF04L2zBBQh22pRMkfP78qZqN1CZIOAvHx5qNdGyg1nZ8ATcBN71MZUxIA9KANDCKBmhYzQbc8AXTxnCbLaTUQuEYTjo8cLNxvX6pgRlCmhTg5AAAyto6+n2AW847LJath4cb6qutTkttkbYZ25Ip4CraPALX68HPVpoDud6LjKDM0jJwi2HS+X14nAjcsN//hB9+iEsO1HnvOBzDn1sf7zbCZ45rl0tZZ7k0refSeqmdpi1v04W2rw50k4fbMoIZnfPqAUXahLPAtts1z7a9vd1kNtIv4dMn82x78UKwrQ2EzWu7gJuAmzrao3S09aJcvRel2lRt2lcDNK5mB26bm5g0YTrgdu1anGkx9XADLMiBkVyZ924jZDAvtxuXs1bmgALKUohQggRtnfyuwC2CtT8KYaUCbqzrUlukbZZr2zpwuzEDcMuHlXrYBiiWA2d54PZDK3Dj75h64JbTP8r8PRA9PK9f6j8H21CWqzuWpfWcWy+10SzlbH+lqwPWSm0p4Nb33a39Ze8NrQHagxyzrW8YKTzb6rCt7tn2NsCz7cuXz+Hi4iKcnQm2zQumdfkfATcBNwE3ATdpQBqQBkbRAA2sYYAbwggAktDJ/uWX6wEgzYBEOmlC9NYpw7YID0pwIS33sGGRgVs7bPsj3Lq1PsCtzcutBG1y4IeQiCm83KKHWx24QSOphjzUIujyqQdqddhmY7X57czz9/Rww++4DV5uzPuUv2Hqz6vk3eb1L9i2+pCqBK+WsVzAbWh4ouMJyPXRAG1BwjbzcLtzB7ah2Ye3b98KXMw+gY1ysyq7c6cZtr19e16BNni2KYz06UJODCHgJuCmjvYoHe0+D2Ltqxe3NLCaGqCRNU/gBvhmwI2ww3u1pbOU5qAIf5emHjggH6HDYnm4tQG3aMwu56QJuL6unn5+vxIo6APcAOEI25BaWGl36ObBFmFXmgKM1cts/DaUeWjGPPf1wM1Dt3Q/7u9Tf14pcEt1T+1P482GOsuBTF9Wao9pykttrvL1AoYCbrKxVtPGWoZ2pR04PWzb2Jj0bOMECQbbPoWvX7+Ed+/ehtPTk3B8rAkSunidzXMfATcBNwE3ATdpQBqQBkbRAA0tATcPFJAvwYM2EOABUinfBNzGhG02c+nNQghrKbR1tvJSHZTKc/Vbaou0zbjugVtf6ObBlgdezfnuwM1DN4I2pM3Hjx6hPD8Pm+cJ3EptMW15rr1Vtl6wDe0t4LYMYEbnuHpQkDbg9LDNh5Fub98Pu7s7gbDt/ft34evXzxVsu7g4r2Db4eGhZiNtYDvzhGz+vwTcGhpFs5Tq4b96D3+1qdpUGpifBmhsjQXcfnYgIUIJwAXvpSMPtzrUMug2vHebATccF9CtbamfUxMkbNtWgmu58hJsyQEdArY0nQW4AWQRarVBsNJ2D9I8TANsGwK4ediGfArc4NlZ8m5rG6+tzcMt1w6zlJXaW+XrBd0E3GT3zM/uUV1bXdP+s/BRgDMs3cNIsX99NtLd3QeXsO3du4tqzDaEkZpn22k4OjpayHBKD57WNS/gJuAmz5ZRPFv0wtHLXRqQBmhwjQHcMF7WtQpeGJgYF7il0AHrFlJqs1QSQKQwhusptClBhCYQkANIaVkbnLLtNjZKBGRjwrfcse3/u51rNzCX1kNpval+sc0w1U5NAAAgAElEQVS3S9pmXGeb+jQ/lhtmLb1WLR5iTQPcDKRZuDT07qEb1gnbZgFu/hx9ntcQNS/g1qYjbV8soCfgJntM9tg8NUDbb1rYhjHb6rANEyTQsw2wDZ5tmCQBnm1nZwbbDg4OBNwauM5Vwj4Bt4aGkYfbPB9O+i+9DKUBaWDVNECja3jgBtgBAAB4MTZw88CBeQ/bMGj+EMCt1EkvwSNf3h1emefZ1cE2AjhCv5iaV1w3wJa7Xl8fpXypjlnugRvyhGxp6mEb83XoBtjGpT55AoFb1G4EaablyfUUuPn97HgRunGyhRTK+d+keRzDQzafp+aRctxC6j2Xsj5KaVqXfj2t/1nX2a5KFwuAzbs9BNxWzbbQ9SyuvUy7bxbYNjlm28HBfjg7Ownv32M20o8Bnm2AbS9eaDbSqwRpXf9bwG104GYupBsbdgMu7gNCD2+1jTQgDUgDw2qAhteswO1euHdvs/riiXBFdMLRmQcAyEEL8/aJAGEypNS8jjxI8IDB5/0+MX+9NjPlsgG38UNKCdXa0gjbYhjq9MANEK4E2lje1tHPAR4PhHw+B5QAoDhraQm4QV8GyX7K6ncShjFUNAfi7BjycPu15p3Idmxrb21fDxAn4CbbZljbRvWZr0/afByzrW8Y6eRspHt7u4GwjRMkfPz44RK2PXt2rDHbGlhOVyA29n4Cbg2NNLuHm8VqI2ZbwE0P5/zDWfWiepEGVlcDNL5mA25bWwBu96rw/zbgFsFDP+AGmOZBG/IRsKWArh9w85CGeQIBn5Y6/4RFTWnO4ytXZrANoKsNhs1/+6webrzepnoq1THLfXv4PNstTVPo5oEbvMEMuk2GlXaFblHPk7ANYM6DO+4rD7cI39iuStcDrJXaWcBNdtbq2lmL0ra09wjbzMOt+5htk7ANYaSEbQgj/fLlU7W8fXsRzs7k2TY2JBvy+AJuowE3g2240QTcFuVhqPPQC1cakAbmqQEaYLMCt/vh/v37YWNjI9y+fSugU1XycCN08CFyqYebgZAUonVdN4hCLyamDK1LAUwKaLDuQY7PlzuLv7d6bhE2taUCbs3gwbdHms+1Zdre1IHpAmAWeona8lC3DsvoqcYQaQ/Tuni4ATDjGABzNp6hQkp/rZ4VpftK5c33wirVj4DbPN/7+q/1szNp600P2zY26mGkmCABsO309HmgZ9u3b18ux2w7Pj6SZ1sDwxkSlg1xLAG3hsaazcNNwG39Hrh6yarNpQFpwGuARtgwwG1zczjgFr2P6kDEw5HJ/PxhGzq9TR5b3NYG2rh9HYAbrpX1kqZdIEIK2rjeBbgBwHWFbiXgNlluwM1gWt3Tze8r4BY929hmXdpb+6w+eBNw8+9l5WWnDakB2nnTwzY45mxu3g3372+GnZ2tkE6QAM82jNkGz7bT09Mg2PZ06SaHEHATcNMspZqlVBqQBqSBUTRAQ2wxgRu8kPw4W5OALXomcT96tDElXEk9nXJwhhAgTds6/Ck0yq0TqLWlAm7tcCFtH67n2jRtd65DF9RIycvNw7L2fPR44xhv6W+mBW48jve+83l/X+BasFD3uZR1UEpz9cgy1vVQadu9pe3t98Mq1JGA25CARccSsKMGaOMNB9t2dx+G/f3H1QQJnI0Unm2AbScnJ+Hw8HDpYNMQHmLLfgwBNwE3dbRH6WjzYaxUL2ZpYH01QGNsduC2tbUVNjc3BwspNXBgUIQwzYOFer7k2QZvpl+q8FYPFwgP0rQEEdo6tDnAlpa1gTZuF3BrBwyldkrbE+u+3X2+C3DzUIvQq5QaTIthp7bfz9W4g/xNCbgR0OVS/hapPx/m6/eBZiltu1e1vf3+uoo6EnCTHba+dthYbU/7zsZqg5calu5jtmH/OzXPNoSRPn36JJyeYjbSd+Hz50/VjKSYjfTs7DQcHSmMdFnBm4CbgJuAm4CbNCANSAOjaIAG2WzAbXv7ftje3qpmKr19+/YgY7gtC3BLwVppnUCtLV134Ib669Lh7wrdPGTz+b7ADYDLw680Xwdu2NcW/zsBN4WUdtH2Ou4j4DYWdNFx1xPk0babFrZhgoQ6bPMTJMCbDSGkNhupJkhYVsjmz1vATcBNHe1ROtp6Ca/nS1jtrnb3GqBRNitw2/oO3O5VX0/RYQTcgPcNwIT33GmaNOHGDXjoRC+deshf01huFkYX9zfPuJx3G84r5wmFshLEKXWAS3AtV94G2rh98YHbzcBznSXN1VGurFT3KC+1l29fD9l8vgm4Qbf0IPNpCtm4DpDWD7jZxAmYNMHfG7k8/wOpPxfkU+82rCukdDE9uJp0rG0YB9OWmzd/D7du/VEtt2/fDHG5demZAxCwseEX/05TXjbOumuAdt0ssC0ds233+wQJJ1Xo6JcvnyvYdn4OzzbNRurB1bLmBdwE3ATcBNykAWlAGhhFAzTMZgduOzvb4f79PHAzaBAHljfoFgECZimdhG2AaBxni7NJ5qAbYZvf/0Y1hpUHLD7vgYzP5wBOqTOcg0NNZV3h1CIDN5zbzZtc/pgJvDXVVbqt1Aa59kKZb1Pf7j7fBtxy0M3DL+YJ2/oDt/rkCm2wLQVuTbBNY7gJupXumUUtF3Bbd0ik6x8GlNKm45htfcNI4dmWwraHNdgGzzaEkloYqWDbsgK29LwF3ATc1NEepaOtl9swLzfVo+pxmTVA42w24IZZqx482OkB3EqwLXro+JBSA2+Ebn6iBL8/4VwzbAN08UDG51OA09Q5TaFQ2/pqALdbIUK32YAb6qOtzri91A5pe3HdtynyHrQxPw1wg1cZQZsBMPNsI3SL29pCSmeDbbN4t+G6WQelNK0/v846Hiotta3K1wsaCrgtsx2hc18MO5j2HGGbebh1H7OtGbYBsAG0WRipPNtSYLXs6wJuAm4CbgJu0oA0IA2MogEaaLMCt+0KuG1t3c+GlBqIoIebDSzvoUH0brsWfvmFHmsRoHlPN+/Zw/C5uJ2hpM1QwQMEn/cQoa3DTxjUNV0d4Aboduu7p9t8oFupLXx7+bxvU+ZTuDQtcCN0QxoXA29DAbd4nDgJQ/wv+19/HzDf5tmGaxZwWy+QVbp3Fq1cwE3QajGg1bK2A2256WHbxsakZxsmSDg7O6m82QDbEEqK8dswacLxsSZIWHbI5s9fwE3ATR3tUTray/pS0XnLKJEGhtMAjbQhgNuDMBRw+8tfDAykIA1AwcOFye3twI0AJk09sEG+rUPaFbRxv1UDbkNBN9ZPU1pqi7TNuJ62Ldc9dJsFuKXwa0gPtxxsQ1n6n7wPfCrgJphWulcWvVzATXbNcHbNutUl7bjpYZsPI8UkWLu7O2420rcVaANsOz9/U8G2w8PDcHBwEDywUf7pUteHgJuAm4CbgJs0IA1IA6NogIba7MDt4UMDbhjQGp07wA3AgBxAMEARB31PPdzKwA1ArckDbrmB22KP32aebQBtceF4bkz7e7w1gTZuK8ECArY0JWBL0zJwM115eIV8CrnK6zG0lLOTMo2/8fuUQ0pz90sX4DYP2Ib6TOt61vVS26p8veChgNu6QSJd7zCAkTachY8CnGHpHkaK/euzke7uPriEbfBmg2cbxm179+5tOD09DUdHR0sNlgQG82BQwE3ATR3tUTraetkN87JTPaoel1kDNNZmA24PHmyH3d2H1UylKXADcPAQgd5AKCfgIHBDOCmWZuBmUK3k3YbyIWYnberwEwR1Tbt5t92sxkeLMMuDreXI24QK/aBblzostUUJ9qSgjespcKt7uU1CtwjLfPhoKR+90CZhG39j0I0z9aYTJfj7xOdz58F7B2kbbPPX7fOslz5pqc6nLS+1rcoF3OIMpZitVLOUytZaZltrjHOn/TYcbHv06GHY339SebEBtsGr7dMnTpBgsE2ebXlgtewgT8BNwE3ATcBNGpAGpIFRNECD7eqBm4dtBG4AZ7aUQkyjR5uNT8X9f6kNDN8EFEqgoNTh7wKIuE830EZABeCWB2vobHZZSr+fZ/k00I31xHpL01JboLzUfqU2J3DK6yqGLBNo5WBXrgwz7ebKfZntg3HZbDxDAjcP19K8/73P8/wE3NYLTDXdC8u8TR5uYwAZHXN1ISVtt2Fh28HBfjVm2/v37yqvNkyQcH6uCRKWHaZ1OX8BNwE3dbRH6WjrRby6L2K1rdq2qwZotA0L3NB5AtiA5w0hAUBC9G4zbyBCA3i4pcDNoFsEaAbUJr3bWB7h3OywDRCn1HlNYVBpnRCpe5oHbl1Am99nnnAt/18ILyVE7J+W6rPUHiXghvIcdCNwQ5qDbtev94duAGlXCdziPWBgOl3318x8rm66lDXV9zTbSu2q8vUCiQJuXd/Z2k/2He02jtnWN4wUs5HWw0gfPdoNhG1v38bZSAXbVtObLQfgBNwE3ATcBNykAWlAGhhFAzTchgJu21U7ofOEzjuAG6AaoVsEbuYNZN45CInLAzfCgRwcqUOFOmTj79oAQhMgKHX4S0DIl3cHThz7LA/bALQA0+J4LGin8kLwRhDGdaYsHzflNfWHbag3X49pvtQmTe2YaoDaYEroxhBlA27doRthmwduBMl17RPKcebROI5b6tXm1+O9U/eg8/9Rvxfq0I3X6dO0TvqsN9X1NNtKbapyATeFlAquCa6lGqDNRthmHm7RLqh7w8dxYRmWDdg2ORspYBtmHuWYbRi3Dfmzs7NwfHysCRIaWEwOXi1jmYBbQyM/efIkPHjwIGxubgS8mHBjwUCFoZL7WoTtNLzjzWlkfGPDbmI93NKHm9alCWlAGlhVDdB4Gwa47ewYcLt58/cCcIvQwGCbTYBA7zaO3wbvNlsmQRrhggcIuXwXiFACBKXOfgqA/Hp3yGYgKhrC+TBSQjG8s/37ui3PdzxT7s91HnfMdIywUtZ1qW1KbZnqIKcVQDcCN6Ql6OYhVz1PmBZBst9OaGZQjsDtpzBtSKk/NvK8J9I0d60oS+ukz3qpnqctL7WnygXcBNxW1e7QdU1nU9Nemx62bWzUYRsmSDDY9jzQs+3r1y/h4gJhpKfh+PhIsK2BwywjWCuds4BbQ0MLuOmhPd1DW/WmepMGpAFogAbcrMBtJyAkAcBtc/NuFVKITjwAAOEAoQNS8wriYO82UQKhWxNsKwGEtLwLQCgBglJHn8Anl44F2wDF+gI3ADbCNcI2pixHOiZwA0w06Jam7V5vufpNy0ptlGvTVAupVrCeArf+0C1qmnqfTLkPoFyEbt6bLZf3943dO9cu7yn+RwrauJ67VpSlddJnPVfHs5SV2lLlAm4CbrLTZKdRA7TVpodtqWcbJrp6+vRJNWYbPdswGynymI1UsG19wkkB4QTcBNwUSjZKKBkf4kr1QpcG1lcDNOJmA274SvrkyeNqptJ79zYr4IZOuAduPvSuDgoicCNs+/XXCAVK0CAtb4MGTVAg17lPIU9uHZ58iwbbCNea0tu3AeVujwzdUqhnXvht9ZWr57Qs114sS9s5p4tUOxZWWvdyi9BtEnBRv2mKEGqGUafbbJ2ecJyttB28eeCWP6Y83Nj2SpcX0uWicgTcZJutr23m25522jCwbXv7foDNtr//+DKMFLORwrMNsO3k5CQcHh6GkieUylcTxAm4CbgJuAm4SQPSgDQwigZoyM0G3Gwa+dNweHhQebkBqvz222/fPYc4HhY9fAxgAExMerXdCIBtv/32l5m8cABZUvCSW2/qoKeQJ11vA0f17eUx2lJPM3qhNQGzWbddDXADgGuHbmk959ab2g3bcm2NMg/fukC33AQKJehlesakHgbdfMrfYKxChpWWvNw8YEvzPE6a0qMtTdNr5Lqvh775Ut1OW97Wltq+vBCtT9sJuHnAorxAGzVAG83GaoOXGpZoA7SN2Yb96xMkALbBsw1jtmE2UozXBs82hpEeHSmMdB2hooCbgJs62qN0tPkwV6oXuzSwvhqgMTcbcDs4eBpevXoVnj9/Fh4+fFCBFQA3dPAJHjwkAHgwQAHoxvHaLPXebXUYAK+33DIJ5wDs4vJrFsD8/nvTTKRxHNQc8DHPNni3dfNwI2iKaer9ZesRtmHctnEX/pcBPwNh8fzGXTcYyfqbTHN1bmWxXeqdebRlXAz+eA1Y3vQUNUQAxZTAKo7nBlhMYFz2dKPG4+8noZtpvg7cUugWJxVJZ/TlrL6A1pPnQXDN/2fK60rT+n01ef80bZ8WrJV+V2/H9YBLuubJdhZwkx22vnZYqe1pnw0H2x49Qhjp/mUYKUDbx48fwsWFJkhYR8jmr1nArQW4oXNz754mTdCDuvTAVrm0IQ1IAyUN0KCbBrjZ4LtbW/fC0dFBePPmdTg9fV6FlQLcoFOJjjs6/wQSlhpsM+BWh20AAx64RU83lpdSgwYRsqWwJcIYD2Y8dGOHL5/+Xk1IVAdtHhT9cem91R1a1b9ME4CNDdr88fGf3c93OAhXrkdfpzGfwja2kYGLybYt6SAPbDkxh2mRsGpStzmIVi9r/q3NxmsebjaOWzNgm4RuHPswhW4RuBnA5nmkoI3rTUCtbVsJnE1bLvg0CZ/WsU54T+PZcOsWnqd/VJPBxbDSOHkMPHY4/qilpfebymX7LKsGaJtNC9swG2ndsw3j7HI20nfvLgLCSAHbzs8xQYJmI/XwaR3zAm4NwA1hPAbcNqtBkmE4wzDlyxovMP/ywvZo1EeXVLin1l9e6ctM66ofaUAakAZWUQMwyixEwTyq0MExCMMB7iP4MFBicAm/wccejAdiwO1VBdzwBRXhDngXoRPOTj4hQIQDk7BtWYGbdRBZb91S60jmoRvf0/NIrwa4UVtIU31NrrMznqZ9gJuBpDywNY2meryRgcV1wFYHyXXYNQnsCNyuhRgqOgnVyhAOkG7Su63uLVo/B957adoG1Zq2TwvWSr/z0Ju2q9L1g3C8t32fJcI267swjE7AbVkhks67GwA1W9tsswjcqH98NPO2gX+HoxzbYZ9hAqv79zfDzs5WgF1G2IZx2uDZhlBSCyMVbFtHwJZes4BbI3Dbr7wJ7t+/V3VwEKaBlxaNFeRjB8k6SbxJ441r8d2r2JHUNQmQSAPSgDRQ1oA36Oj5ZMDNPAziOGQGQQiW8P5AvcKYe/BguwJur169rEJK8RUV22AE4l2EjjY68B5qEL5xkgQCgeiBFD3UYuc/D0vi9hgaV/dwGj6kFDAxgiJ7t3qjt2te0I3gzTwIzZMtl492De2bmObb12ugrpGoI+ouppNebpPgLA/dqOk0rUM5QjfAs+6zldq+AHW20MONsI3/YTDbQGF6HlyP10rPvu5pvR7j/ZYr9/Vfzk96J056oHbZp0kf2hbvlcWtCwE3wahuMGrV6ymFbfwgSieZNtg2OWabh20AbABtFkYKzzbMRnocDg4ONElCA29J4dQqrgu4NQhgfx/AbTdsbW1VrqPoHNmLFQaKvVitY2BGLToBAm7lzqc65qobaUAaWBcNRNh25/sAvN7DLQVutg5AZF9PEapg3m0w5o6PD8OLF2fh2bPjAOCGL6t41/h3EjrdAGqEbAAAlrcOf4RtNmkCO+m5znyXspJHjS/nezKXluFPBEIEkl0BW24/vpMXKZ3nuG6ow7a6zrUPy3x75vIlrZTAE8HUNCm1bcfOwTvAOvNSA0T7+ef2WUqxTw64EbL5tAtws/uuO2RL66lUn7ly3sPNaReg1mWfxYVJ1KrSchsJuK06SNL1tQPFWWHbrepjZ+rZxjHbDLZ9rEJJ4eWGSROOjzVBwirCs2muScCtBbjt7e2F7e3tcPfu3fDHHwbcYHTSTd+83NqAmxFx3wFTHl8VtKgOpAFpYBU1gGe+LebtTNjGMb3oeeTfHYRt9VCFJ0/2wrNnR9+/lB5VwO3evc3q+WnQzQAVOpsRutU7/GlnnR30tLzPeg6+pGXTdoAJiAjcmtIcZFvGsqZrnHUb67NPe6Rt6ddLOknhUbqeQjYPs0p5/xsP2jx88/vgOPRQM481ert1TzGWGydhiCnCSbst8dwIvbunHow355s94NBGdp+XPBSXp3w6rzza6V3TMqzqc98s6r4CbgJS7UBqletodtiWhpHWZyN9G758+VTBtvPzNxVsOzw8lGdbA2OZBlot828E3FrEAC+3R48eVV5uAG7e6IQRYMAN4S8W9sIQFoYP+dBS5emyq1RakAakgXXRQIRtFk56s3pfEKIADgGc+XFBMFECQkkZqgDgdnLyrPpairFFd3cfhu3trWqGafwWoaiAKujsGXRDiKktJThSKgfUKG3Llft3Ypd8lw4pARHrqG+6aMCt7/nPsj/rrpQ21X+u/XJtnitL4Vq67qEY8yXIlpZz/3hMAiyC5RjmOS1wswkTMEtpDrZdWzDYFsN2Dcrl4RvB+mqkywMIc/dRU9m4QJHRODYDscZwW2WopGvLQ0UP29KPobBDpwsjffr0SQXW4M32+fPH8OnTh4DJEk5PT8PR0ZFCSFv4yjLDs2nOXcCtRRAg1HAXffjwYdWhoaGJl2cduNnMPwbczFNB0G1dOtS6TsEjaUAayGmgDtsI3ACEAFWaYNve3m6AQYeQhOfPj6vl5OR5Bd6Ojg4rT7etrfuVpxveNYBu6EzhIxDeT/auQsqFnfIyUItAo7wP34FMmzqSuW0APiUYlJbPAp4WB7rVvRlnuaa236b113WdEC5tL7Zxe0rwlU8JzNI0BWuldYZyen3W8zG8lMeAlxvHZLOQ0bKHGz3iojebjQXH9SbPtmm82Zo911KY1nWdHm2rnAq6TQfnDLbRQcDGCtUspXk4I2i1WvUyPmyDZxsmSbAJEgy2acy2pwKOCV8ScEsqJKWWuGmePHkcdna2L2eEg/EJw9RefJw4IfVyi+O5LdLYMTqX+pcM1YfqQxqQBsbXAN4Hk7Nr4n8BKhFWjHFB6Nn2+PGjcHj4tJokAWO3cXn79jy8e/c2vHnzOjx+jOEO7le/Q6hDhG7e242wjSmhm63jPRZhSlPH3n6XApm2db4jCXSYMrypnFqYbJw4wU+i0DVv4+Kxc3nVaYRlXc+//34RsMUOdrmO6/uwbZC2tWtX3RgUozfaZNoEstJtAFsAdnXQZoAPAIvl2MdDN8K0rikhG4+RpjyvaUAbfzMOcKuPzbgaXm2rDA9z1zYeUMR9nQI3++Bj7ya+i/g+8mOtatiLVRz2Yt2uaTjPNsxGenZ2Et6/f1uBNkyQcH6OCRI0G2nKULQewaOAWwtwg1geP34cHjzYqcJ+0IFgBwVGp3+J0aD2X9bH78ips6w6lgakAWlgUTWQGyCf58rODSZIwGzYCBU9OHga4MkGgw4zXL169Sq8fPkyvH79qgpb+PbtaxW6sL//uAJuGM8NX6QjdDPvOcAXgycRoERvt9ix4/usDAEI6exDUxcYw33w/+nSFQDh/GcFbngnXzVo4/+bfTDrNTX/fhbghnaJbRX1wbZM06gb6CMPa9uBGyBal3HRogdbCt38fw8L3Uqzpdr5Ep5Nk/pzHjIvyJaDWMtW1n7vpfdil3X0XQjc4nPRPgJZZI59/LF3UoQTHItUqepk2TUAbcelbjOn/XZ8wOSHUMwWv7OzdTnEB2wzfPxEGOnHj+8F2zpwFIG3p0HArUUoGMMNHm6YGQ5j5uAmhFFDYxMvOhip1jmIoSPpzcsOltL6Q071ofqQBqSBVdWAwTZOlMDOTfRqAyi7d2/j0rPt8PCgAmsfPnwIFxcX4eXLFxVwe/XqZeXV9uef38I//vH3AOiGcFMYgfCKi9DNZkTF/968WQdveE/99huX2Knju6wt7dKp8/sQ3nQHbN7jahgPt9ixvHrwZsDNwn5nA4ll6DYrcJsNuuXBWxN0iyGmTdAtesY1wTaCqxx0g9daVw837pd6tnHdAGE8p/7ALQ8nef6zpAJuywbXSucbn8/+mTpLnt7Gvq+S9lMII5YdrOj8BQdTDVDbltZt7sn7ALCtPnkVx9M9PX1+CdsA3ADe8GH0+PhYEyS08JR1h24Cbh0FAq8DLBgzBy89M4oMvBG4+RdZNPTZyaLbtlKOc6dUWpAGpIFV1oA35JAHWITBh3AdhJAClDGMFB92ANa+ffsW/vWvf1azXQG4wZhDSClmvjLg9rfw9evngLCGhw93Ki83Qjd4ygHi3blzp/ov/B/+l7DHAxkCsWk7cfx9U9oM2wyqxXOqr88GpeLHL157LqX3WZc09/vhy8owjfVRqq9u5R5qTuab2rJJJ9FzsgyTCMIm0zZ4FcNF+dtJOBz/l/sgNaBnMM+AWX1sNg/i6vm8dxuOESFhnKiha5k/tyHzEdLFj8GTdTT9NoG8EhhbnvI8cLNxRP27Ce+nFFZoXXWyzBroB9uifUbPNsxGCnvLwzbYYBcXby5nj9eYbTF0ct3BWun6Bdw6ADfcSJhx5Nmz4+9juWH2NzPwzBCJXm4wer0Rbob85Ng9aUdM66ojaUAakAZWQwOTEBGgzb6aArbBqw3GHD7gYHxQjNkG2Pb586fw97//rVqQB2QDbMM2zH717duXyrvtw4d3lQEIQxCzmcLTDeO5ISwVx7YQU4zRYmO7peAN8CYCGh9K2C3fDNIIctrhESHSZDo/j7TJtpqE4HZfzu+cSgAw2haz1G3+t6YHtl0+LQG5COPKAMIAUARjERJ1KcvDIg+C/PHqMMuDsUlPOu+5xnwu7QrVcvuZF9wkOKyf5/Tb/QfgIUHbuh7L62p18rGfYs9b/zyzj0H2QcjeVXhfaVEdrJoGoHEu3t6m9tMwUthYcTZShpF+CJiZFLORYlIrwTbBthJk8+UCbj2B28OHDyqgZgYmjUt7kcEYZScmGsZ8qa1GR9I/oJRXm0oD0oA0kNcAQY4ZrPGrKUNIAckAy2DQYYKEFLZ9+PC+Murg5Ybx2wDcMO08YNubN6+q3wDUIdSB4A3QzXu7wYsOgC8FbwQ69p7KA5hJCNZvP/7HNB5ZkREAABZzSURBVCnrbh5p1w7FPM6l7T/sXqNNMXw6TZsTvpoHDWyh8jI9vMiH2Pn/Kh0bMKoOtpo96nLADGX1Y6THLK3bf3kYOE4+DyTXFZgNcd0lPS1vud1D7KfgXq8/mwXdur4LtN9ygkiCNqTebo2wrR5GCrsKY+XCsw0zkMJG+/IFnm0X4eTkJBweHmomzg4MxUOndc4LuHUQC0JJMbYObi6Q7L29vbCxsXEJ3uwFxi/CHHsmhrTgxvY3Om9uPbSX86GtdlO7SQPSQBcNAHTF8FGbGIFebfh4g7FBnzzZC8+eHVUg7c8/v4a//vVbNfMVxgZ5/fplePHitApbQGgp4Bs83jBoL35zdHRQeboBvBG62bhu8HYzjzd40pnXm4E3votykzl4I7RrvhkS2dfkLnVV2mceoSxoo/yC9luMcKJS/cxaTj34duza9uywdwG3BHOzpd4zk7aWgeDScQHlogce8vxQmk9LsKZ+jPSYufX68T0c7JPv879Nx+1znG771q+vrV5n3V5qF5V3h61sV4vEwX2TQnvv3Rs9geIzQmWqi2XVQNS2f7+hPS2M2ob58GGk5tn2vJoZ/tMnTJDw8fsECadV1Js82+TZ1gcgCrh1AG6oUBvDzaAbwNvDhw/D5uZmRcnzXm3R68E/oGc1jvV7dfSlAWlAGlhkDRDQAOLESRHgfYbw0QjaHlcfco6PD8PJybPKqMMgvPiK+v79u3B+/vo7YDsNp6cn1YLQUnxphfcbpqLHDFmYmv7Nm9cViMNxcLynT/fD48d7lxDOwk03A8d4Y8gpxnqz8U3KRnTUmp/hy/JDwLA86CoBsH7l8PCb5zLmtfQ99ixt48e88fZLOR87Mx7c+Tzh3Kxp9+gBgwl+f9pqlvIj6XBh1KWQ2xIM7FpeOq4v73Isv/9s+bwXI4FOczo9qBNc6w7XSnWFtkHbG3Qzx4D6PRn7Lh5MKK96WTUNlGAbJ0jgbKSAbbC5YHudnZ1pgoSO3KQPjFqHfQXcegoHsA3juUEcu7sPq0GvcdP6B5E3Sq2zEjsqsxjB+i07skqlBWlAGlhUDRgUAujB11LALoSOwogDBAMMOzoCZHvuPNZOq/BRgDaDbW+qMNLo0WYTJ2DckK9fv4R//vN/w3/+8+/w3//+J/znP/+6nLkUhiH2efXqRXj+/Lgae2Rvb7eaXIHjvMHDzsZ6M883Czu10NMS1InQaqOCdgB3WOA5N8SCehpjQXjtPJcxrmGaYw7RJh7OlnTRtXyoZ5UHgR4EY9yd+hKfDR4oT3p1ph4+k5DOA7s6mMj/NrfPpCdR99/a8RD+ZwvDfj08ZFmapufir6Wej+Hi/rjlfISVHvR1g3h5WNfkncdtzSAv52U4VNn0kLCrZ18JkA1ZbudiwE3QTQDN91vXKc8+Ot4NeIfhfYn3LGwkwjabIOEifPnyqfq4eX4u2LYOUGzMaxRw6wnc0BhwIwV429/fr0KC0HnBTUsD0IxLMwCjQYoOjS2x8zLfr+/6X9W3NCANSANja8AgFAw4wDaEeiI0Ad5n9FB79+5tBdaQwpB7/fp1BcoAy7D+6tWr8PLly+/LiwrM4beAcZipFLOYArb93//9t0oB4P72t79WMA5fYm2yBYQ9HFT/7cd6g4fdgwc7lbedh3AAcaUF12ELJmcYZsF/27JdAUlAySEXzOB6FcuQ1zDUsWJds867pbHd2f75tBvUxCQhk0sTUMT+fjtm9bUlBb+xnLCRUNhSP5ahfQC9ffv2xFAf7Ig1pbTz0rTpN35b+jus++35/KQHoe8ge0/Cer7LsbFPPL4/bjmfB4Z1iBeHVamXR7iXAsK29TIAnAw1ru97NYCQoBBpN1jYHez1BXEe/Nl5mWcn6ontEwGtYFRZ+6qbZayb+IyLIaQ+AgHvyDpsO6/GzEXUgc1GKs+2MWHUOhxbwG0K4EboBvBG6IaOit28NPxi6g1GwDktqgNpQBqQBlZTA4APABUw4DjoLkITEPoJWPaPf/y9Wv761z+rsdoA3QDasCBkAfANcA3ebYRuWMfECQwnxcC93759rRZ4vCEMlZMsILz05cuzaqBfjPOG8UfhVffkyePKww5edlj29h4FeL9hHDkYmvDYzi3YZgv3HSbFf+McAAOHXjAu3lUuVsfDX9cs9WT1jTrvt8T2pw7yadTOg0r30H7XBRDYFkBSy/vfxm07FSwmiESINuCxLRHYopxLBMQ2oQifu/fuYUbfaKcx70EdP5IyzX2s4LY0NY+76GkXvfxSb7xp12PkRN3zD//Z95iT55kes74+GdKfB4U54BfhHjvB/TvwdeBHYNSc5kFfHcyVwF0e2Hnvvrb80N5/3QDeJOiLEDACt0noJqjUX5Oqs0WsM3vG2HMIHzfwHIYjDJ7leOaj7473Cd5zBwf73ydIeFPZVBi2w8JIMRvpsWYjnZKXrANM63KNAm4zCIiebqjo3d3dsLW1VRmL9B6Ihl78mkxDUWk0jlUXqgtpQBoYTwPskM8vhWcVDDjMcAXohS+kAGTwTINXGsJBAd4QAsowUhh2gGU52AaPNwC3uLyu9sX+/A0nU0AoxPPnzy6XZ8+Oq6nrEcYK+Ib3li0cm/SqUniKH1ThtTi3MZbj46Pq2uedjnEtsx3T6hqz4dp4tGOl+1WnBR0XLoC93ZYnlTcmvEEn97dt+/tPgi2PK4AMiFxfDCZHqAywbEssA2j2iwFkAMMU7Hlo570Eo2036RVKoIcPrfTGg9cdQR7BHlN+kOV6tzQej8fNpfFY5nWb28fK6l6/ER7GMRO7QbxJcIcObh3WDbEegV930JeDf1Zmocb1oWHy8KAO+qJHWLm85LXXDvraIV83iNc8RqHBNsJIfx2TYJSAVKnqZjk0EJ8TeAbhGWagbaMaagIfRmF30lZDFALGzoVdho+a+AiK8XNhP8Bm6gJVtI8mUihpQMBtBuDmKxWeblh/9uxZ1YmAcYcvtAxpQR43dd+vy9q/39d41ZfqSxqQBuoa8J3r+eTx/AdsQ0gnABiMuHfvLiovtw8fbJw2eLYBsmFBCChgmnm0mWcbvdoA27gQuAGy4Tf2WwtBffHiRTWgL2YzPT0tLSfVdPaY0v6qF5wjBiAec0GdzH8Z95qmrS/TxPzb/flzAOBhlrxmn1fjIbb9B+oNUNovvi5RPwDV6FwBbtrM9IDT6EAQGhrwI+TDfQ54Z16i0fOT3n701oteeID+/Lhi3nz05OO+hH7139jvCAAB/yL0Y34S/tVDxJs8imPobgrpPCyMwK4O6Oj5F0FdHEJl+LK+EJDefnkYSM/DblDQd+Bjvhn65eFMHuh5LykPv/L5Zo++UkhvudwAIs6XHkERjrKelDbrSPWzePXDoZ3w/MIHDkQhMAIBtiKe57DVMCs87DMAN9hXgG0YPkqwTRDN855p8wJuAwE3NABuSgA3GGsAcPyiio4Xvvbi6zJuamzHTHLz/uqu/7sab4e+9Q6PGC2qA2lgSA0cB3h6zWtBxx1fSwHbXrw4vfRaY2cfUCxdMImChwZ5uGCzlaawCvvit3j/LMPir3PMfKkOxy4f85pmPfa89YFQnCGW9vPO/4/d87gfee/ENNUB/gPniomxbPFeodEr0Axug3DwuCOA8+njxzGEG152tAeRcj/z1tuv7EX7aGvHBORDR88m6cp7f9ZBIIEgPAvxW3o0GjCE/QnPQZ6rnUv8+BCBoYWVT0K/GKI7Cf3q4/rVIV8zBIzegGUYGAEgPQZzaT8PPgJCpGUgGMEeO+xIu3n6cb88fOgL9wjA2tM83KM3UhPk4z74D54fr9Vfv/J5XaheFrVe8HGgDtrgCAPQhmcinpXoj2OSKUw2BdBG2MYJEqcFLPqdQJ3XgIDbgMANFWuhOnQ9hfGDm/mo+gKLDhWIOTpa1vGywbBtrB7lVQ9RA3jwa1EdSANDaeBlBb3gNTbPhbOMApDh+V8P77QONTvWSlUfq6YB2kNDppN1ZHCp6T8igCprLP97g2zeaM7lAcuaFv6G/4FriCHCBvcIJQHr8byAZ2Y6hqN5uCLs/FW1Hfv5BR57+A09YfmsM+9X7AswDyhvcJJQ0c6F9WgefYRzgIMeFiJvYboAdnVvakRxwLsvAjx4/U16ANa371ZDstAr0Kd1rz+O82eRI9EDkDCQnn4+9cAvzlhsoM+8+spAb3IG5ujh1y2k14M95suArwn+cdIPgrxSmgd88LoiRMulda8sO7YBJIMVuG5ORqJUdbFMGsC9Dm82PJswBqpBtqffIduzyw+feDZywUctPBvxvOazW6ng2awaEHAbGLilDYIb1jzaoncFDB5+pU6/sGp9/iEvqnPVuTQgDYyhATznvdcMO/7mnSIDJn1fal2aWFUNELYhtefAJPwzW/GogmL+eWQdwTpcw3bakT5FeYRw1onkvuYlyDEdMaFKeg5xfEdrB4JEjp1HLzl49cWyGHJb97TDc84vuL7oZWzeuGYPm01sXr4W1osP1dif5wggyX39hwvbxyaGMY/BSY/D6NEXx+sD2JsEejazscE8C/2d9OiLQI/bcuG9fobfutefgb+yd18uvBdefW1efICA04X61n9HoITzMM/DbrMQR6A53f4ejipf14zqY5r6wH2JjwLwYMOwHphx9M8/v1azuWOID3zQfvMGQ3a8rCIR+FFUsE12yBh2iIDbyMANjWYGVjQcaEDY10WGLihVfUgD0oA0sEoa4LMeqXW4u3nMjPGy1zFlREoDV68BA1AEW5MpYVyX56B/vjDf9Dvug//wANDn8xqJIA1wjd582Dd3PbwG/B+AGM4JAA3AjPDQQur9mHrm4Q8vPexjwDGG2dPrz7z1ME6ieewZpHvuQoFpaxNs4lpxnnYNTZ57EczFcFsbo2/SS68+8UbcP/UG9Ov8Terhl1+Ps0anIb4EfTG1idkI+epwohnwcVZtg4YWHozjAjoi9I5jDI6Xxuv03o3Kq15m0QDuKdxvHJvt69fP4Z///Ef473//XaWfPn24jHawWd1Pqo8BeF7heZh/Dl79+0PntbxtIOA2B+CmG2R5bxC1ndpOGpAGpAFpQBqQBqSBSQ0Q1kWYR+BlqQdu8LAzkBa98AjebFILm/iF+/iUwI0TXdCLD/vQkzh6vvHDFYEfziWGzALA0SvPj51nMJGeewYWrc3rwBH74RjpMXGtAIvmSRhnigZoZBgvPfewr9WZnVesJ3gg4rzj+cbzsll5bXxAC/UlxIMnD8LmGNabeu/FENz6bN2c0A2AAr8B5MAxAQoRTmyzBudmDp6sE9bpdOmktlbhfjPYSzCtdJ71gfsTzxd4s/3557cKtP373/8Kf//7X6vZ4e1ZEof7wD0o2Laa9+EiPEsE3ATcRPKlAWlAGpAGpAFpQBqQBqSBQTUQO9h1r7oSoEM5IZ5Pc/v77fl8BBx9O1w8Xu5/zWOvPkkHYSLGZ45j771y4+nZLNTRQ49eejaBDsfsw/h8Np6xef/B24/AbhIoMizYvPgIusyLL4b9cpIOD+roeYd97XdPK8CGdcJE80qMobwM6R0ujR6MPix6lfLwwNRyNXWAewfhojaj+8XljPAowzaEqdefN4JNfZ+T2r+7ZgTcZFwNalzp5ut+86muVFfSgDQgDUgD0oA0IA0slgYI3NI0B+BQRggH8EZg5D306IkXvfHqM0rXf0MQRc84euwhpWecTwkzDTCaliY90HKhwHbudv7wCMLxOYEHAB/g2njAiKHDSlOtaH0YTQCswRuW9x/uT4BkgjY9dxfrubvK7SHgJuAm4CYNSAPSgDQgDUgD0oA0IA1IAyuuAQJCP95fhGwGArmOlCGySuuQVPWx2PUB7ULjhOarDHN0bYsPDgXcVvzFqptw8W9CtZHaSBqQBqQBaUAakAakAWlgHhoghPApQJwW1cEqaQD6nsf9pP/Qc7tNAwJuAm56GEkD0oA0IA1IA9KANCANSAPSgDQgDUgD0oA0IA0MqAEBtwErs41uarsIuDQgDUgD0oA0IA1IA9KANCANSAPSgDQgDUgDq68BATcBNxFsaUAakAakAWlAGpAGpAFpQBqQBqQBaUAakAakgQE1IOA2YGWKUK8+oVYbq42lAWlAGpAGpAFpQBqQBqQBaUAakAakAWmgTQMCbgJuItjSgDQgDUgD0oA0IA1IA9KANCANSAPSgDQgDUgDA2pAwG3Aymyjm9ouAi4NSAPSgDQgDUgD0oA0IA1IA9KANCANSAPSwOprQMBNwE0EWxqQBqQBaUAakAakAWlAGpAGpAFpQBqQBqQBaWBADQi4DViZItSrT6jVxmpjaUAakAakAWlAGpAGpAFpQBqQBqQBaUAaaNOAgJuAmwi2NCANSAPSgDQgDUgD0oA0IA1IA9KANCANSAPSwIAaEHAbsDLb6Ka2i4BLA9KANCANSAPSgDQgDUgD0oA0IA1IA9KANLD6GhBwE3ATwZYGpAFpQBqQBqQBaUAakAakAWlAGpAGpAFpQBoYUAMCbgNWpgj16hNqtbHaWBqQBqQBaUAakAakAWlAGpAGpAFpQBqQBto0IOAm4CaCLQ1IA9KANCANSAPSgDQgDUgD0oA0IA1IA9KANDCgBgTcBqzMNrqp7SLg0oA0IA1IA9KANCANSAPSgDQgDUgD0oA0IA2svgYE3ATcRLClAWlAGpAGpAFpQBqQBqQBaUAakAakAWlAGpAGBtSAgNuAlSlCvfqEWm2sNpYGpAFpQBqQBqQBaUAakAakAWlAGpAGpIE2DQi4CbiJYEsD0oA0IA1IA9KANCANSAPSgDQgDUgD0oA0IA0MqAEBtwErs41uarsIuDQgDUgD0oA0IA1IA9KANCANSAPSgDQgDUgDq68BATcBNxFsaUAakAakAWlAGpAGpAFpQBqQBqQBaUAakAakgQE1IOA2YGWKUK8+oVYbq42lAWlAGpAGpAFpQBqQBqQBaUAakAakAWmgTQMCbgJuItjSgDQgDUgD0oA0IA1IA9KANCANSAPSgDQgDUgDA2pAwG3Aymyjm9ouAi4NSAPSgDQgDUgD0oA0IA1IA9KANCANSAPSwOprQMBNwE0EWxqQBqQBaUAakAakAWlAGpAGpAFpQBqQBqQBaWBADQi4DViZItSrT6jVxmpjaUAakAakAWlAGpAGpAFpQBqQBqQBaUAaaNOAgJuAmwi2NCANSAPSgDQgDUgD0oA0IA1IA9KANCANSAPSwIAaEHAbsDLb6Ka2i4BLA9KANCANSAPSgDQgDUgD0oA0IA1IA9KANLD6GhBwE3ATwZYGpAFpQBqQBqQBaUAakAakAWlAGpAGpAFpQBoYUAMCbgNWpgj16hNqtbHaWBqQBqQBaUAakAakAWlAGpAGpAFpQBqQBto0IOAm4CaCLQ1IA9KANCANSAPSgDQgDUgD0oA0IA1IA9KANDCgBgTcBqzMNrqp7SLg0oA0IA1IA9KANCANSAPSgDQgDUgD0oA0IA2svgYE3ATcRLClAWlAGpAGpAFpQBqQBqQBaUAakAakAWlAGpAGBtSAgNuAlSlCvfqEWm2sNpYGpAFpQBqQBqQBaUAakAakAWlAGpAGpIE2DQi4CbiJYEsD0oA0IA1IA9KANCANSAPSgDQgDUgD0oA0IA0MqAEBtwErs41uarsIuDQgDUgD0oA0IA1IA9KANCANSAPSgDQgDUgDq6+B/w+Edm/Et/VqHAAAAABJRU5ErkJggg==;" vertex="1" parent="1">
                    <mxGeometry x="516" y="97.97" width="334" height="142.03" as="geometry"/>
                </mxCell>
                <mxCell id="13" value="" style="endArrow=none;html=1;fontSize=16;fontColor=#000000;strokeColor=#000000;strokeWidth=2;exitX=0.401;exitY=0.507;exitDx=0;exitDy=0;exitPerimeter=0;" edge="1" parent="1" source="14">
                    <mxGeometry width="50" height="50" relative="1" as="geometry">
                        <mxPoint x="629.8914" y="170" as="sourcePoint"/>
                        <mxPoint x="490" y="170" as="targetPoint"/>
                    </mxGeometry>
                </mxCell>
            </root>
        </mxGraphModel>
    </diagram>
</mxfile>